<?xml version="1.0" encoding="utf-8" standalone="no"?>
<!DOCTYPE svg PUBLIC "-//W3C//DTD SVG 1.1//EN"
  "http://www.w3.org/Graphics/SVG/1.1/DTD/svg11.dtd">
<svg xmlns:xlink="http://www.w3.org/1999/xlink" width="774pt" height="216pt" viewBox="0 0 774 216" xmlns="http://www.w3.org/2000/svg" version="1.1">
 <metadata>
  <rdf:RDF xmlns:dc="http://purl.org/dc/elements/1.1/" xmlns:cc="http://creativecommons.org/ns#" xmlns:rdf="http://www.w3.org/1999/02/22-rdf-syntax-ns#">
   <cc:Work>
    <dc:type rdf:resource="http://purl.org/dc/dcmitype/StillImage"/>
    <dc:date>2024-12-10T13:16:38.199273</dc:date>
    <dc:format>image/svg+xml</dc:format>
    <dc:creator>
     <cc:Agent>
      <dc:title>Matplotlib v3.9.2, https://matplotlib.org/</dc:title>
     </cc:Agent>
    </dc:creator>
   </cc:Work>
  </rdf:RDF>
 </metadata>
 <defs>
  <style type="text/css">*{stroke-linejoin: round; stroke-linecap: butt}</style>
 </defs>
 <g id="figure_1">
  <g id="patch_1">
   <path d="M 0 216 
L 774 216 
L 774 0 
L 0 0 
z
" style="fill: #ffffff"/>
  </g>
  <g id="axes_1">
   <g id="patch_2">
    <path d="M 206.745871 116.76 
C 206.745871 104.685606 203.076947 92.891549 196.227518 82.947893 
C 189.37809 73.004236 179.666209 65.372712 168.384753 61.069255 
C 157.103298 56.765798 144.776121 55.990238 133.044257 58.84582 
C 121.312393 61.701402 110.72061 68.055528 102.678921 77.062315 
L 147.140798 116.76 
z
" style="fill: #1f77b4"/>
   </g>
   <g id="patch_3">
    <path d="M 102.678921 77.062315 
C 94.083864 86.68888 88.843374 98.851318 87.750024 111.71018 
C 86.656673 124.569042 89.768508 137.441654 96.614893 148.381158 
L 147.140798 116.76 
z
" style="fill: #ffbb78"/>
   </g>
   <g id="patch_4">
    <path d="M 96.614893 148.381158 
C 102.210058 157.3214 110.079127 164.618448 119.415434 169.524277 
C 128.751742 174.430106 139.224977 176.771151 149.761521 176.307431 
L 147.140798 116.76 
z
" style="fill: #d62728"/>
   </g>
   <g id="patch_5">
    <path d="M 149.761521 176.307431 
C 154.068425 176.117881 158.342082 175.46163 162.507426 174.350203 
C 166.672769 173.238776 170.705267 171.678721 174.534088 169.697438 
L 147.140798 116.76 
z
" style="fill: #8c564b"/>
   </g>
   <g id="patch_6">
    <path d="M 174.534088 169.697438 
C 178.307314 167.744925 181.860995 165.394578 185.134501 162.686498 
C 188.408008 159.978418 191.382616 156.928094 194.007578 153.587567 
L 147.140798 116.76 
z
" style="fill: #f7b6d2"/>
   </g>
   <g id="patch_7">
    <path d="M 194.007578 153.587567 
C 195.898231 151.18152 197.600799 148.633448 199.100174 145.965958 
C 200.59955 143.298467 201.891286 140.51947 202.963923 137.653622 
L 147.140798 116.76 
z
" style="fill: #bcbd22"/>
   </g>
   <g id="patch_8">
    <path d="M 202.963923 137.653622 
C 204.211901 134.319301 205.158635 130.879862 205.792764 127.376574 
C 206.426893 123.873286 206.745871 120.320217 206.745871 116.76 
L 147.140798 116.76 
z
" style="fill: #9edae5"/>
   </g>
   <g id="matplotlib.axis_1"/>
   <g id="matplotlib.axis_2"/>
   <g id="text_1">
    <!-- historical 38.4% -->
    <g transform="translate(170.509149 58.082993) scale(0.1 -0.1)">
     <defs>
      <path id="MicrosoftSansSerif-68" d="M 1025 2894 
Q 1466 3391 2016 3391 
Q 3138 3391 3138 2169 
L 3138 0 
L 2547 0 
L 2547 2144 
Q 2547 2550 2401 2728 
Q 2256 2906 1925 2906 
Q 1475 2906 1025 2375 
L 1025 0 
L 434 0 
L 434 4581 
L 1025 4581 
L 1025 2894 
z
" transform="scale(0.015625)"/>
      <path id="MicrosoftSansSerif-69" d="M 1025 0 
L 434 0 
L 434 3316 
L 1025 3316 
L 1025 0 
z
M 1025 3944 
L 434 3944 
L 434 4581 
L 1025 4581 
L 1025 3944 
z
" transform="scale(0.015625)"/>
      <path id="MicrosoftSansSerif-73" d="M 1619 -78 
Q 259 -78 197 991 
L 788 991 
Q 794 384 1613 384 
Q 1978 384 2170 536 
Q 2363 688 2363 916 
Q 2363 1141 2175 1233 
Q 1988 1325 1402 1472 
Q 816 1619 545 1800 
Q 275 1981 275 2438 
Q 275 2850 611 3120 
Q 947 3391 1509 3391 
Q 2813 3391 2841 2463 
L 2253 2463 
Q 2222 2931 1550 2931 
Q 1253 2931 1058 2818 
Q 863 2706 863 2491 
Q 863 2297 1013 2211 
Q 1163 2125 1764 1979 
Q 2366 1834 2658 1640 
Q 2950 1447 2950 972 
Q 2950 519 2589 220 
Q 2228 -78 1619 -78 
z
" transform="scale(0.015625)"/>
      <path id="MicrosoftSansSerif-74" d="M 1722 -6 
Q 1528 -44 1300 -44 
Q 938 -44 769 86 
Q 600 216 559 419 
Q 519 622 519 972 
L 519 2853 
L 109 2853 
L 109 3316 
L 519 3316 
L 519 4141 
L 1106 4141 
L 1106 3316 
L 1644 3316 
L 1644 2853 
L 1106 2853 
L 1106 941 
Q 1106 600 1192 508 
Q 1278 416 1428 416 
Q 1581 416 1722 441 
L 1722 -6 
z
" transform="scale(0.015625)"/>
      <path id="MicrosoftSansSerif-6f" d="M 1778 3391 
Q 2488 3391 2911 2937 
Q 3334 2484 3334 1656 
Q 3334 831 2911 376 
Q 2488 -78 1778 -78 
Q 1072 -78 648 376 
Q 225 831 225 1656 
Q 225 2484 648 2937 
Q 1072 3391 1778 3391 
z
M 1778 384 
Q 2200 384 2462 704 
Q 2725 1025 2725 1656 
Q 2725 2291 2462 2611 
Q 2200 2931 1778 2931 
Q 1356 2931 1093 2611 
Q 831 2291 831 1656 
Q 831 1025 1093 704 
Q 1356 384 1778 384 
z
" transform="scale(0.015625)"/>
      <path id="MicrosoftSansSerif-72" d="M 2156 2778 
Q 2031 2816 1797 2816 
Q 1347 2816 1025 2344 
L 1025 0 
L 434 0 
L 434 3316 
L 1025 3316 
L 1025 2853 
Q 1397 3391 1888 3391 
Q 2013 3391 2156 3366 
L 2156 2778 
z
" transform="scale(0.015625)"/>
      <path id="MicrosoftSansSerif-63" d="M 1778 -78 
Q 1072 -78 648 376 
Q 225 831 225 1656 
Q 225 2484 648 2937 
Q 1072 3391 1778 3391 
Q 2322 3391 2686 3116 
Q 3050 2841 3116 2322 
L 2509 2322 
Q 2497 2619 2286 2775 
Q 2075 2931 1778 2931 
Q 1356 2931 1093 2611 
Q 831 2291 831 1656 
Q 831 1025 1093 704 
Q 1356 384 1778 384 
Q 2075 384 2286 540 
Q 2497 697 2509 991 
L 3116 991 
Q 3050 472 2686 197 
Q 2322 -78 1778 -78 
z
" transform="scale(0.015625)"/>
      <path id="MicrosoftSansSerif-61" d="M 2534 872 
L 2534 1606 
L 2131 1606 
Q 850 1606 850 909 
Q 850 656 1037 520 
Q 1225 384 1544 384 
Q 1834 384 2106 515 
Q 2378 647 2534 872 
z
M 2534 341 
Q 2084 -78 1375 -78 
Q 881 -78 562 189 
Q 244 456 244 878 
Q 244 2041 2247 2041 
L 2534 2041 
Q 2534 2397 2496 2558 
Q 2459 2719 2287 2825 
Q 2116 2931 1741 2931 
Q 953 2931 928 2369 
L 341 2369 
Q 406 3391 1772 3391 
Q 2409 3391 2765 3137 
Q 3122 2884 3122 2144 
L 3122 0 
L 2534 0 
L 2534 341 
z
" transform="scale(0.015625)"/>
      <path id="MicrosoftSansSerif-6c" d="M 1025 0 
L 434 0 
L 434 4581 
L 1025 4581 
L 1025 0 
z
" transform="scale(0.015625)"/>
      <path id="MicrosoftSansSerif-20" d="M 0 0 
L 0 0 
z
" transform="scale(0.015625)"/>
      <path id="MicrosoftSansSerif-33" d="M 2413 2516 
Q 2831 2406 3057 2090 
Q 3284 1775 3284 1350 
Q 3284 716 2850 319 
Q 2416 -78 1772 -78 
Q 1125 -78 719 275 
Q 313 628 281 1209 
L 891 1209 
Q 891 872 1119 628 
Q 1347 384 1772 384 
Q 2184 384 2429 650 
Q 2675 916 2675 1338 
Q 2675 1769 2420 2001 
Q 2166 2234 1678 2234 
L 1453 2234 
L 1453 2694 
L 1588 2694 
Q 2444 2694 2444 3481 
Q 2444 3828 2256 4012 
Q 2069 4197 1728 4197 
Q 1028 4197 947 3469 
L 341 3469 
Q 406 4050 784 4354 
Q 1163 4659 1716 4659 
Q 2328 4659 2690 4326 
Q 3053 3994 3053 3469 
Q 3053 3175 2895 2914 
Q 2738 2653 2413 2516 
z
" transform="scale(0.015625)"/>
      <path id="MicrosoftSansSerif-38" d="M 2338 2406 
Q 3291 1966 3291 1216 
Q 3291 638 2873 280 
Q 2456 -78 1778 -78 
Q 1103 -78 686 280 
Q 269 638 269 1216 
Q 269 1966 1222 2406 
Q 447 2853 447 3525 
Q 447 4022 814 4340 
Q 1181 4659 1778 4659 
Q 2378 4659 2743 4340 
Q 3109 4022 3109 3525 
Q 3109 2853 2338 2406 
z
M 1778 2650 
Q 2503 2975 2503 3525 
Q 2503 3841 2311 4019 
Q 2119 4197 1778 4197 
Q 1441 4197 1248 4019 
Q 1056 3841 1056 3525 
Q 1056 2975 1778 2650 
z
M 2681 1216 
Q 2681 1513 2465 1727 
Q 2250 1941 1778 2150 
Q 1309 1941 1093 1727 
Q 878 1513 878 1216 
Q 878 828 1125 606 
Q 1372 384 1778 384 
Q 2184 384 2432 606 
Q 2681 828 2681 1216 
z
" transform="scale(0.015625)"/>
      <path id="MicrosoftSansSerif-2e" d="M 1209 0 
L 569 0 
L 569 641 
L 1209 641 
L 1209 0 
z
" transform="scale(0.015625)"/>
      <path id="MicrosoftSansSerif-34" d="M 3263 1094 
L 2644 1094 
L 2644 0 
L 2053 0 
L 2053 1094 
L 97 1094 
L 97 1613 
L 2181 4641 
L 2644 4641 
L 2644 1613 
L 3263 1613 
L 3263 1094 
z
M 2053 1613 
L 2053 3713 
L 647 1613 
L 2053 1613 
z
" transform="scale(0.015625)"/>
      <path id="MicrosoftSansSerif-25" d="M 1441 4659 
Q 1900 4659 2192 4334 
Q 2484 4009 2484 3444 
Q 2484 2878 2192 2553 
Q 1900 2228 1441 2228 
Q 981 2228 692 2553 
Q 403 2878 403 3444 
Q 403 4009 692 4334 
Q 981 4659 1441 4659 
z
M 1441 2613 
Q 1984 2613 1984 3444 
Q 1984 4275 1441 4275 
Q 903 4275 903 3444 
Q 903 2613 1441 2613 
z
M 4319 4581 
L 1819 0 
L 1363 0 
L 3866 4581 
L 4319 4581 
z
M 4244 2356 
Q 4703 2356 4995 2029 
Q 5288 1703 5288 1141 
Q 5288 575 4995 248 
Q 4703 -78 4244 -78 
Q 3784 -78 3495 247 
Q 3206 572 3206 1141 
Q 3206 1706 3495 2031 
Q 3784 2356 4244 2356 
z
M 4244 306 
Q 4788 306 4788 1141 
Q 4788 1972 4244 1972 
Q 3706 1972 3706 1141 
Q 3706 306 4244 306 
z
" transform="scale(0.015625)"/>
     </defs>
     <use xlink:href="#MicrosoftSansSerif-68"/>
     <use xlink:href="#MicrosoftSansSerif-69" x="55.615234"/>
     <use xlink:href="#MicrosoftSansSerif-73" x="78.417969"/>
     <use xlink:href="#MicrosoftSansSerif-74" x="128.417969"/>
     <use xlink:href="#MicrosoftSansSerif-6f" x="156.201172"/>
     <use xlink:href="#MicrosoftSansSerif-72" x="211.816406"/>
     <use xlink:href="#MicrosoftSansSerif-69" x="245.117188"/>
     <use xlink:href="#MicrosoftSansSerif-63" x="267.919922"/>
     <use xlink:href="#MicrosoftSansSerif-61" x="317.919922"/>
     <use xlink:href="#MicrosoftSansSerif-6c" x="373.535156"/>
     <use xlink:href="#MicrosoftSansSerif-20" x="396.337891"/>
     <use xlink:href="#MicrosoftSansSerif-33" x="422.900391"/>
     <use xlink:href="#MicrosoftSansSerif-38" x="478.515625"/>
     <use xlink:href="#MicrosoftSansSerif-2e" x="534.130859"/>
     <use xlink:href="#MicrosoftSansSerif-34" x="561.914062"/>
     <use xlink:href="#MicrosoftSansSerif-25" x="617.529297"/>
    </g>
   </g>
   <g id="text_2">
    <!-- SRESA1B 20.5% -->
    <g transform="translate(4.667197 113.788011) scale(0.1 -0.1)">
     <defs>
      <path id="MicrosoftSansSerif-53" d="M 2241 -78 
Q 1272 -78 792 356 
Q 313 791 288 1472 
L 872 1472 
Q 919 959 1298 714 
Q 1678 469 2216 469 
Q 2725 469 3036 678 
Q 3347 888 3347 1247 
Q 3347 1625 3025 1797 
Q 2703 1969 1917 2136 
Q 1131 2303 789 2600 
Q 447 2897 447 3391 
Q 447 3947 892 4303 
Q 1338 4659 2075 4659 
Q 2850 4659 3325 4300 
Q 3800 3941 3828 3284 
L 3238 3284 
Q 3147 4116 2100 4116 
Q 1594 4116 1316 3925 
Q 1038 3734 1038 3419 
Q 1038 3131 1261 2987 
Q 1484 2844 2095 2709 
Q 2706 2575 3065 2444 
Q 3425 2313 3681 2036 
Q 3938 1759 3938 1294 
Q 3938 703 3467 312 
Q 2997 -78 2241 -78 
z
" transform="scale(0.015625)"/>
      <path id="MicrosoftSansSerif-52" d="M 4331 0 
L 3675 0 
L 3244 1222 
Q 3128 1547 2859 1753 
Q 2591 1959 2241 1959 
L 1119 1959 
L 1119 0 
L 513 0 
L 513 4581 
L 2541 4581 
Q 3072 4581 3409 4478 
Q 3747 4375 3959 4044 
Q 4172 3713 4172 3297 
Q 4172 2822 3897 2503 
Q 3622 2184 3144 2088 
L 3144 2075 
Q 3622 1922 3872 1247 
L 4331 0 
z
M 1119 2503 
L 2472 2503 
Q 3038 2503 3292 2681 
Q 3547 2859 3547 3297 
Q 3547 4078 2566 4078 
L 1119 4078 
L 1119 2503 
z
" transform="scale(0.015625)"/>
      <path id="MicrosoftSansSerif-45" d="M 3928 0 
L 513 0 
L 513 4581 
L 3822 4581 
L 3822 4038 
L 1119 4038 
L 1119 2638 
L 3647 2638 
L 3647 2094 
L 1119 2094 
L 1119 544 
L 3928 544 
L 3928 0 
z
" transform="scale(0.015625)"/>
      <path id="MicrosoftSansSerif-41" d="M 2881 1875 
L 2075 4000 
L 1306 1875 
L 2881 1875 
z
M 4275 0 
L 3591 0 
L 3059 1394 
L 1141 1394 
L 634 0 
L -6 0 
L 1753 4581 
L 2406 4581 
L 4275 0 
z
" transform="scale(0.015625)"/>
      <path id="MicrosoftSansSerif-31" d="M 2400 0 
L 1813 0 
L 1813 3603 
Q 1456 3366 709 3366 
L 709 3828 
Q 1788 3828 1947 4659 
L 2400 4659 
L 2400 0 
z
" transform="scale(0.015625)"/>
      <path id="MicrosoftSansSerif-42" d="M 3938 1331 
Q 3938 688 3500 344 
Q 3063 0 2228 0 
L 513 0 
L 513 4581 
L 2144 4581 
Q 2875 4581 3294 4268 
Q 3713 3956 3713 3413 
Q 3713 2750 3053 2431 
Q 3497 2319 3717 2017 
Q 3938 1716 3938 1331 
z
M 1119 2663 
L 2138 2663 
Q 2641 2663 2878 2823 
Q 3116 2984 3116 3359 
Q 3116 3697 2884 3867 
Q 2653 4038 2081 4038 
L 1119 4038 
L 1119 2663 
z
M 1119 544 
L 2222 544 
Q 3309 544 3309 1331 
Q 3309 1741 3057 1930 
Q 2806 2119 2144 2119 
L 1119 2119 
L 1119 544 
z
" transform="scale(0.015625)"/>
      <path id="MicrosoftSansSerif-32" d="M 3231 0 
L 197 0 
Q 197 419 456 800 
Q 716 1181 1408 1739 
Q 2100 2297 2356 2630 
Q 2613 2963 2613 3384 
Q 2613 3763 2394 3980 
Q 2175 4197 1778 4197 
Q 1434 4197 1190 3978 
Q 947 3759 916 3334 
L 306 3334 
Q 356 3938 751 4298 
Q 1147 4659 1791 4659 
Q 2475 4659 2847 4292 
Q 3219 3925 3219 3372 
Q 3219 2872 2944 2489 
Q 2669 2106 1851 1425 
Q 1034 744 1019 544 
L 3231 544 
L 3231 0 
z
" transform="scale(0.015625)"/>
      <path id="MicrosoftSansSerif-30" d="M 1778 4659 
Q 3272 4659 3272 2284 
Q 3272 -78 1778 -78 
Q 288 -78 288 2284 
Q 288 4659 1778 4659 
z
M 1778 384 
Q 2213 384 2438 803 
Q 2663 1222 2663 2284 
Q 2663 3350 2438 3773 
Q 2213 4197 1778 4197 
Q 1347 4197 1122 3773 
Q 897 3350 897 2284 
Q 897 1222 1122 803 
Q 1347 384 1778 384 
z
" transform="scale(0.015625)"/>
      <path id="MicrosoftSansSerif-35" d="M 1031 2766 
Q 1372 3041 1881 3041 
Q 2453 3041 2878 2636 
Q 3303 2231 3303 1556 
Q 3303 850 2876 386 
Q 2450 -78 1741 -78 
Q 1159 -78 746 244 
Q 334 566 269 1203 
L 878 1203 
Q 928 788 1167 586 
Q 1406 384 1741 384 
Q 2166 384 2430 706 
Q 2694 1028 2694 1503 
Q 2694 1984 2425 2262 
Q 2156 2541 1728 2541 
Q 1238 2541 897 2163 
L 434 2163 
L 628 4581 
L 3084 4581 
L 3084 4038 
L 1131 4038 
L 1031 2766 
z
" transform="scale(0.015625)"/>
     </defs>
     <use xlink:href="#MicrosoftSansSerif-53"/>
     <use xlink:href="#MicrosoftSansSerif-52" x="66.699219"/>
     <use xlink:href="#MicrosoftSansSerif-45" x="138.916016"/>
     <use xlink:href="#MicrosoftSansSerif-53" x="205.615234"/>
     <use xlink:href="#MicrosoftSansSerif-41" x="272.314453"/>
     <use xlink:href="#MicrosoftSansSerif-31" x="339.013672"/>
     <use xlink:href="#MicrosoftSansSerif-42" x="394.628906"/>
     <use xlink:href="#MicrosoftSansSerif-20" x="461.328125"/>
     <use xlink:href="#MicrosoftSansSerif-32" x="487.890625"/>
     <use xlink:href="#MicrosoftSansSerif-30" x="543.505859"/>
     <use xlink:href="#MicrosoftSansSerif-2e" x="599.121094"/>
     <use xlink:href="#MicrosoftSansSerif-35" x="626.904297"/>
     <use xlink:href="#MicrosoftSansSerif-25" x="682.519531"/>
    </g>
   </g>
   <g id="text_3">
    <!-- piControl 16.8% -->
    <g transform="translate(45.50071 177.444455) scale(0.1 -0.1)">
     <defs>
      <path id="MicrosoftSansSerif-70" d="M 1025 2919 
Q 1419 3391 1972 3391 
Q 2622 3391 2978 2930 
Q 3334 2469 3334 1684 
Q 3334 869 2936 395 
Q 2538 -78 1931 -78 
Q 1394 -78 1025 256 
L 1025 -1275 
L 434 -1275 
L 434 3316 
L 1025 3316 
L 1025 2919 
z
M 1025 788 
Q 1403 384 1894 384 
Q 2275 384 2500 711 
Q 2725 1038 2725 1684 
Q 2725 2297 2512 2614 
Q 2300 2931 1919 2931 
Q 1428 2931 1025 2363 
L 1025 788 
z
" transform="scale(0.015625)"/>
      <path id="MicrosoftSansSerif-43" d="M 2431 -78 
Q 1459 -78 879 561 
Q 300 1200 300 2291 
Q 300 3381 879 4020 
Q 1459 4659 2431 4659 
Q 3178 4659 3703 4256 
Q 4228 3853 4294 3194 
L 3669 3194 
Q 3631 3628 3292 3884 
Q 2953 4141 2438 4141 
Q 1741 4141 1334 3661 
Q 928 3181 928 2291 
Q 928 1403 1331 922 
Q 1734 441 2425 441 
Q 2963 441 3294 703 
Q 3625 966 3669 1453 
L 4294 1453 
Q 4228 722 3718 322 
Q 3209 -78 2431 -78 
z
" transform="scale(0.015625)"/>
      <path id="MicrosoftSansSerif-6e" d="M 1025 2894 
Q 1466 3391 2016 3391 
Q 3138 3391 3138 2169 
L 3138 0 
L 2547 0 
L 2547 2144 
Q 2547 2550 2401 2728 
Q 2256 2906 1925 2906 
Q 1475 2906 1025 2375 
L 1025 0 
L 434 0 
L 434 3316 
L 1025 3316 
L 1025 2894 
z
" transform="scale(0.015625)"/>
      <path id="MicrosoftSansSerif-36" d="M 884 2472 
Q 1338 2969 1925 2969 
Q 2500 2969 2895 2551 
Q 3291 2134 3291 1491 
Q 3291 838 2898 380 
Q 2506 -78 1856 -78 
Q 1113 -78 700 495 
Q 288 1069 288 2144 
Q 288 4659 1906 4659 
Q 2422 4659 2778 4371 
Q 3134 4084 3213 3519 
L 2606 3519 
Q 2528 4197 1875 4197 
Q 1453 4197 1192 3751 
Q 931 3306 884 2472 
z
M 878 2016 
Q 891 1228 1150 806 
Q 1409 384 1844 384 
Q 2225 384 2453 690 
Q 2681 997 2681 1453 
Q 2681 1916 2448 2212 
Q 2216 2509 1825 2509 
Q 1341 2509 878 2016 
z
" transform="scale(0.015625)"/>
     </defs>
     <use xlink:href="#MicrosoftSansSerif-70"/>
     <use xlink:href="#MicrosoftSansSerif-69" x="55.615234"/>
     <use xlink:href="#MicrosoftSansSerif-43" x="78.417969"/>
     <use xlink:href="#MicrosoftSansSerif-6f" x="150.634766"/>
     <use xlink:href="#MicrosoftSansSerif-6e" x="206.25"/>
     <use xlink:href="#MicrosoftSansSerif-74" x="261.865234"/>
     <use xlink:href="#MicrosoftSansSerif-72" x="289.648438"/>
     <use xlink:href="#MicrosoftSansSerif-6f" x="322.949219"/>
     <use xlink:href="#MicrosoftSansSerif-6c" x="378.564453"/>
     <use xlink:href="#MicrosoftSansSerif-20" x="401.367188"/>
     <use xlink:href="#MicrosoftSansSerif-31" x="427.929688"/>
     <use xlink:href="#MicrosoftSansSerif-36" x="483.544922"/>
     <use xlink:href="#MicrosoftSansSerif-2e" x="539.160156"/>
     <use xlink:href="#MicrosoftSansSerif-38" x="566.943359"/>
     <use xlink:href="#MicrosoftSansSerif-25" x="622.558594"/>
    </g>
   </g>
   <g id="text_4">
    <!-- SRESB1 6.9% -->
    <g transform="translate(164.044088 182.692036) scale(0.1 -0.1)">
     <defs>
      <path id="MicrosoftSansSerif-39" d="M 2675 2113 
Q 2222 1613 1631 1613 
Q 1059 1613 664 2030 
Q 269 2447 269 3091 
Q 269 3744 661 4201 
Q 1053 4659 1703 4659 
Q 2447 4659 2859 4087 
Q 3272 3516 3272 2438 
Q 3272 -78 1650 -78 
Q 1138 -78 780 209 
Q 422 497 347 1063 
L 953 1063 
Q 1028 384 1684 384 
Q 2106 384 2365 829 
Q 2625 1275 2675 2113 
z
M 2681 2566 
Q 2669 3356 2409 3776 
Q 2150 4197 1716 4197 
Q 1334 4197 1106 3890 
Q 878 3584 878 3128 
Q 878 2666 1111 2370 
Q 1344 2075 1734 2075 
Q 2219 2075 2681 2566 
z
" transform="scale(0.015625)"/>
     </defs>
     <use xlink:href="#MicrosoftSansSerif-53"/>
     <use xlink:href="#MicrosoftSansSerif-52" x="66.699219"/>
     <use xlink:href="#MicrosoftSansSerif-45" x="138.916016"/>
     <use xlink:href="#MicrosoftSansSerif-53" x="205.615234"/>
     <use xlink:href="#MicrosoftSansSerif-42" x="272.314453"/>
     <use xlink:href="#MicrosoftSansSerif-31" x="339.013672"/>
     <use xlink:href="#MicrosoftSansSerif-20" x="394.628906"/>
     <use xlink:href="#MicrosoftSansSerif-36" x="421.191406"/>
     <use xlink:href="#MicrosoftSansSerif-2e" x="476.806641"/>
     <use xlink:href="#MicrosoftSansSerif-39" x="504.589844"/>
     <use xlink:href="#MicrosoftSansSerif-25" x="560.205078"/>
    </g>
   </g>
   <g id="text_5">
    <!-- SRESA2 6.8% -->
    <g transform="translate(188.933872 169.861961) scale(0.1 -0.1)">
     <use xlink:href="#MicrosoftSansSerif-53"/>
     <use xlink:href="#MicrosoftSansSerif-52" x="66.699219"/>
     <use xlink:href="#MicrosoftSansSerif-45" x="138.916016"/>
     <use xlink:href="#MicrosoftSansSerif-53" x="205.615234"/>
     <use xlink:href="#MicrosoftSansSerif-41" x="272.314453"/>
     <use xlink:href="#MicrosoftSansSerif-32" x="339.013672"/>
     <use xlink:href="#MicrosoftSansSerif-20" x="394.628906"/>
     <use xlink:href="#MicrosoftSansSerif-36" x="421.191406"/>
     <use xlink:href="#MicrosoftSansSerif-2e" x="476.806641"/>
     <use xlink:href="#MicrosoftSansSerif-38" x="504.589844"/>
     <use xlink:href="#MicrosoftSansSerif-25" x="560.205078"/>
    </g>
   </g>
   <g id="text_6">
    <!-- 1pctCO2 4.9% -->
    <g transform="translate(204.296112 151.530303) scale(0.1 -0.1)">
     <defs>
      <path id="MicrosoftSansSerif-4f" d="M 2497 4659 
Q 3459 4659 4071 4009 
Q 4684 3359 4684 2291 
Q 4684 1222 4071 572 
Q 3459 -78 2497 -78 
Q 1531 -78 915 573 
Q 300 1225 300 2291 
Q 300 3359 915 4009 
Q 1531 4659 2497 4659 
z
M 2491 441 
Q 3178 441 3617 928 
Q 4056 1416 4056 2291 
Q 4056 3166 3618 3653 
Q 3181 4141 2503 4141 
Q 1813 4141 1370 3653 
Q 928 3166 928 2291 
Q 928 1419 1368 930 
Q 1809 441 2491 441 
z
" transform="scale(0.015625)"/>
     </defs>
     <use xlink:href="#MicrosoftSansSerif-31"/>
     <use xlink:href="#MicrosoftSansSerif-70" x="55.615234"/>
     <use xlink:href="#MicrosoftSansSerif-63" x="111.230469"/>
     <use xlink:href="#MicrosoftSansSerif-74" x="161.230469"/>
     <use xlink:href="#MicrosoftSansSerif-43" x="189.013672"/>
     <use xlink:href="#MicrosoftSansSerif-4f" x="261.230469"/>
     <use xlink:href="#MicrosoftSansSerif-32" x="339.013672"/>
     <use xlink:href="#MicrosoftSansSerif-20" x="394.628906"/>
     <use xlink:href="#MicrosoftSansSerif-34" x="421.191406"/>
     <use xlink:href="#MicrosoftSansSerif-2e" x="476.806641"/>
     <use xlink:href="#MicrosoftSansSerif-39" x="504.589844"/>
     <use xlink:href="#MicrosoftSansSerif-25" x="560.205078"/>
    </g>
   </g>
   <g id="text_7">
    <!-- other 5.7% -->
    <g transform="translate(211.65796 131.021044) scale(0.1 -0.1)">
     <defs>
      <path id="MicrosoftSansSerif-65" d="M 1844 -78 
Q 1113 -78 669 380 
Q 225 838 225 1656 
Q 225 2469 654 2930 
Q 1084 3391 1778 3391 
Q 2488 3391 2911 2937 
Q 3334 2484 3334 1656 
L 3334 1516 
L 838 1516 
Q 875 941 1154 662 
Q 1434 384 1844 384 
Q 2153 384 2401 542 
Q 2650 700 2663 991 
L 3272 991 
Q 3203 478 2808 200 
Q 2413 -78 1844 -78 
z
M 2713 1978 
Q 2641 2456 2391 2693 
Q 2141 2931 1778 2931 
Q 1425 2931 1172 2695 
Q 919 2459 850 1978 
L 2713 1978 
z
" transform="scale(0.015625)"/>
      <path id="MicrosoftSansSerif-37" d="M 3272 4166 
L 1606 0 
L 947 0 
L 2656 4038 
L 306 4038 
L 306 4581 
L 3272 4581 
L 3272 4166 
z
" transform="scale(0.015625)"/>
     </defs>
     <use xlink:href="#MicrosoftSansSerif-6f"/>
     <use xlink:href="#MicrosoftSansSerif-74" x="55.615234"/>
     <use xlink:href="#MicrosoftSansSerif-68" x="83.398438"/>
     <use xlink:href="#MicrosoftSansSerif-65" x="139.013672"/>
     <use xlink:href="#MicrosoftSansSerif-72" x="194.628906"/>
     <use xlink:href="#MicrosoftSansSerif-20" x="227.929688"/>
     <use xlink:href="#MicrosoftSansSerif-35" x="254.492188"/>
     <use xlink:href="#MicrosoftSansSerif-2e" x="310.107422"/>
     <use xlink:href="#MicrosoftSansSerif-37" x="337.890625"/>
     <use xlink:href="#MicrosoftSansSerif-25" x="393.505859"/>
    </g>
   </g>
   <g id="text_8">
    <!-- CMIP3 -->
    <g transform="translate(122.692048 36.253659) scale(0.16 -0.16)">
     <defs>
      <path id="MicrosoftSansSerif-4d" d="M 4819 0 
L 4244 0 
L 4244 3897 
L 2938 0 
L 2394 0 
L 1088 3897 
L 1088 0 
L 513 0 
L 513 4581 
L 1422 4581 
L 2663 763 
L 3909 4581 
L 4819 4581 
L 4819 0 
z
" transform="scale(0.015625)"/>
      <path id="MicrosoftSansSerif-49" d="M 1197 0 
L 588 0 
L 588 4581 
L 1197 4581 
L 1197 0 
z
" transform="scale(0.015625)"/>
      <path id="MicrosoftSansSerif-50" d="M 513 4581 
L 2222 4581 
Q 2784 4581 3164 4476 
Q 3544 4372 3766 4023 
Q 3988 3675 3988 3244 
Q 3988 2550 3547 2190 
Q 3106 1831 2272 1831 
L 1119 1831 
L 1119 0 
L 513 0 
L 513 4581 
z
M 1119 2375 
L 2278 2375 
Q 2863 2375 3111 2594 
Q 3359 2813 3359 3225 
Q 3359 3500 3221 3712 
Q 3084 3925 2873 3981 
Q 2663 4038 2266 4038 
L 1119 4038 
L 1119 2375 
z
" transform="scale(0.015625)"/>
     </defs>
     <use xlink:href="#MicrosoftSansSerif-43"/>
     <use xlink:href="#MicrosoftSansSerif-4d" x="72.216797"/>
     <use xlink:href="#MicrosoftSansSerif-49" x="155.517578"/>
     <use xlink:href="#MicrosoftSansSerif-50" x="183.300781"/>
     <use xlink:href="#MicrosoftSansSerif-33" x="250"/>
    </g>
   </g>
  </g>
  <g id="axes_2">
   <g id="patch_9">
    <path d="M 448.332946 116.76 
C 448.332946 107.164275 446.015745 97.708954 441.578991 89.200537 
C 437.142238 80.69212 430.715768 73.379597 422.847733 67.886695 
C 414.979697 62.393794 405.900347 58.881258 396.384112 57.648692 
C 386.867877 56.416126 377.193241 57.499601 368.185408 60.806699 
C 359.177576 64.113798 351.100153 69.547742 344.642109 76.645038 
C 338.184066 83.742335 333.53439 92.295289 331.08968 101.574369 
C 328.644969 110.85345 328.476766 120.587114 330.599418 129.945121 
C 332.722069 139.303128 337.073458 148.011625 343.282429 155.327815 
L 388.727873 116.76 
z
" style="fill: #1f77b4"/>
   </g>
   <g id="patch_10">
    <path d="M 343.282429 155.327815 
C 353.423537 167.277342 367.879395 174.75775 383.491491 176.134616 
C 399.103587 177.511482 414.645554 172.676651 426.721572 162.686502 
L 388.727873 116.76 
z
" style="fill: #ffbb78"/>
   </g>
   <g id="patch_11">
    <path d="M 426.721572 162.686502 
C 430.091549 159.898615 433.144459 156.748257 435.825117 153.292374 
C 438.505775 149.836491 440.797931 146.096032 442.660153 142.138611 
L 388.727873 116.76 
z
" style="fill: #d62728"/>
   </g>
   <g id="patch_12">
    <path d="M 442.660153 142.138611 
C 443.510778 140.330942 444.269982 138.48165 444.934891 136.597738 
C 445.5998 134.713827 446.169573 132.797676 446.642052 130.856545 
L 388.727873 116.76 
z
" style="fill: #8c564b"/>
   </g>
   <g id="patch_13">
    <path d="M 446.642052 130.856545 
C 447.20317 128.551253 447.626143 126.214512 447.908712 123.8588 
C 448.191282 121.503088 448.332946 119.132604 448.332946 116.760006 
L 388.727873 116.76 
z
" style="fill: #f7b6d2"/>
   </g>
   <g id="matplotlib.axis_3"/>
   <g id="matplotlib.axis_4"/>
   <g id="text_9">
    <!-- CMIP/DECK 61.2% -->
    <g transform="translate(279.559287 57.794182) scale(0.1 -0.1)">
     <defs>
      <path id="MicrosoftSansSerif-2f" d="M 1778 4581 
L 453 0 
L 0 0 
L 1325 4581 
L 1778 4581 
z
" transform="scale(0.015625)"/>
      <path id="MicrosoftSansSerif-44" d="M 513 4581 
L 1966 4581 
Q 4300 4581 4300 2316 
Q 4300 0 1966 0 
L 513 0 
L 513 4581 
z
M 1119 544 
L 1953 544 
Q 2950 544 3312 1008 
Q 3675 1472 3675 2316 
Q 3675 3138 3314 3588 
Q 2953 4038 1953 4038 
L 1119 4038 
L 1119 544 
z
" transform="scale(0.015625)"/>
      <path id="MicrosoftSansSerif-4b" d="M 4256 0 
L 3456 0 
L 1831 2284 
L 1119 1588 
L 1119 0 
L 513 0 
L 513 4581 
L 1119 4581 
L 1119 2309 
L 3353 4581 
L 4172 4581 
L 2253 2700 
L 4256 0 
z
" transform="scale(0.015625)"/>
     </defs>
     <use xlink:href="#MicrosoftSansSerif-43"/>
     <use xlink:href="#MicrosoftSansSerif-4d" x="72.216797"/>
     <use xlink:href="#MicrosoftSansSerif-49" x="155.517578"/>
     <use xlink:href="#MicrosoftSansSerif-50" x="183.300781"/>
     <use xlink:href="#MicrosoftSansSerif-2f" x="250"/>
     <use xlink:href="#MicrosoftSansSerif-44" x="277.783203"/>
     <use xlink:href="#MicrosoftSansSerif-45" x="350"/>
     <use xlink:href="#MicrosoftSansSerif-43" x="416.699219"/>
     <use xlink:href="#MicrosoftSansSerif-4b" x="488.916016"/>
     <use xlink:href="#MicrosoftSansSerif-20" x="555.615234"/>
     <use xlink:href="#MicrosoftSansSerif-36" x="582.177734"/>
     <use xlink:href="#MicrosoftSansSerif-31" x="637.792969"/>
     <use xlink:href="#MicrosoftSansSerif-2e" x="693.408203"/>
     <use xlink:href="#MicrosoftSansSerif-32" x="721.191406"/>
     <use xlink:href="#MicrosoftSansSerif-25" x="776.806641"/>
    </g>
   </g>
   <g id="text_10">
    <!-- ScenarioMIP 24.8% -->
    <g transform="translate(294.656915 184.65489) scale(0.1 -0.1)">
     <use xlink:href="#MicrosoftSansSerif-53"/>
     <use xlink:href="#MicrosoftSansSerif-63" x="66.699219"/>
     <use xlink:href="#MicrosoftSansSerif-65" x="116.699219"/>
     <use xlink:href="#MicrosoftSansSerif-6e" x="172.314453"/>
     <use xlink:href="#MicrosoftSansSerif-61" x="227.929688"/>
     <use xlink:href="#MicrosoftSansSerif-72" x="283.544922"/>
     <use xlink:href="#MicrosoftSansSerif-69" x="316.845703"/>
     <use xlink:href="#MicrosoftSansSerif-6f" x="339.648438"/>
     <use xlink:href="#MicrosoftSansSerif-4d" x="395.263672"/>
     <use xlink:href="#MicrosoftSansSerif-49" x="478.564453"/>
     <use xlink:href="#MicrosoftSansSerif-50" x="506.347656"/>
     <use xlink:href="#MicrosoftSansSerif-20" x="573.046875"/>
     <use xlink:href="#MicrosoftSansSerif-32" x="599.609375"/>
     <use xlink:href="#MicrosoftSansSerif-34" x="655.224609"/>
     <use xlink:href="#MicrosoftSansSerif-2e" x="710.839844"/>
     <use xlink:href="#MicrosoftSansSerif-38" x="738.623047"/>
     <use xlink:href="#MicrosoftSansSerif-25" x="794.238281"/>
    </g>
   </g>
   <g id="text_11">
    <!-- DAMIP 7.0% -->
    <g transform="translate(440.534841 159.528424) scale(0.1 -0.1)">
     <use xlink:href="#MicrosoftSansSerif-44"/>
     <use xlink:href="#MicrosoftSansSerif-41" x="72.216797"/>
     <use xlink:href="#MicrosoftSansSerif-4d" x="138.916016"/>
     <use xlink:href="#MicrosoftSansSerif-49" x="222.216797"/>
     <use xlink:href="#MicrosoftSansSerif-50" x="250"/>
     <use xlink:href="#MicrosoftSansSerif-20" x="316.699219"/>
     <use xlink:href="#MicrosoftSansSerif-37" x="343.261719"/>
     <use xlink:href="#MicrosoftSansSerif-2e" x="398.876953"/>
     <use xlink:href="#MicrosoftSansSerif-30" x="426.660156"/>
     <use xlink:href="#MicrosoftSansSerif-25" x="482.275391"/>
    </g>
   </g>
   <g id="text_12">
    <!-- DCPP 3.2% -->
    <g transform="translate(450.555593 141.164325) scale(0.1 -0.1)">
     <use xlink:href="#MicrosoftSansSerif-44"/>
     <use xlink:href="#MicrosoftSansSerif-43" x="72.216797"/>
     <use xlink:href="#MicrosoftSansSerif-50" x="144.433594"/>
     <use xlink:href="#MicrosoftSansSerif-50" x="211.132812"/>
     <use xlink:href="#MicrosoftSansSerif-20" x="277.832031"/>
     <use xlink:href="#MicrosoftSansSerif-33" x="304.394531"/>
     <use xlink:href="#MicrosoftSansSerif-2e" x="360.009766"/>
     <use xlink:href="#MicrosoftSansSerif-32" x="387.792969"/>
     <use xlink:href="#MicrosoftSansSerif-25" x="443.408203"/>
    </g>
   </g>
   <g id="text_13">
    <!-- other 3.8% -->
    <g transform="translate(453.826796 127.151493) scale(0.1 -0.1)">
     <use xlink:href="#MicrosoftSansSerif-6f"/>
     <use xlink:href="#MicrosoftSansSerif-74" x="55.615234"/>
     <use xlink:href="#MicrosoftSansSerif-68" x="83.398438"/>
     <use xlink:href="#MicrosoftSansSerif-65" x="139.013672"/>
     <use xlink:href="#MicrosoftSansSerif-72" x="194.628906"/>
     <use xlink:href="#MicrosoftSansSerif-20" x="227.929688"/>
     <use xlink:href="#MicrosoftSansSerif-33" x="254.492188"/>
     <use xlink:href="#MicrosoftSansSerif-2e" x="310.107422"/>
     <use xlink:href="#MicrosoftSansSerif-38" x="337.890625"/>
     <use xlink:href="#MicrosoftSansSerif-25" x="393.505859"/>
    </g>
   </g>
   <g id="text_14">
    <!-- CMIP5 -->
    <g transform="translate(364.279123 36.253659) scale(0.16 -0.16)">
     <use xlink:href="#MicrosoftSansSerif-43"/>
     <use xlink:href="#MicrosoftSansSerif-4d" x="72.216797"/>
     <use xlink:href="#MicrosoftSansSerif-49" x="155.517578"/>
     <use xlink:href="#MicrosoftSansSerif-50" x="183.300781"/>
     <use xlink:href="#MicrosoftSansSerif-35" x="250"/>
    </g>
   </g>
  </g>
  <g id="axes_3">
   <g id="patch_14">
    <path d="M 689.920021 116.76 
C 689.920021 102.70002 684.9452 89.083597 675.881329 78.335143 
C 666.817457 67.586688 654.236419 60.384376 640.378276 58.010582 
C 626.520133 55.636787 612.259263 58.241285 600.134823 65.360343 
C 588.010382 72.479401 578.787362 83.663842 574.107927 96.92227 
L 630.314948 116.76 
z
" style="fill: #1f77b4"/>
   </g>
   <g id="patch_15">
    <path d="M 574.107927 96.92227 
C 570.089333 108.30831 569.623802 120.651085 572.773307 132.307484 
C 575.922811 143.963882 582.541105 154.39264 591.747138 162.205448 
C 600.953171 170.018255 612.319462 174.852325 624.332894 176.064129 
C 636.346325 177.275934 648.449054 174.809203 659.029925 168.992316 
L 630.314948 116.76 
z
" style="fill: #ffbb78"/>
   </g>
   <g id="patch_16">
    <path d="M 659.029925 168.992316 
C 662.972342 166.824952 666.656731 164.218188 670.012647 161.221865 
C 673.368562 158.225542 676.374477 154.85888 678.972919 151.186249 
L 630.314948 116.76 
z
" style="fill: #d62728"/>
   </g>
   <g id="patch_17">
    <path d="M 678.972919 151.186249 
C 680.487614 149.045383 681.859367 146.806884 683.079234 144.485348 
C 684.2991 142.163812 685.364423 139.764296 686.268255 137.302449 
L 630.314948 116.76 
z
" style="fill: #8c564b"/>
   </g>
   <g id="patch_18">
    <path d="M 686.268255 137.302449 
C 687.473703 134.019061 688.387808 130.635931 688.99998 127.192243 
C 689.612153 123.748556 689.920022 120.257657 689.920021 116.75998 
L 630.314948 116.76 
z
" style="fill: #f7b6d2"/>
   </g>
   <g id="matplotlib.axis_5"/>
   <g id="matplotlib.axis_6"/>
   <g id="text_15">
    <!-- CMIP/DECK 44.6 -->
    <g transform="translate(641.384609 54.718452) scale(0.1 -0.1)">
     <use xlink:href="#MicrosoftSansSerif-43"/>
     <use xlink:href="#MicrosoftSansSerif-4d" x="72.216797"/>
     <use xlink:href="#MicrosoftSansSerif-49" x="155.517578"/>
     <use xlink:href="#MicrosoftSansSerif-50" x="183.300781"/>
     <use xlink:href="#MicrosoftSansSerif-2f" x="250"/>
     <use xlink:href="#MicrosoftSansSerif-44" x="277.783203"/>
     <use xlink:href="#MicrosoftSansSerif-45" x="350"/>
     <use xlink:href="#MicrosoftSansSerif-43" x="416.699219"/>
     <use xlink:href="#MicrosoftSansSerif-4b" x="488.916016"/>
     <use xlink:href="#MicrosoftSansSerif-20" x="555.615234"/>
     <use xlink:href="#MicrosoftSansSerif-34" x="582.177734"/>
     <use xlink:href="#MicrosoftSansSerif-34" x="637.792969"/>
     <use xlink:href="#MicrosoftSansSerif-2e" x="693.408203"/>
     <use xlink:href="#MicrosoftSansSerif-36" x="721.191406"/>
    </g>
   </g>
   <g id="text_16">
    <!-- ScenarioMIP 38.4% -->
    <g transform="translate(499.579419 169.332805) scale(0.1 -0.1)">
     <use xlink:href="#MicrosoftSansSerif-53"/>
     <use xlink:href="#MicrosoftSansSerif-63" x="66.699219"/>
     <use xlink:href="#MicrosoftSansSerif-65" x="116.699219"/>
     <use xlink:href="#MicrosoftSansSerif-6e" x="172.314453"/>
     <use xlink:href="#MicrosoftSansSerif-61" x="227.929688"/>
     <use xlink:href="#MicrosoftSansSerif-72" x="283.544922"/>
     <use xlink:href="#MicrosoftSansSerif-69" x="316.845703"/>
     <use xlink:href="#MicrosoftSansSerif-6f" x="339.648438"/>
     <use xlink:href="#MicrosoftSansSerif-4d" x="395.263672"/>
     <use xlink:href="#MicrosoftSansSerif-49" x="478.564453"/>
     <use xlink:href="#MicrosoftSansSerif-50" x="506.347656"/>
     <use xlink:href="#MicrosoftSansSerif-20" x="573.046875"/>
     <use xlink:href="#MicrosoftSansSerif-33" x="599.609375"/>
     <use xlink:href="#MicrosoftSansSerif-38" x="655.224609"/>
     <use xlink:href="#MicrosoftSansSerif-2e" x="710.839844"/>
     <use xlink:href="#MicrosoftSansSerif-34" x="738.623047"/>
     <use xlink:href="#MicrosoftSansSerif-25" x="794.238281"/>
    </g>
   </g>
   <g id="text_17">
    <!-- DCPP 7.2% -->
    <g transform="translate(673.982417 168.250864) scale(0.1 -0.1)">
     <use xlink:href="#MicrosoftSansSerif-44"/>
     <use xlink:href="#MicrosoftSansSerif-43" x="72.216797"/>
     <use xlink:href="#MicrosoftSansSerif-50" x="144.433594"/>
     <use xlink:href="#MicrosoftSansSerif-50" x="211.132812"/>
     <use xlink:href="#MicrosoftSansSerif-20" x="277.832031"/>
     <use xlink:href="#MicrosoftSansSerif-37" x="304.394531"/>
     <use xlink:href="#MicrosoftSansSerif-2e" x="360.009766"/>
     <use xlink:href="#MicrosoftSansSerif-32" x="387.792969"/>
     <use xlink:href="#MicrosoftSansSerif-25" x="443.408203"/>
    </g>
   </g>
   <g id="text_18">
    <!-- HighResMIP 4.2% -->
    <g transform="translate(688.355662 149.847726) scale(0.1 -0.1)">
     <defs>
      <path id="MicrosoftSansSerif-48" d="M 4109 0 
L 3500 0 
L 3500 2156 
L 1119 2156 
L 1119 0 
L 513 0 
L 513 4581 
L 1119 4581 
L 1119 2700 
L 3500 2700 
L 3500 4581 
L 4109 4581 
L 4109 0 
z
" transform="scale(0.015625)"/>
      <path id="MicrosoftSansSerif-67" d="M 3122 256 
Q 3122 -1344 1678 -1344 
Q 1053 -1344 692 -1072 
Q 331 -800 331 -341 
L 941 -341 
Q 941 -884 1672 -884 
Q 2084 -884 2309 -657 
Q 2534 -431 2534 231 
L 2534 397 
Q 2141 -78 1588 -78 
Q 938 -78 581 384 
Q 225 847 225 1631 
Q 225 2444 623 2917 
Q 1022 3391 1625 3391 
Q 2163 3391 2534 3059 
L 2534 3316 
L 3122 3316 
L 3122 256 
z
M 2534 953 
L 2534 2528 
Q 2153 2931 1663 2931 
Q 1284 2931 1057 2604 
Q 831 2278 831 1631 
Q 831 1019 1045 701 
Q 1259 384 1638 384 
Q 2131 384 2534 953 
z
" transform="scale(0.015625)"/>
     </defs>
     <use xlink:href="#MicrosoftSansSerif-48"/>
     <use xlink:href="#MicrosoftSansSerif-69" x="72.216797"/>
     <use xlink:href="#MicrosoftSansSerif-67" x="95.019531"/>
     <use xlink:href="#MicrosoftSansSerif-68" x="150.634766"/>
     <use xlink:href="#MicrosoftSansSerif-52" x="206.25"/>
     <use xlink:href="#MicrosoftSansSerif-65" x="278.466797"/>
     <use xlink:href="#MicrosoftSansSerif-73" x="334.082031"/>
     <use xlink:href="#MicrosoftSansSerif-4d" x="384.082031"/>
     <use xlink:href="#MicrosoftSansSerif-49" x="467.382812"/>
     <use xlink:href="#MicrosoftSansSerif-50" x="495.166016"/>
     <use xlink:href="#MicrosoftSansSerif-20" x="561.865234"/>
     <use xlink:href="#MicrosoftSansSerif-34" x="588.427734"/>
     <use xlink:href="#MicrosoftSansSerif-2e" x="644.042969"/>
     <use xlink:href="#MicrosoftSansSerif-32" x="671.826172"/>
     <use xlink:href="#MicrosoftSansSerif-25" x="727.441406"/>
    </g>
   </g>
   <g id="text_19">
    <!-- other 5.6% -->
    <g transform="translate(694.868484 130.81828) scale(0.1 -0.1)">
     <use xlink:href="#MicrosoftSansSerif-6f"/>
     <use xlink:href="#MicrosoftSansSerif-74" x="55.615234"/>
     <use xlink:href="#MicrosoftSansSerif-68" x="83.398438"/>
     <use xlink:href="#MicrosoftSansSerif-65" x="139.013672"/>
     <use xlink:href="#MicrosoftSansSerif-72" x="194.628906"/>
     <use xlink:href="#MicrosoftSansSerif-20" x="227.929688"/>
     <use xlink:href="#MicrosoftSansSerif-35" x="254.492188"/>
     <use xlink:href="#MicrosoftSansSerif-2e" x="310.107422"/>
     <use xlink:href="#MicrosoftSansSerif-36" x="337.890625"/>
     <use xlink:href="#MicrosoftSansSerif-25" x="393.505859"/>
    </g>
   </g>
   <g id="text_20">
    <!-- CMIP6 -->
    <g transform="translate(605.866198 36.253659) scale(0.16 -0.16)">
     <use xlink:href="#MicrosoftSansSerif-43"/>
     <use xlink:href="#MicrosoftSansSerif-4d" x="72.216797"/>
     <use xlink:href="#MicrosoftSansSerif-49" x="155.517578"/>
     <use xlink:href="#MicrosoftSansSerif-50" x="183.300781"/>
     <use xlink:href="#MicrosoftSansSerif-36" x="250"/>
    </g>
   </g>
  </g>
 </g>
</svg>
