<?xml version="1.0" encoding="utf-8" standalone="no"?>
<!DOCTYPE svg PUBLIC "-//W3C//DTD SVG 1.1//EN"
  "http://www.w3.org/Graphics/SVG/1.1/DTD/svg11.dtd">
<svg xmlns:xlink="http://www.w3.org/1999/xlink" width="648pt" height="432pt" viewBox="0 0 648 432" xmlns="http://www.w3.org/2000/svg" version="1.1">
 <metadata>
  <rdf:RDF xmlns:dc="http://purl.org/dc/elements/1.1/" xmlns:cc="http://creativecommons.org/ns#" xmlns:rdf="http://www.w3.org/1999/02/22-rdf-syntax-ns#">
   <cc:Work>
    <dc:type rdf:resource="http://purl.org/dc/dcmitype/StillImage"/>
    <dc:date>2024-12-10T14:24:12.125035</dc:date>
    <dc:format>image/svg+xml</dc:format>
    <dc:creator>
     <cc:Agent>
      <dc:title>Matplotlib v3.9.2, https://matplotlib.org/</dc:title>
     </cc:Agent>
    </dc:creator>
   </cc:Work>
  </rdf:RDF>
 </metadata>
 <defs>
  <style type="text/css">*{stroke-linejoin: round; stroke-linecap: butt}</style>
 </defs>
 <g id="figure_1">
  <g id="patch_1">
   <path d="M 0 432 
L 648 432 
L 648 0 
L 0 0 
z
" style="fill: #ffffff"/>
  </g>
  <g id="axes_1">
   <g id="patch_2">
    <path d="M 58.16 401.24 
L 637.2 401.24 
L 637.2 27.12 
L 58.16 27.12 
z
" style="fill: #ffffff"/>
   </g>
   <g id="patch_3">
    <path d="M 94.228148 401.24 
L 113.724444 401.24 
L 113.724444 400.133463 
L 94.228148 400.133463 
z
" clip-path="url(#p7cfd6edc2b)" style="fill: #1f77b4"/>
   </g>
   <g id="patch_4">
    <path d="M 172.213333 401.24 
L 191.70963 401.24 
L 191.70963 400.133463 
L 172.213333 400.133463 
z
" clip-path="url(#p7cfd6edc2b)" style="fill: #1f77b4"/>
   </g>
   <g id="patch_5">
    <path d="M 250.198519 401.24 
L 269.694815 401.24 
L 269.694815 400.133463 
L 250.198519 400.133463 
z
" clip-path="url(#p7cfd6edc2b)" style="fill: #1f77b4"/>
   </g>
   <g id="patch_6">
    <path d="M 328.183704 401.24 
L 347.68 401.24 
L 347.68 399.026927 
L 328.183704 399.026927 
z
" clip-path="url(#p7cfd6edc2b)" style="fill: #1f77b4"/>
   </g>
   <g id="patch_7">
    <path d="M 406.168889 401.24 
L 425.665185 401.24 
L 425.665185 387.961562 
L 406.168889 387.961562 
z
" clip-path="url(#p7cfd6edc2b)" style="fill: #1f77b4"/>
   </g>
   <g id="patch_8">
    <path d="M 484.154074 401.24 
L 503.65037 401.24 
L 503.65037 360.298148 
L 484.154074 360.298148 
z
" clip-path="url(#p7cfd6edc2b)" style="fill: #1f77b4"/>
   </g>
   <g id="patch_9">
    <path d="M 562.139259 401.24 
L 581.635556 401.24 
L 581.635556 44.935238 
L 562.139259 44.935238 
z
" clip-path="url(#p7cfd6edc2b)" style="fill: #1f77b4"/>
   </g>
   <g id="patch_10">
    <path d="M 84.48 401.24 
L 103.976296 401.24 
L 103.976296 369.150441 
L 84.48 369.150441 
z
" clip-path="url(#p7cfd6edc2b)" style="fill: #ff7f0e"/>
   </g>
   <g id="patch_11">
    <path d="M 162.465185 401.24 
L 181.961481 401.24 
L 181.961481 365.830831 
L 162.465185 365.830831 
z
" clip-path="url(#p7cfd6edc2b)" style="fill: #ff7f0e"/>
   </g>
   <g id="patch_12">
    <path d="M 240.45037 401.24 
L 259.946667 401.24 
L 259.946667 379.109269 
L 240.45037 379.109269 
z
" clip-path="url(#p7cfd6edc2b)" style="fill: #ff7f0e"/>
   </g>
   <g id="patch_13">
    <path d="M 318.435556 401.24 
L 337.931852 401.24 
L 337.931852 382.428879 
L 318.435556 382.428879 
z
" clip-path="url(#p7cfd6edc2b)" style="fill: #ff7f0e"/>
   </g>
   <g id="patch_14">
    <path d="M 396.420741 401.24 
L 415.917037 401.24 
L 415.917037 374.683123 
L 396.420741 374.683123 
z
" clip-path="url(#p7cfd6edc2b)" style="fill: #ff7f0e"/>
   </g>
   <g id="patch_15">
    <path d="M 474.405926 401.24 
L 493.902222 401.24 
L 493.902222 335.954345 
L 474.405926 335.954345 
z
" clip-path="url(#p7cfd6edc2b)" style="fill: #ff7f0e"/>
   </g>
   <g id="patch_16">
    <path d="M 552.391111 401.24 
L 571.887407 401.24 
L 571.887407 255.177178 
L 552.391111 255.177178 
z
" clip-path="url(#p7cfd6edc2b)" style="fill: #ff7f0e"/>
   </g>
   <g id="patch_17">
    <path d="M 113.724444 401.24 
L 133.220741 401.24 
L 133.220741 370.256977 
L 113.724444 370.256977 
z
" clip-path="url(#p7cfd6edc2b)" style="fill: #2ca02c"/>
   </g>
   <g id="patch_18">
    <path d="M 191.70963 401.24 
L 211.205926 401.24 
L 211.205926 373.576587 
L 191.70963 373.576587 
z
" clip-path="url(#p7cfd6edc2b)" style="fill: #2ca02c"/>
   </g>
   <g id="patch_19">
    <path d="M 269.694815 401.24 
L 289.191111 401.24 
L 289.191111 383.535416 
L 269.694815 383.535416 
z
" clip-path="url(#p7cfd6edc2b)" style="fill: #2ca02c"/>
   </g>
   <g id="patch_20">
    <path d="M 347.68 401.24 
L 367.176296 401.24 
L 367.176296 384.641952 
L 347.68 384.641952 
z
" clip-path="url(#p7cfd6edc2b)" style="fill: #2ca02c"/>
   </g>
   <g id="patch_21">
    <path d="M 425.665185 401.24 
L 445.161481 401.24 
L 445.161481 383.535416 
L 425.665185 383.535416 
z
" clip-path="url(#p7cfd6edc2b)" style="fill: #2ca02c"/>
   </g>
   <g id="patch_22">
    <path d="M 503.65037 401.24 
L 523.146667 401.24 
L 523.146667 372.47005 
L 503.65037 372.47005 
z
" clip-path="url(#p7cfd6edc2b)" style="fill: #2ca02c"/>
   </g>
   <g id="patch_23">
    <path d="M 581.635556 401.24 
L 601.131852 401.24 
L 601.131852 347.01971 
L 581.635556 347.01971 
z
" clip-path="url(#p7cfd6edc2b)" style="fill: #2ca02c"/>
   </g>
   <g id="patch_24">
    <path d="M 123.472593 401.24 
L 142.968889 401.24 
L 142.968889 391.281171 
L 123.472593 391.281171 
z
" clip-path="url(#p7cfd6edc2b)" style="fill: #d62728"/>
   </g>
   <g id="patch_25">
    <path d="M 201.457778 401.24 
L 220.954074 401.24 
L 220.954074 391.281171 
L 201.457778 391.281171 
z
" clip-path="url(#p7cfd6edc2b)" style="fill: #d62728"/>
   </g>
   <g id="patch_26">
    <path d="M 279.442963 401.24 
L 298.939259 401.24 
L 298.939259 392.387708 
L 279.442963 392.387708 
z
" clip-path="url(#p7cfd6edc2b)" style="fill: #d62728"/>
   </g>
   <g id="patch_27">
    <path d="M 357.428148 401.24 
L 376.924444 401.24 
L 376.924444 392.387708 
L 357.428148 392.387708 
z
" clip-path="url(#p7cfd6edc2b)" style="fill: #d62728"/>
   </g>
   <g id="patch_28">
    <path d="M 435.413333 401.24 
L 454.90963 401.24 
L 454.90963 389.068098 
L 435.413333 389.068098 
z
" clip-path="url(#p7cfd6edc2b)" style="fill: #d62728"/>
   </g>
   <g id="patch_29">
    <path d="M 513.398519 401.24 
L 532.894815 401.24 
L 532.894815 387.961562 
L 513.398519 387.961562 
z
" clip-path="url(#p7cfd6edc2b)" style="fill: #d62728"/>
   </g>
   <g id="patch_30">
    <path d="M 591.383704 401.24 
L 610.88 401.24 
L 610.88 372.47005 
L 591.383704 372.47005 
z
" clip-path="url(#p7cfd6edc2b)" style="fill: #d62728"/>
   </g>
   <g id="matplotlib.axis_1">
    <g id="xtick_1">
     <g id="line2d_1">
      <defs>
       <path id="m8d19d6c9df" d="M 0 0 
L 0 3.5 
" style="stroke: #000000; stroke-width: 0.8"/>
      </defs>
      <g>
       <use xlink:href="#m8d19d6c9df" x="113.724444" y="401.24" style="stroke: #000000; stroke-width: 0.8"/>
      </g>
     </g>
     <g id="text_1">
      <!-- AMIP1 -->
      <g transform="translate(92.717882 418.260938) scale(0.14 -0.14)">
       <defs>
        <path id="MicrosoftSansSerif-41" d="M 2881 1875 
L 2075 4000 
L 1306 1875 
L 2881 1875 
z
M 4275 0 
L 3591 0 
L 3059 1394 
L 1141 1394 
L 634 0 
L -6 0 
L 1753 4581 
L 2406 4581 
L 4275 0 
z
" transform="scale(0.015625)"/>
        <path id="MicrosoftSansSerif-4d" d="M 4819 0 
L 4244 0 
L 4244 3897 
L 2938 0 
L 2394 0 
L 1088 3897 
L 1088 0 
L 513 0 
L 513 4581 
L 1422 4581 
L 2663 763 
L 3909 4581 
L 4819 4581 
L 4819 0 
z
" transform="scale(0.015625)"/>
        <path id="MicrosoftSansSerif-49" d="M 1197 0 
L 588 0 
L 588 4581 
L 1197 4581 
L 1197 0 
z
" transform="scale(0.015625)"/>
        <path id="MicrosoftSansSerif-50" d="M 513 4581 
L 2222 4581 
Q 2784 4581 3164 4476 
Q 3544 4372 3766 4023 
Q 3988 3675 3988 3244 
Q 3988 2550 3547 2190 
Q 3106 1831 2272 1831 
L 1119 1831 
L 1119 0 
L 513 0 
L 513 4581 
z
M 1119 2375 
L 2278 2375 
Q 2863 2375 3111 2594 
Q 3359 2813 3359 3225 
Q 3359 3500 3221 3712 
Q 3084 3925 2873 3981 
Q 2663 4038 2266 4038 
L 1119 4038 
L 1119 2375 
z
" transform="scale(0.015625)"/>
        <path id="MicrosoftSansSerif-31" d="M 2400 0 
L 1813 0 
L 1813 3603 
Q 1456 3366 709 3366 
L 709 3828 
Q 1788 3828 1947 4659 
L 2400 4659 
L 2400 0 
z
" transform="scale(0.015625)"/>
       </defs>
       <use xlink:href="#MicrosoftSansSerif-41"/>
       <use xlink:href="#MicrosoftSansSerif-4d" x="66.699219"/>
       <use xlink:href="#MicrosoftSansSerif-49" x="150"/>
       <use xlink:href="#MicrosoftSansSerif-50" x="177.783203"/>
       <use xlink:href="#MicrosoftSansSerif-31" x="244.482422"/>
      </g>
     </g>
    </g>
    <g id="xtick_2">
     <g id="line2d_2">
      <g>
       <use xlink:href="#m8d19d6c9df" x="191.70963" y="401.24" style="stroke: #000000; stroke-width: 0.8"/>
      </g>
     </g>
     <g id="text_2">
      <!-- AMIP2 -->
      <g transform="translate(170.703067 418.260938) scale(0.14 -0.14)">
       <defs>
        <path id="MicrosoftSansSerif-32" d="M 3231 0 
L 197 0 
Q 197 419 456 800 
Q 716 1181 1408 1739 
Q 2100 2297 2356 2630 
Q 2613 2963 2613 3384 
Q 2613 3763 2394 3980 
Q 2175 4197 1778 4197 
Q 1434 4197 1190 3978 
Q 947 3759 916 3334 
L 306 3334 
Q 356 3938 751 4298 
Q 1147 4659 1791 4659 
Q 2475 4659 2847 4292 
Q 3219 3925 3219 3372 
Q 3219 2872 2944 2489 
Q 2669 2106 1851 1425 
Q 1034 744 1019 544 
L 3231 544 
L 3231 0 
z
" transform="scale(0.015625)"/>
       </defs>
       <use xlink:href="#MicrosoftSansSerif-41"/>
       <use xlink:href="#MicrosoftSansSerif-4d" x="66.699219"/>
       <use xlink:href="#MicrosoftSansSerif-49" x="150"/>
       <use xlink:href="#MicrosoftSansSerif-50" x="177.783203"/>
       <use xlink:href="#MicrosoftSansSerif-32" x="244.482422"/>
      </g>
     </g>
    </g>
    <g id="xtick_3">
     <g id="line2d_3">
      <g>
       <use xlink:href="#m8d19d6c9df" x="269.694815" y="401.24" style="stroke: #000000; stroke-width: 0.8"/>
      </g>
     </g>
     <g id="text_3">
      <!-- CMIP1 -->
      <g transform="translate(248.302159 418.260938) scale(0.14 -0.14)">
       <defs>
        <path id="MicrosoftSansSerif-43" d="M 2431 -78 
Q 1459 -78 879 561 
Q 300 1200 300 2291 
Q 300 3381 879 4020 
Q 1459 4659 2431 4659 
Q 3178 4659 3703 4256 
Q 4228 3853 4294 3194 
L 3669 3194 
Q 3631 3628 3292 3884 
Q 2953 4141 2438 4141 
Q 1741 4141 1334 3661 
Q 928 3181 928 2291 
Q 928 1403 1331 922 
Q 1734 441 2425 441 
Q 2963 441 3294 703 
Q 3625 966 3669 1453 
L 4294 1453 
Q 4228 722 3718 322 
Q 3209 -78 2431 -78 
z
" transform="scale(0.015625)"/>
       </defs>
       <use xlink:href="#MicrosoftSansSerif-43"/>
       <use xlink:href="#MicrosoftSansSerif-4d" x="72.216797"/>
       <use xlink:href="#MicrosoftSansSerif-49" x="155.517578"/>
       <use xlink:href="#MicrosoftSansSerif-50" x="183.300781"/>
       <use xlink:href="#MicrosoftSansSerif-31" x="250"/>
      </g>
     </g>
    </g>
    <g id="xtick_4">
     <g id="line2d_4">
      <g>
       <use xlink:href="#m8d19d6c9df" x="347.68" y="401.24" style="stroke: #000000; stroke-width: 0.8"/>
      </g>
     </g>
     <g id="text_4">
      <!-- CMIP2 -->
      <g transform="translate(326.287344 418.260938) scale(0.14 -0.14)">
       <use xlink:href="#MicrosoftSansSerif-43"/>
       <use xlink:href="#MicrosoftSansSerif-4d" x="72.216797"/>
       <use xlink:href="#MicrosoftSansSerif-49" x="155.517578"/>
       <use xlink:href="#MicrosoftSansSerif-50" x="183.300781"/>
       <use xlink:href="#MicrosoftSansSerif-32" x="250"/>
      </g>
     </g>
    </g>
    <g id="xtick_5">
     <g id="line2d_5">
      <g>
       <use xlink:href="#m8d19d6c9df" x="425.665185" y="401.24" style="stroke: #000000; stroke-width: 0.8"/>
      </g>
     </g>
     <g id="text_5">
      <!-- CMIP3 -->
      <g transform="translate(404.272529 418.260938) scale(0.14 -0.14)">
       <defs>
        <path id="MicrosoftSansSerif-33" d="M 2413 2516 
Q 2831 2406 3057 2090 
Q 3284 1775 3284 1350 
Q 3284 716 2850 319 
Q 2416 -78 1772 -78 
Q 1125 -78 719 275 
Q 313 628 281 1209 
L 891 1209 
Q 891 872 1119 628 
Q 1347 384 1772 384 
Q 2184 384 2429 650 
Q 2675 916 2675 1338 
Q 2675 1769 2420 2001 
Q 2166 2234 1678 2234 
L 1453 2234 
L 1453 2694 
L 1588 2694 
Q 2444 2694 2444 3481 
Q 2444 3828 2256 4012 
Q 2069 4197 1728 4197 
Q 1028 4197 947 3469 
L 341 3469 
Q 406 4050 784 4354 
Q 1163 4659 1716 4659 
Q 2328 4659 2690 4326 
Q 3053 3994 3053 3469 
Q 3053 3175 2895 2914 
Q 2738 2653 2413 2516 
z
" transform="scale(0.015625)"/>
       </defs>
       <use xlink:href="#MicrosoftSansSerif-43"/>
       <use xlink:href="#MicrosoftSansSerif-4d" x="72.216797"/>
       <use xlink:href="#MicrosoftSansSerif-49" x="155.517578"/>
       <use xlink:href="#MicrosoftSansSerif-50" x="183.300781"/>
       <use xlink:href="#MicrosoftSansSerif-33" x="250"/>
      </g>
     </g>
    </g>
    <g id="xtick_6">
     <g id="line2d_6">
      <g>
       <use xlink:href="#m8d19d6c9df" x="503.65037" y="401.24" style="stroke: #000000; stroke-width: 0.8"/>
      </g>
     </g>
     <g id="text_6">
      <!-- CMIP5 -->
      <g transform="translate(482.257714 418.260938) scale(0.14 -0.14)">
       <defs>
        <path id="MicrosoftSansSerif-35" d="M 1031 2766 
Q 1372 3041 1881 3041 
Q 2453 3041 2878 2636 
Q 3303 2231 3303 1556 
Q 3303 850 2876 386 
Q 2450 -78 1741 -78 
Q 1159 -78 746 244 
Q 334 566 269 1203 
L 878 1203 
Q 928 788 1167 586 
Q 1406 384 1741 384 
Q 2166 384 2430 706 
Q 2694 1028 2694 1503 
Q 2694 1984 2425 2262 
Q 2156 2541 1728 2541 
Q 1238 2541 897 2163 
L 434 2163 
L 628 4581 
L 3084 4581 
L 3084 4038 
L 1131 4038 
L 1031 2766 
z
" transform="scale(0.015625)"/>
       </defs>
       <use xlink:href="#MicrosoftSansSerif-43"/>
       <use xlink:href="#MicrosoftSansSerif-4d" x="72.216797"/>
       <use xlink:href="#MicrosoftSansSerif-49" x="155.517578"/>
       <use xlink:href="#MicrosoftSansSerif-50" x="183.300781"/>
       <use xlink:href="#MicrosoftSansSerif-35" x="250"/>
      </g>
     </g>
    </g>
    <g id="xtick_7">
     <g id="line2d_7">
      <g>
       <use xlink:href="#m8d19d6c9df" x="581.635556" y="401.24" style="stroke: #000000; stroke-width: 0.8"/>
      </g>
     </g>
     <g id="text_7">
      <!-- CMIP6 -->
      <g transform="translate(560.242899 418.260938) scale(0.14 -0.14)">
       <defs>
        <path id="MicrosoftSansSerif-36" d="M 884 2472 
Q 1338 2969 1925 2969 
Q 2500 2969 2895 2551 
Q 3291 2134 3291 1491 
Q 3291 838 2898 380 
Q 2506 -78 1856 -78 
Q 1113 -78 700 495 
Q 288 1069 288 2144 
Q 288 4659 1906 4659 
Q 2422 4659 2778 4371 
Q 3134 4084 3213 3519 
L 2606 3519 
Q 2528 4197 1875 4197 
Q 1453 4197 1192 3751 
Q 931 3306 884 2472 
z
M 878 2016 
Q 891 1228 1150 806 
Q 1409 384 1844 384 
Q 2225 384 2453 690 
Q 2681 997 2681 1453 
Q 2681 1916 2448 2212 
Q 2216 2509 1825 2509 
Q 1341 2509 878 2016 
z
" transform="scale(0.015625)"/>
       </defs>
       <use xlink:href="#MicrosoftSansSerif-43"/>
       <use xlink:href="#MicrosoftSansSerif-4d" x="72.216797"/>
       <use xlink:href="#MicrosoftSansSerif-49" x="155.517578"/>
       <use xlink:href="#MicrosoftSansSerif-50" x="183.300781"/>
       <use xlink:href="#MicrosoftSansSerif-36" x="250"/>
      </g>
     </g>
    </g>
   </g>
   <g id="matplotlib.axis_2">
    <g id="ytick_1">
     <g id="line2d_8">
      <defs>
       <path id="mdc0ffdc9ae" d="M 0 0 
L -3.5 0 
" style="stroke: #000000; stroke-width: 0.8"/>
      </defs>
      <g>
       <use xlink:href="#mdc0ffdc9ae" x="58.16" y="401.24" style="stroke: #000000; stroke-width: 0.8"/>
      </g>
     </g>
     <g id="text_8">
      <!-- 0 -->
      <g transform="translate(43.374688 406.250469) scale(0.14 -0.14)">
       <defs>
        <path id="MicrosoftSansSerif-30" d="M 1778 4659 
Q 3272 4659 3272 2284 
Q 3272 -78 1778 -78 
Q 288 -78 288 2284 
Q 288 4659 1778 4659 
z
M 1778 384 
Q 2213 384 2438 803 
Q 2663 1222 2663 2284 
Q 2663 3350 2438 3773 
Q 2213 4197 1778 4197 
Q 1347 4197 1122 3773 
Q 897 3350 897 2284 
Q 897 1222 1122 803 
Q 1347 384 1778 384 
z
" transform="scale(0.015625)"/>
       </defs>
       <use xlink:href="#MicrosoftSansSerif-30"/>
      </g>
     </g>
    </g>
    <g id="ytick_2">
     <g id="line2d_9">
      <g>
       <use xlink:href="#mdc0ffdc9ae" x="58.16" y="345.913174" style="stroke: #000000; stroke-width: 0.8"/>
      </g>
     </g>
     <g id="text_9">
      <!-- 50 -->
      <g transform="translate(35.589375 350.923642) scale(0.14 -0.14)">
       <use xlink:href="#MicrosoftSansSerif-35"/>
       <use xlink:href="#MicrosoftSansSerif-30" x="55.615234"/>
      </g>
     </g>
    </g>
    <g id="ytick_3">
     <g id="line2d_10">
      <g>
       <use xlink:href="#mdc0ffdc9ae" x="58.16" y="290.586347" style="stroke: #000000; stroke-width: 0.8"/>
      </g>
     </g>
     <g id="text_10">
      <!-- 100 -->
      <g transform="translate(27.804063 295.596816) scale(0.14 -0.14)">
       <use xlink:href="#MicrosoftSansSerif-31"/>
       <use xlink:href="#MicrosoftSansSerif-30" x="55.615234"/>
       <use xlink:href="#MicrosoftSansSerif-30" x="111.230469"/>
      </g>
     </g>
    </g>
    <g id="ytick_4">
     <g id="line2d_11">
      <g>
       <use xlink:href="#mdc0ffdc9ae" x="58.16" y="235.259521" style="stroke: #000000; stroke-width: 0.8"/>
      </g>
     </g>
     <g id="text_11">
      <!-- 150 -->
      <g transform="translate(27.804063 240.26999) scale(0.14 -0.14)">
       <use xlink:href="#MicrosoftSansSerif-31"/>
       <use xlink:href="#MicrosoftSansSerif-35" x="55.615234"/>
       <use xlink:href="#MicrosoftSansSerif-30" x="111.230469"/>
      </g>
     </g>
    </g>
    <g id="ytick_5">
     <g id="line2d_12">
      <g>
       <use xlink:href="#mdc0ffdc9ae" x="58.16" y="179.932694" style="stroke: #000000; stroke-width: 0.8"/>
      </g>
     </g>
     <g id="text_12">
      <!-- 200 -->
      <g transform="translate(27.804063 184.943163) scale(0.14 -0.14)">
       <use xlink:href="#MicrosoftSansSerif-32"/>
       <use xlink:href="#MicrosoftSansSerif-30" x="55.615234"/>
       <use xlink:href="#MicrosoftSansSerif-30" x="111.230469"/>
      </g>
     </g>
    </g>
    <g id="ytick_6">
     <g id="line2d_13">
      <g>
       <use xlink:href="#mdc0ffdc9ae" x="58.16" y="124.605868" style="stroke: #000000; stroke-width: 0.8"/>
      </g>
     </g>
     <g id="text_13">
      <!-- 250 -->
      <g transform="translate(27.804063 129.616337) scale(0.14 -0.14)">
       <use xlink:href="#MicrosoftSansSerif-32"/>
       <use xlink:href="#MicrosoftSansSerif-35" x="55.615234"/>
       <use xlink:href="#MicrosoftSansSerif-30" x="111.230469"/>
      </g>
     </g>
    </g>
    <g id="ytick_7">
     <g id="line2d_14">
      <g>
       <use xlink:href="#mdc0ffdc9ae" x="58.16" y="69.279042" style="stroke: #000000; stroke-width: 0.8"/>
      </g>
     </g>
     <g id="text_14">
      <!-- 300 -->
      <g transform="translate(27.804063 74.28951) scale(0.14 -0.14)">
       <use xlink:href="#MicrosoftSansSerif-33"/>
       <use xlink:href="#MicrosoftSansSerif-30" x="55.615234"/>
       <use xlink:href="#MicrosoftSansSerif-30" x="111.230469"/>
      </g>
     </g>
    </g>
    <g id="text_15">
     <!-- Count -->
     <g transform="translate(21.015 232.857969) rotate(-90) scale(0.14 -0.14)">
      <defs>
       <path id="MicrosoftSansSerif-6f" d="M 1778 3391 
Q 2488 3391 2911 2937 
Q 3334 2484 3334 1656 
Q 3334 831 2911 376 
Q 2488 -78 1778 -78 
Q 1072 -78 648 376 
Q 225 831 225 1656 
Q 225 2484 648 2937 
Q 1072 3391 1778 3391 
z
M 1778 384 
Q 2200 384 2462 704 
Q 2725 1025 2725 1656 
Q 2725 2291 2462 2611 
Q 2200 2931 1778 2931 
Q 1356 2931 1093 2611 
Q 831 2291 831 1656 
Q 831 1025 1093 704 
Q 1356 384 1778 384 
z
" transform="scale(0.015625)"/>
       <path id="MicrosoftSansSerif-75" d="M 2534 422 
Q 2094 -78 1544 -78 
Q 422 -78 422 1147 
L 422 3316 
L 1013 3316 
L 1013 1172 
Q 1013 766 1156 587 
Q 1300 409 1631 409 
Q 2125 409 2534 941 
L 2534 3316 
L 3122 3316 
L 3122 0 
L 2534 0 
L 2534 422 
z
" transform="scale(0.015625)"/>
       <path id="MicrosoftSansSerif-6e" d="M 1025 2894 
Q 1466 3391 2016 3391 
Q 3138 3391 3138 2169 
L 3138 0 
L 2547 0 
L 2547 2144 
Q 2547 2550 2401 2728 
Q 2256 2906 1925 2906 
Q 1475 2906 1025 2375 
L 1025 0 
L 434 0 
L 434 3316 
L 1025 3316 
L 1025 2894 
z
" transform="scale(0.015625)"/>
       <path id="MicrosoftSansSerif-74" d="M 1722 -6 
Q 1528 -44 1300 -44 
Q 938 -44 769 86 
Q 600 216 559 419 
Q 519 622 519 972 
L 519 2853 
L 109 2853 
L 109 3316 
L 519 3316 
L 519 4141 
L 1106 4141 
L 1106 3316 
L 1644 3316 
L 1644 2853 
L 1106 2853 
L 1106 941 
Q 1106 600 1192 508 
Q 1278 416 1428 416 
Q 1581 416 1722 441 
L 1722 -6 
z
" transform="scale(0.015625)"/>
      </defs>
      <use xlink:href="#MicrosoftSansSerif-43"/>
      <use xlink:href="#MicrosoftSansSerif-6f" x="72.216797"/>
      <use xlink:href="#MicrosoftSansSerif-75" x="127.832031"/>
      <use xlink:href="#MicrosoftSansSerif-6e" x="183.447266"/>
      <use xlink:href="#MicrosoftSansSerif-74" x="239.0625"/>
     </g>
    </g>
   </g>
   <g id="patch_31">
    <path d="M 58.16 401.24 
L 58.16 27.12 
" style="fill: none; stroke: #000000; stroke-width: 0.8; stroke-linejoin: miter; stroke-linecap: square"/>
   </g>
   <g id="patch_32">
    <path d="M 637.2 401.24 
L 637.2 27.12 
" style="fill: none; stroke: #000000; stroke-width: 0.8; stroke-linejoin: miter; stroke-linecap: square"/>
   </g>
   <g id="patch_33">
    <path d="M 58.16 401.24 
L 637.2 401.24 
" style="fill: none; stroke: #000000; stroke-width: 0.8; stroke-linejoin: miter; stroke-linecap: square"/>
   </g>
   <g id="patch_34">
    <path d="M 58.16 27.12 
L 637.2 27.12 
" style="fill: none; stroke: #000000; stroke-width: 0.8; stroke-linejoin: miter; stroke-linecap: square"/>
   </g>
   <g id="text_16">
    <!-- 1 -->
    <g transform="translate(100.639734 396.742838) scale(0.12 -0.12)">
     <use xlink:href="#MicrosoftSansSerif-31"/>
    </g>
   </g>
   <g id="text_17">
    <!-- 1 -->
    <g transform="translate(178.624919 396.742838) scale(0.12 -0.12)">
     <use xlink:href="#MicrosoftSansSerif-31"/>
    </g>
   </g>
   <g id="text_18">
    <!-- 1 -->
    <g transform="translate(256.610104 396.742838) scale(0.12 -0.12)">
     <use xlink:href="#MicrosoftSansSerif-31"/>
    </g>
   </g>
   <g id="text_19">
    <!-- 2 -->
    <g transform="translate(334.595289 395.636302) scale(0.12 -0.12)">
     <use xlink:href="#MicrosoftSansSerif-32"/>
    </g>
   </g>
   <g id="text_20">
    <!-- 12 -->
    <g transform="translate(409.243912 384.570937) scale(0.12 -0.12)">
     <use xlink:href="#MicrosoftSansSerif-31"/>
     <use xlink:href="#MicrosoftSansSerif-32" x="55.615234"/>
    </g>
   </g>
   <g id="text_21">
    <!-- 37 -->
    <g transform="translate(487.229097 356.907523) scale(0.12 -0.12)">
     <defs>
      <path id="MicrosoftSansSerif-37" d="M 3272 4166 
L 1606 0 
L 947 0 
L 2656 4038 
L 306 4038 
L 306 4581 
L 3272 4581 
L 3272 4166 
z
" transform="scale(0.015625)"/>
     </defs>
     <use xlink:href="#MicrosoftSansSerif-33"/>
     <use xlink:href="#MicrosoftSansSerif-37" x="55.615234"/>
    </g>
   </g>
   <g id="text_22">
    <!-- 322 -->
    <g transform="translate(561.87772 41.544613) scale(0.12 -0.12)">
     <use xlink:href="#MicrosoftSansSerif-33"/>
     <use xlink:href="#MicrosoftSansSerif-32" x="55.615234"/>
     <use xlink:href="#MicrosoftSansSerif-32" x="111.230469"/>
    </g>
   </g>
   <g id="text_23">
    <!-- 28 -->
    <g transform="translate(116.799468 366.866352) scale(0.12 -0.12)">
     <defs>
      <path id="MicrosoftSansSerif-38" d="M 2338 2406 
Q 3291 1966 3291 1216 
Q 3291 638 2873 280 
Q 2456 -78 1778 -78 
Q 1103 -78 686 280 
Q 269 638 269 1216 
Q 269 1966 1222 2406 
Q 447 2853 447 3525 
Q 447 4022 814 4340 
Q 1181 4659 1778 4659 
Q 2378 4659 2743 4340 
Q 3109 4022 3109 3525 
Q 3109 2853 2338 2406 
z
M 1778 2650 
Q 2503 2975 2503 3525 
Q 2503 3841 2311 4019 
Q 2119 4197 1778 4197 
Q 1441 4197 1248 4019 
Q 1056 3841 1056 3525 
Q 1056 2975 1778 2650 
z
M 2681 1216 
Q 2681 1513 2465 1727 
Q 2250 1941 1778 2150 
Q 1309 1941 1093 1727 
Q 878 1513 878 1216 
Q 878 828 1125 606 
Q 1372 384 1778 384 
Q 2184 384 2432 606 
Q 2681 828 2681 1216 
z
" transform="scale(0.015625)"/>
     </defs>
     <use xlink:href="#MicrosoftSansSerif-32"/>
     <use xlink:href="#MicrosoftSansSerif-38" x="55.615234"/>
    </g>
   </g>
   <g id="text_24">
    <!-- 25 -->
    <g transform="translate(194.784653 370.185962) scale(0.12 -0.12)">
     <use xlink:href="#MicrosoftSansSerif-32"/>
     <use xlink:href="#MicrosoftSansSerif-35" x="55.615234"/>
    </g>
   </g>
   <g id="text_25">
    <!-- 16 -->
    <g transform="translate(272.769838 380.144791) scale(0.12 -0.12)">
     <use xlink:href="#MicrosoftSansSerif-31"/>
     <use xlink:href="#MicrosoftSansSerif-36" x="55.615234"/>
    </g>
   </g>
   <g id="text_26">
    <!-- 15 -->
    <g transform="translate(350.755023 381.251327) scale(0.12 -0.12)">
     <use xlink:href="#MicrosoftSansSerif-31"/>
     <use xlink:href="#MicrosoftSansSerif-35" x="55.615234"/>
    </g>
   </g>
   <g id="text_27">
    <!-- 16 -->
    <g transform="translate(428.740208 380.144791) scale(0.12 -0.12)">
     <use xlink:href="#MicrosoftSansSerif-31"/>
     <use xlink:href="#MicrosoftSansSerif-36" x="55.615234"/>
    </g>
   </g>
   <g id="text_28">
    <!-- 26 -->
    <g transform="translate(506.725394 369.079425) scale(0.12 -0.12)">
     <use xlink:href="#MicrosoftSansSerif-32"/>
     <use xlink:href="#MicrosoftSansSerif-36" x="55.615234"/>
    </g>
   </g>
   <g id="text_29">
    <!-- 49 -->
    <g transform="translate(584.710579 343.629085) scale(0.12 -0.12)">
     <defs>
      <path id="MicrosoftSansSerif-34" d="M 3263 1094 
L 2644 1094 
L 2644 0 
L 2053 0 
L 2053 1094 
L 97 1094 
L 97 1613 
L 2181 4641 
L 2644 4641 
L 2644 1613 
L 3263 1613 
L 3263 1094 
z
M 2053 1613 
L 2053 3713 
L 647 1613 
L 2053 1613 
z
" transform="scale(0.015625)"/>
      <path id="MicrosoftSansSerif-39" d="M 2675 2113 
Q 2222 1613 1631 1613 
Q 1059 1613 664 2030 
Q 269 2447 269 3091 
Q 269 3744 661 4201 
Q 1053 4659 1703 4659 
Q 2447 4659 2859 4087 
Q 3272 3516 3272 2438 
Q 3272 -78 1650 -78 
Q 1138 -78 780 209 
Q 422 497 347 1063 
L 953 1063 
Q 1028 384 1684 384 
Q 2106 384 2365 829 
Q 2625 1275 2675 2113 
z
M 2681 2566 
Q 2669 3356 2409 3776 
Q 2150 4197 1716 4197 
Q 1334 4197 1106 3890 
Q 878 3584 878 3128 
Q 878 2666 1111 2370 
Q 1344 2075 1734 2075 
Q 2219 2075 2681 2566 
z
" transform="scale(0.015625)"/>
     </defs>
     <use xlink:href="#MicrosoftSansSerif-34"/>
     <use xlink:href="#MicrosoftSansSerif-39" x="55.615234"/>
    </g>
   </g>
   <g id="text_30">
    <!-- 29 -->
    <g transform="translate(87.555023 365.759816) scale(0.12 -0.12)">
     <use xlink:href="#MicrosoftSansSerif-32"/>
     <use xlink:href="#MicrosoftSansSerif-39" x="55.615234"/>
    </g>
   </g>
   <g id="text_31">
    <!-- 32 -->
    <g transform="translate(165.540208 362.440206) scale(0.12 -0.12)">
     <use xlink:href="#MicrosoftSansSerif-33"/>
     <use xlink:href="#MicrosoftSansSerif-32" x="55.615234"/>
    </g>
   </g>
   <g id="text_32">
    <!-- 20 -->
    <g transform="translate(243.525394 375.718644) scale(0.12 -0.12)">
     <use xlink:href="#MicrosoftSansSerif-32"/>
     <use xlink:href="#MicrosoftSansSerif-30" x="55.615234"/>
    </g>
   </g>
   <g id="text_33">
    <!-- 17 -->
    <g transform="translate(321.510579 379.038254) scale(0.12 -0.12)">
     <use xlink:href="#MicrosoftSansSerif-31"/>
     <use xlink:href="#MicrosoftSansSerif-37" x="55.615234"/>
    </g>
   </g>
   <g id="text_34">
    <!-- 24 -->
    <g transform="translate(399.495764 371.292498) scale(0.12 -0.12)">
     <use xlink:href="#MicrosoftSansSerif-32"/>
     <use xlink:href="#MicrosoftSansSerif-34" x="55.615234"/>
    </g>
   </g>
   <g id="text_35">
    <!-- 59 -->
    <g transform="translate(477.480949 332.56372) scale(0.12 -0.12)">
     <use xlink:href="#MicrosoftSansSerif-35"/>
     <use xlink:href="#MicrosoftSansSerif-39" x="55.615234"/>
    </g>
   </g>
   <g id="text_36">
    <!-- 132 -->
    <g transform="translate(552.129572 251.786553) scale(0.12 -0.12)">
     <use xlink:href="#MicrosoftSansSerif-31"/>
     <use xlink:href="#MicrosoftSansSerif-33" x="55.615234"/>
     <use xlink:href="#MicrosoftSansSerif-32" x="111.230469"/>
    </g>
   </g>
   <g id="text_37">
    <!-- 9 -->
    <g transform="translate(129.884178 387.890546) scale(0.12 -0.12)">
     <use xlink:href="#MicrosoftSansSerif-39"/>
    </g>
   </g>
   <g id="text_38">
    <!-- 9 -->
    <g transform="translate(207.869363 387.890546) scale(0.12 -0.12)">
     <use xlink:href="#MicrosoftSansSerif-39"/>
    </g>
   </g>
   <g id="text_39">
    <!-- 8 -->
    <g transform="translate(285.854549 388.997083) scale(0.12 -0.12)">
     <use xlink:href="#MicrosoftSansSerif-38"/>
    </g>
   </g>
   <g id="text_40">
    <!-- 8 -->
    <g transform="translate(363.839734 388.997083) scale(0.12 -0.12)">
     <use xlink:href="#MicrosoftSansSerif-38"/>
    </g>
   </g>
   <g id="text_41">
    <!-- 11 -->
    <g transform="translate(438.488356 385.677473) scale(0.12 -0.12)">
     <use xlink:href="#MicrosoftSansSerif-31"/>
     <use xlink:href="#MicrosoftSansSerif-31" x="55.615234"/>
    </g>
   </g>
   <g id="text_42">
    <!-- 12 -->
    <g transform="translate(516.473542 384.570937) scale(0.12 -0.12)">
     <use xlink:href="#MicrosoftSansSerif-31"/>
     <use xlink:href="#MicrosoftSansSerif-32" x="55.615234"/>
    </g>
   </g>
   <g id="text_43">
    <!-- 26 -->
    <g transform="translate(594.458727 369.079425) scale(0.12 -0.12)">
     <use xlink:href="#MicrosoftSansSerif-32"/>
     <use xlink:href="#MicrosoftSansSerif-36" x="55.615234"/>
    </g>
   </g>
   <g id="text_44">
    <!-- Experiments, Models, Institutions and Country counts by *MIP era -->
    <g transform="translate(144.340937 21.12) scale(0.14 -0.14)">
     <defs>
      <path id="MicrosoftSansSerif-45" d="M 3928 0 
L 513 0 
L 513 4581 
L 3822 4581 
L 3822 4038 
L 1119 4038 
L 1119 2638 
L 3647 2638 
L 3647 2094 
L 1119 2094 
L 1119 544 
L 3928 544 
L 3928 0 
z
" transform="scale(0.015625)"/>
      <path id="MicrosoftSansSerif-78" d="M 3156 0 
L 2425 0 
L 1600 1294 
L 775 0 
L 44 0 
L 1269 1722 
L 141 3316 
L 872 3316 
L 1600 2156 
L 2328 3316 
L 3059 3316 
L 1931 1728 
L 3156 0 
z
" transform="scale(0.015625)"/>
      <path id="MicrosoftSansSerif-70" d="M 1025 2919 
Q 1419 3391 1972 3391 
Q 2622 3391 2978 2930 
Q 3334 2469 3334 1684 
Q 3334 869 2936 395 
Q 2538 -78 1931 -78 
Q 1394 -78 1025 256 
L 1025 -1275 
L 434 -1275 
L 434 3316 
L 1025 3316 
L 1025 2919 
z
M 1025 788 
Q 1403 384 1894 384 
Q 2275 384 2500 711 
Q 2725 1038 2725 1684 
Q 2725 2297 2512 2614 
Q 2300 2931 1919 2931 
Q 1428 2931 1025 2363 
L 1025 788 
z
" transform="scale(0.015625)"/>
      <path id="MicrosoftSansSerif-65" d="M 1844 -78 
Q 1113 -78 669 380 
Q 225 838 225 1656 
Q 225 2469 654 2930 
Q 1084 3391 1778 3391 
Q 2488 3391 2911 2937 
Q 3334 2484 3334 1656 
L 3334 1516 
L 838 1516 
Q 875 941 1154 662 
Q 1434 384 1844 384 
Q 2153 384 2401 542 
Q 2650 700 2663 991 
L 3272 991 
Q 3203 478 2808 200 
Q 2413 -78 1844 -78 
z
M 2713 1978 
Q 2641 2456 2391 2693 
Q 2141 2931 1778 2931 
Q 1425 2931 1172 2695 
Q 919 2459 850 1978 
L 2713 1978 
z
" transform="scale(0.015625)"/>
      <path id="MicrosoftSansSerif-72" d="M 2156 2778 
Q 2031 2816 1797 2816 
Q 1347 2816 1025 2344 
L 1025 0 
L 434 0 
L 434 3316 
L 1025 3316 
L 1025 2853 
Q 1397 3391 1888 3391 
Q 2013 3391 2156 3366 
L 2156 2778 
z
" transform="scale(0.015625)"/>
      <path id="MicrosoftSansSerif-69" d="M 1025 0 
L 434 0 
L 434 3316 
L 1025 3316 
L 1025 0 
z
M 1025 3944 
L 434 3944 
L 434 4581 
L 1025 4581 
L 1025 3944 
z
" transform="scale(0.015625)"/>
      <path id="MicrosoftSansSerif-6d" d="M 4916 0 
L 4325 0 
L 4325 2144 
Q 4325 2556 4206 2731 
Q 4088 2906 3809 2906 
Q 3381 2906 2969 2375 
L 2969 0 
L 2381 0 
L 2381 2144 
Q 2381 2556 2262 2731 
Q 2144 2906 1863 2906 
Q 1434 2906 1025 2375 
L 1025 0 
L 434 0 
L 434 3316 
L 1025 3316 
L 1025 2894 
Q 1444 3391 1953 3391 
Q 2681 3391 2881 2791 
Q 3213 3181 3444 3286 
Q 3675 3391 3897 3391 
Q 4916 3391 4916 2169 
L 4916 0 
z
" transform="scale(0.015625)"/>
      <path id="MicrosoftSansSerif-73" d="M 1619 -78 
Q 259 -78 197 991 
L 788 991 
Q 794 384 1613 384 
Q 1978 384 2170 536 
Q 2363 688 2363 916 
Q 2363 1141 2175 1233 
Q 1988 1325 1402 1472 
Q 816 1619 545 1800 
Q 275 1981 275 2438 
Q 275 2850 611 3120 
Q 947 3391 1509 3391 
Q 2813 3391 2841 2463 
L 2253 2463 
Q 2222 2931 1550 2931 
Q 1253 2931 1058 2818 
Q 863 2706 863 2491 
Q 863 2297 1013 2211 
Q 1163 2125 1764 1979 
Q 2366 1834 2658 1640 
Q 2950 1447 2950 972 
Q 2950 519 2589 220 
Q 2228 -78 1619 -78 
z
" transform="scale(0.015625)"/>
      <path id="MicrosoftSansSerif-2c" d="M 1209 0 
Q 1209 -409 1046 -656 
Q 884 -903 569 -903 
L 569 -603 
Q 884 -603 884 0 
L 569 0 
L 569 641 
L 1209 641 
L 1209 0 
z
" transform="scale(0.015625)"/>
      <path id="MicrosoftSansSerif-20" d="M 0 0 
L 0 0 
z
" transform="scale(0.015625)"/>
      <path id="MicrosoftSansSerif-64" d="M 2534 953 
L 2534 2528 
Q 2153 2931 1663 2931 
Q 1284 2931 1057 2604 
Q 831 2278 831 1631 
Q 831 1019 1045 701 
Q 1259 384 1638 384 
Q 2131 384 2534 953 
z
M 2534 397 
Q 2141 -78 1588 -78 
Q 938 -78 581 384 
Q 225 847 225 1631 
Q 225 2444 623 2917 
Q 1022 3391 1625 3391 
Q 2163 3391 2534 3059 
L 2534 4581 
L 3122 4581 
L 3122 0 
L 2534 0 
L 2534 397 
z
" transform="scale(0.015625)"/>
      <path id="MicrosoftSansSerif-6c" d="M 1025 0 
L 434 0 
L 434 4581 
L 1025 4581 
L 1025 0 
z
" transform="scale(0.015625)"/>
      <path id="MicrosoftSansSerif-61" d="M 2534 872 
L 2534 1606 
L 2131 1606 
Q 850 1606 850 909 
Q 850 656 1037 520 
Q 1225 384 1544 384 
Q 1834 384 2106 515 
Q 2378 647 2534 872 
z
M 2534 341 
Q 2084 -78 1375 -78 
Q 881 -78 562 189 
Q 244 456 244 878 
Q 244 2041 2247 2041 
L 2534 2041 
Q 2534 2397 2496 2558 
Q 2459 2719 2287 2825 
Q 2116 2931 1741 2931 
Q 953 2931 928 2369 
L 341 2369 
Q 406 3391 1772 3391 
Q 2409 3391 2765 3137 
Q 3122 2884 3122 2144 
L 3122 0 
L 2534 0 
L 2534 341 
z
" transform="scale(0.015625)"/>
      <path id="MicrosoftSansSerif-79" d="M 622 -800 
Q 1059 -800 1338 0 
L 84 3316 
L 722 3316 
L 1600 722 
L 2478 3316 
L 3116 3316 
L 1863 0 
Q 1681 -475 1554 -733 
Q 1428 -991 1223 -1167 
Q 1019 -1344 722 -1344 
Q 500 -1344 341 -1300 
L 341 -756 
Q 478 -800 622 -800 
z
" transform="scale(0.015625)"/>
      <path id="MicrosoftSansSerif-63" d="M 1778 -78 
Q 1072 -78 648 376 
Q 225 831 225 1656 
Q 225 2484 648 2937 
Q 1072 3391 1778 3391 
Q 2322 3391 2686 3116 
Q 3050 2841 3116 2322 
L 2509 2322 
Q 2497 2619 2286 2775 
Q 2075 2931 1778 2931 
Q 1356 2931 1093 2611 
Q 831 2291 831 1656 
Q 831 1025 1093 704 
Q 1356 384 1778 384 
Q 2075 384 2286 540 
Q 2497 697 2509 991 
L 3116 991 
Q 3050 472 2686 197 
Q 2322 -78 1778 -78 
z
" transform="scale(0.015625)"/>
      <path id="MicrosoftSansSerif-62" d="M 1025 2919 
Q 1419 3391 1972 3391 
Q 2622 3391 2978 2930 
Q 3334 2469 3334 1684 
Q 3334 869 2936 395 
Q 2538 -78 1931 -78 
Q 1394 -78 1025 256 
L 1025 0 
L 434 0 
L 434 4581 
L 1025 4581 
L 1025 2919 
z
M 1025 788 
Q 1403 384 1894 384 
Q 2275 384 2500 711 
Q 2725 1038 2725 1684 
Q 2725 2297 2512 2614 
Q 2300 2931 1919 2931 
Q 1428 2931 1025 2363 
L 1025 788 
z
" transform="scale(0.015625)"/>
      <path id="MicrosoftSansSerif-2a" d="M 2278 3738 
L 1509 3566 
L 2028 2969 
L 1644 2688 
L 1241 3372 
L 838 2688 
L 453 2969 
L 972 3566 
L 206 3738 
L 353 4184 
L 1075 3872 
L 1006 4659 
L 1478 4659 
L 1409 3872 
L 2131 4184 
L 2278 3738 
z
" transform="scale(0.015625)"/>
     </defs>
     <use xlink:href="#MicrosoftSansSerif-45"/>
     <use xlink:href="#MicrosoftSansSerif-78" x="66.699219"/>
     <use xlink:href="#MicrosoftSansSerif-70" x="116.699219"/>
     <use xlink:href="#MicrosoftSansSerif-65" x="172.314453"/>
     <use xlink:href="#MicrosoftSansSerif-72" x="227.929688"/>
     <use xlink:href="#MicrosoftSansSerif-69" x="261.230469"/>
     <use xlink:href="#MicrosoftSansSerif-6d" x="284.033203"/>
     <use xlink:href="#MicrosoftSansSerif-65" x="367.333984"/>
     <use xlink:href="#MicrosoftSansSerif-6e" x="422.949219"/>
     <use xlink:href="#MicrosoftSansSerif-74" x="478.564453"/>
     <use xlink:href="#MicrosoftSansSerif-73" x="506.347656"/>
     <use xlink:href="#MicrosoftSansSerif-2c" x="556.347656"/>
     <use xlink:href="#MicrosoftSansSerif-20" x="584.130859"/>
     <use xlink:href="#MicrosoftSansSerif-4d" x="610.693359"/>
     <use xlink:href="#MicrosoftSansSerif-6f" x="693.994141"/>
     <use xlink:href="#MicrosoftSansSerif-64" x="749.609375"/>
     <use xlink:href="#MicrosoftSansSerif-65" x="805.224609"/>
     <use xlink:href="#MicrosoftSansSerif-6c" x="860.839844"/>
     <use xlink:href="#MicrosoftSansSerif-73" x="883.642578"/>
     <use xlink:href="#MicrosoftSansSerif-2c" x="933.642578"/>
     <use xlink:href="#MicrosoftSansSerif-20" x="961.425781"/>
     <use xlink:href="#MicrosoftSansSerif-49" x="987.988281"/>
     <use xlink:href="#MicrosoftSansSerif-6e" x="1015.771484"/>
     <use xlink:href="#MicrosoftSansSerif-73" x="1071.386719"/>
     <use xlink:href="#MicrosoftSansSerif-74" x="1121.386719"/>
     <use xlink:href="#MicrosoftSansSerif-69" x="1149.169922"/>
     <use xlink:href="#MicrosoftSansSerif-74" x="1171.972656"/>
     <use xlink:href="#MicrosoftSansSerif-75" x="1199.755859"/>
     <use xlink:href="#MicrosoftSansSerif-74" x="1255.371094"/>
     <use xlink:href="#MicrosoftSansSerif-69" x="1283.154297"/>
     <use xlink:href="#MicrosoftSansSerif-6f" x="1305.957031"/>
     <use xlink:href="#MicrosoftSansSerif-6e" x="1361.572266"/>
     <use xlink:href="#MicrosoftSansSerif-73" x="1417.1875"/>
     <use xlink:href="#MicrosoftSansSerif-20" x="1467.1875"/>
     <use xlink:href="#MicrosoftSansSerif-61" x="1493.75"/>
     <use xlink:href="#MicrosoftSansSerif-6e" x="1549.365234"/>
     <use xlink:href="#MicrosoftSansSerif-64" x="1604.980469"/>
     <use xlink:href="#MicrosoftSansSerif-20" x="1660.595703"/>
     <use xlink:href="#MicrosoftSansSerif-43" x="1687.158203"/>
     <use xlink:href="#MicrosoftSansSerif-6f" x="1759.375"/>
     <use xlink:href="#MicrosoftSansSerif-75" x="1814.990234"/>
     <use xlink:href="#MicrosoftSansSerif-6e" x="1870.605469"/>
     <use xlink:href="#MicrosoftSansSerif-74" x="1926.220703"/>
     <use xlink:href="#MicrosoftSansSerif-72" x="1954.003906"/>
     <use xlink:href="#MicrosoftSansSerif-79" x="1987.304688"/>
     <use xlink:href="#MicrosoftSansSerif-20" x="2037.304688"/>
     <use xlink:href="#MicrosoftSansSerif-63" x="2063.867188"/>
     <use xlink:href="#MicrosoftSansSerif-6f" x="2113.867188"/>
     <use xlink:href="#MicrosoftSansSerif-75" x="2169.482422"/>
     <use xlink:href="#MicrosoftSansSerif-6e" x="2225.097656"/>
     <use xlink:href="#MicrosoftSansSerif-74" x="2280.712891"/>
     <use xlink:href="#MicrosoftSansSerif-73" x="2308.496094"/>
     <use xlink:href="#MicrosoftSansSerif-20" x="2358.496094"/>
     <use xlink:href="#MicrosoftSansSerif-62" x="2385.058594"/>
     <use xlink:href="#MicrosoftSansSerif-79" x="2440.673828"/>
     <use xlink:href="#MicrosoftSansSerif-20" x="2490.673828"/>
     <use xlink:href="#MicrosoftSansSerif-2a" x="2517.236328"/>
     <use xlink:href="#MicrosoftSansSerif-4d" x="2556.152344"/>
     <use xlink:href="#MicrosoftSansSerif-49" x="2639.453125"/>
     <use xlink:href="#MicrosoftSansSerif-50" x="2667.236328"/>
     <use xlink:href="#MicrosoftSansSerif-20" x="2733.935547"/>
     <use xlink:href="#MicrosoftSansSerif-65" x="2760.498047"/>
     <use xlink:href="#MicrosoftSansSerif-72" x="2816.113281"/>
     <use xlink:href="#MicrosoftSansSerif-61" x="2849.414062"/>
    </g>
   </g>
   <g id="legend_1">
    <g id="patch_35">
     <path d="M 67.96 117.56 
L 189.090625 117.56 
Q 191.890625 117.56 191.890625 114.76 
L 191.890625 36.92 
Q 191.890625 34.12 189.090625 34.12 
L 67.96 34.12 
Q 65.16 34.12 65.16 36.92 
L 65.16 114.76 
Q 65.16 117.56 67.96 117.56 
z
" style="fill: #ffffff; opacity: 0.8; stroke: #cccccc; stroke-linejoin: miter"/>
    </g>
    <g id="patch_36">
     <path d="M 70.76 49.740937 
L 98.76 49.740937 
L 98.76 39.940937 
L 70.76 39.940937 
z
" style="fill: #1f77b4"/>
    </g>
    <g id="text_45">
     <!-- experiments -->
     <g transform="translate(109.96 49.740937) scale(0.14 -0.14)">
      <use xlink:href="#MicrosoftSansSerif-65"/>
      <use xlink:href="#MicrosoftSansSerif-78" x="55.615234"/>
      <use xlink:href="#MicrosoftSansSerif-70" x="105.615234"/>
      <use xlink:href="#MicrosoftSansSerif-65" x="161.230469"/>
      <use xlink:href="#MicrosoftSansSerif-72" x="216.845703"/>
      <use xlink:href="#MicrosoftSansSerif-69" x="250.146484"/>
      <use xlink:href="#MicrosoftSansSerif-6d" x="272.949219"/>
      <use xlink:href="#MicrosoftSansSerif-65" x="356.25"/>
      <use xlink:href="#MicrosoftSansSerif-6e" x="411.865234"/>
      <use xlink:href="#MicrosoftSansSerif-74" x="467.480469"/>
      <use xlink:href="#MicrosoftSansSerif-73" x="495.263672"/>
     </g>
    </g>
    <g id="patch_37">
     <path d="M 70.76 69.550937 
L 98.76 69.550937 
L 98.76 59.750937 
L 70.76 59.750937 
z
" style="fill: #ff7f0e"/>
    </g>
    <g id="text_46">
     <!-- models -->
     <g transform="translate(109.96 69.550937) scale(0.14 -0.14)">
      <use xlink:href="#MicrosoftSansSerif-6d"/>
      <use xlink:href="#MicrosoftSansSerif-6f" x="83.300781"/>
      <use xlink:href="#MicrosoftSansSerif-64" x="138.916016"/>
      <use xlink:href="#MicrosoftSansSerif-65" x="194.53125"/>
      <use xlink:href="#MicrosoftSansSerif-6c" x="250.146484"/>
      <use xlink:href="#MicrosoftSansSerif-73" x="272.949219"/>
     </g>
    </g>
    <g id="patch_38">
     <path d="M 70.76 89.360937 
L 98.76 89.360937 
L 98.76 79.560937 
L 70.76 79.560937 
z
" style="fill: #2ca02c"/>
    </g>
    <g id="text_47">
     <!-- institutions -->
     <g transform="translate(109.96 89.360937) scale(0.14 -0.14)">
      <use xlink:href="#MicrosoftSansSerif-69"/>
      <use xlink:href="#MicrosoftSansSerif-6e" x="22.802734"/>
      <use xlink:href="#MicrosoftSansSerif-73" x="78.417969"/>
      <use xlink:href="#MicrosoftSansSerif-74" x="128.417969"/>
      <use xlink:href="#MicrosoftSansSerif-69" x="156.201172"/>
      <use xlink:href="#MicrosoftSansSerif-74" x="179.003906"/>
      <use xlink:href="#MicrosoftSansSerif-75" x="206.787109"/>
      <use xlink:href="#MicrosoftSansSerif-74" x="262.402344"/>
      <use xlink:href="#MicrosoftSansSerif-69" x="290.185547"/>
      <use xlink:href="#MicrosoftSansSerif-6f" x="312.988281"/>
      <use xlink:href="#MicrosoftSansSerif-6e" x="368.603516"/>
      <use xlink:href="#MicrosoftSansSerif-73" x="424.21875"/>
     </g>
    </g>
    <g id="patch_39">
     <path d="M 70.76 109.170937 
L 98.76 109.170937 
L 98.76 99.370937 
L 70.76 99.370937 
z
" style="fill: #d62728"/>
    </g>
    <g id="text_48">
     <!-- countries -->
     <g transform="translate(109.96 109.170937) scale(0.14 -0.14)">
      <use xlink:href="#MicrosoftSansSerif-63"/>
      <use xlink:href="#MicrosoftSansSerif-6f" x="50"/>
      <use xlink:href="#MicrosoftSansSerif-75" x="105.615234"/>
      <use xlink:href="#MicrosoftSansSerif-6e" x="161.230469"/>
      <use xlink:href="#MicrosoftSansSerif-74" x="216.845703"/>
      <use xlink:href="#MicrosoftSansSerif-72" x="244.628906"/>
      <use xlink:href="#MicrosoftSansSerif-69" x="277.929688"/>
      <use xlink:href="#MicrosoftSansSerif-65" x="300.732422"/>
      <use xlink:href="#MicrosoftSansSerif-73" x="356.347656"/>
     </g>
    </g>
   </g>
  </g>
 </g>
 <defs>
  <clipPath id="p7cfd6edc2b">
   <rect x="58.16" y="27.12" width="579.04" height="374.12"/>
  </clipPath>
 </defs>
</svg>
