<?xml version="1.0" encoding="utf-8" standalone="no"?>
<!DOCTYPE svg PUBLIC "-//W3C//DTD SVG 1.1//EN"
  "http://www.w3.org/Graphics/SVG/1.1/DTD/svg11.dtd">
<svg xmlns:xlink="http://www.w3.org/1999/xlink" width="460.8pt" height="345.6pt" viewBox="0 0 460.8 345.6" xmlns="http://www.w3.org/2000/svg" version="1.1">
 <metadata>
  <rdf:RDF xmlns:dc="http://purl.org/dc/elements/1.1/" xmlns:cc="http://creativecommons.org/ns#" xmlns:rdf="http://www.w3.org/1999/02/22-rdf-syntax-ns#">
   <cc:Work>
    <dc:type rdf:resource="http://purl.org/dc/dcmitype/StillImage"/>
    <dc:date>2025-01-22T17:16:52.888842</dc:date>
    <dc:format>image/svg+xml</dc:format>
    <dc:creator>
     <cc:Agent>
      <dc:title>Matplotlib v3.9.2, https://matplotlib.org/</dc:title>
     </cc:Agent>
    </dc:creator>
   </cc:Work>
  </rdf:RDF>
 </metadata>
 <defs>
  <style type="text/css">*{stroke-linejoin: round; stroke-linecap: butt}</style>
 </defs>
 <g id="figure_1">
  <g id="patch_1">
   <path d="M 0 345.6 
L 460.8 345.6 
L 460.8 0 
L 0 0 
z
" style="fill: #ffffff"/>
  </g>
  <g id="axes_1">
   <g id="patch_2">
    <path d="M 60.800784 317 
L 450 317 
L 450 10.8 
L 60.800784 10.8 
z
" style="fill: #ffffff"/>
   </g>
   <g id="patch_3">
    <path d="M 78.491657 317 
L 117.804709 317 
L 117.804709 279.98324 
L 78.491657 279.98324 
z
" clip-path="url(#pad2836b959)" style="fill: #87ceeb"/>
   </g>
   <g id="patch_4">
    <path d="M 130.90906 317 
L 170.222112 317 
L 170.222112 185.5154 
L 130.90906 185.5154 
z
" clip-path="url(#pad2836b959)" style="fill: #87ceeb"/>
   </g>
   <g id="patch_5">
    <path d="M 183.326463 317 
L 222.639515 317 
L 222.639515 279.98324 
L 183.326463 279.98324 
z
" clip-path="url(#pad2836b959)" style="fill: #87ceeb"/>
   </g>
   <g id="patch_6">
    <path d="M 235.743866 317 
L 275.056918 317 
L 275.056918 185.5154 
L 235.743866 185.5154 
z
" clip-path="url(#pad2836b959)" style="fill: #87ceeb"/>
   </g>
   <g id="patch_7">
    <path d="M 288.161269 317 
L 327.474321 317 
L 327.474321 118.263114 
L 288.161269 118.263114 
z
" clip-path="url(#pad2836b959)" style="fill: #87ceeb"/>
   </g>
   <g id="patch_8">
    <path d="M 340.578672 317 
L 379.891724 317 
L 379.891724 61.922684 
L 340.578672 61.922684 
z
" clip-path="url(#pad2836b959)" style="fill: #87ceeb"/>
   </g>
   <g id="patch_9">
    <path d="M 392.996074 317 
L 432.309127 317 
L 432.309127 25.380952 
L 392.996074 25.380952 
z
" clip-path="url(#pad2836b959)" style="fill: #87ceeb"/>
   </g>
   <g id="matplotlib.axis_1">
    <g id="xtick_1">
     <g id="line2d_1">
      <defs>
       <path id="m1bc1b104c1" d="M 0 0 
L 0 3.5 
" style="stroke: #000000; stroke-width: 0.8"/>
      </defs>
      <g>
       <use xlink:href="#m1bc1b104c1" x="98.148183" y="317" style="stroke: #000000; stroke-width: 0.8"/>
      </g>
     </g>
     <g id="text_1">
      <!-- AMIP1 -->
      <g transform="translate(80.142558 332.589375) scale(0.12 -0.12)">
       <defs>
        <path id="MicrosoftSansSerif-41" d="M 2881 1875 
L 2075 4000 
L 1306 1875 
L 2881 1875 
z
M 4275 0 
L 3591 0 
L 3059 1394 
L 1141 1394 
L 634 0 
L -6 0 
L 1753 4581 
L 2406 4581 
L 4275 0 
z
" transform="scale(0.015625)"/>
        <path id="MicrosoftSansSerif-4d" d="M 4819 0 
L 4244 0 
L 4244 3897 
L 2938 0 
L 2394 0 
L 1088 3897 
L 1088 0 
L 513 0 
L 513 4581 
L 1422 4581 
L 2663 763 
L 3909 4581 
L 4819 4581 
L 4819 0 
z
" transform="scale(0.015625)"/>
        <path id="MicrosoftSansSerif-49" d="M 1197 0 
L 588 0 
L 588 4581 
L 1197 4581 
L 1197 0 
z
" transform="scale(0.015625)"/>
        <path id="MicrosoftSansSerif-50" d="M 513 4581 
L 2222 4581 
Q 2784 4581 3164 4476 
Q 3544 4372 3766 4023 
Q 3988 3675 3988 3244 
Q 3988 2550 3547 2190 
Q 3106 1831 2272 1831 
L 1119 1831 
L 1119 0 
L 513 0 
L 513 4581 
z
M 1119 2375 
L 2278 2375 
Q 2863 2375 3111 2594 
Q 3359 2813 3359 3225 
Q 3359 3500 3221 3712 
Q 3084 3925 2873 3981 
Q 2663 4038 2266 4038 
L 1119 4038 
L 1119 2375 
z
" transform="scale(0.015625)"/>
        <path id="MicrosoftSansSerif-31" d="M 2400 0 
L 1813 0 
L 1813 3603 
Q 1456 3366 709 3366 
L 709 3828 
Q 1788 3828 1947 4659 
L 2400 4659 
L 2400 0 
z
" transform="scale(0.015625)"/>
       </defs>
       <use xlink:href="#MicrosoftSansSerif-41"/>
       <use xlink:href="#MicrosoftSansSerif-4d" x="66.699219"/>
       <use xlink:href="#MicrosoftSansSerif-49" x="150"/>
       <use xlink:href="#MicrosoftSansSerif-50" x="177.783203"/>
       <use xlink:href="#MicrosoftSansSerif-31" x="244.482422"/>
      </g>
     </g>
    </g>
    <g id="xtick_2">
     <g id="line2d_2">
      <g>
       <use xlink:href="#m1bc1b104c1" x="150.565586" y="317" style="stroke: #000000; stroke-width: 0.8"/>
      </g>
     </g>
     <g id="text_2">
      <!-- AMIP2 -->
      <g transform="translate(132.559961 332.589375) scale(0.12 -0.12)">
       <defs>
        <path id="MicrosoftSansSerif-32" d="M 3231 0 
L 197 0 
Q 197 419 456 800 
Q 716 1181 1408 1739 
Q 2100 2297 2356 2630 
Q 2613 2963 2613 3384 
Q 2613 3763 2394 3980 
Q 2175 4197 1778 4197 
Q 1434 4197 1190 3978 
Q 947 3759 916 3334 
L 306 3334 
Q 356 3938 751 4298 
Q 1147 4659 1791 4659 
Q 2475 4659 2847 4292 
Q 3219 3925 3219 3372 
Q 3219 2872 2944 2489 
Q 2669 2106 1851 1425 
Q 1034 744 1019 544 
L 3231 544 
L 3231 0 
z
" transform="scale(0.015625)"/>
       </defs>
       <use xlink:href="#MicrosoftSansSerif-41"/>
       <use xlink:href="#MicrosoftSansSerif-4d" x="66.699219"/>
       <use xlink:href="#MicrosoftSansSerif-49" x="150"/>
       <use xlink:href="#MicrosoftSansSerif-50" x="177.783203"/>
       <use xlink:href="#MicrosoftSansSerif-32" x="244.482422"/>
      </g>
     </g>
    </g>
    <g id="xtick_3">
     <g id="line2d_3">
      <g>
       <use xlink:href="#m1bc1b104c1" x="202.982989" y="317" style="stroke: #000000; stroke-width: 0.8"/>
      </g>
     </g>
     <g id="text_3">
      <!-- CMIP1 -->
      <g transform="translate(184.646427 332.589375) scale(0.12 -0.12)">
       <defs>
        <path id="MicrosoftSansSerif-43" d="M 2431 -78 
Q 1459 -78 879 561 
Q 300 1200 300 2291 
Q 300 3381 879 4020 
Q 1459 4659 2431 4659 
Q 3178 4659 3703 4256 
Q 4228 3853 4294 3194 
L 3669 3194 
Q 3631 3628 3292 3884 
Q 2953 4141 2438 4141 
Q 1741 4141 1334 3661 
Q 928 3181 928 2291 
Q 928 1403 1331 922 
Q 1734 441 2425 441 
Q 2963 441 3294 703 
Q 3625 966 3669 1453 
L 4294 1453 
Q 4228 722 3718 322 
Q 3209 -78 2431 -78 
z
" transform="scale(0.015625)"/>
       </defs>
       <use xlink:href="#MicrosoftSansSerif-43"/>
       <use xlink:href="#MicrosoftSansSerif-4d" x="72.216797"/>
       <use xlink:href="#MicrosoftSansSerif-49" x="155.517578"/>
       <use xlink:href="#MicrosoftSansSerif-50" x="183.300781"/>
       <use xlink:href="#MicrosoftSansSerif-31" x="250"/>
      </g>
     </g>
    </g>
    <g id="xtick_4">
     <g id="line2d_4">
      <g>
       <use xlink:href="#m1bc1b104c1" x="255.400392" y="317" style="stroke: #000000; stroke-width: 0.8"/>
      </g>
     </g>
     <g id="text_4">
      <!-- CMIP2 -->
      <g transform="translate(237.063829 332.589375) scale(0.12 -0.12)">
       <use xlink:href="#MicrosoftSansSerif-43"/>
       <use xlink:href="#MicrosoftSansSerif-4d" x="72.216797"/>
       <use xlink:href="#MicrosoftSansSerif-49" x="155.517578"/>
       <use xlink:href="#MicrosoftSansSerif-50" x="183.300781"/>
       <use xlink:href="#MicrosoftSansSerif-32" x="250"/>
      </g>
     </g>
    </g>
    <g id="xtick_5">
     <g id="line2d_5">
      <g>
       <use xlink:href="#m1bc1b104c1" x="307.817795" y="317" style="stroke: #000000; stroke-width: 0.8"/>
      </g>
     </g>
     <g id="text_5">
      <!-- CMIP3 -->
      <g transform="translate(289.481232 332.589375) scale(0.12 -0.12)">
       <defs>
        <path id="MicrosoftSansSerif-33" d="M 2413 2516 
Q 2831 2406 3057 2090 
Q 3284 1775 3284 1350 
Q 3284 716 2850 319 
Q 2416 -78 1772 -78 
Q 1125 -78 719 275 
Q 313 628 281 1209 
L 891 1209 
Q 891 872 1119 628 
Q 1347 384 1772 384 
Q 2184 384 2429 650 
Q 2675 916 2675 1338 
Q 2675 1769 2420 2001 
Q 2166 2234 1678 2234 
L 1453 2234 
L 1453 2694 
L 1588 2694 
Q 2444 2694 2444 3481 
Q 2444 3828 2256 4012 
Q 2069 4197 1728 4197 
Q 1028 4197 947 3469 
L 341 3469 
Q 406 4050 784 4354 
Q 1163 4659 1716 4659 
Q 2328 4659 2690 4326 
Q 3053 3994 3053 3469 
Q 3053 3175 2895 2914 
Q 2738 2653 2413 2516 
z
" transform="scale(0.015625)"/>
       </defs>
       <use xlink:href="#MicrosoftSansSerif-43"/>
       <use xlink:href="#MicrosoftSansSerif-4d" x="72.216797"/>
       <use xlink:href="#MicrosoftSansSerif-49" x="155.517578"/>
       <use xlink:href="#MicrosoftSansSerif-50" x="183.300781"/>
       <use xlink:href="#MicrosoftSansSerif-33" x="250"/>
      </g>
     </g>
    </g>
    <g id="xtick_6">
     <g id="line2d_6">
      <g>
       <use xlink:href="#m1bc1b104c1" x="360.235198" y="317" style="stroke: #000000; stroke-width: 0.8"/>
      </g>
     </g>
     <g id="text_6">
      <!-- CMIP5 -->
      <g transform="translate(341.898635 332.589375) scale(0.12 -0.12)">
       <defs>
        <path id="MicrosoftSansSerif-35" d="M 1031 2766 
Q 1372 3041 1881 3041 
Q 2453 3041 2878 2636 
Q 3303 2231 3303 1556 
Q 3303 850 2876 386 
Q 2450 -78 1741 -78 
Q 1159 -78 746 244 
Q 334 566 269 1203 
L 878 1203 
Q 928 788 1167 586 
Q 1406 384 1741 384 
Q 2166 384 2430 706 
Q 2694 1028 2694 1503 
Q 2694 1984 2425 2262 
Q 2156 2541 1728 2541 
Q 1238 2541 897 2163 
L 434 2163 
L 628 4581 
L 3084 4581 
L 3084 4038 
L 1131 4038 
L 1031 2766 
z
" transform="scale(0.015625)"/>
       </defs>
       <use xlink:href="#MicrosoftSansSerif-43"/>
       <use xlink:href="#MicrosoftSansSerif-4d" x="72.216797"/>
       <use xlink:href="#MicrosoftSansSerif-49" x="155.517578"/>
       <use xlink:href="#MicrosoftSansSerif-50" x="183.300781"/>
       <use xlink:href="#MicrosoftSansSerif-35" x="250"/>
      </g>
     </g>
    </g>
    <g id="xtick_7">
     <g id="line2d_7">
      <g>
       <use xlink:href="#m1bc1b104c1" x="412.6526" y="317" style="stroke: #000000; stroke-width: 0.8"/>
      </g>
     </g>
     <g id="text_7">
      <!-- CMIP6 -->
      <g transform="translate(394.316038 332.589375) scale(0.12 -0.12)">
       <defs>
        <path id="MicrosoftSansSerif-36" d="M 884 2472 
Q 1338 2969 1925 2969 
Q 2500 2969 2895 2551 
Q 3291 2134 3291 1491 
Q 3291 838 2898 380 
Q 2506 -78 1856 -78 
Q 1113 -78 700 495 
Q 288 1069 288 2144 
Q 288 4659 1906 4659 
Q 2422 4659 2778 4371 
Q 3134 4084 3213 3519 
L 2606 3519 
Q 2528 4197 1875 4197 
Q 1453 4197 1192 3751 
Q 931 3306 884 2472 
z
M 878 2016 
Q 891 1228 1150 806 
Q 1409 384 1844 384 
Q 2225 384 2453 690 
Q 2681 997 2681 1453 
Q 2681 1916 2448 2212 
Q 2216 2509 1825 2509 
Q 1341 2509 878 2016 
z
" transform="scale(0.015625)"/>
       </defs>
       <use xlink:href="#MicrosoftSansSerif-43"/>
       <use xlink:href="#MicrosoftSansSerif-4d" x="72.216797"/>
       <use xlink:href="#MicrosoftSansSerif-49" x="155.517578"/>
       <use xlink:href="#MicrosoftSansSerif-50" x="183.300781"/>
       <use xlink:href="#MicrosoftSansSerif-36" x="250"/>
      </g>
     </g>
    </g>
   </g>
   <g id="matplotlib.axis_2">
    <g id="ytick_1">
     <g id="line2d_8">
      <defs>
       <path id="mb1458d7740" d="M 0 0 
L -3.5 0 
" style="stroke: #000000; stroke-width: 0.8"/>
      </defs>
      <g>
       <use xlink:href="#mb1458d7740" x="60.800784" y="317" style="stroke: #000000; stroke-width: 0.8"/>
      </g>
     </g>
     <g id="text_8">
      <!-- $\mathdefault{10^{8}}$ -->
      <g transform="translate(35.320784 321.294687) scale(0.12 -0.12)">
       <defs>
        <path id="MicrosoftSansSerif-30" d="M 1778 4659 
Q 3272 4659 3272 2284 
Q 3272 -78 1778 -78 
Q 288 -78 288 2284 
Q 288 4659 1778 4659 
z
M 1778 384 
Q 2213 384 2438 803 
Q 2663 1222 2663 2284 
Q 2663 3350 2438 3773 
Q 2213 4197 1778 4197 
Q 1347 4197 1122 3773 
Q 897 3350 897 2284 
Q 897 1222 1122 803 
Q 1347 384 1778 384 
z
" transform="scale(0.015625)"/>
        <path id="MicrosoftSansSerif-38" d="M 2338 2406 
Q 3291 1966 3291 1216 
Q 3291 638 2873 280 
Q 2456 -78 1778 -78 
Q 1103 -78 686 280 
Q 269 638 269 1216 
Q 269 1966 1222 2406 
Q 447 2853 447 3525 
Q 447 4022 814 4340 
Q 1181 4659 1778 4659 
Q 2378 4659 2743 4340 
Q 3109 4022 3109 3525 
Q 3109 2853 2338 2406 
z
M 1778 2650 
Q 2503 2975 2503 3525 
Q 2503 3841 2311 4019 
Q 2119 4197 1778 4197 
Q 1441 4197 1248 4019 
Q 1056 3841 1056 3525 
Q 1056 2975 1778 2650 
z
M 2681 1216 
Q 2681 1513 2465 1727 
Q 2250 1941 1778 2150 
Q 1309 1941 1093 1727 
Q 878 1513 878 1216 
Q 878 828 1125 606 
Q 1372 384 1778 384 
Q 2184 384 2432 606 
Q 2681 828 2681 1216 
z
" transform="scale(0.015625)"/>
       </defs>
       <use xlink:href="#MicrosoftSansSerif-31" transform="translate(0 0.773438)"/>
       <use xlink:href="#MicrosoftSansSerif-30" transform="translate(55.615234 0.773438)"/>
       <use xlink:href="#MicrosoftSansSerif-38" transform="translate(112.137187 37.042187) scale(0.7)"/>
      </g>
     </g>
    </g>
    <g id="ytick_2">
     <g id="line2d_9">
      <g>
       <use xlink:href="#mb1458d7740" x="60.800784" y="281.454561" style="stroke: #000000; stroke-width: 0.8"/>
      </g>
     </g>
     <g id="text_9">
      <!-- $\mathdefault{10^{9}}$ -->
      <g transform="translate(35.320784 285.749248) scale(0.12 -0.12)">
       <defs>
        <path id="MicrosoftSansSerif-39" d="M 2675 2113 
Q 2222 1613 1631 1613 
Q 1059 1613 664 2030 
Q 269 2447 269 3091 
Q 269 3744 661 4201 
Q 1053 4659 1703 4659 
Q 2447 4659 2859 4087 
Q 3272 3516 3272 2438 
Q 3272 -78 1650 -78 
Q 1138 -78 780 209 
Q 422 497 347 1063 
L 953 1063 
Q 1028 384 1684 384 
Q 2106 384 2365 829 
Q 2625 1275 2675 2113 
z
M 2681 2566 
Q 2669 3356 2409 3776 
Q 2150 4197 1716 4197 
Q 1334 4197 1106 3890 
Q 878 3584 878 3128 
Q 878 2666 1111 2370 
Q 1344 2075 1734 2075 
Q 2219 2075 2681 2566 
z
" transform="scale(0.015625)"/>
       </defs>
       <use xlink:href="#MicrosoftSansSerif-31" transform="translate(0 0.773438)"/>
       <use xlink:href="#MicrosoftSansSerif-30" transform="translate(55.615234 0.773438)"/>
       <use xlink:href="#MicrosoftSansSerif-39" transform="translate(112.137187 37.042187) scale(0.7)"/>
      </g>
     </g>
    </g>
    <g id="ytick_3">
     <g id="line2d_10">
      <g>
       <use xlink:href="#mb1458d7740" x="60.800784" y="245.909122" style="stroke: #000000; stroke-width: 0.8"/>
      </g>
     </g>
     <g id="text_10">
      <!-- $\mathdefault{10^{10}}$ -->
      <g transform="translate(30.640784 250.203809) scale(0.12 -0.12)">
       <use xlink:href="#MicrosoftSansSerif-31" transform="translate(0 0.773438)"/>
       <use xlink:href="#MicrosoftSansSerif-30" transform="translate(55.615234 0.773438)"/>
       <use xlink:href="#MicrosoftSansSerif-31" transform="translate(112.137187 37.042187) scale(0.7)"/>
       <use xlink:href="#MicrosoftSansSerif-30" transform="translate(151.067852 37.042187) scale(0.7)"/>
      </g>
     </g>
    </g>
    <g id="ytick_4">
     <g id="line2d_11">
      <g>
       <use xlink:href="#mb1458d7740" x="60.800784" y="210.363683" style="stroke: #000000; stroke-width: 0.8"/>
      </g>
     </g>
     <g id="text_11">
      <!-- $\mathdefault{10^{11}}$ -->
      <g transform="translate(30.640784 214.65837) scale(0.12 -0.12)">
       <use xlink:href="#MicrosoftSansSerif-31" transform="translate(0 0.773438)"/>
       <use xlink:href="#MicrosoftSansSerif-30" transform="translate(55.615234 0.773438)"/>
       <use xlink:href="#MicrosoftSansSerif-31" transform="translate(112.137187 37.042187) scale(0.7)"/>
       <use xlink:href="#MicrosoftSansSerif-31" transform="translate(151.067852 37.042187) scale(0.7)"/>
      </g>
     </g>
    </g>
    <g id="ytick_5">
     <g id="line2d_12">
      <g>
       <use xlink:href="#mb1458d7740" x="60.800784" y="174.818243" style="stroke: #000000; stroke-width: 0.8"/>
      </g>
     </g>
     <g id="text_12">
      <!-- $\mathdefault{10^{12}}$ -->
      <g transform="translate(30.640784 179.112931) scale(0.12 -0.12)">
       <use xlink:href="#MicrosoftSansSerif-31" transform="translate(0 0.773438)"/>
       <use xlink:href="#MicrosoftSansSerif-30" transform="translate(55.615234 0.773438)"/>
       <use xlink:href="#MicrosoftSansSerif-31" transform="translate(112.137187 37.042187) scale(0.7)"/>
       <use xlink:href="#MicrosoftSansSerif-32" transform="translate(151.067852 37.042187) scale(0.7)"/>
      </g>
     </g>
    </g>
    <g id="ytick_6">
     <g id="line2d_13">
      <g>
       <use xlink:href="#mb1458d7740" x="60.800784" y="139.272804" style="stroke: #000000; stroke-width: 0.8"/>
      </g>
     </g>
     <g id="text_13">
      <!-- $\mathdefault{10^{13}}$ -->
      <g transform="translate(30.640784 143.567492) scale(0.12 -0.12)">
       <use xlink:href="#MicrosoftSansSerif-31" transform="translate(0 0.773438)"/>
       <use xlink:href="#MicrosoftSansSerif-30" transform="translate(55.615234 0.773438)"/>
       <use xlink:href="#MicrosoftSansSerif-31" transform="translate(112.137187 37.042187) scale(0.7)"/>
       <use xlink:href="#MicrosoftSansSerif-33" transform="translate(151.067852 37.042187) scale(0.7)"/>
      </g>
     </g>
    </g>
    <g id="ytick_7">
     <g id="line2d_14">
      <g>
       <use xlink:href="#mb1458d7740" x="60.800784" y="103.727365" style="stroke: #000000; stroke-width: 0.8"/>
      </g>
     </g>
     <g id="text_14">
      <!-- $\mathdefault{10^{14}}$ -->
      <g transform="translate(30.640784 108.022053) scale(0.12 -0.12)">
       <defs>
        <path id="MicrosoftSansSerif-34" d="M 3263 1094 
L 2644 1094 
L 2644 0 
L 2053 0 
L 2053 1094 
L 97 1094 
L 97 1613 
L 2181 4641 
L 2644 4641 
L 2644 1613 
L 3263 1613 
L 3263 1094 
z
M 2053 1613 
L 2053 3713 
L 647 1613 
L 2053 1613 
z
" transform="scale(0.015625)"/>
       </defs>
       <use xlink:href="#MicrosoftSansSerif-31" transform="translate(0 0.773438)"/>
       <use xlink:href="#MicrosoftSansSerif-30" transform="translate(55.615234 0.773438)"/>
       <use xlink:href="#MicrosoftSansSerif-31" transform="translate(112.137187 37.042187) scale(0.7)"/>
       <use xlink:href="#MicrosoftSansSerif-34" transform="translate(151.067852 37.042187) scale(0.7)"/>
      </g>
     </g>
    </g>
    <g id="ytick_8">
     <g id="line2d_15">
      <g>
       <use xlink:href="#mb1458d7740" x="60.800784" y="68.181926" style="stroke: #000000; stroke-width: 0.8"/>
      </g>
     </g>
     <g id="text_15">
      <!-- $\mathdefault{10^{15}}$ -->
      <g transform="translate(30.640784 72.476614) scale(0.12 -0.12)">
       <use xlink:href="#MicrosoftSansSerif-31" transform="translate(0 0.773438)"/>
       <use xlink:href="#MicrosoftSansSerif-30" transform="translate(55.615234 0.773438)"/>
       <use xlink:href="#MicrosoftSansSerif-31" transform="translate(112.137187 37.042187) scale(0.7)"/>
       <use xlink:href="#MicrosoftSansSerif-35" transform="translate(151.067852 37.042187) scale(0.7)"/>
      </g>
     </g>
    </g>
    <g id="ytick_9">
     <g id="line2d_16">
      <g>
       <use xlink:href="#mb1458d7740" x="60.800784" y="32.636487" style="stroke: #000000; stroke-width: 0.8"/>
      </g>
     </g>
     <g id="text_16">
      <!-- $\mathdefault{10^{16}}$ -->
      <g transform="translate(30.640784 36.931174) scale(0.12 -0.12)">
       <use xlink:href="#MicrosoftSansSerif-31" transform="translate(0 0.773438)"/>
       <use xlink:href="#MicrosoftSansSerif-30" transform="translate(55.615234 0.773438)"/>
       <use xlink:href="#MicrosoftSansSerif-31" transform="translate(112.137187 37.042187) scale(0.7)"/>
       <use xlink:href="#MicrosoftSansSerif-36" transform="translate(151.067852 37.042187) scale(0.7)"/>
      </g>
     </g>
    </g>
    <g id="ytick_10">
     <g id="line2d_17">
      <defs>
       <path id="m7358ce13f0" d="M 0 0 
L -2 0 
" style="stroke: #000000; stroke-width: 0.6"/>
      </defs>
      <g>
       <use xlink:href="#m7358ce13f0" x="60.800784" y="306.299757" style="stroke: #000000; stroke-width: 0.6"/>
      </g>
     </g>
    </g>
    <g id="ytick_11">
     <g id="line2d_18">
      <g>
       <use xlink:href="#m7358ce13f0" x="60.800784" y="300.040515" style="stroke: #000000; stroke-width: 0.6"/>
      </g>
     </g>
    </g>
    <g id="ytick_12">
     <g id="line2d_19">
      <g>
       <use xlink:href="#m7358ce13f0" x="60.800784" y="295.599513" style="stroke: #000000; stroke-width: 0.6"/>
      </g>
     </g>
    </g>
    <g id="ytick_13">
     <g id="line2d_20">
      <g>
       <use xlink:href="#m7358ce13f0" x="60.800784" y="292.154804" style="stroke: #000000; stroke-width: 0.6"/>
      </g>
     </g>
    </g>
    <g id="ytick_14">
     <g id="line2d_21">
      <g>
       <use xlink:href="#m7358ce13f0" x="60.800784" y="289.340272" style="stroke: #000000; stroke-width: 0.6"/>
      </g>
     </g>
    </g>
    <g id="ytick_15">
     <g id="line2d_22">
      <g>
       <use xlink:href="#m7358ce13f0" x="60.800784" y="286.960619" style="stroke: #000000; stroke-width: 0.6"/>
      </g>
     </g>
    </g>
    <g id="ytick_16">
     <g id="line2d_23">
      <g>
       <use xlink:href="#m7358ce13f0" x="60.800784" y="284.89927" style="stroke: #000000; stroke-width: 0.6"/>
      </g>
     </g>
    </g>
    <g id="ytick_17">
     <g id="line2d_24">
      <g>
       <use xlink:href="#m7358ce13f0" x="60.800784" y="283.081031" style="stroke: #000000; stroke-width: 0.6"/>
      </g>
     </g>
    </g>
    <g id="ytick_18">
     <g id="line2d_25">
      <g>
       <use xlink:href="#m7358ce13f0" x="60.800784" y="270.754317" style="stroke: #000000; stroke-width: 0.6"/>
      </g>
     </g>
    </g>
    <g id="ytick_19">
     <g id="line2d_26">
      <g>
       <use xlink:href="#m7358ce13f0" x="60.800784" y="264.495076" style="stroke: #000000; stroke-width: 0.6"/>
      </g>
     </g>
    </g>
    <g id="ytick_20">
     <g id="line2d_27">
      <g>
       <use xlink:href="#m7358ce13f0" x="60.800784" y="260.054074" style="stroke: #000000; stroke-width: 0.6"/>
      </g>
     </g>
    </g>
    <g id="ytick_21">
     <g id="line2d_28">
      <g>
       <use xlink:href="#m7358ce13f0" x="60.800784" y="256.609365" style="stroke: #000000; stroke-width: 0.6"/>
      </g>
     </g>
    </g>
    <g id="ytick_22">
     <g id="line2d_29">
      <g>
       <use xlink:href="#m7358ce13f0" x="60.800784" y="253.794833" style="stroke: #000000; stroke-width: 0.6"/>
      </g>
     </g>
    </g>
    <g id="ytick_23">
     <g id="line2d_30">
      <g>
       <use xlink:href="#m7358ce13f0" x="60.800784" y="251.41518" style="stroke: #000000; stroke-width: 0.6"/>
      </g>
     </g>
    </g>
    <g id="ytick_24">
     <g id="line2d_31">
      <g>
       <use xlink:href="#m7358ce13f0" x="60.800784" y="249.353831" style="stroke: #000000; stroke-width: 0.6"/>
      </g>
     </g>
    </g>
    <g id="ytick_25">
     <g id="line2d_32">
      <g>
       <use xlink:href="#m7358ce13f0" x="60.800784" y="247.535592" style="stroke: #000000; stroke-width: 0.6"/>
      </g>
     </g>
    </g>
    <g id="ytick_26">
     <g id="line2d_33">
      <g>
       <use xlink:href="#m7358ce13f0" x="60.800784" y="235.208878" style="stroke: #000000; stroke-width: 0.6"/>
      </g>
     </g>
    </g>
    <g id="ytick_27">
     <g id="line2d_34">
      <g>
       <use xlink:href="#m7358ce13f0" x="60.800784" y="228.949637" style="stroke: #000000; stroke-width: 0.6"/>
      </g>
     </g>
    </g>
    <g id="ytick_28">
     <g id="line2d_35">
      <g>
       <use xlink:href="#m7358ce13f0" x="60.800784" y="224.508635" style="stroke: #000000; stroke-width: 0.6"/>
      </g>
     </g>
    </g>
    <g id="ytick_29">
     <g id="line2d_36">
      <g>
       <use xlink:href="#m7358ce13f0" x="60.800784" y="221.063926" style="stroke: #000000; stroke-width: 0.6"/>
      </g>
     </g>
    </g>
    <g id="ytick_30">
     <g id="line2d_37">
      <g>
       <use xlink:href="#m7358ce13f0" x="60.800784" y="218.249394" style="stroke: #000000; stroke-width: 0.6"/>
      </g>
     </g>
    </g>
    <g id="ytick_31">
     <g id="line2d_38">
      <g>
       <use xlink:href="#m7358ce13f0" x="60.800784" y="215.869741" style="stroke: #000000; stroke-width: 0.6"/>
      </g>
     </g>
    </g>
    <g id="ytick_32">
     <g id="line2d_39">
      <g>
       <use xlink:href="#m7358ce13f0" x="60.800784" y="213.808392" style="stroke: #000000; stroke-width: 0.6"/>
      </g>
     </g>
    </g>
    <g id="ytick_33">
     <g id="line2d_40">
      <g>
       <use xlink:href="#m7358ce13f0" x="60.800784" y="211.990153" style="stroke: #000000; stroke-width: 0.6"/>
      </g>
     </g>
    </g>
    <g id="ytick_34">
     <g id="line2d_41">
      <g>
       <use xlink:href="#m7358ce13f0" x="60.800784" y="199.663439" style="stroke: #000000; stroke-width: 0.6"/>
      </g>
     </g>
    </g>
    <g id="ytick_35">
     <g id="line2d_42">
      <g>
       <use xlink:href="#m7358ce13f0" x="60.800784" y="193.404198" style="stroke: #000000; stroke-width: 0.6"/>
      </g>
     </g>
    </g>
    <g id="ytick_36">
     <g id="line2d_43">
      <g>
       <use xlink:href="#m7358ce13f0" x="60.800784" y="188.963196" style="stroke: #000000; stroke-width: 0.6"/>
      </g>
     </g>
    </g>
    <g id="ytick_37">
     <g id="line2d_44">
      <g>
       <use xlink:href="#m7358ce13f0" x="60.800784" y="185.518487" style="stroke: #000000; stroke-width: 0.6"/>
      </g>
     </g>
    </g>
    <g id="ytick_38">
     <g id="line2d_45">
      <g>
       <use xlink:href="#m7358ce13f0" x="60.800784" y="182.703955" style="stroke: #000000; stroke-width: 0.6"/>
      </g>
     </g>
    </g>
    <g id="ytick_39">
     <g id="line2d_46">
      <g>
       <use xlink:href="#m7358ce13f0" x="60.800784" y="180.324302" style="stroke: #000000; stroke-width: 0.6"/>
      </g>
     </g>
    </g>
    <g id="ytick_40">
     <g id="line2d_47">
      <g>
       <use xlink:href="#m7358ce13f0" x="60.800784" y="178.262952" style="stroke: #000000; stroke-width: 0.6"/>
      </g>
     </g>
    </g>
    <g id="ytick_41">
     <g id="line2d_48">
      <g>
       <use xlink:href="#m7358ce13f0" x="60.800784" y="176.444714" style="stroke: #000000; stroke-width: 0.6"/>
      </g>
     </g>
    </g>
    <g id="ytick_42">
     <g id="line2d_49">
      <g>
       <use xlink:href="#m7358ce13f0" x="60.800784" y="164.118" style="stroke: #000000; stroke-width: 0.6"/>
      </g>
     </g>
    </g>
    <g id="ytick_43">
     <g id="line2d_50">
      <g>
       <use xlink:href="#m7358ce13f0" x="60.800784" y="157.858759" style="stroke: #000000; stroke-width: 0.6"/>
      </g>
     </g>
    </g>
    <g id="ytick_44">
     <g id="line2d_51">
      <g>
       <use xlink:href="#m7358ce13f0" x="60.800784" y="153.417757" style="stroke: #000000; stroke-width: 0.6"/>
      </g>
     </g>
    </g>
    <g id="ytick_45">
     <g id="line2d_52">
      <g>
       <use xlink:href="#m7358ce13f0" x="60.800784" y="149.973048" style="stroke: #000000; stroke-width: 0.6"/>
      </g>
     </g>
    </g>
    <g id="ytick_46">
     <g id="line2d_53">
      <g>
       <use xlink:href="#m7358ce13f0" x="60.800784" y="147.158516" style="stroke: #000000; stroke-width: 0.6"/>
      </g>
     </g>
    </g>
    <g id="ytick_47">
     <g id="line2d_54">
      <g>
       <use xlink:href="#m7358ce13f0" x="60.800784" y="144.778863" style="stroke: #000000; stroke-width: 0.6"/>
      </g>
     </g>
    </g>
    <g id="ytick_48">
     <g id="line2d_55">
      <g>
       <use xlink:href="#m7358ce13f0" x="60.800784" y="142.717513" style="stroke: #000000; stroke-width: 0.6"/>
      </g>
     </g>
    </g>
    <g id="ytick_49">
     <g id="line2d_56">
      <g>
       <use xlink:href="#m7358ce13f0" x="60.800784" y="140.899274" style="stroke: #000000; stroke-width: 0.6"/>
      </g>
     </g>
    </g>
    <g id="ytick_50">
     <g id="line2d_57">
      <g>
       <use xlink:href="#m7358ce13f0" x="60.800784" y="128.572561" style="stroke: #000000; stroke-width: 0.6"/>
      </g>
     </g>
    </g>
    <g id="ytick_51">
     <g id="line2d_58">
      <g>
       <use xlink:href="#m7358ce13f0" x="60.800784" y="122.31332" style="stroke: #000000; stroke-width: 0.6"/>
      </g>
     </g>
    </g>
    <g id="ytick_52">
     <g id="line2d_59">
      <g>
       <use xlink:href="#m7358ce13f0" x="60.800784" y="117.872318" style="stroke: #000000; stroke-width: 0.6"/>
      </g>
     </g>
    </g>
    <g id="ytick_53">
     <g id="line2d_60">
      <g>
       <use xlink:href="#m7358ce13f0" x="60.800784" y="114.427609" style="stroke: #000000; stroke-width: 0.6"/>
      </g>
     </g>
    </g>
    <g id="ytick_54">
     <g id="line2d_61">
      <g>
       <use xlink:href="#m7358ce13f0" x="60.800784" y="111.613076" style="stroke: #000000; stroke-width: 0.6"/>
      </g>
     </g>
    </g>
    <g id="ytick_55">
     <g id="line2d_62">
      <g>
       <use xlink:href="#m7358ce13f0" x="60.800784" y="109.233423" style="stroke: #000000; stroke-width: 0.6"/>
      </g>
     </g>
    </g>
    <g id="ytick_56">
     <g id="line2d_63">
      <g>
       <use xlink:href="#m7358ce13f0" x="60.800784" y="107.172074" style="stroke: #000000; stroke-width: 0.6"/>
      </g>
     </g>
    </g>
    <g id="ytick_57">
     <g id="line2d_64">
      <g>
       <use xlink:href="#m7358ce13f0" x="60.800784" y="105.353835" style="stroke: #000000; stroke-width: 0.6"/>
      </g>
     </g>
    </g>
    <g id="ytick_58">
     <g id="line2d_65">
      <g>
       <use xlink:href="#m7358ce13f0" x="60.800784" y="93.027122" style="stroke: #000000; stroke-width: 0.6"/>
      </g>
     </g>
    </g>
    <g id="ytick_59">
     <g id="line2d_66">
      <g>
       <use xlink:href="#m7358ce13f0" x="60.800784" y="86.767881" style="stroke: #000000; stroke-width: 0.6"/>
      </g>
     </g>
    </g>
    <g id="ytick_60">
     <g id="line2d_67">
      <g>
       <use xlink:href="#m7358ce13f0" x="60.800784" y="82.326878" style="stroke: #000000; stroke-width: 0.6"/>
      </g>
     </g>
    </g>
    <g id="ytick_61">
     <g id="line2d_68">
      <g>
       <use xlink:href="#m7358ce13f0" x="60.800784" y="78.882169" style="stroke: #000000; stroke-width: 0.6"/>
      </g>
     </g>
    </g>
    <g id="ytick_62">
     <g id="line2d_69">
      <g>
       <use xlink:href="#m7358ce13f0" x="60.800784" y="76.067637" style="stroke: #000000; stroke-width: 0.6"/>
      </g>
     </g>
    </g>
    <g id="ytick_63">
     <g id="line2d_70">
      <g>
       <use xlink:href="#m7358ce13f0" x="60.800784" y="73.687984" style="stroke: #000000; stroke-width: 0.6"/>
      </g>
     </g>
    </g>
    <g id="ytick_64">
     <g id="line2d_71">
      <g>
       <use xlink:href="#m7358ce13f0" x="60.800784" y="71.626635" style="stroke: #000000; stroke-width: 0.6"/>
      </g>
     </g>
    </g>
    <g id="ytick_65">
     <g id="line2d_72">
      <g>
       <use xlink:href="#m7358ce13f0" x="60.800784" y="69.808396" style="stroke: #000000; stroke-width: 0.6"/>
      </g>
     </g>
    </g>
    <g id="ytick_66">
     <g id="line2d_73">
      <g>
       <use xlink:href="#m7358ce13f0" x="60.800784" y="57.481683" style="stroke: #000000; stroke-width: 0.6"/>
      </g>
     </g>
    </g>
    <g id="ytick_67">
     <g id="line2d_74">
      <g>
       <use xlink:href="#m7358ce13f0" x="60.800784" y="51.222442" style="stroke: #000000; stroke-width: 0.6"/>
      </g>
     </g>
    </g>
    <g id="ytick_68">
     <g id="line2d_75">
      <g>
       <use xlink:href="#m7358ce13f0" x="60.800784" y="46.781439" style="stroke: #000000; stroke-width: 0.6"/>
      </g>
     </g>
    </g>
    <g id="ytick_69">
     <g id="line2d_76">
      <g>
       <use xlink:href="#m7358ce13f0" x="60.800784" y="43.33673" style="stroke: #000000; stroke-width: 0.6"/>
      </g>
     </g>
    </g>
    <g id="ytick_70">
     <g id="line2d_77">
      <g>
       <use xlink:href="#m7358ce13f0" x="60.800784" y="40.522198" style="stroke: #000000; stroke-width: 0.6"/>
      </g>
     </g>
    </g>
    <g id="ytick_71">
     <g id="line2d_78">
      <g>
       <use xlink:href="#m7358ce13f0" x="60.800784" y="38.142545" style="stroke: #000000; stroke-width: 0.6"/>
      </g>
     </g>
    </g>
    <g id="ytick_72">
     <g id="line2d_79">
      <g>
       <use xlink:href="#m7358ce13f0" x="60.800784" y="36.081196" style="stroke: #000000; stroke-width: 0.6"/>
      </g>
     </g>
    </g>
    <g id="ytick_73">
     <g id="line2d_80">
      <g>
       <use xlink:href="#m7358ce13f0" x="60.800784" y="34.262957" style="stroke: #000000; stroke-width: 0.6"/>
      </g>
     </g>
    </g>
    <g id="ytick_74">
     <g id="line2d_81">
      <g>
       <use xlink:href="#m7358ce13f0" x="60.800784" y="21.936244" style="stroke: #000000; stroke-width: 0.6"/>
      </g>
     </g>
    </g>
    <g id="ytick_75">
     <g id="line2d_82">
      <g>
       <use xlink:href="#m7358ce13f0" x="60.800784" y="15.677002" style="stroke: #000000; stroke-width: 0.6"/>
      </g>
     </g>
    </g>
    <g id="ytick_76">
     <g id="line2d_83">
      <g>
       <use xlink:href="#m7358ce13f0" x="60.800784" y="11.236" style="stroke: #000000; stroke-width: 0.6"/>
      </g>
     </g>
    </g>
    <g id="text_17">
     <!-- Published Data Size (bytes) -->
     <g transform="translate(23.280784 262.45625) rotate(-90) scale(0.16 -0.16)">
      <defs>
       <path id="MicrosoftSansSerif-75" d="M 2534 422 
Q 2094 -78 1544 -78 
Q 422 -78 422 1147 
L 422 3316 
L 1013 3316 
L 1013 1172 
Q 1013 766 1156 587 
Q 1300 409 1631 409 
Q 2125 409 2534 941 
L 2534 3316 
L 3122 3316 
L 3122 0 
L 2534 0 
L 2534 422 
z
" transform="scale(0.015625)"/>
       <path id="MicrosoftSansSerif-62" d="M 1025 2919 
Q 1419 3391 1972 3391 
Q 2622 3391 2978 2930 
Q 3334 2469 3334 1684 
Q 3334 869 2936 395 
Q 2538 -78 1931 -78 
Q 1394 -78 1025 256 
L 1025 0 
L 434 0 
L 434 4581 
L 1025 4581 
L 1025 2919 
z
M 1025 788 
Q 1403 384 1894 384 
Q 2275 384 2500 711 
Q 2725 1038 2725 1684 
Q 2725 2297 2512 2614 
Q 2300 2931 1919 2931 
Q 1428 2931 1025 2363 
L 1025 788 
z
" transform="scale(0.015625)"/>
       <path id="MicrosoftSansSerif-6c" d="M 1025 0 
L 434 0 
L 434 4581 
L 1025 4581 
L 1025 0 
z
" transform="scale(0.015625)"/>
       <path id="MicrosoftSansSerif-69" d="M 1025 0 
L 434 0 
L 434 3316 
L 1025 3316 
L 1025 0 
z
M 1025 3944 
L 434 3944 
L 434 4581 
L 1025 4581 
L 1025 3944 
z
" transform="scale(0.015625)"/>
       <path id="MicrosoftSansSerif-73" d="M 1619 -78 
Q 259 -78 197 991 
L 788 991 
Q 794 384 1613 384 
Q 1978 384 2170 536 
Q 2363 688 2363 916 
Q 2363 1141 2175 1233 
Q 1988 1325 1402 1472 
Q 816 1619 545 1800 
Q 275 1981 275 2438 
Q 275 2850 611 3120 
Q 947 3391 1509 3391 
Q 2813 3391 2841 2463 
L 2253 2463 
Q 2222 2931 1550 2931 
Q 1253 2931 1058 2818 
Q 863 2706 863 2491 
Q 863 2297 1013 2211 
Q 1163 2125 1764 1979 
Q 2366 1834 2658 1640 
Q 2950 1447 2950 972 
Q 2950 519 2589 220 
Q 2228 -78 1619 -78 
z
" transform="scale(0.015625)"/>
       <path id="MicrosoftSansSerif-68" d="M 1025 2894 
Q 1466 3391 2016 3391 
Q 3138 3391 3138 2169 
L 3138 0 
L 2547 0 
L 2547 2144 
Q 2547 2550 2401 2728 
Q 2256 2906 1925 2906 
Q 1475 2906 1025 2375 
L 1025 0 
L 434 0 
L 434 4581 
L 1025 4581 
L 1025 2894 
z
" transform="scale(0.015625)"/>
       <path id="MicrosoftSansSerif-65" d="M 1844 -78 
Q 1113 -78 669 380 
Q 225 838 225 1656 
Q 225 2469 654 2930 
Q 1084 3391 1778 3391 
Q 2488 3391 2911 2937 
Q 3334 2484 3334 1656 
L 3334 1516 
L 838 1516 
Q 875 941 1154 662 
Q 1434 384 1844 384 
Q 2153 384 2401 542 
Q 2650 700 2663 991 
L 3272 991 
Q 3203 478 2808 200 
Q 2413 -78 1844 -78 
z
M 2713 1978 
Q 2641 2456 2391 2693 
Q 2141 2931 1778 2931 
Q 1425 2931 1172 2695 
Q 919 2459 850 1978 
L 2713 1978 
z
" transform="scale(0.015625)"/>
       <path id="MicrosoftSansSerif-64" d="M 2534 953 
L 2534 2528 
Q 2153 2931 1663 2931 
Q 1284 2931 1057 2604 
Q 831 2278 831 1631 
Q 831 1019 1045 701 
Q 1259 384 1638 384 
Q 2131 384 2534 953 
z
M 2534 397 
Q 2141 -78 1588 -78 
Q 938 -78 581 384 
Q 225 847 225 1631 
Q 225 2444 623 2917 
Q 1022 3391 1625 3391 
Q 2163 3391 2534 3059 
L 2534 4581 
L 3122 4581 
L 3122 0 
L 2534 0 
L 2534 397 
z
" transform="scale(0.015625)"/>
       <path id="MicrosoftSansSerif-20" d="M 0 0 
L 0 0 
z
" transform="scale(0.015625)"/>
       <path id="MicrosoftSansSerif-44" d="M 513 4581 
L 1966 4581 
Q 4300 4581 4300 2316 
Q 4300 0 1966 0 
L 513 0 
L 513 4581 
z
M 1119 544 
L 1953 544 
Q 2950 544 3312 1008 
Q 3675 1472 3675 2316 
Q 3675 3138 3314 3588 
Q 2953 4038 1953 4038 
L 1119 4038 
L 1119 544 
z
" transform="scale(0.015625)"/>
       <path id="MicrosoftSansSerif-61" d="M 2534 872 
L 2534 1606 
L 2131 1606 
Q 850 1606 850 909 
Q 850 656 1037 520 
Q 1225 384 1544 384 
Q 1834 384 2106 515 
Q 2378 647 2534 872 
z
M 2534 341 
Q 2084 -78 1375 -78 
Q 881 -78 562 189 
Q 244 456 244 878 
Q 244 2041 2247 2041 
L 2534 2041 
Q 2534 2397 2496 2558 
Q 2459 2719 2287 2825 
Q 2116 2931 1741 2931 
Q 953 2931 928 2369 
L 341 2369 
Q 406 3391 1772 3391 
Q 2409 3391 2765 3137 
Q 3122 2884 3122 2144 
L 3122 0 
L 2534 0 
L 2534 341 
z
" transform="scale(0.015625)"/>
       <path id="MicrosoftSansSerif-74" d="M 1722 -6 
Q 1528 -44 1300 -44 
Q 938 -44 769 86 
Q 600 216 559 419 
Q 519 622 519 972 
L 519 2853 
L 109 2853 
L 109 3316 
L 519 3316 
L 519 4141 
L 1106 4141 
L 1106 3316 
L 1644 3316 
L 1644 2853 
L 1106 2853 
L 1106 941 
Q 1106 600 1192 508 
Q 1278 416 1428 416 
Q 1581 416 1722 441 
L 1722 -6 
z
" transform="scale(0.015625)"/>
       <path id="MicrosoftSansSerif-53" d="M 2241 -78 
Q 1272 -78 792 356 
Q 313 791 288 1472 
L 872 1472 
Q 919 959 1298 714 
Q 1678 469 2216 469 
Q 2725 469 3036 678 
Q 3347 888 3347 1247 
Q 3347 1625 3025 1797 
Q 2703 1969 1917 2136 
Q 1131 2303 789 2600 
Q 447 2897 447 3391 
Q 447 3947 892 4303 
Q 1338 4659 2075 4659 
Q 2850 4659 3325 4300 
Q 3800 3941 3828 3284 
L 3238 3284 
Q 3147 4116 2100 4116 
Q 1594 4116 1316 3925 
Q 1038 3734 1038 3419 
Q 1038 3131 1261 2987 
Q 1484 2844 2095 2709 
Q 2706 2575 3065 2444 
Q 3425 2313 3681 2036 
Q 3938 1759 3938 1294 
Q 3938 703 3467 312 
Q 2997 -78 2241 -78 
z
" transform="scale(0.015625)"/>
       <path id="MicrosoftSansSerif-7a" d="M 3066 0 
L 128 0 
L 128 500 
L 2194 2816 
L 250 2816 
L 250 3316 
L 2963 3316 
L 2963 2816 
L 897 500 
L 3066 500 
L 3066 0 
z
" transform="scale(0.015625)"/>
       <path id="MicrosoftSansSerif-28" d="M 1900 -1344 
L 1497 -1344 
Q 384 100 384 1656 
Q 384 3216 1497 4659 
L 1900 4659 
Q 966 3163 966 1656 
Q 966 153 1900 -1344 
z
" transform="scale(0.015625)"/>
       <path id="MicrosoftSansSerif-79" d="M 622 -800 
Q 1059 -800 1338 0 
L 84 3316 
L 722 3316 
L 1600 722 
L 2478 3316 
L 3116 3316 
L 1863 0 
Q 1681 -475 1554 -733 
Q 1428 -991 1223 -1167 
Q 1019 -1344 722 -1344 
Q 500 -1344 341 -1300 
L 341 -756 
Q 478 -800 622 -800 
z
" transform="scale(0.015625)"/>
       <path id="MicrosoftSansSerif-29" d="M 634 4659 
Q 1747 3216 1747 1656 
Q 1747 100 634 -1344 
L 231 -1344 
Q 1166 153 1166 1656 
Q 1166 3163 231 4659 
L 634 4659 
z
" transform="scale(0.015625)"/>
      </defs>
      <use xlink:href="#MicrosoftSansSerif-50"/>
      <use xlink:href="#MicrosoftSansSerif-75" x="66.699219"/>
      <use xlink:href="#MicrosoftSansSerif-62" x="122.314453"/>
      <use xlink:href="#MicrosoftSansSerif-6c" x="177.929688"/>
      <use xlink:href="#MicrosoftSansSerif-69" x="200.732422"/>
      <use xlink:href="#MicrosoftSansSerif-73" x="223.535156"/>
      <use xlink:href="#MicrosoftSansSerif-68" x="273.535156"/>
      <use xlink:href="#MicrosoftSansSerif-65" x="329.150391"/>
      <use xlink:href="#MicrosoftSansSerif-64" x="384.765625"/>
      <use xlink:href="#MicrosoftSansSerif-20" x="440.380859"/>
      <use xlink:href="#MicrosoftSansSerif-44" x="466.943359"/>
      <use xlink:href="#MicrosoftSansSerif-61" x="539.160156"/>
      <use xlink:href="#MicrosoftSansSerif-74" x="594.775391"/>
      <use xlink:href="#MicrosoftSansSerif-61" x="622.558594"/>
      <use xlink:href="#MicrosoftSansSerif-20" x="678.173828"/>
      <use xlink:href="#MicrosoftSansSerif-53" x="704.736328"/>
      <use xlink:href="#MicrosoftSansSerif-69" x="771.435547"/>
      <use xlink:href="#MicrosoftSansSerif-7a" x="794.238281"/>
      <use xlink:href="#MicrosoftSansSerif-65" x="844.238281"/>
      <use xlink:href="#MicrosoftSansSerif-20" x="899.853516"/>
      <use xlink:href="#MicrosoftSansSerif-28" x="926.416016"/>
      <use xlink:href="#MicrosoftSansSerif-62" x="959.716797"/>
      <use xlink:href="#MicrosoftSansSerif-79" x="1015.332031"/>
      <use xlink:href="#MicrosoftSansSerif-74" x="1065.332031"/>
      <use xlink:href="#MicrosoftSansSerif-65" x="1093.115234"/>
      <use xlink:href="#MicrosoftSansSerif-73" x="1148.730469"/>
      <use xlink:href="#MicrosoftSansSerif-29" x="1198.730469"/>
     </g>
    </g>
   </g>
   <g id="patch_10">
    <path d="M 60.800784 317 
L 60.800784 10.8 
" style="fill: none; stroke: #000000; stroke-width: 0.8; stroke-linejoin: miter; stroke-linecap: square"/>
   </g>
   <g id="patch_11">
    <path d="M 450 317 
L 450 10.8 
" style="fill: none; stroke: #000000; stroke-width: 0.8; stroke-linejoin: miter; stroke-linecap: square"/>
   </g>
   <g id="patch_12">
    <path d="M 60.800784 317 
L 450 317 
" style="fill: none; stroke: #000000; stroke-width: 0.8; stroke-linejoin: miter; stroke-linecap: square"/>
   </g>
   <g id="patch_13">
    <path d="M 60.800784 10.8 
L 450 10.8 
" style="fill: none; stroke: #000000; stroke-width: 0.8; stroke-linejoin: miter; stroke-linecap: square"/>
   </g>
   <g id="text_18">
    <!-- 1 GB -->
    <g transform="translate(86.815371 277.404394) scale(0.1 -0.1)">
     <defs>
      <path id="MicrosoftSansSerif-47" d="M 2516 -78 
Q 1528 -78 914 569 
Q 300 1216 300 2291 
Q 300 3369 906 4014 
Q 1513 4659 2497 4659 
Q 3325 4659 3873 4261 
Q 4422 3863 4488 3194 
L 3859 3194 
Q 3822 3638 3459 3889 
Q 3097 4141 2503 4141 
Q 1794 4141 1361 3656 
Q 928 3172 928 2291 
Q 928 1413 1365 927 
Q 1803 441 2509 441 
Q 3500 441 3981 1094 
L 3981 1791 
L 2772 1791 
L 2772 2338 
L 4569 2338 
L 4569 0 
L 4141 0 
L 3981 481 
Q 3516 -78 2516 -78 
z
" transform="scale(0.015625)"/>
      <path id="MicrosoftSansSerif-42" d="M 3938 1331 
Q 3938 688 3500 344 
Q 3063 0 2228 0 
L 513 0 
L 513 4581 
L 2144 4581 
Q 2875 4581 3294 4268 
Q 3713 3956 3713 3413 
Q 3713 2750 3053 2431 
Q 3497 2319 3717 2017 
Q 3938 1716 3938 1331 
z
M 1119 2663 
L 2138 2663 
Q 2641 2663 2878 2823 
Q 3116 2984 3116 3359 
Q 3116 3697 2884 3867 
Q 2653 4038 2081 4038 
L 1119 4038 
L 1119 2663 
z
M 1119 544 
L 2222 544 
Q 3309 544 3309 1331 
Q 3309 1741 3057 1930 
Q 2806 2119 2144 2119 
L 1119 2119 
L 1119 544 
z
" transform="scale(0.015625)"/>
     </defs>
     <use xlink:href="#MicrosoftSansSerif-31"/>
     <use xlink:href="#MicrosoftSansSerif-20" x="55.615234"/>
     <use xlink:href="#MicrosoftSansSerif-47" x="82.177734"/>
     <use xlink:href="#MicrosoftSansSerif-42" x="159.960938"/>
    </g>
   </g>
   <g id="text_19">
    <!-- 0.5 TB -->
    <g transform="translate(135.898399 182.703955) scale(0.1 -0.1)">
     <defs>
      <path id="MicrosoftSansSerif-2e" d="M 1209 0 
L 569 0 
L 569 641 
L 1209 641 
L 1209 0 
z
" transform="scale(0.015625)"/>
      <path id="MicrosoftSansSerif-54" d="M 3769 4038 
L 2253 4038 
L 2253 0 
L 1644 0 
L 1644 4038 
L 141 4038 
L 141 4581 
L 3769 4581 
L 3769 4038 
z
" transform="scale(0.015625)"/>
     </defs>
     <use xlink:href="#MicrosoftSansSerif-30"/>
     <use xlink:href="#MicrosoftSansSerif-2e" x="55.615234"/>
     <use xlink:href="#MicrosoftSansSerif-35" x="83.398438"/>
     <use xlink:href="#MicrosoftSansSerif-20" x="139.013672"/>
     <use xlink:href="#MicrosoftSansSerif-54" x="165.576172"/>
     <use xlink:href="#MicrosoftSansSerif-42" x="226.660156"/>
    </g>
   </g>
   <g id="text_20">
    <!-- 1 GB -->
    <g transform="translate(191.650177 277.404394) scale(0.1 -0.1)">
     <use xlink:href="#MicrosoftSansSerif-31"/>
     <use xlink:href="#MicrosoftSansSerif-20" x="55.615234"/>
     <use xlink:href="#MicrosoftSansSerif-47" x="82.177734"/>
     <use xlink:href="#MicrosoftSansSerif-42" x="159.960938"/>
    </g>
   </g>
   <g id="text_21">
    <!-- 0.5 TB -->
    <g transform="translate(240.733204 182.703955) scale(0.1 -0.1)">
     <use xlink:href="#MicrosoftSansSerif-30"/>
     <use xlink:href="#MicrosoftSansSerif-2e" x="55.615234"/>
     <use xlink:href="#MicrosoftSansSerif-35" x="83.398438"/>
     <use xlink:href="#MicrosoftSansSerif-20" x="139.013672"/>
     <use xlink:href="#MicrosoftSansSerif-54" x="165.576172"/>
     <use xlink:href="#MicrosoftSansSerif-42" x="226.660156"/>
    </g>
   </g>
   <g id="text_22">
    <!-- 39 TB -->
    <g transform="translate(294.53967 115.448621) scale(0.1 -0.1)">
     <use xlink:href="#MicrosoftSansSerif-33"/>
     <use xlink:href="#MicrosoftSansSerif-39" x="55.615234"/>
     <use xlink:href="#MicrosoftSansSerif-20" x="111.230469"/>
     <use xlink:href="#MicrosoftSansSerif-54" x="137.792969"/>
     <use xlink:href="#MicrosoftSansSerif-42" x="198.876953"/>
    </g>
   </g>
   <g id="text_23">
    <!-- 1.5 PB -->
    <g transform="translate(345.28676 59.108153) scale(0.1 -0.1)">
     <use xlink:href="#MicrosoftSansSerif-31"/>
     <use xlink:href="#MicrosoftSansSerif-2e" x="55.615234"/>
     <use xlink:href="#MicrosoftSansSerif-35" x="83.398438"/>
     <use xlink:href="#MicrosoftSansSerif-20" x="139.013672"/>
     <use xlink:href="#MicrosoftSansSerif-50" x="165.576172"/>
     <use xlink:href="#MicrosoftSansSerif-42" x="232.275391"/>
    </g>
   </g>
   <g id="text_24">
    <!-- 16.0 PB -->
    <g transform="translate(394.923694 22.56642) scale(0.1 -0.1)">
     <use xlink:href="#MicrosoftSansSerif-31"/>
     <use xlink:href="#MicrosoftSansSerif-36" x="55.615234"/>
     <use xlink:href="#MicrosoftSansSerif-2e" x="111.230469"/>
     <use xlink:href="#MicrosoftSansSerif-30" x="139.013672"/>
     <use xlink:href="#MicrosoftSansSerif-20" x="194.628906"/>
     <use xlink:href="#MicrosoftSansSerif-50" x="221.191406"/>
     <use xlink:href="#MicrosoftSansSerif-42" x="287.890625"/>
    </g>
   </g>
  </g>
 </g>
 <defs>
  <clipPath id="pad2836b959">
   <rect x="60.800784" y="10.8" width="389.199216" height="306.2"/>
  </clipPath>
 </defs>
</svg>
