<?xml version="1.0" encoding="utf-8" standalone="no"?>
<!DOCTYPE svg PUBLIC "-//W3C//DTD SVG 1.1//EN"
  "http://www.w3.org/Graphics/SVG/1.1/DTD/svg11.dtd">
<svg xmlns:xlink="http://www.w3.org/1999/xlink" width="1080pt" height="360pt" viewBox="0 0 1080 360" xmlns="http://www.w3.org/2000/svg" version="1.1">
 <metadata>
  <rdf:RDF xmlns:dc="http://purl.org/dc/elements/1.1/" xmlns:cc="http://creativecommons.org/ns#" xmlns:rdf="http://www.w3.org/1999/02/22-rdf-syntax-ns#">
   <cc:Work>
    <dc:type rdf:resource="http://purl.org/dc/dcmitype/StillImage"/>
    <dc:date>2025-01-22T17:16:52.286466</dc:date>
    <dc:format>image/svg+xml</dc:format>
    <dc:creator>
     <cc:Agent>
      <dc:title>Matplotlib v3.9.2, https://matplotlib.org/</dc:title>
     </cc:Agent>
    </dc:creator>
   </cc:Work>
  </rdf:RDF>
 </metadata>
 <defs>
  <style type="text/css">*{stroke-linejoin: round; stroke-linecap: butt}</style>
 </defs>
 <g id="figure_1">
  <g id="patch_1">
   <path d="M 0 360 
L 1080 360 
L 1080 0 
L 0 0 
z
" style="fill: #ffffff"/>
  </g>
  <g id="axes_1">
   <g id="patch_2">
    <path d="M 59.6686 95.59958 
L 1065.60914 95.59958 
L 1065.60914 46.122578 
L 59.6686 46.122578 
z
" style="fill: #ffffff"/>
   </g>
   <g id="patch_3">
    <path d="M 82.022834 128.584248 
L 111.82848 128.584248 
L 111.82848 123.444138 
L 82.022834 123.444138 
z
" clip-path="url(#pb4eda53e8e)" style="fill: #3182bd"/>
   </g>
   <g id="patch_4">
    <path d="M 119.279891 128.584248 
L 149.085537 128.584248 
L 149.085537 123.471625 
L 119.279891 123.471625 
z
" clip-path="url(#pb4eda53e8e)" style="fill: #3182bd"/>
   </g>
   <g id="patch_5">
    <path d="M 156.536948 128.584248 
L 186.342594 128.584248 
L 186.342594 125.093371 
L 156.536948 125.093371 
z
" clip-path="url(#pb4eda53e8e)" style="fill: #6baed6"/>
   </g>
   <g id="patch_6">
    <path d="M 193.794005 128.584248 
L 223.599651 128.584248 
L 223.599651 122.784444 
L 193.794005 122.784444 
z
" clip-path="url(#pb4eda53e8e)" style="fill: #9ecae1"/>
   </g>
   <g id="patch_7">
    <path d="M 231.051062 128.584248 
L 260.856708 128.584248 
L 260.856708 120.832851 
L 231.051062 120.832851 
z
" clip-path="url(#pb4eda53e8e)" style="fill: #9ecae1"/>
   </g>
   <g id="patch_8">
    <path d="M 268.308119 128.584248 
L 298.113765 128.584248 
L 298.113765 119.293567 
L 268.308119 119.293567 
z
" clip-path="url(#pb4eda53e8e)" style="fill: #c6dbef"/>
   </g>
   <g id="patch_9">
    <path d="M 305.565176 128.584248 
L 335.370822 128.584248 
L 335.370822 120.173158 
L 305.565176 120.173158 
z
" clip-path="url(#pb4eda53e8e)" style="fill: #e6550d"/>
   </g>
   <g id="patch_10">
    <path d="M 342.822233 128.584248 
L 372.627879 128.584248 
L 372.627879 127.567221 
L 342.822233 127.567221 
z
" clip-path="url(#pb4eda53e8e)" style="fill: #fd8d3c"/>
   </g>
   <g id="patch_11">
    <path d="M 380.079291 128.584248 
L 409.884936 128.584248 
L 409.884936 125.148345 
L 380.079291 125.148345 
z
" clip-path="url(#pb4eda53e8e)" style="fill: #fd8d3c"/>
   </g>
   <g id="patch_12">
    <path d="M 417.336348 128.584248 
L 447.141993 128.584248 
L 447.141993 124.40619 
L 417.336348 124.40619 
z
" clip-path="url(#pb4eda53e8e)" style="fill: #fdae6b"/>
   </g>
   <g id="patch_13">
    <path d="M 454.593405 128.584248 
L 484.39905 128.584248 
L 484.39905 126.412758 
L 454.593405 126.412758 
z
" clip-path="url(#pb4eda53e8e)" style="fill: #fdd0a2"/>
   </g>
   <g id="patch_14">
    <path d="M 491.850462 128.584248 
L 521.656107 128.584248 
L 521.656107 108.436114 
L 491.850462 108.436114 
z
" clip-path="url(#pb4eda53e8e)" style="fill: #31a354"/>
   </g>
   <g id="patch_15">
    <path d="M 529.107519 128.584248 
L 558.913164 128.584248 
L 558.913164 124.103831 
L 529.107519 124.103831 
z
" clip-path="url(#pb4eda53e8e)" style="fill: #31a354"/>
   </g>
   <g id="patch_16">
    <path d="M 566.364576 128.584248 
L 596.170221 128.584248 
L 596.170221 124.323729 
L 566.364576 124.323729 
z
" clip-path="url(#pb4eda53e8e)" style="fill: #74c476"/>
   </g>
   <g id="patch_17">
    <path d="M 603.621633 128.584248 
L 633.427278 128.584248 
L 633.427278 119.376029 
L 603.621633 119.376029 
z
" clip-path="url(#pb4eda53e8e)" style="fill: #a1d99b"/>
   </g>
   <g id="patch_18">
    <path d="M 640.87869 128.584248 
L 670.684335 128.584248 
L 670.684335 121.767417 
L 640.87869 121.767417 
z
" clip-path="url(#pb4eda53e8e)" style="fill: #c7e9c0"/>
   </g>
   <g id="patch_19">
    <path d="M 678.135747 128.584248 
L 707.941392 128.584248 
L 707.941392 124.626088 
L 678.135747 124.626088 
z
" clip-path="url(#pb4eda53e8e)" style="fill: #c7e9c0"/>
   </g>
   <g id="patch_20">
    <path d="M 715.392804 128.584248 
L 745.198449 128.584248 
L 745.198449 122.866906 
L 715.392804 122.866906 
z
" clip-path="url(#pb4eda53e8e)" style="fill: #756bb1"/>
   </g>
   <g id="patch_21">
    <path d="M 752.649861 128.584248 
L 782.455507 128.584248 
L 782.455507 124.21378 
L 752.649861 124.21378 
z
" clip-path="url(#pb4eda53e8e)" style="fill: #9e9ac8"/>
   </g>
   <g id="patch_22">
    <path d="M 789.906918 128.584248 
L 819.712564 128.584248 
L 819.712564 123.636548 
L 789.906918 123.636548 
z
" clip-path="url(#pb4eda53e8e)" style="fill: #bcbddc"/>
   </g>
   <g id="patch_23">
    <path d="M 827.163975 128.584248 
L 856.969621 128.584248 
L 856.969621 56.512749 
L 827.163975 56.512749 
z
" clip-path="url(#pb4eda53e8e)" style="fill: #bcbddc"/>
   </g>
   <g id="patch_24">
    <path d="M 864.421032 128.584248 
L 894.226678 128.584248 
L 894.226678 126.357783 
L 864.421032 126.357783 
z
" clip-path="url(#pb4eda53e8e)" style="fill: #dadaeb"/>
   </g>
   <g id="patch_25">
    <path d="M 901.678089 128.584248 
L 931.483735 128.584248 
L 931.483735 127.67717 
L 901.678089 127.67717 
z
" clip-path="url(#pb4eda53e8e)" style="fill: #636363"/>
   </g>
   <g id="patch_26">
    <path d="M 938.935146 128.584248 
L 968.740792 128.584248 
L 968.740792 124.736037 
L 938.935146 124.736037 
z
" clip-path="url(#pb4eda53e8e)" style="fill: #969696"/>
   </g>
   <g id="patch_27">
    <path d="M 976.192203 128.584248 
L 1005.997849 128.584248 
L 1005.997849 126.989989 
L 976.192203 126.989989 
z
" clip-path="url(#pb4eda53e8e)" style="fill: #969696"/>
   </g>
   <g id="patch_28">
    <path d="M 1013.44926 128.584248 
L 1043.254906 128.584248 
L 1043.254906 127.67717 
L 1013.44926 127.67717 
z
" clip-path="url(#pb4eda53e8e)" style="fill: #bdbdbd"/>
   </g>
   <g id="matplotlib.axis_1"/>
   <g id="matplotlib.axis_2">
    <g id="ytick_1">
     <g id="line2d_1">
      <path d="M 59.6686 73.609802 
L 1065.60914 73.609802 
" clip-path="url(#pb4eda53e8e)" style="fill: none; stroke-dasharray: 4,20.8; stroke-dashoffset: 0.8; stroke: #808080; stroke-width: 0.8"/>
     </g>
     <g id="line2d_2">
      <defs>
       <path id="md5dd786d32" d="M 0 0 
L -3.5 0 
" style="stroke: #000000; stroke-width: 0.8"/>
      </defs>
      <g>
       <use xlink:href="#md5dd786d32" x="59.6686" y="73.609802" style="stroke: #000000; stroke-width: 0.8"/>
      </g>
     </g>
     <g id="text_1">
      <!-- 2000 -->
      <g transform="translate(21.52735 78.62027) scale(0.14 -0.14)">
       <defs>
        <path id="MicrosoftSansSerif-32" d="M 3231 0 
L 197 0 
Q 197 419 456 800 
Q 716 1181 1408 1739 
Q 2100 2297 2356 2630 
Q 2613 2963 2613 3384 
Q 2613 3763 2394 3980 
Q 2175 4197 1778 4197 
Q 1434 4197 1190 3978 
Q 947 3759 916 3334 
L 306 3334 
Q 356 3938 751 4298 
Q 1147 4659 1791 4659 
Q 2475 4659 2847 4292 
Q 3219 3925 3219 3372 
Q 3219 2872 2944 2489 
Q 2669 2106 1851 1425 
Q 1034 744 1019 544 
L 3231 544 
L 3231 0 
z
" transform="scale(0.015625)"/>
        <path id="MicrosoftSansSerif-30" d="M 1778 4659 
Q 3272 4659 3272 2284 
Q 3272 -78 1778 -78 
Q 288 -78 288 2284 
Q 288 4659 1778 4659 
z
M 1778 384 
Q 2213 384 2438 803 
Q 2663 1222 2663 2284 
Q 2663 3350 2438 3773 
Q 2213 4197 1778 4197 
Q 1347 4197 1122 3773 
Q 897 3350 897 2284 
Q 897 1222 1122 803 
Q 1347 384 1778 384 
z
" transform="scale(0.015625)"/>
       </defs>
       <use xlink:href="#MicrosoftSansSerif-32"/>
       <use xlink:href="#MicrosoftSansSerif-30" x="55.615234"/>
       <use xlink:href="#MicrosoftSansSerif-30" x="111.230469"/>
       <use xlink:href="#MicrosoftSansSerif-30" x="166.845703"/>
      </g>
     </g>
    </g>
    <g id="ytick_2">
     <g id="line2d_3">
      <path d="M 59.6686 46.122578 
L 1065.60914 46.122578 
" clip-path="url(#pb4eda53e8e)" style="fill: none; stroke-dasharray: 4,20.8; stroke-dashoffset: 0.8; stroke: #808080; stroke-width: 0.8"/>
     </g>
     <g id="line2d_4">
      <g>
       <use xlink:href="#md5dd786d32" x="59.6686" y="46.122578" style="stroke: #000000; stroke-width: 0.8"/>
      </g>
     </g>
     <g id="text_2">
      <!-- 3000 -->
      <g transform="translate(21.52735 51.133047) scale(0.14 -0.14)">
       <defs>
        <path id="MicrosoftSansSerif-33" d="M 2413 2516 
Q 2831 2406 3057 2090 
Q 3284 1775 3284 1350 
Q 3284 716 2850 319 
Q 2416 -78 1772 -78 
Q 1125 -78 719 275 
Q 313 628 281 1209 
L 891 1209 
Q 891 872 1119 628 
Q 1347 384 1772 384 
Q 2184 384 2429 650 
Q 2675 916 2675 1338 
Q 2675 1769 2420 2001 
Q 2166 2234 1678 2234 
L 1453 2234 
L 1453 2694 
L 1588 2694 
Q 2444 2694 2444 3481 
Q 2444 3828 2256 4012 
Q 2069 4197 1728 4197 
Q 1028 4197 947 3469 
L 341 3469 
Q 406 4050 784 4354 
Q 1163 4659 1716 4659 
Q 2328 4659 2690 4326 
Q 3053 3994 3053 3469 
Q 3053 3175 2895 2914 
Q 2738 2653 2413 2516 
z
" transform="scale(0.015625)"/>
       </defs>
       <use xlink:href="#MicrosoftSansSerif-33"/>
       <use xlink:href="#MicrosoftSansSerif-30" x="55.615234"/>
       <use xlink:href="#MicrosoftSansSerif-30" x="111.230469"/>
       <use xlink:href="#MicrosoftSansSerif-30" x="166.845703"/>
      </g>
     </g>
    </g>
   </g>
   <g id="line2d_5">
    <path d="M 56.147808 96.205674 
L 63.189392 94.993487 
" style="fill: none; stroke: #000000; stroke-width: 1.5; stroke-linecap: square"/>
   </g>
   <g id="line2d_6">
    <path d="M 837.763608 96.205674 
L 844.805191 94.993487 
" style="fill: none; stroke: #000000; stroke-width: 1.5; stroke-linecap: square"/>
   </g>
   <g id="line2d_7">
    <path d="M 1062.088348 96.205674 
L 1069.129932 94.993487 
" style="fill: none; stroke: #000000; stroke-width: 1.5; stroke-linecap: square"/>
   </g>
   <g id="patch_29">
    <path d="M 59.6686 95.59958 
L 59.6686 46.122578 
" style="fill: none; stroke: #000000; stroke-width: 0.8; stroke-linejoin: miter; stroke-linecap: square"/>
   </g>
   <g id="patch_30">
    <path d="M 1065.60914 95.59958 
L 1065.60914 46.122578 
" style="fill: none; stroke: #000000; stroke-width: 0.8; stroke-linejoin: miter; stroke-linecap: square"/>
   </g>
   <g id="patch_31">
    <path d="M 59.6686 46.122578 
L 1065.60914 46.122578 
" style="fill: none; stroke: #000000; stroke-width: 0.8; stroke-linejoin: miter; stroke-linecap: square"/>
   </g>
   <g id="text_3">
    <!-- CMIP6 Community Paper Citation Counts since Publication -->
    <g transform="translate(379.23887 40.122578) scale(0.14 -0.14)">
     <defs>
      <path id="MicrosoftSansSerif-43" d="M 2431 -78 
Q 1459 -78 879 561 
Q 300 1200 300 2291 
Q 300 3381 879 4020 
Q 1459 4659 2431 4659 
Q 3178 4659 3703 4256 
Q 4228 3853 4294 3194 
L 3669 3194 
Q 3631 3628 3292 3884 
Q 2953 4141 2438 4141 
Q 1741 4141 1334 3661 
Q 928 3181 928 2291 
Q 928 1403 1331 922 
Q 1734 441 2425 441 
Q 2963 441 3294 703 
Q 3625 966 3669 1453 
L 4294 1453 
Q 4228 722 3718 322 
Q 3209 -78 2431 -78 
z
" transform="scale(0.015625)"/>
      <path id="MicrosoftSansSerif-4d" d="M 4819 0 
L 4244 0 
L 4244 3897 
L 2938 0 
L 2394 0 
L 1088 3897 
L 1088 0 
L 513 0 
L 513 4581 
L 1422 4581 
L 2663 763 
L 3909 4581 
L 4819 4581 
L 4819 0 
z
" transform="scale(0.015625)"/>
      <path id="MicrosoftSansSerif-49" d="M 1197 0 
L 588 0 
L 588 4581 
L 1197 4581 
L 1197 0 
z
" transform="scale(0.015625)"/>
      <path id="MicrosoftSansSerif-50" d="M 513 4581 
L 2222 4581 
Q 2784 4581 3164 4476 
Q 3544 4372 3766 4023 
Q 3988 3675 3988 3244 
Q 3988 2550 3547 2190 
Q 3106 1831 2272 1831 
L 1119 1831 
L 1119 0 
L 513 0 
L 513 4581 
z
M 1119 2375 
L 2278 2375 
Q 2863 2375 3111 2594 
Q 3359 2813 3359 3225 
Q 3359 3500 3221 3712 
Q 3084 3925 2873 3981 
Q 2663 4038 2266 4038 
L 1119 4038 
L 1119 2375 
z
" transform="scale(0.015625)"/>
      <path id="MicrosoftSansSerif-36" d="M 884 2472 
Q 1338 2969 1925 2969 
Q 2500 2969 2895 2551 
Q 3291 2134 3291 1491 
Q 3291 838 2898 380 
Q 2506 -78 1856 -78 
Q 1113 -78 700 495 
Q 288 1069 288 2144 
Q 288 4659 1906 4659 
Q 2422 4659 2778 4371 
Q 3134 4084 3213 3519 
L 2606 3519 
Q 2528 4197 1875 4197 
Q 1453 4197 1192 3751 
Q 931 3306 884 2472 
z
M 878 2016 
Q 891 1228 1150 806 
Q 1409 384 1844 384 
Q 2225 384 2453 690 
Q 2681 997 2681 1453 
Q 2681 1916 2448 2212 
Q 2216 2509 1825 2509 
Q 1341 2509 878 2016 
z
" transform="scale(0.015625)"/>
      <path id="MicrosoftSansSerif-20" d="M 0 0 
L 0 0 
z
" transform="scale(0.015625)"/>
      <path id="MicrosoftSansSerif-6f" d="M 1778 3391 
Q 2488 3391 2911 2937 
Q 3334 2484 3334 1656 
Q 3334 831 2911 376 
Q 2488 -78 1778 -78 
Q 1072 -78 648 376 
Q 225 831 225 1656 
Q 225 2484 648 2937 
Q 1072 3391 1778 3391 
z
M 1778 384 
Q 2200 384 2462 704 
Q 2725 1025 2725 1656 
Q 2725 2291 2462 2611 
Q 2200 2931 1778 2931 
Q 1356 2931 1093 2611 
Q 831 2291 831 1656 
Q 831 1025 1093 704 
Q 1356 384 1778 384 
z
" transform="scale(0.015625)"/>
      <path id="MicrosoftSansSerif-6d" d="M 4916 0 
L 4325 0 
L 4325 2144 
Q 4325 2556 4206 2731 
Q 4088 2906 3809 2906 
Q 3381 2906 2969 2375 
L 2969 0 
L 2381 0 
L 2381 2144 
Q 2381 2556 2262 2731 
Q 2144 2906 1863 2906 
Q 1434 2906 1025 2375 
L 1025 0 
L 434 0 
L 434 3316 
L 1025 3316 
L 1025 2894 
Q 1444 3391 1953 3391 
Q 2681 3391 2881 2791 
Q 3213 3181 3444 3286 
Q 3675 3391 3897 3391 
Q 4916 3391 4916 2169 
L 4916 0 
z
" transform="scale(0.015625)"/>
      <path id="MicrosoftSansSerif-75" d="M 2534 422 
Q 2094 -78 1544 -78 
Q 422 -78 422 1147 
L 422 3316 
L 1013 3316 
L 1013 1172 
Q 1013 766 1156 587 
Q 1300 409 1631 409 
Q 2125 409 2534 941 
L 2534 3316 
L 3122 3316 
L 3122 0 
L 2534 0 
L 2534 422 
z
" transform="scale(0.015625)"/>
      <path id="MicrosoftSansSerif-6e" d="M 1025 2894 
Q 1466 3391 2016 3391 
Q 3138 3391 3138 2169 
L 3138 0 
L 2547 0 
L 2547 2144 
Q 2547 2550 2401 2728 
Q 2256 2906 1925 2906 
Q 1475 2906 1025 2375 
L 1025 0 
L 434 0 
L 434 3316 
L 1025 3316 
L 1025 2894 
z
" transform="scale(0.015625)"/>
      <path id="MicrosoftSansSerif-69" d="M 1025 0 
L 434 0 
L 434 3316 
L 1025 3316 
L 1025 0 
z
M 1025 3944 
L 434 3944 
L 434 4581 
L 1025 4581 
L 1025 3944 
z
" transform="scale(0.015625)"/>
      <path id="MicrosoftSansSerif-74" d="M 1722 -6 
Q 1528 -44 1300 -44 
Q 938 -44 769 86 
Q 600 216 559 419 
Q 519 622 519 972 
L 519 2853 
L 109 2853 
L 109 3316 
L 519 3316 
L 519 4141 
L 1106 4141 
L 1106 3316 
L 1644 3316 
L 1644 2853 
L 1106 2853 
L 1106 941 
Q 1106 600 1192 508 
Q 1278 416 1428 416 
Q 1581 416 1722 441 
L 1722 -6 
z
" transform="scale(0.015625)"/>
      <path id="MicrosoftSansSerif-79" d="M 622 -800 
Q 1059 -800 1338 0 
L 84 3316 
L 722 3316 
L 1600 722 
L 2478 3316 
L 3116 3316 
L 1863 0 
Q 1681 -475 1554 -733 
Q 1428 -991 1223 -1167 
Q 1019 -1344 722 -1344 
Q 500 -1344 341 -1300 
L 341 -756 
Q 478 -800 622 -800 
z
" transform="scale(0.015625)"/>
      <path id="MicrosoftSansSerif-61" d="M 2534 872 
L 2534 1606 
L 2131 1606 
Q 850 1606 850 909 
Q 850 656 1037 520 
Q 1225 384 1544 384 
Q 1834 384 2106 515 
Q 2378 647 2534 872 
z
M 2534 341 
Q 2084 -78 1375 -78 
Q 881 -78 562 189 
Q 244 456 244 878 
Q 244 2041 2247 2041 
L 2534 2041 
Q 2534 2397 2496 2558 
Q 2459 2719 2287 2825 
Q 2116 2931 1741 2931 
Q 953 2931 928 2369 
L 341 2369 
Q 406 3391 1772 3391 
Q 2409 3391 2765 3137 
Q 3122 2884 3122 2144 
L 3122 0 
L 2534 0 
L 2534 341 
z
" transform="scale(0.015625)"/>
      <path id="MicrosoftSansSerif-70" d="M 1025 2919 
Q 1419 3391 1972 3391 
Q 2622 3391 2978 2930 
Q 3334 2469 3334 1684 
Q 3334 869 2936 395 
Q 2538 -78 1931 -78 
Q 1394 -78 1025 256 
L 1025 -1275 
L 434 -1275 
L 434 3316 
L 1025 3316 
L 1025 2919 
z
M 1025 788 
Q 1403 384 1894 384 
Q 2275 384 2500 711 
Q 2725 1038 2725 1684 
Q 2725 2297 2512 2614 
Q 2300 2931 1919 2931 
Q 1428 2931 1025 2363 
L 1025 788 
z
" transform="scale(0.015625)"/>
      <path id="MicrosoftSansSerif-65" d="M 1844 -78 
Q 1113 -78 669 380 
Q 225 838 225 1656 
Q 225 2469 654 2930 
Q 1084 3391 1778 3391 
Q 2488 3391 2911 2937 
Q 3334 2484 3334 1656 
L 3334 1516 
L 838 1516 
Q 875 941 1154 662 
Q 1434 384 1844 384 
Q 2153 384 2401 542 
Q 2650 700 2663 991 
L 3272 991 
Q 3203 478 2808 200 
Q 2413 -78 1844 -78 
z
M 2713 1978 
Q 2641 2456 2391 2693 
Q 2141 2931 1778 2931 
Q 1425 2931 1172 2695 
Q 919 2459 850 1978 
L 2713 1978 
z
" transform="scale(0.015625)"/>
      <path id="MicrosoftSansSerif-72" d="M 2156 2778 
Q 2031 2816 1797 2816 
Q 1347 2816 1025 2344 
L 1025 0 
L 434 0 
L 434 3316 
L 1025 3316 
L 1025 2853 
Q 1397 3391 1888 3391 
Q 2013 3391 2156 3366 
L 2156 2778 
z
" transform="scale(0.015625)"/>
      <path id="MicrosoftSansSerif-73" d="M 1619 -78 
Q 259 -78 197 991 
L 788 991 
Q 794 384 1613 384 
Q 1978 384 2170 536 
Q 2363 688 2363 916 
Q 2363 1141 2175 1233 
Q 1988 1325 1402 1472 
Q 816 1619 545 1800 
Q 275 1981 275 2438 
Q 275 2850 611 3120 
Q 947 3391 1509 3391 
Q 2813 3391 2841 2463 
L 2253 2463 
Q 2222 2931 1550 2931 
Q 1253 2931 1058 2818 
Q 863 2706 863 2491 
Q 863 2297 1013 2211 
Q 1163 2125 1764 1979 
Q 2366 1834 2658 1640 
Q 2950 1447 2950 972 
Q 2950 519 2589 220 
Q 2228 -78 1619 -78 
z
" transform="scale(0.015625)"/>
      <path id="MicrosoftSansSerif-63" d="M 1778 -78 
Q 1072 -78 648 376 
Q 225 831 225 1656 
Q 225 2484 648 2937 
Q 1072 3391 1778 3391 
Q 2322 3391 2686 3116 
Q 3050 2841 3116 2322 
L 2509 2322 
Q 2497 2619 2286 2775 
Q 2075 2931 1778 2931 
Q 1356 2931 1093 2611 
Q 831 2291 831 1656 
Q 831 1025 1093 704 
Q 1356 384 1778 384 
Q 2075 384 2286 540 
Q 2497 697 2509 991 
L 3116 991 
Q 3050 472 2686 197 
Q 2322 -78 1778 -78 
z
" transform="scale(0.015625)"/>
      <path id="MicrosoftSansSerif-62" d="M 1025 2919 
Q 1419 3391 1972 3391 
Q 2622 3391 2978 2930 
Q 3334 2469 3334 1684 
Q 3334 869 2936 395 
Q 2538 -78 1931 -78 
Q 1394 -78 1025 256 
L 1025 0 
L 434 0 
L 434 4581 
L 1025 4581 
L 1025 2919 
z
M 1025 788 
Q 1403 384 1894 384 
Q 2275 384 2500 711 
Q 2725 1038 2725 1684 
Q 2725 2297 2512 2614 
Q 2300 2931 1919 2931 
Q 1428 2931 1025 2363 
L 1025 788 
z
" transform="scale(0.015625)"/>
      <path id="MicrosoftSansSerif-6c" d="M 1025 0 
L 434 0 
L 434 4581 
L 1025 4581 
L 1025 0 
z
" transform="scale(0.015625)"/>
     </defs>
     <use xlink:href="#MicrosoftSansSerif-43"/>
     <use xlink:href="#MicrosoftSansSerif-4d" x="72.216797"/>
     <use xlink:href="#MicrosoftSansSerif-49" x="155.517578"/>
     <use xlink:href="#MicrosoftSansSerif-50" x="183.300781"/>
     <use xlink:href="#MicrosoftSansSerif-36" x="250"/>
     <use xlink:href="#MicrosoftSansSerif-20" x="305.615234"/>
     <use xlink:href="#MicrosoftSansSerif-43" x="332.177734"/>
     <use xlink:href="#MicrosoftSansSerif-6f" x="404.394531"/>
     <use xlink:href="#MicrosoftSansSerif-6d" x="460.009766"/>
     <use xlink:href="#MicrosoftSansSerif-6d" x="543.310547"/>
     <use xlink:href="#MicrosoftSansSerif-75" x="626.611328"/>
     <use xlink:href="#MicrosoftSansSerif-6e" x="682.226562"/>
     <use xlink:href="#MicrosoftSansSerif-69" x="737.841797"/>
     <use xlink:href="#MicrosoftSansSerif-74" x="760.644531"/>
     <use xlink:href="#MicrosoftSansSerif-79" x="788.427734"/>
     <use xlink:href="#MicrosoftSansSerif-20" x="838.427734"/>
     <use xlink:href="#MicrosoftSansSerif-50" x="864.990234"/>
     <use xlink:href="#MicrosoftSansSerif-61" x="931.689453"/>
     <use xlink:href="#MicrosoftSansSerif-70" x="987.304688"/>
     <use xlink:href="#MicrosoftSansSerif-65" x="1042.919922"/>
     <use xlink:href="#MicrosoftSansSerif-72" x="1098.535156"/>
     <use xlink:href="#MicrosoftSansSerif-20" x="1131.835938"/>
     <use xlink:href="#MicrosoftSansSerif-43" x="1158.398438"/>
     <use xlink:href="#MicrosoftSansSerif-69" x="1230.615234"/>
     <use xlink:href="#MicrosoftSansSerif-74" x="1253.417969"/>
     <use xlink:href="#MicrosoftSansSerif-61" x="1281.201172"/>
     <use xlink:href="#MicrosoftSansSerif-74" x="1336.816406"/>
     <use xlink:href="#MicrosoftSansSerif-69" x="1364.599609"/>
     <use xlink:href="#MicrosoftSansSerif-6f" x="1387.402344"/>
     <use xlink:href="#MicrosoftSansSerif-6e" x="1443.017578"/>
     <use xlink:href="#MicrosoftSansSerif-20" x="1498.632812"/>
     <use xlink:href="#MicrosoftSansSerif-43" x="1525.195312"/>
     <use xlink:href="#MicrosoftSansSerif-6f" x="1597.412109"/>
     <use xlink:href="#MicrosoftSansSerif-75" x="1653.027344"/>
     <use xlink:href="#MicrosoftSansSerif-6e" x="1708.642578"/>
     <use xlink:href="#MicrosoftSansSerif-74" x="1764.257812"/>
     <use xlink:href="#MicrosoftSansSerif-73" x="1792.041016"/>
     <use xlink:href="#MicrosoftSansSerif-20" x="1842.041016"/>
     <use xlink:href="#MicrosoftSansSerif-73" x="1868.603516"/>
     <use xlink:href="#MicrosoftSansSerif-69" x="1918.603516"/>
     <use xlink:href="#MicrosoftSansSerif-6e" x="1941.40625"/>
     <use xlink:href="#MicrosoftSansSerif-63" x="1997.021484"/>
     <use xlink:href="#MicrosoftSansSerif-65" x="2047.021484"/>
     <use xlink:href="#MicrosoftSansSerif-20" x="2102.636719"/>
     <use xlink:href="#MicrosoftSansSerif-50" x="2129.199219"/>
     <use xlink:href="#MicrosoftSansSerif-75" x="2195.898438"/>
     <use xlink:href="#MicrosoftSansSerif-62" x="2251.513672"/>
     <use xlink:href="#MicrosoftSansSerif-6c" x="2307.128906"/>
     <use xlink:href="#MicrosoftSansSerif-69" x="2329.931641"/>
     <use xlink:href="#MicrosoftSansSerif-63" x="2352.734375"/>
     <use xlink:href="#MicrosoftSansSerif-61" x="2402.734375"/>
     <use xlink:href="#MicrosoftSansSerif-74" x="2458.349609"/>
     <use xlink:href="#MicrosoftSansSerif-69" x="2486.132812"/>
     <use xlink:href="#MicrosoftSansSerif-6f" x="2508.935547"/>
     <use xlink:href="#MicrosoftSansSerif-6e" x="2564.550781"/>
    </g>
   </g>
   <g id="text_4">
    <!-- ScenarioMIP -->
    <g transform="translate(823.63396 54.10406) rotate(-45) scale(0.1 -0.1)">
     <defs>
      <path id="MicrosoftSansSerif-53" d="M 2241 -78 
Q 1272 -78 792 356 
Q 313 791 288 1472 
L 872 1472 
Q 919 959 1298 714 
Q 1678 469 2216 469 
Q 2725 469 3036 678 
Q 3347 888 3347 1247 
Q 3347 1625 3025 1797 
Q 2703 1969 1917 2136 
Q 1131 2303 789 2600 
Q 447 2897 447 3391 
Q 447 3947 892 4303 
Q 1338 4659 2075 4659 
Q 2850 4659 3325 4300 
Q 3800 3941 3828 3284 
L 3238 3284 
Q 3147 4116 2100 4116 
Q 1594 4116 1316 3925 
Q 1038 3734 1038 3419 
Q 1038 3131 1261 2987 
Q 1484 2844 2095 2709 
Q 2706 2575 3065 2444 
Q 3425 2313 3681 2036 
Q 3938 1759 3938 1294 
Q 3938 703 3467 312 
Q 2997 -78 2241 -78 
z
" transform="scale(0.015625)"/>
     </defs>
     <use xlink:href="#MicrosoftSansSerif-53"/>
     <use xlink:href="#MicrosoftSansSerif-63" x="66.699219"/>
     <use xlink:href="#MicrosoftSansSerif-65" x="116.699219"/>
     <use xlink:href="#MicrosoftSansSerif-6e" x="172.314453"/>
     <use xlink:href="#MicrosoftSansSerif-61" x="227.929688"/>
     <use xlink:href="#MicrosoftSansSerif-72" x="283.544922"/>
     <use xlink:href="#MicrosoftSansSerif-69" x="316.845703"/>
     <use xlink:href="#MicrosoftSansSerif-6f" x="339.648438"/>
     <use xlink:href="#MicrosoftSansSerif-4d" x="395.263672"/>
     <use xlink:href="#MicrosoftSansSerif-49" x="478.564453"/>
     <use xlink:href="#MicrosoftSansSerif-50" x="506.347656"/>
    </g>
   </g>
  </g>
  <g id="axes_2">
   <g id="patch_32">
    <path d="M 59.6686 332 
L 1065.60914 332 
L 1065.60914 134.091992 
L 59.6686 134.091992 
z
" style="fill: #ffffff"/>
   </g>
   <g id="matplotlib.axis_3">
    <g id="text_5">
     <!-- CMIP6 Community MIP -->
     <g transform="translate(489.647464 346.191563) scale(0.14 -0.14)">
      <use xlink:href="#MicrosoftSansSerif-43"/>
      <use xlink:href="#MicrosoftSansSerif-4d" x="72.216797"/>
      <use xlink:href="#MicrosoftSansSerif-49" x="155.517578"/>
      <use xlink:href="#MicrosoftSansSerif-50" x="183.300781"/>
      <use xlink:href="#MicrosoftSansSerif-36" x="250"/>
      <use xlink:href="#MicrosoftSansSerif-20" x="305.615234"/>
      <use xlink:href="#MicrosoftSansSerif-43" x="332.177734"/>
      <use xlink:href="#MicrosoftSansSerif-6f" x="404.394531"/>
      <use xlink:href="#MicrosoftSansSerif-6d" x="460.009766"/>
      <use xlink:href="#MicrosoftSansSerif-6d" x="543.310547"/>
      <use xlink:href="#MicrosoftSansSerif-75" x="626.611328"/>
      <use xlink:href="#MicrosoftSansSerif-6e" x="682.226562"/>
      <use xlink:href="#MicrosoftSansSerif-69" x="737.841797"/>
      <use xlink:href="#MicrosoftSansSerif-74" x="760.644531"/>
      <use xlink:href="#MicrosoftSansSerif-79" x="788.427734"/>
      <use xlink:href="#MicrosoftSansSerif-20" x="838.427734"/>
      <use xlink:href="#MicrosoftSansSerif-4d" x="864.990234"/>
      <use xlink:href="#MicrosoftSansSerif-49" x="948.291016"/>
      <use xlink:href="#MicrosoftSansSerif-50" x="976.074219"/>
     </g>
    </g>
   </g>
   <g id="matplotlib.axis_4">
    <g id="ytick_3">
     <g id="line2d_8">
      <path d="M 59.6686 332 
L 1065.60914 332 
" clip-path="url(#pcac3550854)" style="fill: none; stroke-dasharray: 4,20.8; stroke-dashoffset: 0.8; stroke: #808080; stroke-width: 0.8"/>
     </g>
     <g id="line2d_9">
      <g>
       <use xlink:href="#md5dd786d32" x="59.6686" y="332" style="stroke: #000000; stroke-width: 0.8"/>
      </g>
     </g>
     <g id="text_6">
      <!-- 0 -->
      <g transform="translate(44.883288 337.010469) scale(0.14 -0.14)">
       <use xlink:href="#MicrosoftSansSerif-30"/>
      </g>
     </g>
    </g>
    <g id="ytick_4">
     <g id="line2d_10">
      <path d="M 59.6686 307.261499 
L 1065.60914 307.261499 
" clip-path="url(#pcac3550854)" style="fill: none; stroke-dasharray: 4,20.8; stroke-dashoffset: 0.8; stroke: #808080; stroke-width: 0.8"/>
     </g>
     <g id="line2d_11">
      <g>
       <use xlink:href="#md5dd786d32" x="59.6686" y="307.261499" style="stroke: #000000; stroke-width: 0.8"/>
      </g>
     </g>
     <g id="text_7">
      <!-- 100 -->
      <g transform="translate(29.312663 312.271968) scale(0.14 -0.14)">
       <defs>
        <path id="MicrosoftSansSerif-31" d="M 2400 0 
L 1813 0 
L 1813 3603 
Q 1456 3366 709 3366 
L 709 3828 
Q 1788 3828 1947 4659 
L 2400 4659 
L 2400 0 
z
" transform="scale(0.015625)"/>
       </defs>
       <use xlink:href="#MicrosoftSansSerif-31"/>
       <use xlink:href="#MicrosoftSansSerif-30" x="55.615234"/>
       <use xlink:href="#MicrosoftSansSerif-30" x="111.230469"/>
      </g>
     </g>
    </g>
    <g id="ytick_5">
     <g id="line2d_12">
      <path d="M 59.6686 282.522998 
L 1065.60914 282.522998 
" clip-path="url(#pcac3550854)" style="fill: none; stroke-dasharray: 4,20.8; stroke-dashoffset: 0.8; stroke: #808080; stroke-width: 0.8"/>
     </g>
     <g id="line2d_13">
      <g>
       <use xlink:href="#md5dd786d32" x="59.6686" y="282.522998" style="stroke: #000000; stroke-width: 0.8"/>
      </g>
     </g>
     <g id="text_8">
      <!-- 200 -->
      <g transform="translate(29.312663 287.533467) scale(0.14 -0.14)">
       <use xlink:href="#MicrosoftSansSerif-32"/>
       <use xlink:href="#MicrosoftSansSerif-30" x="55.615234"/>
       <use xlink:href="#MicrosoftSansSerif-30" x="111.230469"/>
      </g>
     </g>
    </g>
    <g id="ytick_6">
     <g id="line2d_14">
      <path d="M 59.6686 257.784497 
L 1065.60914 257.784497 
" clip-path="url(#pcac3550854)" style="fill: none; stroke-dasharray: 4,20.8; stroke-dashoffset: 0.8; stroke: #808080; stroke-width: 0.8"/>
     </g>
     <g id="line2d_15">
      <g>
       <use xlink:href="#md5dd786d32" x="59.6686" y="257.784497" style="stroke: #000000; stroke-width: 0.8"/>
      </g>
     </g>
     <g id="text_9">
      <!-- 300 -->
      <g transform="translate(29.312663 262.794966) scale(0.14 -0.14)">
       <use xlink:href="#MicrosoftSansSerif-33"/>
       <use xlink:href="#MicrosoftSansSerif-30" x="55.615234"/>
       <use xlink:href="#MicrosoftSansSerif-30" x="111.230469"/>
      </g>
     </g>
    </g>
    <g id="ytick_7">
     <g id="line2d_16">
      <path d="M 59.6686 233.045996 
L 1065.60914 233.045996 
" clip-path="url(#pcac3550854)" style="fill: none; stroke-dasharray: 4,20.8; stroke-dashoffset: 0.8; stroke: #808080; stroke-width: 0.8"/>
     </g>
     <g id="line2d_17">
      <g>
       <use xlink:href="#md5dd786d32" x="59.6686" y="233.045996" style="stroke: #000000; stroke-width: 0.8"/>
      </g>
     </g>
     <g id="text_10">
      <!-- 400 -->
      <g transform="translate(29.312663 238.056465) scale(0.14 -0.14)">
       <defs>
        <path id="MicrosoftSansSerif-34" d="M 3263 1094 
L 2644 1094 
L 2644 0 
L 2053 0 
L 2053 1094 
L 97 1094 
L 97 1613 
L 2181 4641 
L 2644 4641 
L 2644 1613 
L 3263 1613 
L 3263 1094 
z
M 2053 1613 
L 2053 3713 
L 647 1613 
L 2053 1613 
z
" transform="scale(0.015625)"/>
       </defs>
       <use xlink:href="#MicrosoftSansSerif-34"/>
       <use xlink:href="#MicrosoftSansSerif-30" x="55.615234"/>
       <use xlink:href="#MicrosoftSansSerif-30" x="111.230469"/>
      </g>
     </g>
    </g>
    <g id="ytick_8">
     <g id="line2d_18">
      <path d="M 59.6686 208.307495 
L 1065.60914 208.307495 
" clip-path="url(#pcac3550854)" style="fill: none; stroke-dasharray: 4,20.8; stroke-dashoffset: 0.8; stroke: #808080; stroke-width: 0.8"/>
     </g>
     <g id="line2d_19">
      <g>
       <use xlink:href="#md5dd786d32" x="59.6686" y="208.307495" style="stroke: #000000; stroke-width: 0.8"/>
      </g>
     </g>
     <g id="text_11">
      <!-- 500 -->
      <g transform="translate(29.312663 213.317964) scale(0.14 -0.14)">
       <defs>
        <path id="MicrosoftSansSerif-35" d="M 1031 2766 
Q 1372 3041 1881 3041 
Q 2453 3041 2878 2636 
Q 3303 2231 3303 1556 
Q 3303 850 2876 386 
Q 2450 -78 1741 -78 
Q 1159 -78 746 244 
Q 334 566 269 1203 
L 878 1203 
Q 928 788 1167 586 
Q 1406 384 1741 384 
Q 2166 384 2430 706 
Q 2694 1028 2694 1503 
Q 2694 1984 2425 2262 
Q 2156 2541 1728 2541 
Q 1238 2541 897 2163 
L 434 2163 
L 628 4581 
L 3084 4581 
L 3084 4038 
L 1131 4038 
L 1031 2766 
z
" transform="scale(0.015625)"/>
       </defs>
       <use xlink:href="#MicrosoftSansSerif-35"/>
       <use xlink:href="#MicrosoftSansSerif-30" x="55.615234"/>
       <use xlink:href="#MicrosoftSansSerif-30" x="111.230469"/>
      </g>
     </g>
    </g>
    <g id="ytick_9">
     <g id="line2d_20">
      <path d="M 59.6686 183.568994 
L 1065.60914 183.568994 
" clip-path="url(#pcac3550854)" style="fill: none; stroke-dasharray: 4,20.8; stroke-dashoffset: 0.8; stroke: #808080; stroke-width: 0.8"/>
     </g>
     <g id="line2d_21">
      <g>
       <use xlink:href="#md5dd786d32" x="59.6686" y="183.568994" style="stroke: #000000; stroke-width: 0.8"/>
      </g>
     </g>
     <g id="text_12">
      <!-- 600 -->
      <g transform="translate(29.312663 188.579463) scale(0.14 -0.14)">
       <use xlink:href="#MicrosoftSansSerif-36"/>
       <use xlink:href="#MicrosoftSansSerif-30" x="55.615234"/>
       <use xlink:href="#MicrosoftSansSerif-30" x="111.230469"/>
      </g>
     </g>
    </g>
    <g id="ytick_10">
     <g id="line2d_22">
      <path d="M 59.6686 158.830493 
L 1065.60914 158.830493 
" clip-path="url(#pcac3550854)" style="fill: none; stroke-dasharray: 4,20.8; stroke-dashoffset: 0.8; stroke: #808080; stroke-width: 0.8"/>
     </g>
     <g id="line2d_23">
      <g>
       <use xlink:href="#md5dd786d32" x="59.6686" y="158.830493" style="stroke: #000000; stroke-width: 0.8"/>
      </g>
     </g>
     <g id="text_13">
      <!-- 700 -->
      <g transform="translate(29.312663 163.840962) scale(0.14 -0.14)">
       <defs>
        <path id="MicrosoftSansSerif-37" d="M 3272 4166 
L 1606 0 
L 947 0 
L 2656 4038 
L 306 4038 
L 306 4581 
L 3272 4581 
L 3272 4166 
z
" transform="scale(0.015625)"/>
       </defs>
       <use xlink:href="#MicrosoftSansSerif-37"/>
       <use xlink:href="#MicrosoftSansSerif-30" x="55.615234"/>
       <use xlink:href="#MicrosoftSansSerif-30" x="111.230469"/>
      </g>
     </g>
    </g>
    <g id="ytick_11">
     <g id="line2d_24">
      <path d="M 59.6686 134.091992 
L 1065.60914 134.091992 
" clip-path="url(#pcac3550854)" style="fill: none; stroke-dasharray: 4,20.8; stroke-dashoffset: 0.8; stroke: #808080; stroke-width: 0.8"/>
     </g>
     <g id="line2d_25">
      <g>
       <use xlink:href="#md5dd786d32" x="59.6686" y="134.091992" style="stroke: #000000; stroke-width: 0.8"/>
      </g>
     </g>
     <g id="text_14">
      <!-- 800 -->
      <g transform="translate(29.312663 139.102461) scale(0.14 -0.14)">
       <defs>
        <path id="MicrosoftSansSerif-38" d="M 2338 2406 
Q 3291 1966 3291 1216 
Q 3291 638 2873 280 
Q 2456 -78 1778 -78 
Q 1103 -78 686 280 
Q 269 638 269 1216 
Q 269 1966 1222 2406 
Q 447 2853 447 3525 
Q 447 4022 814 4340 
Q 1181 4659 1778 4659 
Q 2378 4659 2743 4340 
Q 3109 4022 3109 3525 
Q 3109 2853 2338 2406 
z
M 1778 2650 
Q 2503 2975 2503 3525 
Q 2503 3841 2311 4019 
Q 2119 4197 1778 4197 
Q 1441 4197 1248 4019 
Q 1056 3841 1056 3525 
Q 1056 2975 1778 2650 
z
M 2681 1216 
Q 2681 1513 2465 1727 
Q 2250 1941 1778 2150 
Q 1309 1941 1093 1727 
Q 878 1513 878 1216 
Q 878 828 1125 606 
Q 1372 384 1778 384 
Q 2184 384 2432 606 
Q 2681 828 2681 1216 
z
" transform="scale(0.015625)"/>
       </defs>
       <use xlink:href="#MicrosoftSansSerif-38"/>
       <use xlink:href="#MicrosoftSansSerif-30" x="55.615234"/>
       <use xlink:href="#MicrosoftSansSerif-30" x="111.230469"/>
      </g>
     </g>
    </g>
    <g id="text_15">
     <!-- Total citations -->
     <g transform="translate(21.671619 246.579326) rotate(-90) scale(0.14 -0.14)">
      <defs>
       <path id="MicrosoftSansSerif-54" d="M 3769 4038 
L 2253 4038 
L 2253 0 
L 1644 0 
L 1644 4038 
L 141 4038 
L 141 4581 
L 3769 4581 
L 3769 4038 
z
" transform="scale(0.015625)"/>
      </defs>
      <use xlink:href="#MicrosoftSansSerif-54"/>
      <use xlink:href="#MicrosoftSansSerif-6f" x="61.083984"/>
      <use xlink:href="#MicrosoftSansSerif-74" x="116.699219"/>
      <use xlink:href="#MicrosoftSansSerif-61" x="144.482422"/>
      <use xlink:href="#MicrosoftSansSerif-6c" x="200.097656"/>
      <use xlink:href="#MicrosoftSansSerif-20" x="222.900391"/>
      <use xlink:href="#MicrosoftSansSerif-63" x="249.462891"/>
      <use xlink:href="#MicrosoftSansSerif-69" x="299.462891"/>
      <use xlink:href="#MicrosoftSansSerif-74" x="322.265625"/>
      <use xlink:href="#MicrosoftSansSerif-61" x="350.048828"/>
      <use xlink:href="#MicrosoftSansSerif-74" x="405.664062"/>
      <use xlink:href="#MicrosoftSansSerif-69" x="433.447266"/>
      <use xlink:href="#MicrosoftSansSerif-6f" x="456.25"/>
      <use xlink:href="#MicrosoftSansSerif-6e" x="511.865234"/>
      <use xlink:href="#MicrosoftSansSerif-73" x="567.480469"/>
     </g>
    </g>
   </g>
   <g id="patch_33">
    <path d="M 82.022834 332 
L 111.82848 332 
L 111.82848 285.739003 
L 82.022834 285.739003 
z
" clip-path="url(#pcac3550854)" style="fill: #3182bd"/>
   </g>
   <g id="patch_34">
    <path d="M 119.279891 332 
L 149.085537 332 
L 149.085537 285.986388 
L 119.279891 285.986388 
z
" clip-path="url(#pcac3550854)" style="fill: #3182bd"/>
   </g>
   <g id="patch_35">
    <path d="M 156.536948 332 
L 186.342594 332 
L 186.342594 300.582104 
L 156.536948 300.582104 
z
" clip-path="url(#pcac3550854)" style="fill: #6baed6"/>
   </g>
   <g id="patch_36">
    <path d="M 193.794005 332 
L 223.599651 332 
L 223.599651 279.801763 
L 193.794005 279.801763 
z
" clip-path="url(#pcac3550854)" style="fill: #9ecae1"/>
   </g>
   <g id="patch_37">
    <path d="M 231.051062 332 
L 260.856708 332 
L 260.856708 262.237427 
L 231.051062 262.237427 
z
" clip-path="url(#pcac3550854)" style="fill: #9ecae1"/>
   </g>
   <g id="patch_38">
    <path d="M 268.308119 332 
L 298.113765 332 
L 298.113765 248.383867 
L 268.308119 248.383867 
z
" clip-path="url(#pcac3550854)" style="fill: #c6dbef"/>
   </g>
   <g id="patch_39">
    <path d="M 305.565176 332 
L 335.370822 332 
L 335.370822 256.300187 
L 305.565176 256.300187 
z
" clip-path="url(#pcac3550854)" style="fill: #e6550d"/>
   </g>
   <g id="patch_40">
    <path d="M 342.822233 332 
L 372.627879 332 
L 372.627879 322.846755 
L 342.822233 322.846755 
z
" clip-path="url(#pcac3550854)" style="fill: #fd8d3c"/>
   </g>
   <g id="patch_41">
    <path d="M 380.079291 332 
L 409.884936 332 
L 409.884936 301.076874 
L 380.079291 301.076874 
z
" clip-path="url(#pcac3550854)" style="fill: #fd8d3c"/>
   </g>
   <g id="patch_42">
    <path d="M 417.336348 332 
L 447.141993 332 
L 447.141993 294.397479 
L 417.336348 294.397479 
z
" clip-path="url(#pcac3550854)" style="fill: #fdae6b"/>
   </g>
   <g id="patch_43">
    <path d="M 454.593405 332 
L 484.39905 332 
L 484.39905 312.456584 
L 454.593405 312.456584 
z
" clip-path="url(#pcac3550854)" style="fill: #fdd0a2"/>
   </g>
   <g id="patch_44">
    <path d="M 491.850462 332 
L 521.656107 332 
L 521.656107 150.666788 
L 491.850462 150.666788 
z
" clip-path="url(#pcac3550854)" style="fill: #31a354"/>
   </g>
   <g id="patch_45">
    <path d="M 529.107519 332 
L 558.913164 332 
L 558.913164 291.676243 
L 529.107519 291.676243 
z
" clip-path="url(#pcac3550854)" style="fill: #31a354"/>
   </g>
   <g id="patch_46">
    <path d="M 566.364576 332 
L 596.170221 332 
L 596.170221 293.655323 
L 566.364576 293.655323 
z
" clip-path="url(#pcac3550854)" style="fill: #74c476"/>
   </g>
   <g id="patch_47">
    <path d="M 603.621633 332 
L 633.427278 332 
L 633.427278 249.126022 
L 603.621633 249.126022 
z
" clip-path="url(#pcac3550854)" style="fill: #a1d99b"/>
   </g>
   <g id="patch_48">
    <path d="M 640.87869 332 
L 670.684335 332 
L 670.684335 270.648518 
L 640.87869 270.648518 
z
" clip-path="url(#pcac3550854)" style="fill: #c7e9c0"/>
   </g>
   <g id="patch_49">
    <path d="M 678.135747 332 
L 707.941392 332 
L 707.941392 296.376559 
L 678.135747 296.376559 
z
" clip-path="url(#pcac3550854)" style="fill: #c7e9c0"/>
   </g>
   <g id="patch_50">
    <path d="M 715.392804 332 
L 745.198449 332 
L 745.198449 280.543918 
L 715.392804 280.543918 
z
" clip-path="url(#pcac3550854)" style="fill: #756bb1"/>
   </g>
   <g id="patch_51">
    <path d="M 752.649861 332 
L 782.455507 332 
L 782.455507 292.665783 
L 752.649861 292.665783 
z
" clip-path="url(#pcac3550854)" style="fill: #9e9ac8"/>
   </g>
   <g id="patch_52">
    <path d="M 789.906918 332 
L 819.712564 332 
L 819.712564 287.470698 
L 789.906918 287.470698 
z
" clip-path="url(#pcac3550854)" style="fill: #bcbddc"/>
   </g>
   <g id="patch_53">
    <path d="M 827.163975 332 
L 856.969621 332 
L 856.969621 -316.643495 
L 827.163975 -316.643495 
z
" clip-path="url(#pcac3550854)" style="fill: #bcbddc"/>
   </g>
   <g id="patch_54">
    <path d="M 864.421032 332 
L 894.226678 332 
L 894.226678 311.961814 
L 864.421032 311.961814 
z
" clip-path="url(#pcac3550854)" style="fill: #dadaeb"/>
   </g>
   <g id="patch_55">
    <path d="M 901.678089 332 
L 931.483735 332 
L 931.483735 323.836295 
L 901.678089 323.836295 
z
" clip-path="url(#pcac3550854)" style="fill: #636363"/>
   </g>
   <g id="patch_56">
    <path d="M 938.935146 332 
L 968.740792 332 
L 968.740792 297.366099 
L 938.935146 297.366099 
z
" clip-path="url(#pcac3550854)" style="fill: #969696"/>
   </g>
   <g id="patch_57">
    <path d="M 976.192203 332 
L 1005.997849 332 
L 1005.997849 317.651669 
L 976.192203 317.651669 
z
" clip-path="url(#pcac3550854)" style="fill: #969696"/>
   </g>
   <g id="patch_58">
    <path d="M 1013.44926 332 
L 1043.254906 332 
L 1043.254906 323.836295 
L 1013.44926 323.836295 
z
" clip-path="url(#pcac3550854)" style="fill: #bdbdbd"/>
   </g>
   <g id="line2d_26">
    <path d="M 56.147808 134.78467 
L 63.189392 133.399314 
" style="fill: none; stroke: #000000; stroke-width: 1.5; stroke-linecap: square"/>
   </g>
   <g id="line2d_27">
    <path d="M 837.763608 134.78467 
L 844.805191 133.399314 
" style="fill: none; stroke: #000000; stroke-width: 1.5; stroke-linecap: square"/>
   </g>
   <g id="line2d_28">
    <path d="M 1062.088348 134.78467 
L 1069.129932 133.399314 
" style="fill: none; stroke: #000000; stroke-width: 1.5; stroke-linecap: square"/>
   </g>
   <g id="patch_59">
    <path d="M 59.6686 332 
L 59.6686 134.091992 
" style="fill: none; stroke: #000000; stroke-width: 0.8; stroke-linejoin: miter; stroke-linecap: square"/>
   </g>
   <g id="patch_60">
    <path d="M 1065.60914 332 
L 1065.60914 134.091992 
" style="fill: none; stroke: #000000; stroke-width: 0.8; stroke-linejoin: miter; stroke-linecap: square"/>
   </g>
   <g id="patch_61">
    <path d="M 59.6686 332 
L 1065.60914 332 
" style="fill: none; stroke: #000000; stroke-width: 0.8; stroke-linejoin: miter; stroke-linecap: square"/>
   </g>
   <g id="text_16">
    <!-- 187 -->
    <g transform="translate(87.381907 308.993194) scale(0.1 -0.1)">
     <defs>
      <path id="DejaVuSans-31" d="M 794 531 
L 1825 531 
L 1825 4091 
L 703 3866 
L 703 4441 
L 1819 4666 
L 2450 4666 
L 2450 531 
L 3481 531 
L 3481 0 
L 794 0 
L 794 531 
z
" transform="scale(0.015625)"/>
      <path id="DejaVuSans-38" d="M 2034 2216 
Q 1584 2216 1326 1975 
Q 1069 1734 1069 1313 
Q 1069 891 1326 650 
Q 1584 409 2034 409 
Q 2484 409 2743 651 
Q 3003 894 3003 1313 
Q 3003 1734 2745 1975 
Q 2488 2216 2034 2216 
z
M 1403 2484 
Q 997 2584 770 2862 
Q 544 3141 544 3541 
Q 544 4100 942 4425 
Q 1341 4750 2034 4750 
Q 2731 4750 3128 4425 
Q 3525 4100 3525 3541 
Q 3525 3141 3298 2862 
Q 3072 2584 2669 2484 
Q 3125 2378 3379 2068 
Q 3634 1759 3634 1313 
Q 3634 634 3220 271 
Q 2806 -91 2034 -91 
Q 1263 -91 848 271 
Q 434 634 434 1313 
Q 434 1759 690 2068 
Q 947 2378 1403 2484 
z
M 1172 3481 
Q 1172 3119 1398 2916 
Q 1625 2713 2034 2713 
Q 2441 2713 2670 2916 
Q 2900 3119 2900 3481 
Q 2900 3844 2670 4047 
Q 2441 4250 2034 4250 
Q 1625 4250 1398 4047 
Q 1172 3844 1172 3481 
z
" transform="scale(0.015625)"/>
      <path id="DejaVuSans-37" d="M 525 4666 
L 3525 4666 
L 3525 4397 
L 1831 0 
L 1172 0 
L 2766 4134 
L 525 4134 
L 525 4666 
z
" transform="scale(0.015625)"/>
     </defs>
     <use xlink:href="#DejaVuSans-31"/>
     <use xlink:href="#DejaVuSans-38" x="63.623047"/>
     <use xlink:href="#DejaVuSans-37" x="127.246094"/>
    </g>
   </g>
   <g id="text_17">
    <!-- 186 -->
    <g transform="translate(124.638964 308.993194) scale(0.1 -0.1)">
     <defs>
      <path id="DejaVuSans-36" d="M 2113 2584 
Q 1688 2584 1439 2293 
Q 1191 2003 1191 1497 
Q 1191 994 1439 701 
Q 1688 409 2113 409 
Q 2538 409 2786 701 
Q 3034 994 3034 1497 
Q 3034 2003 2786 2293 
Q 2538 2584 2113 2584 
z
M 3366 4563 
L 3366 3988 
Q 3128 4100 2886 4159 
Q 2644 4219 2406 4219 
Q 1781 4219 1451 3797 
Q 1122 3375 1075 2522 
Q 1259 2794 1537 2939 
Q 1816 3084 2150 3084 
Q 2853 3084 3261 2657 
Q 3669 2231 3669 1497 
Q 3669 778 3244 343 
Q 2819 -91 2113 -91 
Q 1303 -91 875 529 
Q 447 1150 447 2328 
Q 447 3434 972 4092 
Q 1497 4750 2381 4750 
Q 2619 4750 2861 4703 
Q 3103 4656 3366 4563 
z
" transform="scale(0.015625)"/>
     </defs>
     <use xlink:href="#DejaVuSans-31"/>
     <use xlink:href="#DejaVuSans-38" x="63.623047"/>
     <use xlink:href="#DejaVuSans-36" x="127.246094"/>
    </g>
   </g>
   <g id="text_18">
    <!-- 127 -->
    <g transform="translate(161.896021 316.414744) scale(0.1 -0.1)">
     <defs>
      <path id="DejaVuSans-32" d="M 1228 531 
L 3431 531 
L 3431 0 
L 469 0 
L 469 531 
Q 828 903 1448 1529 
Q 2069 2156 2228 2338 
Q 2531 2678 2651 2914 
Q 2772 3150 2772 3378 
Q 2772 3750 2511 3984 
Q 2250 4219 1831 4219 
Q 1534 4219 1204 4116 
Q 875 4013 500 3803 
L 500 4441 
Q 881 4594 1212 4672 
Q 1544 4750 1819 4750 
Q 2544 4750 2975 4387 
Q 3406 4025 3406 3419 
Q 3406 3131 3298 2873 
Q 3191 2616 2906 2266 
Q 2828 2175 2409 1742 
Q 1991 1309 1228 531 
z
" transform="scale(0.015625)"/>
     </defs>
     <use xlink:href="#DejaVuSans-31"/>
     <use xlink:href="#DejaVuSans-32" x="63.623047"/>
     <use xlink:href="#DejaVuSans-37" x="127.246094"/>
    </g>
   </g>
   <g id="text_19">
    <!-- 211 -->
    <g transform="translate(199.153078 306.024574) scale(0.1 -0.1)">
     <use xlink:href="#DejaVuSans-32"/>
     <use xlink:href="#DejaVuSans-31" x="63.623047"/>
     <use xlink:href="#DejaVuSans-31" x="127.246094"/>
    </g>
   </g>
   <g id="text_20">
    <!-- 282 -->
    <g transform="translate(236.410135 297.118714) scale(0.1 -0.1)">
     <use xlink:href="#DejaVuSans-32"/>
     <use xlink:href="#DejaVuSans-38" x="63.623047"/>
     <use xlink:href="#DejaVuSans-32" x="127.246094"/>
    </g>
   </g>
   <g id="text_21">
    <!-- 338 -->
    <g transform="translate(273.667192 290.191933) scale(0.1 -0.1)">
     <defs>
      <path id="DejaVuSans-33" d="M 2597 2516 
Q 3050 2419 3304 2112 
Q 3559 1806 3559 1356 
Q 3559 666 3084 287 
Q 2609 -91 1734 -91 
Q 1441 -91 1130 -33 
Q 819 25 488 141 
L 488 750 
Q 750 597 1062 519 
Q 1375 441 1716 441 
Q 2309 441 2620 675 
Q 2931 909 2931 1356 
Q 2931 1769 2642 2001 
Q 2353 2234 1838 2234 
L 1294 2234 
L 1294 2753 
L 1863 2753 
Q 2328 2753 2575 2939 
Q 2822 3125 2822 3475 
Q 2822 3834 2567 4026 
Q 2313 4219 1838 4219 
Q 1578 4219 1281 4162 
Q 984 4106 628 3988 
L 628 4550 
Q 988 4650 1302 4700 
Q 1616 4750 1894 4750 
Q 2613 4750 3031 4423 
Q 3450 4097 3450 3541 
Q 3450 3153 3228 2886 
Q 3006 2619 2597 2516 
z
" transform="scale(0.015625)"/>
     </defs>
     <use xlink:href="#DejaVuSans-33"/>
     <use xlink:href="#DejaVuSans-33" x="63.623047"/>
     <use xlink:href="#DejaVuSans-38" x="127.246094"/>
    </g>
   </g>
   <g id="text_22">
    <!-- 306 -->
    <g transform="translate(310.924249 294.150094) scale(0.1 -0.1)">
     <defs>
      <path id="DejaVuSans-30" d="M 2034 4250 
Q 1547 4250 1301 3770 
Q 1056 3291 1056 2328 
Q 1056 1369 1301 889 
Q 1547 409 2034 409 
Q 2525 409 2770 889 
Q 3016 1369 3016 2328 
Q 3016 3291 2770 3770 
Q 2525 4250 2034 4250 
z
M 2034 4750 
Q 2819 4750 3233 4129 
Q 3647 3509 3647 2328 
Q 3647 1150 3233 529 
Q 2819 -91 2034 -91 
Q 1250 -91 836 529 
Q 422 1150 422 2328 
Q 422 3509 836 4129 
Q 1250 4750 2034 4750 
z
" transform="scale(0.015625)"/>
     </defs>
     <use xlink:href="#DejaVuSans-33"/>
     <use xlink:href="#DejaVuSans-30" x="63.623047"/>
     <use xlink:href="#DejaVuSans-36" x="127.246094"/>
    </g>
   </g>
   <g id="text_23">
    <!-- 37 -->
    <g transform="translate(351.362556 327.54707) scale(0.1 -0.1)">
     <use xlink:href="#DejaVuSans-33"/>
     <use xlink:href="#DejaVuSans-37" x="63.623047"/>
    </g>
   </g>
   <g id="text_24">
    <!-- 125 -->
    <g transform="translate(385.438363 316.662129) scale(0.1 -0.1)">
     <defs>
      <path id="DejaVuSans-35" d="M 691 4666 
L 3169 4666 
L 3169 4134 
L 1269 4134 
L 1269 2991 
Q 1406 3038 1543 3061 
Q 1681 3084 1819 3084 
Q 2600 3084 3056 2656 
Q 3513 2228 3513 1497 
Q 3513 744 3044 326 
Q 2575 -91 1722 -91 
Q 1428 -91 1123 -41 
Q 819 9 494 109 
L 494 744 
Q 775 591 1075 516 
Q 1375 441 1709 441 
Q 2250 441 2565 725 
Q 2881 1009 2881 1497 
Q 2881 1984 2565 2268 
Q 2250 2553 1709 2553 
Q 1456 2553 1204 2497 
Q 953 2441 691 2322 
L 691 4666 
z
" transform="scale(0.015625)"/>
     </defs>
     <use xlink:href="#DejaVuSans-31"/>
     <use xlink:href="#DejaVuSans-32" x="63.623047"/>
     <use xlink:href="#DejaVuSans-35" x="127.246094"/>
    </g>
   </g>
   <g id="text_25">
    <!-- 152 -->
    <g transform="translate(422.69542 313.198739) scale(0.1 -0.1)">
     <use xlink:href="#DejaVuSans-31"/>
     <use xlink:href="#DejaVuSans-35" x="63.623047"/>
     <use xlink:href="#DejaVuSans-32" x="127.246094"/>
    </g>
   </g>
   <g id="text_26">
    <!-- 79 -->
    <g transform="translate(463.133727 322.351985) scale(0.1 -0.1)">
     <defs>
      <path id="DejaVuSans-39" d="M 703 97 
L 703 672 
Q 941 559 1184 500 
Q 1428 441 1663 441 
Q 2288 441 2617 861 
Q 2947 1281 2994 2138 
Q 2813 1869 2534 1725 
Q 2256 1581 1919 1581 
Q 1219 1581 811 2004 
Q 403 2428 403 3163 
Q 403 3881 828 4315 
Q 1253 4750 1959 4750 
Q 2769 4750 3195 4129 
Q 3622 3509 3622 2328 
Q 3622 1225 3098 567 
Q 2575 -91 1691 -91 
Q 1453 -91 1209 -44 
Q 966 3 703 97 
z
M 1959 2075 
Q 2384 2075 2632 2365 
Q 2881 2656 2881 3163 
Q 2881 3666 2632 3958 
Q 2384 4250 1959 4250 
Q 1534 4250 1286 3958 
Q 1038 3666 1038 3163 
Q 1038 2656 1286 2365 
Q 1534 2075 1959 2075 
z
" transform="scale(0.015625)"/>
     </defs>
     <use xlink:href="#DejaVuSans-37"/>
     <use xlink:href="#DejaVuSans-39" x="63.623047"/>
    </g>
   </g>
   <g id="text_27">
    <!-- 733 -->
    <g transform="translate(497.209534 241.457086) scale(0.1 -0.1)">
     <use xlink:href="#DejaVuSans-37"/>
     <use xlink:href="#DejaVuSans-33" x="63.623047"/>
     <use xlink:href="#DejaVuSans-33" x="127.246094"/>
    </g>
   </g>
   <g id="text_28">
    <!-- 163 -->
    <g transform="translate(534.466591 311.961814) scale(0.1 -0.1)">
     <use xlink:href="#DejaVuSans-31"/>
     <use xlink:href="#DejaVuSans-36" x="63.623047"/>
     <use xlink:href="#DejaVuSans-33" x="127.246094"/>
    </g>
   </g>
   <g id="text_29">
    <!-- 155 -->
    <g transform="translate(571.723649 312.951354) scale(0.1 -0.1)">
     <use xlink:href="#DejaVuSans-31"/>
     <use xlink:href="#DejaVuSans-35" x="63.623047"/>
     <use xlink:href="#DejaVuSans-35" x="127.246094"/>
    </g>
   </g>
   <g id="text_30">
    <!-- 335 -->
    <g transform="translate(608.980706 290.686703) scale(0.1 -0.1)">
     <use xlink:href="#DejaVuSans-33"/>
     <use xlink:href="#DejaVuSans-33" x="63.623047"/>
     <use xlink:href="#DejaVuSans-35" x="127.246094"/>
    </g>
   </g>
   <g id="text_31">
    <!-- 248 -->
    <g transform="translate(646.237763 301.324259) scale(0.1 -0.1)">
     <defs>
      <path id="DejaVuSans-34" d="M 2419 4116 
L 825 1625 
L 2419 1625 
L 2419 4116 
z
M 2253 4666 
L 3047 4666 
L 3047 1625 
L 3713 1625 
L 3713 1100 
L 3047 1100 
L 3047 0 
L 2419 0 
L 2419 1100 
L 313 1100 
L 313 1709 
L 2253 4666 
z
" transform="scale(0.015625)"/>
     </defs>
     <use xlink:href="#DejaVuSans-32"/>
     <use xlink:href="#DejaVuSans-34" x="63.623047"/>
     <use xlink:href="#DejaVuSans-38" x="127.246094"/>
    </g>
   </g>
   <g id="text_32">
    <!-- 144 -->
    <g transform="translate(683.49482 314.188279) scale(0.1 -0.1)">
     <use xlink:href="#DejaVuSans-31"/>
     <use xlink:href="#DejaVuSans-34" x="63.623047"/>
     <use xlink:href="#DejaVuSans-34" x="127.246094"/>
    </g>
   </g>
   <g id="text_33">
    <!-- 208 -->
    <g transform="translate(720.751877 306.271959) scale(0.1 -0.1)">
     <use xlink:href="#DejaVuSans-32"/>
     <use xlink:href="#DejaVuSans-30" x="63.623047"/>
     <use xlink:href="#DejaVuSans-38" x="127.246094"/>
    </g>
   </g>
   <g id="text_34">
    <!-- 159 -->
    <g transform="translate(758.008934 312.456584) scale(0.1 -0.1)">
     <use xlink:href="#DejaVuSans-31"/>
     <use xlink:href="#DejaVuSans-35" x="63.623047"/>
     <use xlink:href="#DejaVuSans-39" x="127.246094"/>
    </g>
   </g>
   <g id="text_35">
    <!-- 180 -->
    <g transform="translate(795.265991 309.735349) scale(0.1 -0.1)">
     <use xlink:href="#DejaVuSans-31"/>
     <use xlink:href="#DejaVuSans-38" x="63.623047"/>
     <use xlink:href="#DejaVuSans-30" x="127.246094"/>
    </g>
   </g>
   <g id="text_36">
    <!-- 2622 -->
    <g transform="translate(829.341798 233.045996) scale(0.1 -0.1)">
     <use xlink:href="#DejaVuSans-32"/>
     <use xlink:href="#DejaVuSans-36" x="63.623047"/>
     <use xlink:href="#DejaVuSans-32" x="127.246094"/>
     <use xlink:href="#DejaVuSans-32" x="190.869141"/>
    </g>
   </g>
   <g id="text_37">
    <!-- 81 -->
    <g transform="translate(872.961355 322.1046) scale(0.1 -0.1)">
     <use xlink:href="#DejaVuSans-38"/>
     <use xlink:href="#DejaVuSans-31" x="63.623047"/>
    </g>
   </g>
   <g id="text_38">
    <!-- 33 -->
    <g transform="translate(910.218412 328.04184) scale(0.1 -0.1)">
     <use xlink:href="#DejaVuSans-33"/>
     <use xlink:href="#DejaVuSans-33" x="63.623047"/>
    </g>
   </g>
   <g id="text_39">
    <!-- 140 -->
    <g transform="translate(944.294219 314.683049) scale(0.1 -0.1)">
     <use xlink:href="#DejaVuSans-31"/>
     <use xlink:href="#DejaVuSans-34" x="63.623047"/>
     <use xlink:href="#DejaVuSans-30" x="127.246094"/>
    </g>
   </g>
   <g id="text_40">
    <!-- 58 -->
    <g transform="translate(984.732526 324.825835) scale(0.1 -0.1)">
     <use xlink:href="#DejaVuSans-35"/>
     <use xlink:href="#DejaVuSans-38" x="63.623047"/>
    </g>
   </g>
   <g id="text_41">
    <!-- 33 -->
    <g transform="translate(1021.989583 328.04184) scale(0.1 -0.1)">
     <use xlink:href="#DejaVuSans-33"/>
     <use xlink:href="#DejaVuSans-33" x="63.623047"/>
    </g>
   </g>
   <g id="text_42">
    <!-- AerChemMIP -->
    <g transform="translate(77.534358 283.330314) rotate(-45) scale(0.1 -0.1)">
     <defs>
      <path id="MicrosoftSansSerif-41" d="M 2881 1875 
L 2075 4000 
L 1306 1875 
L 2881 1875 
z
M 4275 0 
L 3591 0 
L 3059 1394 
L 1141 1394 
L 634 0 
L -6 0 
L 1753 4581 
L 2406 4581 
L 4275 0 
z
" transform="scale(0.015625)"/>
      <path id="MicrosoftSansSerif-68" d="M 1025 2894 
Q 1466 3391 2016 3391 
Q 3138 3391 3138 2169 
L 3138 0 
L 2547 0 
L 2547 2144 
Q 2547 2550 2401 2728 
Q 2256 2906 1925 2906 
Q 1475 2906 1025 2375 
L 1025 0 
L 434 0 
L 434 4581 
L 1025 4581 
L 1025 2894 
z
" transform="scale(0.015625)"/>
     </defs>
     <use xlink:href="#MicrosoftSansSerif-41"/>
     <use xlink:href="#MicrosoftSansSerif-65" x="66.699219"/>
     <use xlink:href="#MicrosoftSansSerif-72" x="122.314453"/>
     <use xlink:href="#MicrosoftSansSerif-43" x="155.615234"/>
     <use xlink:href="#MicrosoftSansSerif-68" x="227.832031"/>
     <use xlink:href="#MicrosoftSansSerif-65" x="283.447266"/>
     <use xlink:href="#MicrosoftSansSerif-6d" x="339.0625"/>
     <use xlink:href="#MicrosoftSansSerif-4d" x="422.363281"/>
     <use xlink:href="#MicrosoftSansSerif-49" x="505.664062"/>
     <use xlink:href="#MicrosoftSansSerif-50" x="533.447266"/>
    </g>
   </g>
   <g id="text_43">
    <!-- C4MIP -->
    <g transform="translate(125.204115 283.577699) rotate(-45) scale(0.1 -0.1)">
     <use xlink:href="#MicrosoftSansSerif-43"/>
     <use xlink:href="#MicrosoftSansSerif-34" x="72.216797"/>
     <use xlink:href="#MicrosoftSansSerif-4d" x="127.832031"/>
     <use xlink:href="#MicrosoftSansSerif-49" x="211.132812"/>
     <use xlink:href="#MicrosoftSansSerif-50" x="238.916016"/>
    </g>
   </g>
   <g id="text_44">
    <!-- CDRMIP -->
    <g transform="translate(159.320624 298.173414) rotate(-45) scale(0.1 -0.1)">
     <defs>
      <path id="MicrosoftSansSerif-44" d="M 513 4581 
L 1966 4581 
Q 4300 4581 4300 2316 
Q 4300 0 1966 0 
L 513 0 
L 513 4581 
z
M 1119 544 
L 1953 544 
Q 2950 544 3312 1008 
Q 3675 1472 3675 2316 
Q 3675 3138 3314 3588 
Q 2953 4038 1953 4038 
L 1119 4038 
L 1119 544 
z
" transform="scale(0.015625)"/>
      <path id="MicrosoftSansSerif-52" d="M 4331 0 
L 3675 0 
L 3244 1222 
Q 3128 1547 2859 1753 
Q 2591 1959 2241 1959 
L 1119 1959 
L 1119 0 
L 513 0 
L 513 4581 
L 2541 4581 
Q 3072 4581 3409 4478 
Q 3747 4375 3959 4044 
Q 4172 3713 4172 3297 
Q 4172 2822 3897 2503 
Q 3622 2184 3144 2088 
L 3144 2075 
Q 3622 1922 3872 1247 
L 4331 0 
z
M 1119 2503 
L 2472 2503 
Q 3038 2503 3292 2681 
Q 3547 2859 3547 3297 
Q 3547 4078 2566 4078 
L 1119 4078 
L 1119 2503 
z
" transform="scale(0.015625)"/>
     </defs>
     <use xlink:href="#MicrosoftSansSerif-43"/>
     <use xlink:href="#MicrosoftSansSerif-44" x="72.216797"/>
     <use xlink:href="#MicrosoftSansSerif-52" x="144.433594"/>
     <use xlink:href="#MicrosoftSansSerif-4d" x="216.650391"/>
     <use xlink:href="#MicrosoftSansSerif-49" x="299.951172"/>
     <use xlink:href="#MicrosoftSansSerif-50" x="327.734375"/>
    </g>
   </g>
   <g id="text_45">
    <!-- CFMIP -->
    <g transform="translate(199.52488 277.393074) rotate(-45) scale(0.1 -0.1)">
     <defs>
      <path id="MicrosoftSansSerif-46" d="M 3603 4038 
L 1119 4038 
L 1119 2619 
L 3272 2619 
L 3272 2075 
L 1119 2075 
L 1119 0 
L 513 0 
L 513 4581 
L 3603 4581 
L 3603 4038 
z
" transform="scale(0.015625)"/>
     </defs>
     <use xlink:href="#MicrosoftSansSerif-43"/>
     <use xlink:href="#MicrosoftSansSerif-46" x="72.216797"/>
     <use xlink:href="#MicrosoftSansSerif-4d" x="133.300781"/>
     <use xlink:href="#MicrosoftSansSerif-49" x="216.601562"/>
     <use xlink:href="#MicrosoftSansSerif-50" x="244.384766"/>
    </g>
   </g>
   <g id="text_46">
    <!-- CORDEX -->
    <g transform="translate(232.653649 259.828738) rotate(-45) scale(0.1 -0.1)">
     <defs>
      <path id="MicrosoftSansSerif-4f" d="M 2497 4659 
Q 3459 4659 4071 4009 
Q 4684 3359 4684 2291 
Q 4684 1222 4071 572 
Q 3459 -78 2497 -78 
Q 1531 -78 915 573 
Q 300 1225 300 2291 
Q 300 3359 915 4009 
Q 1531 4659 2497 4659 
z
M 2491 441 
Q 3178 441 3617 928 
Q 4056 1416 4056 2291 
Q 4056 3166 3618 3653 
Q 3181 4141 2503 4141 
Q 1813 4141 1370 3653 
Q 928 3166 928 2291 
Q 928 1419 1368 930 
Q 1809 441 2491 441 
z
" transform="scale(0.015625)"/>
      <path id="MicrosoftSansSerif-45" d="M 3928 0 
L 513 0 
L 513 4581 
L 3822 4581 
L 3822 4038 
L 1119 4038 
L 1119 2638 
L 3647 2638 
L 3647 2094 
L 1119 2094 
L 1119 544 
L 3928 544 
L 3928 0 
z
" transform="scale(0.015625)"/>
      <path id="MicrosoftSansSerif-58" d="M 4238 0 
L 3494 0 
L 2138 1941 
L 775 0 
L 31 0 
L 1791 2413 
L 206 4581 
L 947 4581 
L 2131 2888 
L 3322 4581 
L 4063 4581 
L 2472 2413 
L 4238 0 
z
" transform="scale(0.015625)"/>
     </defs>
     <use xlink:href="#MicrosoftSansSerif-43"/>
     <use xlink:href="#MicrosoftSansSerif-4f" x="72.216797"/>
     <use xlink:href="#MicrosoftSansSerif-52" x="150"/>
     <use xlink:href="#MicrosoftSansSerif-44" x="222.216797"/>
     <use xlink:href="#MicrosoftSansSerif-45" x="294.433594"/>
     <use xlink:href="#MicrosoftSansSerif-58" x="361.132812"/>
    </g>
   </g>
   <g id="text_47">
    <!-- DAMIP -->
    <g transform="translate(273.84012 245.975177) rotate(-45) scale(0.1 -0.1)">
     <use xlink:href="#MicrosoftSansSerif-44"/>
     <use xlink:href="#MicrosoftSansSerif-41" x="72.216797"/>
     <use xlink:href="#MicrosoftSansSerif-4d" x="138.916016"/>
     <use xlink:href="#MicrosoftSansSerif-49" x="222.216797"/>
     <use xlink:href="#MicrosoftSansSerif-50" x="250"/>
    </g>
   </g>
   <g id="text_48">
    <!-- DCPP -->
    <g transform="translate(312.471064 253.891498) rotate(-45) scale(0.1 -0.1)">
     <use xlink:href="#MicrosoftSansSerif-44"/>
     <use xlink:href="#MicrosoftSansSerif-43" x="72.216797"/>
     <use xlink:href="#MicrosoftSansSerif-50" x="144.433594"/>
     <use xlink:href="#MicrosoftSansSerif-50" x="211.132812"/>
    </g>
   </g>
   <g id="text_49">
    <!-- DynVarMIP -->
    <g transform="translate(341.438951 320.36183) rotate(-45) scale(0.1 -0.1)">
     <defs>
      <path id="MicrosoftSansSerif-56" d="M 4225 4581 
L 2444 0 
L 1819 0 
L 38 4581 
L 684 4581 
L 2131 653 
L 3578 4581 
L 4225 4581 
z
" transform="scale(0.015625)"/>
     </defs>
     <use xlink:href="#MicrosoftSansSerif-44"/>
     <use xlink:href="#MicrosoftSansSerif-79" x="72.216797"/>
     <use xlink:href="#MicrosoftSansSerif-6e" x="122.216797"/>
     <use xlink:href="#MicrosoftSansSerif-56" x="177.832031"/>
     <use xlink:href="#MicrosoftSansSerif-61" x="244.53125"/>
     <use xlink:href="#MicrosoftSansSerif-72" x="300.146484"/>
     <use xlink:href="#MicrosoftSansSerif-4d" x="333.447266"/>
     <use xlink:href="#MicrosoftSansSerif-49" x="416.748047"/>
     <use xlink:href="#MicrosoftSansSerif-50" x="444.53125"/>
    </g>
   </g>
   <g id="text_50">
    <!-- FAFMIP -->
    <g transform="translate(383.845734 298.668184) rotate(-45) scale(0.1 -0.1)">
     <use xlink:href="#MicrosoftSansSerif-46"/>
     <use xlink:href="#MicrosoftSansSerif-41" x="61.083984"/>
     <use xlink:href="#MicrosoftSansSerif-46" x="127.783203"/>
     <use xlink:href="#MicrosoftSansSerif-4d" x="188.867188"/>
     <use xlink:href="#MicrosoftSansSerif-49" x="272.167969"/>
     <use xlink:href="#MicrosoftSansSerif-50" x="299.951172"/>
    </g>
   </g>
   <g id="text_51">
    <!-- GeoMIP6 -->
    <g transform="translate(419.131731 291.988789) rotate(-45) scale(0.1 -0.1)">
     <defs>
      <path id="MicrosoftSansSerif-47" d="M 2516 -78 
Q 1528 -78 914 569 
Q 300 1216 300 2291 
Q 300 3369 906 4014 
Q 1513 4659 2497 4659 
Q 3325 4659 3873 4261 
Q 4422 3863 4488 3194 
L 3859 3194 
Q 3822 3638 3459 3889 
Q 3097 4141 2503 4141 
Q 1794 4141 1361 3656 
Q 928 3172 928 2291 
Q 928 1413 1365 927 
Q 1803 441 2509 441 
Q 3500 441 3981 1094 
L 3981 1791 
L 2772 1791 
L 2772 2338 
L 4569 2338 
L 4569 0 
L 4141 0 
L 3981 481 
Q 3516 -78 2516 -78 
z
" transform="scale(0.015625)"/>
     </defs>
     <use xlink:href="#MicrosoftSansSerif-47"/>
     <use xlink:href="#MicrosoftSansSerif-65" x="77.783203"/>
     <use xlink:href="#MicrosoftSansSerif-6f" x="133.398438"/>
     <use xlink:href="#MicrosoftSansSerif-4d" x="189.013672"/>
     <use xlink:href="#MicrosoftSansSerif-49" x="272.314453"/>
     <use xlink:href="#MicrosoftSansSerif-50" x="300.097656"/>
     <use xlink:href="#MicrosoftSansSerif-36" x="366.796875"/>
    </g>
   </g>
   <g id="text_52">
    <!-- GMMIP -->
    <g transform="translate(459.342064 310.047895) rotate(-45) scale(0.1 -0.1)">
     <use xlink:href="#MicrosoftSansSerif-47"/>
     <use xlink:href="#MicrosoftSansSerif-4d" x="77.783203"/>
     <use xlink:href="#MicrosoftSansSerif-4d" x="161.083984"/>
     <use xlink:href="#MicrosoftSansSerif-49" x="244.384766"/>
     <use xlink:href="#MicrosoftSansSerif-50" x="272.167969"/>
    </g>
   </g>
   <g id="text_53">
    <!-- HighResMIP -->
    <g transform="translate(488.677315 148.181864) rotate(-45) scale(0.1 -0.1)">
     <defs>
      <path id="MicrosoftSansSerif-48" d="M 4109 0 
L 3500 0 
L 3500 2156 
L 1119 2156 
L 1119 0 
L 513 0 
L 513 4581 
L 1119 4581 
L 1119 2700 
L 3500 2700 
L 3500 4581 
L 4109 4581 
L 4109 0 
z
" transform="scale(0.015625)"/>
      <path id="MicrosoftSansSerif-67" d="M 3122 256 
Q 3122 -1344 1678 -1344 
Q 1053 -1344 692 -1072 
Q 331 -800 331 -341 
L 941 -341 
Q 941 -884 1672 -884 
Q 2084 -884 2309 -657 
Q 2534 -431 2534 231 
L 2534 397 
Q 2141 -78 1588 -78 
Q 938 -78 581 384 
Q 225 847 225 1631 
Q 225 2444 623 2917 
Q 1022 3391 1625 3391 
Q 2163 3391 2534 3059 
L 2534 3316 
L 3122 3316 
L 3122 256 
z
M 2534 953 
L 2534 2528 
Q 2153 2931 1663 2931 
Q 1284 2931 1057 2604 
Q 831 2278 831 1631 
Q 831 1019 1045 701 
Q 1259 384 1638 384 
Q 2131 384 2534 953 
z
" transform="scale(0.015625)"/>
     </defs>
     <use xlink:href="#MicrosoftSansSerif-48"/>
     <use xlink:href="#MicrosoftSansSerif-69" x="72.216797"/>
     <use xlink:href="#MicrosoftSansSerif-67" x="95.019531"/>
     <use xlink:href="#MicrosoftSansSerif-68" x="150.634766"/>
     <use xlink:href="#MicrosoftSansSerif-52" x="206.25"/>
     <use xlink:href="#MicrosoftSansSerif-65" x="278.466797"/>
     <use xlink:href="#MicrosoftSansSerif-73" x="334.082031"/>
     <use xlink:href="#MicrosoftSansSerif-4d" x="384.082031"/>
     <use xlink:href="#MicrosoftSansSerif-49" x="467.382812"/>
     <use xlink:href="#MicrosoftSansSerif-50" x="495.166016"/>
    </g>
   </g>
   <g id="text_54">
    <!-- ISMIP6 -->
    <g transform="translate(534.244534 289.267554) rotate(-45) scale(0.1 -0.1)">
     <use xlink:href="#MicrosoftSansSerif-49"/>
     <use xlink:href="#MicrosoftSansSerif-53" x="27.783203"/>
     <use xlink:href="#MicrosoftSansSerif-4d" x="94.482422"/>
     <use xlink:href="#MicrosoftSansSerif-49" x="177.783203"/>
     <use xlink:href="#MicrosoftSansSerif-50" x="205.566406"/>
     <use xlink:href="#MicrosoftSansSerif-36" x="272.265625"/>
    </g>
   </g>
   <g id="text_55">
    <!-- LS3MIP -->
    <g transform="translate(570.517718 291.246634) rotate(-45) scale(0.1 -0.1)">
     <defs>
      <path id="MicrosoftSansSerif-4c" d="M 3347 0 
L 513 0 
L 513 4581 
L 1119 4581 
L 1119 544 
L 3347 544 
L 3347 0 
z
" transform="scale(0.015625)"/>
     </defs>
     <use xlink:href="#MicrosoftSansSerif-4c"/>
     <use xlink:href="#MicrosoftSansSerif-53" x="55.615234"/>
     <use xlink:href="#MicrosoftSansSerif-33" x="122.314453"/>
     <use xlink:href="#MicrosoftSansSerif-4d" x="177.929688"/>
     <use xlink:href="#MicrosoftSansSerif-49" x="261.230469"/>
     <use xlink:href="#MicrosoftSansSerif-50" x="289.013672"/>
    </g>
   </g>
   <g id="text_56">
    <!-- LUMIP -->
    <g transform="translate(609.545857 246.717332) rotate(-45) scale(0.1 -0.1)">
     <defs>
      <path id="MicrosoftSansSerif-55" d="M 2309 -78 
Q 1513 -78 1117 231 
Q 722 541 617 959 
Q 513 1378 513 1931 
L 513 4581 
L 1119 4581 
L 1119 1941 
Q 1119 1038 1422 753 
Q 1725 469 2309 469 
Q 2894 469 3197 753 
Q 3500 1038 3500 1941 
L 3500 4581 
L 4109 4581 
L 4109 1931 
Q 4109 1100 3911 706 
Q 3713 313 3313 117 
Q 2913 -78 2309 -78 
z
" transform="scale(0.015625)"/>
     </defs>
     <use xlink:href="#MicrosoftSansSerif-4c"/>
     <use xlink:href="#MicrosoftSansSerif-55" x="55.615234"/>
     <use xlink:href="#MicrosoftSansSerif-4d" x="127.832031"/>
     <use xlink:href="#MicrosoftSansSerif-49" x="211.132812"/>
     <use xlink:href="#MicrosoftSansSerif-50" x="238.916016"/>
    </g>
   </g>
   <g id="text_57">
    <!-- OMIP-Phys. -->
    <g transform="translate(638.557938 268.163593) rotate(-45) scale(0.1 -0.1)">
     <defs>
      <path id="MicrosoftSansSerif-2d" d="M 1925 1375 
L 206 1375 
L 206 1941 
L 1925 1941 
L 1925 1375 
z
" transform="scale(0.015625)"/>
      <path id="MicrosoftSansSerif-2e" d="M 1209 0 
L 569 0 
L 569 641 
L 1209 641 
L 1209 0 
z
" transform="scale(0.015625)"/>
     </defs>
     <use xlink:href="#MicrosoftSansSerif-4f"/>
     <use xlink:href="#MicrosoftSansSerif-4d" x="77.783203"/>
     <use xlink:href="#MicrosoftSansSerif-49" x="161.083984"/>
     <use xlink:href="#MicrosoftSansSerif-50" x="188.867188"/>
     <use xlink:href="#MicrosoftSansSerif-2d" x="255.566406"/>
     <use xlink:href="#MicrosoftSansSerif-50" x="288.867188"/>
     <use xlink:href="#MicrosoftSansSerif-68" x="355.566406"/>
     <use xlink:href="#MicrosoftSansSerif-79" x="411.181641"/>
     <use xlink:href="#MicrosoftSansSerif-73" x="461.181641"/>
     <use xlink:href="#MicrosoftSansSerif-2e" x="511.181641"/>
    </g>
   </g>
   <g id="text_58">
    <!-- OMIP-BioGeoChem. -->
    <g transform="translate(662.426923 293.967869) rotate(-45) scale(0.1 -0.1)">
     <defs>
      <path id="MicrosoftSansSerif-42" d="M 3938 1331 
Q 3938 688 3500 344 
Q 3063 0 2228 0 
L 513 0 
L 513 4581 
L 2144 4581 
Q 2875 4581 3294 4268 
Q 3713 3956 3713 3413 
Q 3713 2750 3053 2431 
Q 3497 2319 3717 2017 
Q 3938 1716 3938 1331 
z
M 1119 2663 
L 2138 2663 
Q 2641 2663 2878 2823 
Q 3116 2984 3116 3359 
Q 3116 3697 2884 3867 
Q 2653 4038 2081 4038 
L 1119 4038 
L 1119 2663 
z
M 1119 544 
L 2222 544 
Q 3309 544 3309 1331 
Q 3309 1741 3057 1930 
Q 2806 2119 2144 2119 
L 1119 2119 
L 1119 544 
z
" transform="scale(0.015625)"/>
     </defs>
     <use xlink:href="#MicrosoftSansSerif-4f"/>
     <use xlink:href="#MicrosoftSansSerif-4d" x="77.783203"/>
     <use xlink:href="#MicrosoftSansSerif-49" x="161.083984"/>
     <use xlink:href="#MicrosoftSansSerif-50" x="188.867188"/>
     <use xlink:href="#MicrosoftSansSerif-2d" x="255.566406"/>
     <use xlink:href="#MicrosoftSansSerif-42" x="288.867188"/>
     <use xlink:href="#MicrosoftSansSerif-69" x="355.566406"/>
     <use xlink:href="#MicrosoftSansSerif-6f" x="378.369141"/>
     <use xlink:href="#MicrosoftSansSerif-47" x="433.984375"/>
     <use xlink:href="#MicrosoftSansSerif-65" x="511.767578"/>
     <use xlink:href="#MicrosoftSansSerif-6f" x="567.382812"/>
     <use xlink:href="#MicrosoftSansSerif-43" x="622.998047"/>
     <use xlink:href="#MicrosoftSansSerif-68" x="695.214844"/>
     <use xlink:href="#MicrosoftSansSerif-65" x="750.830078"/>
     <use xlink:href="#MicrosoftSansSerif-6d" x="806.445312"/>
     <use xlink:href="#MicrosoftSansSerif-2e" x="889.746094"/>
    </g>
   </g>
   <g id="text_59">
    <!-- PAMIP -->
    <g transform="translate(721.119811 278.135229) rotate(-45) scale(0.1 -0.1)">
     <use xlink:href="#MicrosoftSansSerif-50"/>
     <use xlink:href="#MicrosoftSansSerif-41" x="66.699219"/>
     <use xlink:href="#MicrosoftSansSerif-4d" x="133.398438"/>
     <use xlink:href="#MicrosoftSansSerif-49" x="216.699219"/>
     <use xlink:href="#MicrosoftSansSerif-50" x="244.482422"/>
    </g>
   </g>
   <g id="text_60">
    <!-- PMIP4 -->
    <g transform="translate(758.769092 290.257094) rotate(-45) scale(0.1 -0.1)">
     <use xlink:href="#MicrosoftSansSerif-50"/>
     <use xlink:href="#MicrosoftSansSerif-4d" x="66.699219"/>
     <use xlink:href="#MicrosoftSansSerif-49" x="150"/>
     <use xlink:href="#MicrosoftSansSerif-50" x="177.783203"/>
     <use xlink:href="#MicrosoftSansSerif-34" x="244.482422"/>
    </g>
   </g>
   <g id="text_61">
    <!-- RFMIP -->
    <g transform="translate(795.637792 285.062009) rotate(-45) scale(0.1 -0.1)">
     <use xlink:href="#MicrosoftSansSerif-52"/>
     <use xlink:href="#MicrosoftSansSerif-46" x="72.216797"/>
     <use xlink:href="#MicrosoftSansSerif-4d" x="133.300781"/>
     <use xlink:href="#MicrosoftSansSerif-49" x="216.601562"/>
     <use xlink:href="#MicrosoftSansSerif-50" x="244.384766"/>
    </g>
   </g>
   <g id="text_62">
    <!-- SIMIP -->
    <g transform="translate(871.524136 309.553125) rotate(-45) scale(0.1 -0.1)">
     <use xlink:href="#MicrosoftSansSerif-53"/>
     <use xlink:href="#MicrosoftSansSerif-49" x="66.699219"/>
     <use xlink:href="#MicrosoftSansSerif-4d" x="94.482422"/>
     <use xlink:href="#MicrosoftSansSerif-49" x="177.783203"/>
     <use xlink:href="#MicrosoftSansSerif-50" x="205.566406"/>
    </g>
   </g>
   <g id="text_63">
    <!-- VIACS AB -->
    <g transform="translate(902.141018 321.427605) rotate(-45) scale(0.1 -0.1)">
     <use xlink:href="#MicrosoftSansSerif-56"/>
     <use xlink:href="#MicrosoftSansSerif-49" x="66.699219"/>
     <use xlink:href="#MicrosoftSansSerif-41" x="94.482422"/>
     <use xlink:href="#MicrosoftSansSerif-43" x="161.181641"/>
     <use xlink:href="#MicrosoftSansSerif-53" x="233.398438"/>
     <use xlink:href="#MicrosoftSansSerif-20" x="300.097656"/>
     <use xlink:href="#MicrosoftSansSerif-41" x="326.660156"/>
     <use xlink:href="#MicrosoftSansSerif-42" x="393.359375"/>
    </g>
   </g>
   <g id="text_64">
    <!-- VolMIP -->
    <g transform="translate(944.248386 294.957409) rotate(-45) scale(0.1 -0.1)">
     <use xlink:href="#MicrosoftSansSerif-56"/>
     <use xlink:href="#MicrosoftSansSerif-6f" x="66.699219"/>
     <use xlink:href="#MicrosoftSansSerif-6c" x="122.314453"/>
     <use xlink:href="#MicrosoftSansSerif-4d" x="145.117188"/>
     <use xlink:href="#MicrosoftSansSerif-49" x="228.417969"/>
     <use xlink:href="#MicrosoftSansSerif-50" x="256.201172"/>
    </g>
   </g>
   <g id="text_65">
    <!-- ZECMIP -->
    <g transform="translate(979.564766 315.24298) rotate(-45) scale(0.1 -0.1)">
     <defs>
      <path id="MicrosoftSansSerif-5a" d="M 3738 0 
L 116 0 
L 116 569 
L 2963 4038 
L 378 4038 
L 378 4581 
L 3659 4581 
L 3659 4013 
L 813 544 
L 3738 544 
L 3738 0 
z
" transform="scale(0.015625)"/>
     </defs>
     <use xlink:href="#MicrosoftSansSerif-5a"/>
     <use xlink:href="#MicrosoftSansSerif-45" x="61.083984"/>
     <use xlink:href="#MicrosoftSansSerif-43" x="127.783203"/>
     <use xlink:href="#MicrosoftSansSerif-4d" x="200"/>
     <use xlink:href="#MicrosoftSansSerif-49" x="283.300781"/>
     <use xlink:href="#MicrosoftSansSerif-50" x="311.083984"/>
    </g>
   </g>
   <g id="text_66">
    <!-- COVIDMIP -->
    <g transform="translate(1012.695744 321.427605) rotate(-45) scale(0.1 -0.1)">
     <use xlink:href="#MicrosoftSansSerif-43"/>
     <use xlink:href="#MicrosoftSansSerif-4f" x="72.216797"/>
     <use xlink:href="#MicrosoftSansSerif-56" x="150"/>
     <use xlink:href="#MicrosoftSansSerif-49" x="216.699219"/>
     <use xlink:href="#MicrosoftSansSerif-44" x="244.482422"/>
     <use xlink:href="#MicrosoftSansSerif-4d" x="316.699219"/>
     <use xlink:href="#MicrosoftSansSerif-49" x="400"/>
     <use xlink:href="#MicrosoftSansSerif-50" x="427.783203"/>
    </g>
   </g>
  </g>
 </g>
 <defs>
  <clipPath id="pb4eda53e8e">
   <rect x="59.6686" y="46.122578" width="1005.94054" height="49.477002"/>
  </clipPath>
  <clipPath id="pcac3550854">
   <rect x="59.6686" y="134.091992" width="1005.94054" height="197.908008"/>
  </clipPath>
 </defs>
</svg>
