<?xml version="1.0" encoding="utf-8" standalone="no"?>
<!DOCTYPE svg PUBLIC "-//W3C//DTD SVG 1.1//EN"
  "http://www.w3.org/Graphics/SVG/1.1/DTD/svg11.dtd">
<svg xmlns:xlink="http://www.w3.org/1999/xlink" width="648pt" height="432pt" viewBox="0 0 648 432" xmlns="http://www.w3.org/2000/svg" version="1.1">
 <metadata>
  <rdf:RDF xmlns:dc="http://purl.org/dc/elements/1.1/" xmlns:cc="http://creativecommons.org/ns#" xmlns:rdf="http://www.w3.org/1999/02/22-rdf-syntax-ns#">
   <cc:Work>
    <dc:type rdf:resource="http://purl.org/dc/dcmitype/StillImage"/>
    <dc:date>2025-01-24T17:23:23.447181</dc:date>
    <dc:format>image/svg+xml</dc:format>
    <dc:creator>
     <cc:Agent>
      <dc:title>Matplotlib v3.9.2, https://matplotlib.org/</dc:title>
     </cc:Agent>
    </dc:creator>
   </cc:Work>
  </rdf:RDF>
 </metadata>
 <defs>
  <style type="text/css">*{stroke-linejoin: round; stroke-linecap: butt}</style>
 </defs>
 <g id="figure_1">
  <g id="patch_1">
   <path d="M 0 432 
L 648 432 
L 648 0 
L 0 0 
z
" style="fill: #ffffff"/>
  </g>
  <g id="axes_1">
   <g id="patch_2">
    <path d="M 73.76 384.28 
L 637.2 384.28 
L 637.2 27.12 
L 73.76 27.12 
z
" style="fill: #ffffff"/>
   </g>
   <g id="matplotlib.axis_1">
    <g id="xtick_1">
     <g id="line2d_1">
      <defs>
       <path id="m1a8d80c2f9" d="M 0 0 
L 0 3.5 
" style="stroke: #000000; stroke-width: 0.8"/>
      </defs>
      <g>
       <use xlink:href="#m1a8d80c2f9" x="99.370909" y="384.28" style="stroke: #000000; stroke-width: 0.8"/>
      </g>
     </g>
     <g id="text_1">
      <!-- 0 -->
      <g transform="translate(95.478253 401.300937) scale(0.14 -0.14)">
       <defs>
        <path id="MicrosoftSansSerif-30" d="M 1778 4659 
Q 3272 4659 3272 2284 
Q 3272 -78 1778 -78 
Q 288 -78 288 2284 
Q 288 4659 1778 4659 
z
M 1778 384 
Q 2213 384 2438 803 
Q 2663 1222 2663 2284 
Q 2663 3350 2438 3773 
Q 2213 4197 1778 4197 
Q 1347 4197 1122 3773 
Q 897 3350 897 2284 
Q 897 1222 1122 803 
Q 1347 384 1778 384 
z
" transform="scale(0.015625)"/>
       </defs>
       <use xlink:href="#MicrosoftSansSerif-30"/>
      </g>
     </g>
    </g>
    <g id="xtick_2">
     <g id="line2d_2">
      <g>
       <use xlink:href="#m1a8d80c2f9" x="213.197172" y="384.28" style="stroke: #000000; stroke-width: 0.8"/>
      </g>
     </g>
     <g id="text_2">
      <!-- 10 -->
      <g transform="translate(205.411859 401.300937) scale(0.14 -0.14)">
       <defs>
        <path id="MicrosoftSansSerif-31" d="M 2400 0 
L 1813 0 
L 1813 3603 
Q 1456 3366 709 3366 
L 709 3828 
Q 1788 3828 1947 4659 
L 2400 4659 
L 2400 0 
z
" transform="scale(0.015625)"/>
       </defs>
       <use xlink:href="#MicrosoftSansSerif-31"/>
       <use xlink:href="#MicrosoftSansSerif-30" x="55.615234"/>
      </g>
     </g>
    </g>
    <g id="xtick_3">
     <g id="line2d_3">
      <g>
       <use xlink:href="#m1a8d80c2f9" x="327.023434" y="384.28" style="stroke: #000000; stroke-width: 0.8"/>
      </g>
     </g>
     <g id="text_3">
      <!-- 20 -->
      <g transform="translate(319.238122 401.300937) scale(0.14 -0.14)">
       <defs>
        <path id="MicrosoftSansSerif-32" d="M 3231 0 
L 197 0 
Q 197 419 456 800 
Q 716 1181 1408 1739 
Q 2100 2297 2356 2630 
Q 2613 2963 2613 3384 
Q 2613 3763 2394 3980 
Q 2175 4197 1778 4197 
Q 1434 4197 1190 3978 
Q 947 3759 916 3334 
L 306 3334 
Q 356 3938 751 4298 
Q 1147 4659 1791 4659 
Q 2475 4659 2847 4292 
Q 3219 3925 3219 3372 
Q 3219 2872 2944 2489 
Q 2669 2106 1851 1425 
Q 1034 744 1019 544 
L 3231 544 
L 3231 0 
z
" transform="scale(0.015625)"/>
       </defs>
       <use xlink:href="#MicrosoftSansSerif-32"/>
       <use xlink:href="#MicrosoftSansSerif-30" x="55.615234"/>
      </g>
     </g>
    </g>
    <g id="xtick_4">
     <g id="line2d_4">
      <g>
       <use xlink:href="#m1a8d80c2f9" x="440.849697" y="384.28" style="stroke: #000000; stroke-width: 0.8"/>
      </g>
     </g>
     <g id="text_4">
      <!-- 30 -->
      <g transform="translate(433.064384 401.300937) scale(0.14 -0.14)">
       <defs>
        <path id="MicrosoftSansSerif-33" d="M 2413 2516 
Q 2831 2406 3057 2090 
Q 3284 1775 3284 1350 
Q 3284 716 2850 319 
Q 2416 -78 1772 -78 
Q 1125 -78 719 275 
Q 313 628 281 1209 
L 891 1209 
Q 891 872 1119 628 
Q 1347 384 1772 384 
Q 2184 384 2429 650 
Q 2675 916 2675 1338 
Q 2675 1769 2420 2001 
Q 2166 2234 1678 2234 
L 1453 2234 
L 1453 2694 
L 1588 2694 
Q 2444 2694 2444 3481 
Q 2444 3828 2256 4012 
Q 2069 4197 1728 4197 
Q 1028 4197 947 3469 
L 341 3469 
Q 406 4050 784 4354 
Q 1163 4659 1716 4659 
Q 2328 4659 2690 4326 
Q 3053 3994 3053 3469 
Q 3053 3175 2895 2914 
Q 2738 2653 2413 2516 
z
" transform="scale(0.015625)"/>
       </defs>
       <use xlink:href="#MicrosoftSansSerif-33"/>
       <use xlink:href="#MicrosoftSansSerif-30" x="55.615234"/>
      </g>
     </g>
    </g>
    <g id="xtick_5">
     <g id="line2d_5">
      <g>
       <use xlink:href="#m1a8d80c2f9" x="554.67596" y="384.28" style="stroke: #000000; stroke-width: 0.8"/>
      </g>
     </g>
     <g id="text_5">
      <!-- 40 -->
      <g transform="translate(546.890647 401.300937) scale(0.14 -0.14)">
       <defs>
        <path id="MicrosoftSansSerif-34" d="M 3263 1094 
L 2644 1094 
L 2644 0 
L 2053 0 
L 2053 1094 
L 97 1094 
L 97 1613 
L 2181 4641 
L 2644 4641 
L 2644 1613 
L 3263 1613 
L 3263 1094 
z
M 2053 1613 
L 2053 3713 
L 647 1613 
L 2053 1613 
z
" transform="scale(0.015625)"/>
       </defs>
       <use xlink:href="#MicrosoftSansSerif-34"/>
       <use xlink:href="#MicrosoftSansSerif-30" x="55.615234"/>
      </g>
     </g>
    </g>
    <g id="text_6">
     <!-- Years since Publication -->
     <g transform="translate(282.730313 418.110937) scale(0.14 -0.14)">
      <defs>
       <path id="MicrosoftSansSerif-59" d="M 4238 4581 
L 2438 1941 
L 2438 0 
L 1831 0 
L 1831 1941 
L 31 4581 
L 769 4581 
L 2138 2472 
L 3500 4581 
L 4238 4581 
z
" transform="scale(0.015625)"/>
       <path id="MicrosoftSansSerif-65" d="M 1844 -78 
Q 1113 -78 669 380 
Q 225 838 225 1656 
Q 225 2469 654 2930 
Q 1084 3391 1778 3391 
Q 2488 3391 2911 2937 
Q 3334 2484 3334 1656 
L 3334 1516 
L 838 1516 
Q 875 941 1154 662 
Q 1434 384 1844 384 
Q 2153 384 2401 542 
Q 2650 700 2663 991 
L 3272 991 
Q 3203 478 2808 200 
Q 2413 -78 1844 -78 
z
M 2713 1978 
Q 2641 2456 2391 2693 
Q 2141 2931 1778 2931 
Q 1425 2931 1172 2695 
Q 919 2459 850 1978 
L 2713 1978 
z
" transform="scale(0.015625)"/>
       <path id="MicrosoftSansSerif-61" d="M 2534 872 
L 2534 1606 
L 2131 1606 
Q 850 1606 850 909 
Q 850 656 1037 520 
Q 1225 384 1544 384 
Q 1834 384 2106 515 
Q 2378 647 2534 872 
z
M 2534 341 
Q 2084 -78 1375 -78 
Q 881 -78 562 189 
Q 244 456 244 878 
Q 244 2041 2247 2041 
L 2534 2041 
Q 2534 2397 2496 2558 
Q 2459 2719 2287 2825 
Q 2116 2931 1741 2931 
Q 953 2931 928 2369 
L 341 2369 
Q 406 3391 1772 3391 
Q 2409 3391 2765 3137 
Q 3122 2884 3122 2144 
L 3122 0 
L 2534 0 
L 2534 341 
z
" transform="scale(0.015625)"/>
       <path id="MicrosoftSansSerif-72" d="M 2156 2778 
Q 2031 2816 1797 2816 
Q 1347 2816 1025 2344 
L 1025 0 
L 434 0 
L 434 3316 
L 1025 3316 
L 1025 2853 
Q 1397 3391 1888 3391 
Q 2013 3391 2156 3366 
L 2156 2778 
z
" transform="scale(0.015625)"/>
       <path id="MicrosoftSansSerif-73" d="M 1619 -78 
Q 259 -78 197 991 
L 788 991 
Q 794 384 1613 384 
Q 1978 384 2170 536 
Q 2363 688 2363 916 
Q 2363 1141 2175 1233 
Q 1988 1325 1402 1472 
Q 816 1619 545 1800 
Q 275 1981 275 2438 
Q 275 2850 611 3120 
Q 947 3391 1509 3391 
Q 2813 3391 2841 2463 
L 2253 2463 
Q 2222 2931 1550 2931 
Q 1253 2931 1058 2818 
Q 863 2706 863 2491 
Q 863 2297 1013 2211 
Q 1163 2125 1764 1979 
Q 2366 1834 2658 1640 
Q 2950 1447 2950 972 
Q 2950 519 2589 220 
Q 2228 -78 1619 -78 
z
" transform="scale(0.015625)"/>
       <path id="MicrosoftSansSerif-20" d="M 0 0 
L 0 0 
z
" transform="scale(0.015625)"/>
       <path id="MicrosoftSansSerif-69" d="M 1025 0 
L 434 0 
L 434 3316 
L 1025 3316 
L 1025 0 
z
M 1025 3944 
L 434 3944 
L 434 4581 
L 1025 4581 
L 1025 3944 
z
" transform="scale(0.015625)"/>
       <path id="MicrosoftSansSerif-6e" d="M 1025 2894 
Q 1466 3391 2016 3391 
Q 3138 3391 3138 2169 
L 3138 0 
L 2547 0 
L 2547 2144 
Q 2547 2550 2401 2728 
Q 2256 2906 1925 2906 
Q 1475 2906 1025 2375 
L 1025 0 
L 434 0 
L 434 3316 
L 1025 3316 
L 1025 2894 
z
" transform="scale(0.015625)"/>
       <path id="MicrosoftSansSerif-63" d="M 1778 -78 
Q 1072 -78 648 376 
Q 225 831 225 1656 
Q 225 2484 648 2937 
Q 1072 3391 1778 3391 
Q 2322 3391 2686 3116 
Q 3050 2841 3116 2322 
L 2509 2322 
Q 2497 2619 2286 2775 
Q 2075 2931 1778 2931 
Q 1356 2931 1093 2611 
Q 831 2291 831 1656 
Q 831 1025 1093 704 
Q 1356 384 1778 384 
Q 2075 384 2286 540 
Q 2497 697 2509 991 
L 3116 991 
Q 3050 472 2686 197 
Q 2322 -78 1778 -78 
z
" transform="scale(0.015625)"/>
       <path id="MicrosoftSansSerif-50" d="M 513 4581 
L 2222 4581 
Q 2784 4581 3164 4476 
Q 3544 4372 3766 4023 
Q 3988 3675 3988 3244 
Q 3988 2550 3547 2190 
Q 3106 1831 2272 1831 
L 1119 1831 
L 1119 0 
L 513 0 
L 513 4581 
z
M 1119 2375 
L 2278 2375 
Q 2863 2375 3111 2594 
Q 3359 2813 3359 3225 
Q 3359 3500 3221 3712 
Q 3084 3925 2873 3981 
Q 2663 4038 2266 4038 
L 1119 4038 
L 1119 2375 
z
" transform="scale(0.015625)"/>
       <path id="MicrosoftSansSerif-75" d="M 2534 422 
Q 2094 -78 1544 -78 
Q 422 -78 422 1147 
L 422 3316 
L 1013 3316 
L 1013 1172 
Q 1013 766 1156 587 
Q 1300 409 1631 409 
Q 2125 409 2534 941 
L 2534 3316 
L 3122 3316 
L 3122 0 
L 2534 0 
L 2534 422 
z
" transform="scale(0.015625)"/>
       <path id="MicrosoftSansSerif-62" d="M 1025 2919 
Q 1419 3391 1972 3391 
Q 2622 3391 2978 2930 
Q 3334 2469 3334 1684 
Q 3334 869 2936 395 
Q 2538 -78 1931 -78 
Q 1394 -78 1025 256 
L 1025 0 
L 434 0 
L 434 4581 
L 1025 4581 
L 1025 2919 
z
M 1025 788 
Q 1403 384 1894 384 
Q 2275 384 2500 711 
Q 2725 1038 2725 1684 
Q 2725 2297 2512 2614 
Q 2300 2931 1919 2931 
Q 1428 2931 1025 2363 
L 1025 788 
z
" transform="scale(0.015625)"/>
       <path id="MicrosoftSansSerif-6c" d="M 1025 0 
L 434 0 
L 434 4581 
L 1025 4581 
L 1025 0 
z
" transform="scale(0.015625)"/>
       <path id="MicrosoftSansSerif-74" d="M 1722 -6 
Q 1528 -44 1300 -44 
Q 938 -44 769 86 
Q 600 216 559 419 
Q 519 622 519 972 
L 519 2853 
L 109 2853 
L 109 3316 
L 519 3316 
L 519 4141 
L 1106 4141 
L 1106 3316 
L 1644 3316 
L 1644 2853 
L 1106 2853 
L 1106 941 
Q 1106 600 1192 508 
Q 1278 416 1428 416 
Q 1581 416 1722 441 
L 1722 -6 
z
" transform="scale(0.015625)"/>
       <path id="MicrosoftSansSerif-6f" d="M 1778 3391 
Q 2488 3391 2911 2937 
Q 3334 2484 3334 1656 
Q 3334 831 2911 376 
Q 2488 -78 1778 -78 
Q 1072 -78 648 376 
Q 225 831 225 1656 
Q 225 2484 648 2937 
Q 1072 3391 1778 3391 
z
M 1778 384 
Q 2200 384 2462 704 
Q 2725 1025 2725 1656 
Q 2725 2291 2462 2611 
Q 2200 2931 1778 2931 
Q 1356 2931 1093 2611 
Q 831 2291 831 1656 
Q 831 1025 1093 704 
Q 1356 384 1778 384 
z
" transform="scale(0.015625)"/>
      </defs>
      <use xlink:href="#MicrosoftSansSerif-59"/>
      <use xlink:href="#MicrosoftSansSerif-65" x="66.699219"/>
      <use xlink:href="#MicrosoftSansSerif-61" x="122.314453"/>
      <use xlink:href="#MicrosoftSansSerif-72" x="177.929688"/>
      <use xlink:href="#MicrosoftSansSerif-73" x="211.230469"/>
      <use xlink:href="#MicrosoftSansSerif-20" x="261.230469"/>
      <use xlink:href="#MicrosoftSansSerif-73" x="287.792969"/>
      <use xlink:href="#MicrosoftSansSerif-69" x="337.792969"/>
      <use xlink:href="#MicrosoftSansSerif-6e" x="360.595703"/>
      <use xlink:href="#MicrosoftSansSerif-63" x="416.210938"/>
      <use xlink:href="#MicrosoftSansSerif-65" x="466.210938"/>
      <use xlink:href="#MicrosoftSansSerif-20" x="521.826172"/>
      <use xlink:href="#MicrosoftSansSerif-50" x="548.388672"/>
      <use xlink:href="#MicrosoftSansSerif-75" x="615.087891"/>
      <use xlink:href="#MicrosoftSansSerif-62" x="670.703125"/>
      <use xlink:href="#MicrosoftSansSerif-6c" x="726.318359"/>
      <use xlink:href="#MicrosoftSansSerif-69" x="749.121094"/>
      <use xlink:href="#MicrosoftSansSerif-63" x="771.923828"/>
      <use xlink:href="#MicrosoftSansSerif-61" x="821.923828"/>
      <use xlink:href="#MicrosoftSansSerif-74" x="877.539062"/>
      <use xlink:href="#MicrosoftSansSerif-69" x="905.322266"/>
      <use xlink:href="#MicrosoftSansSerif-6f" x="928.125"/>
      <use xlink:href="#MicrosoftSansSerif-6e" x="983.740234"/>
     </g>
    </g>
   </g>
   <g id="matplotlib.axis_2">
    <g id="ytick_1">
     <g id="line2d_6">
      <defs>
       <path id="m99388d7110" d="M 0 0 
L -3.5 0 
" style="stroke: #000000; stroke-width: 0.8"/>
      </defs>
      <g>
       <use xlink:href="#m99388d7110" x="73.76" y="368.045455" style="stroke: #000000; stroke-width: 0.8"/>
      </g>
     </g>
     <g id="text_7">
      <!-- 0 -->
      <g transform="translate(58.974688 373.055923) scale(0.14 -0.14)">
       <use xlink:href="#MicrosoftSansSerif-30"/>
      </g>
     </g>
    </g>
    <g id="ytick_2">
     <g id="line2d_7">
      <g>
       <use xlink:href="#m99388d7110" x="73.76" y="320.338885" style="stroke: #000000; stroke-width: 0.8"/>
      </g>
     </g>
     <g id="text_8">
      <!-- 2000 -->
      <g transform="translate(35.61875 325.349354) scale(0.14 -0.14)">
       <use xlink:href="#MicrosoftSansSerif-32"/>
       <use xlink:href="#MicrosoftSansSerif-30" x="55.615234"/>
       <use xlink:href="#MicrosoftSansSerif-30" x="111.230469"/>
       <use xlink:href="#MicrosoftSansSerif-30" x="166.845703"/>
      </g>
     </g>
    </g>
    <g id="ytick_3">
     <g id="line2d_8">
      <g>
       <use xlink:href="#m99388d7110" x="73.76" y="272.632316" style="stroke: #000000; stroke-width: 0.8"/>
      </g>
     </g>
     <g id="text_9">
      <!-- 4000 -->
      <g transform="translate(35.61875 277.642785) scale(0.14 -0.14)">
       <use xlink:href="#MicrosoftSansSerif-34"/>
       <use xlink:href="#MicrosoftSansSerif-30" x="55.615234"/>
       <use xlink:href="#MicrosoftSansSerif-30" x="111.230469"/>
       <use xlink:href="#MicrosoftSansSerif-30" x="166.845703"/>
      </g>
     </g>
    </g>
    <g id="ytick_4">
     <g id="line2d_9">
      <g>
       <use xlink:href="#m99388d7110" x="73.76" y="224.925747" style="stroke: #000000; stroke-width: 0.8"/>
      </g>
     </g>
     <g id="text_10">
      <!-- 6000 -->
      <g transform="translate(35.61875 229.936216) scale(0.14 -0.14)">
       <defs>
        <path id="MicrosoftSansSerif-36" d="M 884 2472 
Q 1338 2969 1925 2969 
Q 2500 2969 2895 2551 
Q 3291 2134 3291 1491 
Q 3291 838 2898 380 
Q 2506 -78 1856 -78 
Q 1113 -78 700 495 
Q 288 1069 288 2144 
Q 288 4659 1906 4659 
Q 2422 4659 2778 4371 
Q 3134 4084 3213 3519 
L 2606 3519 
Q 2528 4197 1875 4197 
Q 1453 4197 1192 3751 
Q 931 3306 884 2472 
z
M 878 2016 
Q 891 1228 1150 806 
Q 1409 384 1844 384 
Q 2225 384 2453 690 
Q 2681 997 2681 1453 
Q 2681 1916 2448 2212 
Q 2216 2509 1825 2509 
Q 1341 2509 878 2016 
z
" transform="scale(0.015625)"/>
       </defs>
       <use xlink:href="#MicrosoftSansSerif-36"/>
       <use xlink:href="#MicrosoftSansSerif-30" x="55.615234"/>
       <use xlink:href="#MicrosoftSansSerif-30" x="111.230469"/>
       <use xlink:href="#MicrosoftSansSerif-30" x="166.845703"/>
      </g>
     </g>
    </g>
    <g id="ytick_5">
     <g id="line2d_10">
      <g>
       <use xlink:href="#m99388d7110" x="73.76" y="177.219178" style="stroke: #000000; stroke-width: 0.8"/>
      </g>
     </g>
     <g id="text_11">
      <!-- 8000 -->
      <g transform="translate(35.61875 182.229647) scale(0.14 -0.14)">
       <defs>
        <path id="MicrosoftSansSerif-38" d="M 2338 2406 
Q 3291 1966 3291 1216 
Q 3291 638 2873 280 
Q 2456 -78 1778 -78 
Q 1103 -78 686 280 
Q 269 638 269 1216 
Q 269 1966 1222 2406 
Q 447 2853 447 3525 
Q 447 4022 814 4340 
Q 1181 4659 1778 4659 
Q 2378 4659 2743 4340 
Q 3109 4022 3109 3525 
Q 3109 2853 2338 2406 
z
M 1778 2650 
Q 2503 2975 2503 3525 
Q 2503 3841 2311 4019 
Q 2119 4197 1778 4197 
Q 1441 4197 1248 4019 
Q 1056 3841 1056 3525 
Q 1056 2975 1778 2650 
z
M 2681 1216 
Q 2681 1513 2465 1727 
Q 2250 1941 1778 2150 
Q 1309 1941 1093 1727 
Q 878 1513 878 1216 
Q 878 828 1125 606 
Q 1372 384 1778 384 
Q 2184 384 2432 606 
Q 2681 828 2681 1216 
z
" transform="scale(0.015625)"/>
       </defs>
       <use xlink:href="#MicrosoftSansSerif-38"/>
       <use xlink:href="#MicrosoftSansSerif-30" x="55.615234"/>
       <use xlink:href="#MicrosoftSansSerif-30" x="111.230469"/>
       <use xlink:href="#MicrosoftSansSerif-30" x="166.845703"/>
      </g>
     </g>
    </g>
    <g id="ytick_6">
     <g id="line2d_11">
      <g>
       <use xlink:href="#m99388d7110" x="73.76" y="129.512609" style="stroke: #000000; stroke-width: 0.8"/>
      </g>
     </g>
     <g id="text_12">
      <!-- 10000 -->
      <g transform="translate(27.833438 134.523078) scale(0.14 -0.14)">
       <use xlink:href="#MicrosoftSansSerif-31"/>
       <use xlink:href="#MicrosoftSansSerif-30" x="55.615234"/>
       <use xlink:href="#MicrosoftSansSerif-30" x="111.230469"/>
       <use xlink:href="#MicrosoftSansSerif-30" x="166.845703"/>
       <use xlink:href="#MicrosoftSansSerif-30" x="222.460938"/>
      </g>
     </g>
    </g>
    <g id="ytick_7">
     <g id="line2d_12">
      <g>
       <use xlink:href="#m99388d7110" x="73.76" y="81.80604" style="stroke: #000000; stroke-width: 0.8"/>
      </g>
     </g>
     <g id="text_13">
      <!-- 12000 -->
      <g transform="translate(27.833438 86.816509) scale(0.14 -0.14)">
       <use xlink:href="#MicrosoftSansSerif-31"/>
       <use xlink:href="#MicrosoftSansSerif-32" x="55.615234"/>
       <use xlink:href="#MicrosoftSansSerif-30" x="111.230469"/>
       <use xlink:href="#MicrosoftSansSerif-30" x="166.845703"/>
       <use xlink:href="#MicrosoftSansSerif-30" x="222.460938"/>
      </g>
     </g>
    </g>
    <g id="ytick_8">
     <g id="line2d_13">
      <g>
       <use xlink:href="#m99388d7110" x="73.76" y="34.099471" style="stroke: #000000; stroke-width: 0.8"/>
      </g>
     </g>
     <g id="text_14">
      <!-- 14000 -->
      <g transform="translate(27.833438 39.10994) scale(0.14 -0.14)">
       <use xlink:href="#MicrosoftSansSerif-31"/>
       <use xlink:href="#MicrosoftSansSerif-34" x="55.615234"/>
       <use xlink:href="#MicrosoftSansSerif-30" x="111.230469"/>
       <use xlink:href="#MicrosoftSansSerif-30" x="166.845703"/>
       <use xlink:href="#MicrosoftSansSerif-30" x="222.460938"/>
      </g>
     </g>
    </g>
    <g id="text_15">
     <!-- Citation Count -->
     <g transform="translate(21.044375 250.051562) rotate(-90) scale(0.14 -0.14)">
      <defs>
       <path id="MicrosoftSansSerif-43" d="M 2431 -78 
Q 1459 -78 879 561 
Q 300 1200 300 2291 
Q 300 3381 879 4020 
Q 1459 4659 2431 4659 
Q 3178 4659 3703 4256 
Q 4228 3853 4294 3194 
L 3669 3194 
Q 3631 3628 3292 3884 
Q 2953 4141 2438 4141 
Q 1741 4141 1334 3661 
Q 928 3181 928 2291 
Q 928 1403 1331 922 
Q 1734 441 2425 441 
Q 2963 441 3294 703 
Q 3625 966 3669 1453 
L 4294 1453 
Q 4228 722 3718 322 
Q 3209 -78 2431 -78 
z
" transform="scale(0.015625)"/>
      </defs>
      <use xlink:href="#MicrosoftSansSerif-43"/>
      <use xlink:href="#MicrosoftSansSerif-69" x="72.216797"/>
      <use xlink:href="#MicrosoftSansSerif-74" x="95.019531"/>
      <use xlink:href="#MicrosoftSansSerif-61" x="122.802734"/>
      <use xlink:href="#MicrosoftSansSerif-74" x="178.417969"/>
      <use xlink:href="#MicrosoftSansSerif-69" x="206.201172"/>
      <use xlink:href="#MicrosoftSansSerif-6f" x="229.003906"/>
      <use xlink:href="#MicrosoftSansSerif-6e" x="284.619141"/>
      <use xlink:href="#MicrosoftSansSerif-20" x="340.234375"/>
      <use xlink:href="#MicrosoftSansSerif-43" x="366.796875"/>
      <use xlink:href="#MicrosoftSansSerif-6f" x="439.013672"/>
      <use xlink:href="#MicrosoftSansSerif-75" x="494.628906"/>
      <use xlink:href="#MicrosoftSansSerif-6e" x="550.244141"/>
      <use xlink:href="#MicrosoftSansSerif-74" x="605.859375"/>
     </g>
    </g>
   </g>
   <g id="line2d_14">
    <path d="M 99.370909 368.045455 
L 110.753535 367.783068 
L 122.136162 367.258296 
L 133.518788 366.685817 
L 144.901414 365.946366 
L 156.28404 365.159207 
L 167.666667 364.372049 
L 179.049293 363.489477 
L 190.431919 363.012412 
L 201.814545 362.27296 
L 213.197172 361.772041 
L 224.579798 361.271122 
L 235.962424 361.008736 
L 247.345051 360.698643 
L 258.727677 360.340844 
L 270.110303 359.792218 
L 281.492929 359.124326 
L 292.875556 358.599554 
L 304.258182 357.883955 
L 315.640808 357.550009 
L 327.023434 357.025237 
L 338.406061 356.643585 
L 349.788687 356.118812 
L 361.171313 355.641747 
L 372.553939 354.997708 
L 383.936566 354.496789 
L 395.319192 353.99587 
L 406.701818 353.423391 
L 418.084444 352.994032 
L 429.467071 352.349993 
L 440.849697 351.896781 
L 452.232323 351.276596 
L 463.614949 350.990356 
L 474.997576 350.537144 
L 486.380202 350.203198 
" clip-path="url(#pfb17909235)" style="fill: none; stroke: #3182bd; stroke-width: 5; stroke-linecap: square"/>
   </g>
   <g id="line2d_15">
    <path d="M 99.370909 368.045455 
L 110.753535 368.021601 
L 122.136162 367.592242 
L 133.518788 366.399578 
L 144.901414 365.111501 
L 156.28404 363.680303 
L 167.666667 362.082133 
L 179.049293 360.650936 
L 190.431919 359.172033 
L 201.814545 358.241755 
L 213.197172 357.33533 
L 224.579798 356.190372 
L 235.962424 355.641747 
L 247.345051 355.116974 
L 258.727677 354.568349 
L 270.110303 354.06743 
L 281.492929 353.590364 
L 292.875556 353.256418 
L 304.258182 352.850912 
L 315.640808 352.349993 
L 327.023434 351.920634 
L 338.406061 351.419715 
L 349.788687 350.847236 
L 361.171313 350.131638 
L 372.553939 349.344479 
L 383.936566 348.772001 
L 395.319192 348.127962 
L 406.701818 347.483923 
L 418.084444 346.887591 
L 429.467071 346.338966 
L 440.849697 345.838047 
L 452.232323 345.313274 
L 463.614949 344.979328 
" clip-path="url(#pfb17909235)" style="fill: none; stroke: #9ecae1; stroke-width: 5; stroke-linecap: square"/>
   </g>
   <g id="line2d_16">
    <path d="M 99.370909 368.045455 
L 110.753535 367.973895 
L 122.136162 367.830775 
L 133.518788 367.711509 
L 144.901414 367.663802 
L 156.28404 367.616095 
L 167.666667 367.592242 
L 179.049293 367.568389 
L 190.431919 367.544536 
L 201.814545 367.544536 
L 213.197172 367.496829 
L 224.579798 367.496829 
L 235.962424 367.472976 
L 247.345051 367.449122 
L 258.727677 367.449122 
L 270.110303 367.449122 
L 281.492929 367.449122 
L 292.875556 367.425269 
L 304.258182 367.425269 
L 315.640808 367.401416 
L 327.023434 367.401416 
L 338.406061 367.377563 
L 349.788687 367.377563 
L 361.171313 367.329856 
L 372.553939 367.306003 
L 383.936566 367.282149 
L 395.319192 367.186736 
L 406.701818 367.115176 
L 418.084444 367.019763 
L 429.467071 367.019763 
" clip-path="url(#pfb17909235)" style="fill: none; stroke: #e6550d; stroke-width: 5; stroke-linecap: square"/>
   </g>
   <g id="line2d_17">
    <path d="M 99.370909 367.926188 
L 110.753535 367.806922 
L 122.136162 367.616095 
L 133.518788 367.329856 
L 144.901414 367.043617 
L 156.28404 366.876644 
L 167.666667 366.518844 
L 179.049293 366.089485 
L 190.431919 365.588566 
L 201.814545 365.159207 
L 213.197172 364.658288 
L 224.579798 364.276636 
L 235.962424 364.014249 
L 247.345051 363.847276 
L 258.727677 363.608744 
L 270.110303 363.083971 
L 281.492929 362.773879 
L 292.875556 362.535346 
L 304.258182 362.153693 
L 315.640808 361.891307 
" clip-path="url(#pfb17909235)" style="fill: none; stroke: #fdae6b; stroke-width: 5; stroke-linecap: square"/>
   </g>
   <g id="line2d_18">
    <path d="M 99.370909 367.973895 
L 110.753535 367.329856 
L 122.136162 364.944528 
L 133.518788 361.772041 
L 144.901414 357.239917 
L 156.28404 350.823383 
L 167.666667 343.190332 
L 179.049293 338.133436 
L 190.431919 333.529752 
L 201.814545 329.856346 
L 213.197172 326.874685 
L 224.579798 324.370091 
L 235.962424 322.271002 
L 247.345051 319.694847 
L 258.727677 318.025117 
L 270.110303 316.403094 
L 281.492929 315.019603 
L 292.875556 313.683819 
" clip-path="url(#pfb17909235)" style="fill: none; stroke: #31a354; stroke-width: 5; stroke-linecap: square"/>
   </g>
   <g id="line2d_19">
    <path d="M 99.370909 365.61242 
L 110.753535 353.351831 
L 122.136162 338.109582 
L 133.518788 317.476491 
L 144.901414 294.744311 
L 156.28404 269.817629 
L 167.666667 240.001023 
L 179.049293 209.158726 
L 190.431919 179.151294 
L 201.814545 150.789739 
L 213.197172 129.08325 
L 224.579798 112.81531 
L 235.962424 100.721695 
" clip-path="url(#pfb17909235)" style="fill: none; stroke: #c7e9c0; stroke-width: 5; stroke-linecap: square"/>
   </g>
   <g id="line2d_20">
    <path d="M 99.370909 367.496829 
L 110.753535 366.065632 
L 122.136162 363.394064 
L 133.518788 359.672952 
L 144.901414 346.601352 
L 156.28404 323.988438 
L 167.666667 291.929624 
L 179.049293 256.412083 
L 190.431919 216.815631 
" clip-path="url(#pfb17909235)" style="fill: none; stroke: #9e9ac8; stroke-width: 5; stroke-linecap: square"/>
   </g>
   <g id="line2d_21">
    <path d="M 99.370909 365.350033 
L 110.753535 358.527994 
L 122.136162 349.344479 
L 133.518788 335.795814 
L 144.901414 315.162723 
L 156.28404 289.639708 
L 167.666667 259.823103 
L 179.049293 227.764288 
L 190.431919 194.584369 
" clip-path="url(#pfb17909235)" style="fill: none; stroke: #dadaeb; stroke-width: 5; stroke-linecap: square"/>
   </g>
   <g id="line2d_22">
    <path d="M 99.370909 364.801408 
L 110.753535 356.548171 
L 122.136162 344.693089 
L 133.518788 327.423311 
L 144.901414 293.71862 
L 156.28404 245.582692 
L 167.666667 183.707272 
L 179.049293 116.130917 
L 190.431919 43.354545 
" clip-path="url(#pfb17909235)" style="fill: none; stroke: #969696; stroke-width: 5; stroke-linecap: square"/>
   </g>
   <g id="line2d_23">
    <defs>
     <path id="m3eff1eddb6" d="M 0 -8 
L -1.796112 -2.472136 
L -7.608452 -2.472136 
L -2.90617 0.944272 
L -4.702282 6.472136 
L -0 3.055728 
L 4.702282 6.472136 
L 2.90617 0.944272 
L 7.608452 -2.472136 
L 1.796112 -2.472136 
z
" style="stroke: #d9d9d9; stroke-linejoin: bevel"/>
    </defs>
    <g clip-path="url(#pfb17909235)">
     <use xlink:href="#m3eff1eddb6" x="611.589091" y="346.649058" style="fill: #d9d9d9; stroke: #d9d9d9; stroke-linejoin: bevel"/>
    </g>
   </g>
   <g id="patch_3">
    <path d="M 73.76 384.28 
L 73.76 27.12 
" style="fill: none; stroke: #000000; stroke-width: 0.8; stroke-linejoin: miter; stroke-linecap: square"/>
   </g>
   <g id="patch_4">
    <path d="M 637.2 384.28 
L 637.2 27.12 
" style="fill: none; stroke: #000000; stroke-width: 0.8; stroke-linejoin: miter; stroke-linecap: square"/>
   </g>
   <g id="patch_5">
    <path d="M 73.76 384.28 
L 637.2 384.28 
" style="fill: none; stroke: #000000; stroke-width: 0.8; stroke-linejoin: miter; stroke-linecap: square"/>
   </g>
   <g id="patch_6">
    <path d="M 73.76 27.12 
L 637.2 27.12 
" style="fill: none; stroke: #000000; stroke-width: 0.8; stroke-linejoin: miter; stroke-linecap: square"/>
   </g>
   <g id="text_16">
    <!-- *MIP Overview Paper Citation Counts since Publication (annual to 2024) -->
    <g transform="translate(131.820156 21.12) scale(0.14 -0.14)">
     <defs>
      <path id="MicrosoftSansSerif-2a" d="M 2278 3738 
L 1509 3566 
L 2028 2969 
L 1644 2688 
L 1241 3372 
L 838 2688 
L 453 2969 
L 972 3566 
L 206 3738 
L 353 4184 
L 1075 3872 
L 1006 4659 
L 1478 4659 
L 1409 3872 
L 2131 4184 
L 2278 3738 
z
" transform="scale(0.015625)"/>
      <path id="MicrosoftSansSerif-4d" d="M 4819 0 
L 4244 0 
L 4244 3897 
L 2938 0 
L 2394 0 
L 1088 3897 
L 1088 0 
L 513 0 
L 513 4581 
L 1422 4581 
L 2663 763 
L 3909 4581 
L 4819 4581 
L 4819 0 
z
" transform="scale(0.015625)"/>
      <path id="MicrosoftSansSerif-49" d="M 1197 0 
L 588 0 
L 588 4581 
L 1197 4581 
L 1197 0 
z
" transform="scale(0.015625)"/>
      <path id="MicrosoftSansSerif-4f" d="M 2497 4659 
Q 3459 4659 4071 4009 
Q 4684 3359 4684 2291 
Q 4684 1222 4071 572 
Q 3459 -78 2497 -78 
Q 1531 -78 915 573 
Q 300 1225 300 2291 
Q 300 3359 915 4009 
Q 1531 4659 2497 4659 
z
M 2491 441 
Q 3178 441 3617 928 
Q 4056 1416 4056 2291 
Q 4056 3166 3618 3653 
Q 3181 4141 2503 4141 
Q 1813 4141 1370 3653 
Q 928 3166 928 2291 
Q 928 1419 1368 930 
Q 1809 441 2491 441 
z
" transform="scale(0.015625)"/>
      <path id="MicrosoftSansSerif-76" d="M 3116 3316 
L 1863 0 
L 1338 0 
L 84 3316 
L 722 3316 
L 1600 722 
L 2478 3316 
L 3116 3316 
z
" transform="scale(0.015625)"/>
      <path id="MicrosoftSansSerif-77" d="M 4588 3316 
L 3591 0 
L 3028 0 
L 2309 2438 
L 1594 0 
L 1031 0 
L 31 3316 
L 684 3316 
L 1294 788 
L 2041 3316 
L 2578 3316 
L 3328 788 
L 3938 3316 
L 4588 3316 
z
" transform="scale(0.015625)"/>
      <path id="MicrosoftSansSerif-70" d="M 1025 2919 
Q 1419 3391 1972 3391 
Q 2622 3391 2978 2930 
Q 3334 2469 3334 1684 
Q 3334 869 2936 395 
Q 2538 -78 1931 -78 
Q 1394 -78 1025 256 
L 1025 -1275 
L 434 -1275 
L 434 3316 
L 1025 3316 
L 1025 2919 
z
M 1025 788 
Q 1403 384 1894 384 
Q 2275 384 2500 711 
Q 2725 1038 2725 1684 
Q 2725 2297 2512 2614 
Q 2300 2931 1919 2931 
Q 1428 2931 1025 2363 
L 1025 788 
z
" transform="scale(0.015625)"/>
      <path id="MicrosoftSansSerif-28" d="M 1900 -1344 
L 1497 -1344 
Q 384 100 384 1656 
Q 384 3216 1497 4659 
L 1900 4659 
Q 966 3163 966 1656 
Q 966 153 1900 -1344 
z
" transform="scale(0.015625)"/>
      <path id="MicrosoftSansSerif-29" d="M 634 4659 
Q 1747 3216 1747 1656 
Q 1747 100 634 -1344 
L 231 -1344 
Q 1166 153 1166 1656 
Q 1166 3163 231 4659 
L 634 4659 
z
" transform="scale(0.015625)"/>
     </defs>
     <use xlink:href="#MicrosoftSansSerif-2a"/>
     <use xlink:href="#MicrosoftSansSerif-4d" x="38.916016"/>
     <use xlink:href="#MicrosoftSansSerif-49" x="122.216797"/>
     <use xlink:href="#MicrosoftSansSerif-50" x="150"/>
     <use xlink:href="#MicrosoftSansSerif-20" x="216.699219"/>
     <use xlink:href="#MicrosoftSansSerif-4f" x="243.261719"/>
     <use xlink:href="#MicrosoftSansSerif-76" x="321.044922"/>
     <use xlink:href="#MicrosoftSansSerif-65" x="371.044922"/>
     <use xlink:href="#MicrosoftSansSerif-72" x="426.660156"/>
     <use xlink:href="#MicrosoftSansSerif-76" x="459.960938"/>
     <use xlink:href="#MicrosoftSansSerif-69" x="509.960938"/>
     <use xlink:href="#MicrosoftSansSerif-65" x="532.763672"/>
     <use xlink:href="#MicrosoftSansSerif-77" x="588.378906"/>
     <use xlink:href="#MicrosoftSansSerif-20" x="660.595703"/>
     <use xlink:href="#MicrosoftSansSerif-50" x="687.158203"/>
     <use xlink:href="#MicrosoftSansSerif-61" x="753.857422"/>
     <use xlink:href="#MicrosoftSansSerif-70" x="809.472656"/>
     <use xlink:href="#MicrosoftSansSerif-65" x="865.087891"/>
     <use xlink:href="#MicrosoftSansSerif-72" x="920.703125"/>
     <use xlink:href="#MicrosoftSansSerif-20" x="954.003906"/>
     <use xlink:href="#MicrosoftSansSerif-43" x="980.566406"/>
     <use xlink:href="#MicrosoftSansSerif-69" x="1052.783203"/>
     <use xlink:href="#MicrosoftSansSerif-74" x="1075.585938"/>
     <use xlink:href="#MicrosoftSansSerif-61" x="1103.369141"/>
     <use xlink:href="#MicrosoftSansSerif-74" x="1158.984375"/>
     <use xlink:href="#MicrosoftSansSerif-69" x="1186.767578"/>
     <use xlink:href="#MicrosoftSansSerif-6f" x="1209.570312"/>
     <use xlink:href="#MicrosoftSansSerif-6e" x="1265.185547"/>
     <use xlink:href="#MicrosoftSansSerif-20" x="1320.800781"/>
     <use xlink:href="#MicrosoftSansSerif-43" x="1347.363281"/>
     <use xlink:href="#MicrosoftSansSerif-6f" x="1419.580078"/>
     <use xlink:href="#MicrosoftSansSerif-75" x="1475.195312"/>
     <use xlink:href="#MicrosoftSansSerif-6e" x="1530.810547"/>
     <use xlink:href="#MicrosoftSansSerif-74" x="1586.425781"/>
     <use xlink:href="#MicrosoftSansSerif-73" x="1614.208984"/>
     <use xlink:href="#MicrosoftSansSerif-20" x="1664.208984"/>
     <use xlink:href="#MicrosoftSansSerif-73" x="1690.771484"/>
     <use xlink:href="#MicrosoftSansSerif-69" x="1740.771484"/>
     <use xlink:href="#MicrosoftSansSerif-6e" x="1763.574219"/>
     <use xlink:href="#MicrosoftSansSerif-63" x="1819.189453"/>
     <use xlink:href="#MicrosoftSansSerif-65" x="1869.189453"/>
     <use xlink:href="#MicrosoftSansSerif-20" x="1924.804688"/>
     <use xlink:href="#MicrosoftSansSerif-50" x="1951.367188"/>
     <use xlink:href="#MicrosoftSansSerif-75" x="2018.066406"/>
     <use xlink:href="#MicrosoftSansSerif-62" x="2073.681641"/>
     <use xlink:href="#MicrosoftSansSerif-6c" x="2129.296875"/>
     <use xlink:href="#MicrosoftSansSerif-69" x="2152.099609"/>
     <use xlink:href="#MicrosoftSansSerif-63" x="2174.902344"/>
     <use xlink:href="#MicrosoftSansSerif-61" x="2224.902344"/>
     <use xlink:href="#MicrosoftSansSerif-74" x="2280.517578"/>
     <use xlink:href="#MicrosoftSansSerif-69" x="2308.300781"/>
     <use xlink:href="#MicrosoftSansSerif-6f" x="2331.103516"/>
     <use xlink:href="#MicrosoftSansSerif-6e" x="2386.71875"/>
     <use xlink:href="#MicrosoftSansSerif-20" x="2442.333984"/>
     <use xlink:href="#MicrosoftSansSerif-28" x="2468.896484"/>
     <use xlink:href="#MicrosoftSansSerif-61" x="2502.197266"/>
     <use xlink:href="#MicrosoftSansSerif-6e" x="2557.8125"/>
     <use xlink:href="#MicrosoftSansSerif-6e" x="2613.427734"/>
     <use xlink:href="#MicrosoftSansSerif-75" x="2669.042969"/>
     <use xlink:href="#MicrosoftSansSerif-61" x="2724.658203"/>
     <use xlink:href="#MicrosoftSansSerif-6c" x="2780.273438"/>
     <use xlink:href="#MicrosoftSansSerif-20" x="2803.076172"/>
     <use xlink:href="#MicrosoftSansSerif-74" x="2829.638672"/>
     <use xlink:href="#MicrosoftSansSerif-6f" x="2857.421875"/>
     <use xlink:href="#MicrosoftSansSerif-20" x="2913.037109"/>
     <use xlink:href="#MicrosoftSansSerif-32" x="2939.599609"/>
     <use xlink:href="#MicrosoftSansSerif-30" x="2995.214844"/>
     <use xlink:href="#MicrosoftSansSerif-32" x="3050.830078"/>
     <use xlink:href="#MicrosoftSansSerif-34" x="3106.445312"/>
     <use xlink:href="#MicrosoftSansSerif-29" x="3162.060547"/>
    </g>
   </g>
   <g id="legend_1">
    <g id="patch_7">
     <path d="M 314.495625 239.635625 
L 627.4 239.635625 
Q 630.2 239.635625 630.2 236.835625 
L 630.2 36.92 
Q 630.2 34.12 627.4 34.12 
L 314.495625 34.12 
Q 311.695625 34.12 311.695625 36.92 
L 311.695625 236.835625 
Q 311.695625 239.635625 314.495625 239.635625 
z
" style="fill: #ffffff; opacity: 0.8; stroke: #cccccc; stroke-linejoin: miter"/>
    </g>
    <g id="line2d_24">
     <path d="M 317.295625 45.011563 
L 331.295625 45.011563 
L 345.295625 45.011563 
" style="fill: none; stroke: #3182bd; stroke-width: 5; stroke-linecap: square"/>
    </g>
    <g id="text_17">
     <!-- FANGIO (Cess et al., 1990) -->
     <g transform="translate(356.495625 49.911563) scale(0.14 -0.14)">
      <defs>
       <path id="MicrosoftSansSerif-46" d="M 3603 4038 
L 1119 4038 
L 1119 2619 
L 3272 2619 
L 3272 2075 
L 1119 2075 
L 1119 0 
L 513 0 
L 513 4581 
L 3603 4581 
L 3603 4038 
z
" transform="scale(0.015625)"/>
       <path id="MicrosoftSansSerif-41" d="M 2881 1875 
L 2075 4000 
L 1306 1875 
L 2881 1875 
z
M 4275 0 
L 3591 0 
L 3059 1394 
L 1141 1394 
L 634 0 
L -6 0 
L 1753 4581 
L 2406 4581 
L 4275 0 
z
" transform="scale(0.015625)"/>
       <path id="MicrosoftSansSerif-4e" d="M 4109 0 
L 3488 0 
L 1088 3616 
L 1088 0 
L 513 0 
L 513 4581 
L 1131 4581 
L 3531 966 
L 3531 4581 
L 4109 4581 
L 4109 0 
z
" transform="scale(0.015625)"/>
       <path id="MicrosoftSansSerif-47" d="M 2516 -78 
Q 1528 -78 914 569 
Q 300 1216 300 2291 
Q 300 3369 906 4014 
Q 1513 4659 2497 4659 
Q 3325 4659 3873 4261 
Q 4422 3863 4488 3194 
L 3859 3194 
Q 3822 3638 3459 3889 
Q 3097 4141 2503 4141 
Q 1794 4141 1361 3656 
Q 928 3172 928 2291 
Q 928 1413 1365 927 
Q 1803 441 2509 441 
Q 3500 441 3981 1094 
L 3981 1791 
L 2772 1791 
L 2772 2338 
L 4569 2338 
L 4569 0 
L 4141 0 
L 3981 481 
Q 3516 -78 2516 -78 
z
" transform="scale(0.015625)"/>
       <path id="MicrosoftSansSerif-2e" d="M 1209 0 
L 569 0 
L 569 641 
L 1209 641 
L 1209 0 
z
" transform="scale(0.015625)"/>
       <path id="MicrosoftSansSerif-2c" d="M 1209 0 
Q 1209 -409 1046 -656 
Q 884 -903 569 -903 
L 569 -603 
Q 884 -603 884 0 
L 569 0 
L 569 641 
L 1209 641 
L 1209 0 
z
" transform="scale(0.015625)"/>
       <path id="MicrosoftSansSerif-39" d="M 2675 2113 
Q 2222 1613 1631 1613 
Q 1059 1613 664 2030 
Q 269 2447 269 3091 
Q 269 3744 661 4201 
Q 1053 4659 1703 4659 
Q 2447 4659 2859 4087 
Q 3272 3516 3272 2438 
Q 3272 -78 1650 -78 
Q 1138 -78 780 209 
Q 422 497 347 1063 
L 953 1063 
Q 1028 384 1684 384 
Q 2106 384 2365 829 
Q 2625 1275 2675 2113 
z
M 2681 2566 
Q 2669 3356 2409 3776 
Q 2150 4197 1716 4197 
Q 1334 4197 1106 3890 
Q 878 3584 878 3128 
Q 878 2666 1111 2370 
Q 1344 2075 1734 2075 
Q 2219 2075 2681 2566 
z
" transform="scale(0.015625)"/>
      </defs>
      <use xlink:href="#MicrosoftSansSerif-46"/>
      <use xlink:href="#MicrosoftSansSerif-41" x="61.083984"/>
      <use xlink:href="#MicrosoftSansSerif-4e" x="127.783203"/>
      <use xlink:href="#MicrosoftSansSerif-47" x="200"/>
      <use xlink:href="#MicrosoftSansSerif-49" x="277.783203"/>
      <use xlink:href="#MicrosoftSansSerif-4f" x="305.566406"/>
      <use xlink:href="#MicrosoftSansSerif-20" x="383.349609"/>
      <use xlink:href="#MicrosoftSansSerif-28" x="409.912109"/>
      <use xlink:href="#MicrosoftSansSerif-43" x="443.212891"/>
      <use xlink:href="#MicrosoftSansSerif-65" x="515.429688"/>
      <use xlink:href="#MicrosoftSansSerif-73" x="571.044922"/>
      <use xlink:href="#MicrosoftSansSerif-73" x="621.044922"/>
      <use xlink:href="#MicrosoftSansSerif-20" x="671.044922"/>
      <use xlink:href="#MicrosoftSansSerif-65" x="697.607422"/>
      <use xlink:href="#MicrosoftSansSerif-74" x="753.222656"/>
      <use xlink:href="#MicrosoftSansSerif-20" x="781.005859"/>
      <use xlink:href="#MicrosoftSansSerif-61" x="807.568359"/>
      <use xlink:href="#MicrosoftSansSerif-6c" x="863.183594"/>
      <use xlink:href="#MicrosoftSansSerif-2e" x="885.986328"/>
      <use xlink:href="#MicrosoftSansSerif-2c" x="913.769531"/>
      <use xlink:href="#MicrosoftSansSerif-20" x="941.552734"/>
      <use xlink:href="#MicrosoftSansSerif-31" x="968.115234"/>
      <use xlink:href="#MicrosoftSansSerif-39" x="1023.730469"/>
      <use xlink:href="#MicrosoftSansSerif-39" x="1079.345703"/>
      <use xlink:href="#MicrosoftSansSerif-30" x="1134.960938"/>
      <use xlink:href="#MicrosoftSansSerif-29" x="1190.576172"/>
     </g>
    </g>
    <g id="line2d_25">
     <path d="M 317.295625 65.143125 
L 331.295625 65.143125 
L 345.295625 65.143125 
" style="fill: none; stroke: #9ecae1; stroke-width: 5; stroke-linecap: square"/>
    </g>
    <g id="text_18">
     <!-- AMIP1 (Gates et al., 1992) -->
     <g transform="translate(356.495625 70.043125) scale(0.14 -0.14)">
      <use xlink:href="#MicrosoftSansSerif-41"/>
      <use xlink:href="#MicrosoftSansSerif-4d" x="66.699219"/>
      <use xlink:href="#MicrosoftSansSerif-49" x="150"/>
      <use xlink:href="#MicrosoftSansSerif-50" x="177.783203"/>
      <use xlink:href="#MicrosoftSansSerif-31" x="244.482422"/>
      <use xlink:href="#MicrosoftSansSerif-20" x="300.097656"/>
      <use xlink:href="#MicrosoftSansSerif-28" x="326.660156"/>
      <use xlink:href="#MicrosoftSansSerif-47" x="359.960938"/>
      <use xlink:href="#MicrosoftSansSerif-61" x="437.744141"/>
      <use xlink:href="#MicrosoftSansSerif-74" x="493.359375"/>
      <use xlink:href="#MicrosoftSansSerif-65" x="521.142578"/>
      <use xlink:href="#MicrosoftSansSerif-73" x="576.757812"/>
      <use xlink:href="#MicrosoftSansSerif-20" x="626.757812"/>
      <use xlink:href="#MicrosoftSansSerif-65" x="653.320312"/>
      <use xlink:href="#MicrosoftSansSerif-74" x="708.935547"/>
      <use xlink:href="#MicrosoftSansSerif-20" x="736.71875"/>
      <use xlink:href="#MicrosoftSansSerif-61" x="763.28125"/>
      <use xlink:href="#MicrosoftSansSerif-6c" x="818.896484"/>
      <use xlink:href="#MicrosoftSansSerif-2e" x="841.699219"/>
      <use xlink:href="#MicrosoftSansSerif-2c" x="869.482422"/>
      <use xlink:href="#MicrosoftSansSerif-20" x="897.265625"/>
      <use xlink:href="#MicrosoftSansSerif-31" x="923.828125"/>
      <use xlink:href="#MicrosoftSansSerif-39" x="979.443359"/>
      <use xlink:href="#MicrosoftSansSerif-39" x="1035.058594"/>
      <use xlink:href="#MicrosoftSansSerif-32" x="1090.673828"/>
      <use xlink:href="#MicrosoftSansSerif-29" x="1146.289062"/>
     </g>
    </g>
    <g id="line2d_26">
     <path d="M 317.295625 85.274687 
L 331.295625 85.274687 
L 345.295625 85.274687 
" style="fill: none; stroke: #e6550d; stroke-width: 5; stroke-linecap: square"/>
    </g>
    <g id="text_19">
     <!-- CMIP1 (Meehl et al., 1995) -->
     <g transform="translate(356.495625 90.174688) scale(0.14 -0.14)">
      <defs>
       <path id="MicrosoftSansSerif-68" d="M 1025 2894 
Q 1466 3391 2016 3391 
Q 3138 3391 3138 2169 
L 3138 0 
L 2547 0 
L 2547 2144 
Q 2547 2550 2401 2728 
Q 2256 2906 1925 2906 
Q 1475 2906 1025 2375 
L 1025 0 
L 434 0 
L 434 4581 
L 1025 4581 
L 1025 2894 
z
" transform="scale(0.015625)"/>
       <path id="MicrosoftSansSerif-35" d="M 1031 2766 
Q 1372 3041 1881 3041 
Q 2453 3041 2878 2636 
Q 3303 2231 3303 1556 
Q 3303 850 2876 386 
Q 2450 -78 1741 -78 
Q 1159 -78 746 244 
Q 334 566 269 1203 
L 878 1203 
Q 928 788 1167 586 
Q 1406 384 1741 384 
Q 2166 384 2430 706 
Q 2694 1028 2694 1503 
Q 2694 1984 2425 2262 
Q 2156 2541 1728 2541 
Q 1238 2541 897 2163 
L 434 2163 
L 628 4581 
L 3084 4581 
L 3084 4038 
L 1131 4038 
L 1031 2766 
z
" transform="scale(0.015625)"/>
      </defs>
      <use xlink:href="#MicrosoftSansSerif-43"/>
      <use xlink:href="#MicrosoftSansSerif-4d" x="72.216797"/>
      <use xlink:href="#MicrosoftSansSerif-49" x="155.517578"/>
      <use xlink:href="#MicrosoftSansSerif-50" x="183.300781"/>
      <use xlink:href="#MicrosoftSansSerif-31" x="250"/>
      <use xlink:href="#MicrosoftSansSerif-20" x="305.615234"/>
      <use xlink:href="#MicrosoftSansSerif-28" x="332.177734"/>
      <use xlink:href="#MicrosoftSansSerif-4d" x="365.478516"/>
      <use xlink:href="#MicrosoftSansSerif-65" x="448.779297"/>
      <use xlink:href="#MicrosoftSansSerif-65" x="504.394531"/>
      <use xlink:href="#MicrosoftSansSerif-68" x="560.009766"/>
      <use xlink:href="#MicrosoftSansSerif-6c" x="615.625"/>
      <use xlink:href="#MicrosoftSansSerif-20" x="638.427734"/>
      <use xlink:href="#MicrosoftSansSerif-65" x="664.990234"/>
      <use xlink:href="#MicrosoftSansSerif-74" x="720.605469"/>
      <use xlink:href="#MicrosoftSansSerif-20" x="748.388672"/>
      <use xlink:href="#MicrosoftSansSerif-61" x="774.951172"/>
      <use xlink:href="#MicrosoftSansSerif-6c" x="830.566406"/>
      <use xlink:href="#MicrosoftSansSerif-2e" x="853.369141"/>
      <use xlink:href="#MicrosoftSansSerif-2c" x="881.152344"/>
      <use xlink:href="#MicrosoftSansSerif-20" x="908.935547"/>
      <use xlink:href="#MicrosoftSansSerif-31" x="935.498047"/>
      <use xlink:href="#MicrosoftSansSerif-39" x="991.113281"/>
      <use xlink:href="#MicrosoftSansSerif-39" x="1046.728516"/>
      <use xlink:href="#MicrosoftSansSerif-35" x="1102.34375"/>
      <use xlink:href="#MicrosoftSansSerif-29" x="1157.958984"/>
     </g>
    </g>
    <g id="line2d_27">
     <path d="M 317.295625 105.40625 
L 331.295625 105.40625 
L 345.295625 105.40625 
" style="fill: none; stroke: #fdae6b; stroke-width: 5; stroke-linecap: square"/>
    </g>
    <g id="text_20">
     <!-- CMIP2 (Meehl et al., 2005) -->
     <g transform="translate(356.495625 110.30625) scale(0.14 -0.14)">
      <use xlink:href="#MicrosoftSansSerif-43"/>
      <use xlink:href="#MicrosoftSansSerif-4d" x="72.216797"/>
      <use xlink:href="#MicrosoftSansSerif-49" x="155.517578"/>
      <use xlink:href="#MicrosoftSansSerif-50" x="183.300781"/>
      <use xlink:href="#MicrosoftSansSerif-32" x="250"/>
      <use xlink:href="#MicrosoftSansSerif-20" x="305.615234"/>
      <use xlink:href="#MicrosoftSansSerif-28" x="332.177734"/>
      <use xlink:href="#MicrosoftSansSerif-4d" x="365.478516"/>
      <use xlink:href="#MicrosoftSansSerif-65" x="448.779297"/>
      <use xlink:href="#MicrosoftSansSerif-65" x="504.394531"/>
      <use xlink:href="#MicrosoftSansSerif-68" x="560.009766"/>
      <use xlink:href="#MicrosoftSansSerif-6c" x="615.625"/>
      <use xlink:href="#MicrosoftSansSerif-20" x="638.427734"/>
      <use xlink:href="#MicrosoftSansSerif-65" x="664.990234"/>
      <use xlink:href="#MicrosoftSansSerif-74" x="720.605469"/>
      <use xlink:href="#MicrosoftSansSerif-20" x="748.388672"/>
      <use xlink:href="#MicrosoftSansSerif-61" x="774.951172"/>
      <use xlink:href="#MicrosoftSansSerif-6c" x="830.566406"/>
      <use xlink:href="#MicrosoftSansSerif-2e" x="853.369141"/>
      <use xlink:href="#MicrosoftSansSerif-2c" x="881.152344"/>
      <use xlink:href="#MicrosoftSansSerif-20" x="908.935547"/>
      <use xlink:href="#MicrosoftSansSerif-32" x="935.498047"/>
      <use xlink:href="#MicrosoftSansSerif-30" x="991.113281"/>
      <use xlink:href="#MicrosoftSansSerif-30" x="1046.728516"/>
      <use xlink:href="#MicrosoftSansSerif-35" x="1102.34375"/>
      <use xlink:href="#MicrosoftSansSerif-29" x="1157.958984"/>
     </g>
    </g>
    <g id="line2d_28">
     <path d="M 317.295625 125.537813 
L 331.295625 125.537813 
L 345.295625 125.537813 
" style="fill: none; stroke: #31a354; stroke-width: 5; stroke-linecap: square"/>
    </g>
    <g id="text_21">
     <!-- CMIP3 (Meehl et al., 2007) -->
     <g transform="translate(356.495625 130.437813) scale(0.14 -0.14)">
      <defs>
       <path id="MicrosoftSansSerif-37" d="M 3272 4166 
L 1606 0 
L 947 0 
L 2656 4038 
L 306 4038 
L 306 4581 
L 3272 4581 
L 3272 4166 
z
" transform="scale(0.015625)"/>
      </defs>
      <use xlink:href="#MicrosoftSansSerif-43"/>
      <use xlink:href="#MicrosoftSansSerif-4d" x="72.216797"/>
      <use xlink:href="#MicrosoftSansSerif-49" x="155.517578"/>
      <use xlink:href="#MicrosoftSansSerif-50" x="183.300781"/>
      <use xlink:href="#MicrosoftSansSerif-33" x="250"/>
      <use xlink:href="#MicrosoftSansSerif-20" x="305.615234"/>
      <use xlink:href="#MicrosoftSansSerif-28" x="332.177734"/>
      <use xlink:href="#MicrosoftSansSerif-4d" x="365.478516"/>
      <use xlink:href="#MicrosoftSansSerif-65" x="448.779297"/>
      <use xlink:href="#MicrosoftSansSerif-65" x="504.394531"/>
      <use xlink:href="#MicrosoftSansSerif-68" x="560.009766"/>
      <use xlink:href="#MicrosoftSansSerif-6c" x="615.625"/>
      <use xlink:href="#MicrosoftSansSerif-20" x="638.427734"/>
      <use xlink:href="#MicrosoftSansSerif-65" x="664.990234"/>
      <use xlink:href="#MicrosoftSansSerif-74" x="720.605469"/>
      <use xlink:href="#MicrosoftSansSerif-20" x="748.388672"/>
      <use xlink:href="#MicrosoftSansSerif-61" x="774.951172"/>
      <use xlink:href="#MicrosoftSansSerif-6c" x="830.566406"/>
      <use xlink:href="#MicrosoftSansSerif-2e" x="853.369141"/>
      <use xlink:href="#MicrosoftSansSerif-2c" x="881.152344"/>
      <use xlink:href="#MicrosoftSansSerif-20" x="908.935547"/>
      <use xlink:href="#MicrosoftSansSerif-32" x="935.498047"/>
      <use xlink:href="#MicrosoftSansSerif-30" x="991.113281"/>
      <use xlink:href="#MicrosoftSansSerif-30" x="1046.728516"/>
      <use xlink:href="#MicrosoftSansSerif-37" x="1102.34375"/>
      <use xlink:href="#MicrosoftSansSerif-29" x="1157.958984"/>
     </g>
    </g>
    <g id="line2d_29">
     <path d="M 317.295625 145.669375 
L 331.295625 145.669375 
L 345.295625 145.669375 
" style="fill: none; stroke: #c7e9c0; stroke-width: 5; stroke-linecap: square"/>
    </g>
    <g id="text_22">
     <!-- CMIP5 (Taylor et al., 2012) -->
     <g transform="translate(356.495625 150.569375) scale(0.14 -0.14)">
      <defs>
       <path id="MicrosoftSansSerif-54" d="M 3769 4038 
L 2253 4038 
L 2253 0 
L 1644 0 
L 1644 4038 
L 141 4038 
L 141 4581 
L 3769 4581 
L 3769 4038 
z
" transform="scale(0.015625)"/>
       <path id="MicrosoftSansSerif-79" d="M 622 -800 
Q 1059 -800 1338 0 
L 84 3316 
L 722 3316 
L 1600 722 
L 2478 3316 
L 3116 3316 
L 1863 0 
Q 1681 -475 1554 -733 
Q 1428 -991 1223 -1167 
Q 1019 -1344 722 -1344 
Q 500 -1344 341 -1300 
L 341 -756 
Q 478 -800 622 -800 
z
" transform="scale(0.015625)"/>
      </defs>
      <use xlink:href="#MicrosoftSansSerif-43"/>
      <use xlink:href="#MicrosoftSansSerif-4d" x="72.216797"/>
      <use xlink:href="#MicrosoftSansSerif-49" x="155.517578"/>
      <use xlink:href="#MicrosoftSansSerif-50" x="183.300781"/>
      <use xlink:href="#MicrosoftSansSerif-35" x="250"/>
      <use xlink:href="#MicrosoftSansSerif-20" x="305.615234"/>
      <use xlink:href="#MicrosoftSansSerif-28" x="332.177734"/>
      <use xlink:href="#MicrosoftSansSerif-54" x="365.478516"/>
      <use xlink:href="#MicrosoftSansSerif-61" x="426.5625"/>
      <use xlink:href="#MicrosoftSansSerif-79" x="482.177734"/>
      <use xlink:href="#MicrosoftSansSerif-6c" x="532.177734"/>
      <use xlink:href="#MicrosoftSansSerif-6f" x="554.980469"/>
      <use xlink:href="#MicrosoftSansSerif-72" x="610.595703"/>
      <use xlink:href="#MicrosoftSansSerif-20" x="643.896484"/>
      <use xlink:href="#MicrosoftSansSerif-65" x="670.458984"/>
      <use xlink:href="#MicrosoftSansSerif-74" x="726.074219"/>
      <use xlink:href="#MicrosoftSansSerif-20" x="753.857422"/>
      <use xlink:href="#MicrosoftSansSerif-61" x="780.419922"/>
      <use xlink:href="#MicrosoftSansSerif-6c" x="836.035156"/>
      <use xlink:href="#MicrosoftSansSerif-2e" x="858.837891"/>
      <use xlink:href="#MicrosoftSansSerif-2c" x="886.621094"/>
      <use xlink:href="#MicrosoftSansSerif-20" x="914.404297"/>
      <use xlink:href="#MicrosoftSansSerif-32" x="940.966797"/>
      <use xlink:href="#MicrosoftSansSerif-30" x="996.582031"/>
      <use xlink:href="#MicrosoftSansSerif-31" x="1052.197266"/>
      <use xlink:href="#MicrosoftSansSerif-32" x="1107.8125"/>
      <use xlink:href="#MicrosoftSansSerif-29" x="1163.427734"/>
     </g>
    </g>
    <g id="line2d_30">
     <path d="M 317.295625 165.800938 
L 331.295625 165.800938 
L 345.295625 165.800938 
" style="fill: none; stroke: #9e9ac8; stroke-width: 5; stroke-linecap: square"/>
    </g>
    <g id="text_23">
     <!-- CMIP6 (Eyring et al., 2016) -->
     <g transform="translate(356.495625 170.700938) scale(0.14 -0.14)">
      <defs>
       <path id="MicrosoftSansSerif-45" d="M 3928 0 
L 513 0 
L 513 4581 
L 3822 4581 
L 3822 4038 
L 1119 4038 
L 1119 2638 
L 3647 2638 
L 3647 2094 
L 1119 2094 
L 1119 544 
L 3928 544 
L 3928 0 
z
" transform="scale(0.015625)"/>
       <path id="MicrosoftSansSerif-67" d="M 3122 256 
Q 3122 -1344 1678 -1344 
Q 1053 -1344 692 -1072 
Q 331 -800 331 -341 
L 941 -341 
Q 941 -884 1672 -884 
Q 2084 -884 2309 -657 
Q 2534 -431 2534 231 
L 2534 397 
Q 2141 -78 1588 -78 
Q 938 -78 581 384 
Q 225 847 225 1631 
Q 225 2444 623 2917 
Q 1022 3391 1625 3391 
Q 2163 3391 2534 3059 
L 2534 3316 
L 3122 3316 
L 3122 256 
z
M 2534 953 
L 2534 2528 
Q 2153 2931 1663 2931 
Q 1284 2931 1057 2604 
Q 831 2278 831 1631 
Q 831 1019 1045 701 
Q 1259 384 1638 384 
Q 2131 384 2534 953 
z
" transform="scale(0.015625)"/>
      </defs>
      <use xlink:href="#MicrosoftSansSerif-43"/>
      <use xlink:href="#MicrosoftSansSerif-4d" x="72.216797"/>
      <use xlink:href="#MicrosoftSansSerif-49" x="155.517578"/>
      <use xlink:href="#MicrosoftSansSerif-50" x="183.300781"/>
      <use xlink:href="#MicrosoftSansSerif-36" x="250"/>
      <use xlink:href="#MicrosoftSansSerif-20" x="305.615234"/>
      <use xlink:href="#MicrosoftSansSerif-28" x="332.177734"/>
      <use xlink:href="#MicrosoftSansSerif-45" x="365.478516"/>
      <use xlink:href="#MicrosoftSansSerif-79" x="432.177734"/>
      <use xlink:href="#MicrosoftSansSerif-72" x="482.177734"/>
      <use xlink:href="#MicrosoftSansSerif-69" x="515.478516"/>
      <use xlink:href="#MicrosoftSansSerif-6e" x="538.28125"/>
      <use xlink:href="#MicrosoftSansSerif-67" x="593.896484"/>
      <use xlink:href="#MicrosoftSansSerif-20" x="649.511719"/>
      <use xlink:href="#MicrosoftSansSerif-65" x="676.074219"/>
      <use xlink:href="#MicrosoftSansSerif-74" x="731.689453"/>
      <use xlink:href="#MicrosoftSansSerif-20" x="759.472656"/>
      <use xlink:href="#MicrosoftSansSerif-61" x="786.035156"/>
      <use xlink:href="#MicrosoftSansSerif-6c" x="841.650391"/>
      <use xlink:href="#MicrosoftSansSerif-2e" x="864.453125"/>
      <use xlink:href="#MicrosoftSansSerif-2c" x="892.236328"/>
      <use xlink:href="#MicrosoftSansSerif-20" x="920.019531"/>
      <use xlink:href="#MicrosoftSansSerif-32" x="946.582031"/>
      <use xlink:href="#MicrosoftSansSerif-30" x="1002.197266"/>
      <use xlink:href="#MicrosoftSansSerif-31" x="1057.8125"/>
      <use xlink:href="#MicrosoftSansSerif-36" x="1113.427734"/>
      <use xlink:href="#MicrosoftSansSerif-29" x="1169.042969"/>
     </g>
    </g>
    <g id="line2d_31">
     <path d="M 317.295625 185.9325 
L 331.295625 185.9325 
L 345.295625 185.9325 
" style="fill: none; stroke: #dadaeb; stroke-width: 5; stroke-linecap: square"/>
    </g>
    <g id="text_24">
     <!-- CMIP6 (Satellite MIPs 2015-) -->
     <g transform="translate(356.495625 190.8325) scale(0.14 -0.14)">
      <defs>
       <path id="MicrosoftSansSerif-53" d="M 2241 -78 
Q 1272 -78 792 356 
Q 313 791 288 1472 
L 872 1472 
Q 919 959 1298 714 
Q 1678 469 2216 469 
Q 2725 469 3036 678 
Q 3347 888 3347 1247 
Q 3347 1625 3025 1797 
Q 2703 1969 1917 2136 
Q 1131 2303 789 2600 
Q 447 2897 447 3391 
Q 447 3947 892 4303 
Q 1338 4659 2075 4659 
Q 2850 4659 3325 4300 
Q 3800 3941 3828 3284 
L 3238 3284 
Q 3147 4116 2100 4116 
Q 1594 4116 1316 3925 
Q 1038 3734 1038 3419 
Q 1038 3131 1261 2987 
Q 1484 2844 2095 2709 
Q 2706 2575 3065 2444 
Q 3425 2313 3681 2036 
Q 3938 1759 3938 1294 
Q 3938 703 3467 312 
Q 2997 -78 2241 -78 
z
" transform="scale(0.015625)"/>
       <path id="MicrosoftSansSerif-2d" d="M 1925 1375 
L 206 1375 
L 206 1941 
L 1925 1941 
L 1925 1375 
z
" transform="scale(0.015625)"/>
      </defs>
      <use xlink:href="#MicrosoftSansSerif-43"/>
      <use xlink:href="#MicrosoftSansSerif-4d" x="72.216797"/>
      <use xlink:href="#MicrosoftSansSerif-49" x="155.517578"/>
      <use xlink:href="#MicrosoftSansSerif-50" x="183.300781"/>
      <use xlink:href="#MicrosoftSansSerif-36" x="250"/>
      <use xlink:href="#MicrosoftSansSerif-20" x="305.615234"/>
      <use xlink:href="#MicrosoftSansSerif-28" x="332.177734"/>
      <use xlink:href="#MicrosoftSansSerif-53" x="365.478516"/>
      <use xlink:href="#MicrosoftSansSerif-61" x="432.177734"/>
      <use xlink:href="#MicrosoftSansSerif-74" x="487.792969"/>
      <use xlink:href="#MicrosoftSansSerif-65" x="515.576172"/>
      <use xlink:href="#MicrosoftSansSerif-6c" x="571.191406"/>
      <use xlink:href="#MicrosoftSansSerif-6c" x="593.994141"/>
      <use xlink:href="#MicrosoftSansSerif-69" x="616.796875"/>
      <use xlink:href="#MicrosoftSansSerif-74" x="639.599609"/>
      <use xlink:href="#MicrosoftSansSerif-65" x="667.382812"/>
      <use xlink:href="#MicrosoftSansSerif-20" x="722.998047"/>
      <use xlink:href="#MicrosoftSansSerif-4d" x="749.560547"/>
      <use xlink:href="#MicrosoftSansSerif-49" x="832.861328"/>
      <use xlink:href="#MicrosoftSansSerif-50" x="860.644531"/>
      <use xlink:href="#MicrosoftSansSerif-73" x="927.34375"/>
      <use xlink:href="#MicrosoftSansSerif-20" x="977.34375"/>
      <use xlink:href="#MicrosoftSansSerif-32" x="1003.90625"/>
      <use xlink:href="#MicrosoftSansSerif-30" x="1059.521484"/>
      <use xlink:href="#MicrosoftSansSerif-31" x="1115.136719"/>
      <use xlink:href="#MicrosoftSansSerif-35" x="1170.751953"/>
      <use xlink:href="#MicrosoftSansSerif-2d" x="1226.367188"/>
      <use xlink:href="#MicrosoftSansSerif-29" x="1259.667969"/>
     </g>
    </g>
    <g id="line2d_32">
     <path d="M 317.295625 206.064063 
L 331.295625 206.064063 
L 345.295625 206.064063 
" style="fill: none; stroke: #969696; stroke-width: 5; stroke-linecap: square"/>
    </g>
    <g id="text_25">
     <!-- CMIP6 (Composite 2015-) -->
     <g transform="translate(356.495625 210.964063) scale(0.14 -0.14)">
      <defs>
       <path id="MicrosoftSansSerif-6d" d="M 4916 0 
L 4325 0 
L 4325 2144 
Q 4325 2556 4206 2731 
Q 4088 2906 3809 2906 
Q 3381 2906 2969 2375 
L 2969 0 
L 2381 0 
L 2381 2144 
Q 2381 2556 2262 2731 
Q 2144 2906 1863 2906 
Q 1434 2906 1025 2375 
L 1025 0 
L 434 0 
L 434 3316 
L 1025 3316 
L 1025 2894 
Q 1444 3391 1953 3391 
Q 2681 3391 2881 2791 
Q 3213 3181 3444 3286 
Q 3675 3391 3897 3391 
Q 4916 3391 4916 2169 
L 4916 0 
z
" transform="scale(0.015625)"/>
      </defs>
      <use xlink:href="#MicrosoftSansSerif-43"/>
      <use xlink:href="#MicrosoftSansSerif-4d" x="72.216797"/>
      <use xlink:href="#MicrosoftSansSerif-49" x="155.517578"/>
      <use xlink:href="#MicrosoftSansSerif-50" x="183.300781"/>
      <use xlink:href="#MicrosoftSansSerif-36" x="250"/>
      <use xlink:href="#MicrosoftSansSerif-20" x="305.615234"/>
      <use xlink:href="#MicrosoftSansSerif-28" x="332.177734"/>
      <use xlink:href="#MicrosoftSansSerif-43" x="365.478516"/>
      <use xlink:href="#MicrosoftSansSerif-6f" x="437.695312"/>
      <use xlink:href="#MicrosoftSansSerif-6d" x="493.310547"/>
      <use xlink:href="#MicrosoftSansSerif-70" x="576.611328"/>
      <use xlink:href="#MicrosoftSansSerif-6f" x="632.226562"/>
      <use xlink:href="#MicrosoftSansSerif-73" x="687.841797"/>
      <use xlink:href="#MicrosoftSansSerif-69" x="737.841797"/>
      <use xlink:href="#MicrosoftSansSerif-74" x="760.644531"/>
      <use xlink:href="#MicrosoftSansSerif-65" x="788.427734"/>
      <use xlink:href="#MicrosoftSansSerif-20" x="844.042969"/>
      <use xlink:href="#MicrosoftSansSerif-32" x="870.605469"/>
      <use xlink:href="#MicrosoftSansSerif-30" x="926.220703"/>
      <use xlink:href="#MicrosoftSansSerif-31" x="981.835938"/>
      <use xlink:href="#MicrosoftSansSerif-35" x="1037.451172"/>
      <use xlink:href="#MicrosoftSansSerif-2d" x="1093.066406"/>
      <use xlink:href="#MicrosoftSansSerif-29" x="1126.367188"/>
     </g>
    </g>
    <g id="line2d_33">
     <g>
      <use xlink:href="#m3eff1eddb6" x="331.295625" y="226.195625" style="fill: #d9d9d9; stroke: #d9d9d9; stroke-linejoin: bevel"/>
     </g>
    </g>
    <g id="text_26">
     <!-- US Nat. Res. Counc. (Charney et al., 1979) -->
     <g transform="translate(356.495625 231.095625) scale(0.14 -0.14)">
      <defs>
       <path id="MicrosoftSansSerif-55" d="M 2309 -78 
Q 1513 -78 1117 231 
Q 722 541 617 959 
Q 513 1378 513 1931 
L 513 4581 
L 1119 4581 
L 1119 1941 
Q 1119 1038 1422 753 
Q 1725 469 2309 469 
Q 2894 469 3197 753 
Q 3500 1038 3500 1941 
L 3500 4581 
L 4109 4581 
L 4109 1931 
Q 4109 1100 3911 706 
Q 3713 313 3313 117 
Q 2913 -78 2309 -78 
z
" transform="scale(0.015625)"/>
       <path id="MicrosoftSansSerif-52" d="M 4331 0 
L 3675 0 
L 3244 1222 
Q 3128 1547 2859 1753 
Q 2591 1959 2241 1959 
L 1119 1959 
L 1119 0 
L 513 0 
L 513 4581 
L 2541 4581 
Q 3072 4581 3409 4478 
Q 3747 4375 3959 4044 
Q 4172 3713 4172 3297 
Q 4172 2822 3897 2503 
Q 3622 2184 3144 2088 
L 3144 2075 
Q 3622 1922 3872 1247 
L 4331 0 
z
M 1119 2503 
L 2472 2503 
Q 3038 2503 3292 2681 
Q 3547 2859 3547 3297 
Q 3547 4078 2566 4078 
L 1119 4078 
L 1119 2503 
z
" transform="scale(0.015625)"/>
      </defs>
      <use xlink:href="#MicrosoftSansSerif-55"/>
      <use xlink:href="#MicrosoftSansSerif-53" x="72.216797"/>
      <use xlink:href="#MicrosoftSansSerif-20" x="138.916016"/>
      <use xlink:href="#MicrosoftSansSerif-4e" x="165.478516"/>
      <use xlink:href="#MicrosoftSansSerif-61" x="237.695312"/>
      <use xlink:href="#MicrosoftSansSerif-74" x="293.310547"/>
      <use xlink:href="#MicrosoftSansSerif-2e" x="321.09375"/>
      <use xlink:href="#MicrosoftSansSerif-20" x="348.876953"/>
      <use xlink:href="#MicrosoftSansSerif-52" x="375.439453"/>
      <use xlink:href="#MicrosoftSansSerif-65" x="447.65625"/>
      <use xlink:href="#MicrosoftSansSerif-73" x="503.271484"/>
      <use xlink:href="#MicrosoftSansSerif-2e" x="553.271484"/>
      <use xlink:href="#MicrosoftSansSerif-20" x="581.054688"/>
      <use xlink:href="#MicrosoftSansSerif-43" x="607.617188"/>
      <use xlink:href="#MicrosoftSansSerif-6f" x="679.833984"/>
      <use xlink:href="#MicrosoftSansSerif-75" x="735.449219"/>
      <use xlink:href="#MicrosoftSansSerif-6e" x="791.064453"/>
      <use xlink:href="#MicrosoftSansSerif-63" x="846.679688"/>
      <use xlink:href="#MicrosoftSansSerif-2e" x="896.679688"/>
      <use xlink:href="#MicrosoftSansSerif-20" x="924.462891"/>
      <use xlink:href="#MicrosoftSansSerif-28" x="951.025391"/>
      <use xlink:href="#MicrosoftSansSerif-43" x="984.326172"/>
      <use xlink:href="#MicrosoftSansSerif-68" x="1056.542969"/>
      <use xlink:href="#MicrosoftSansSerif-61" x="1112.158203"/>
      <use xlink:href="#MicrosoftSansSerif-72" x="1167.773438"/>
      <use xlink:href="#MicrosoftSansSerif-6e" x="1201.074219"/>
      <use xlink:href="#MicrosoftSansSerif-65" x="1256.689453"/>
      <use xlink:href="#MicrosoftSansSerif-79" x="1312.304688"/>
      <use xlink:href="#MicrosoftSansSerif-20" x="1362.304688"/>
      <use xlink:href="#MicrosoftSansSerif-65" x="1388.867188"/>
      <use xlink:href="#MicrosoftSansSerif-74" x="1444.482422"/>
      <use xlink:href="#MicrosoftSansSerif-20" x="1472.265625"/>
      <use xlink:href="#MicrosoftSansSerif-61" x="1498.828125"/>
      <use xlink:href="#MicrosoftSansSerif-6c" x="1554.443359"/>
      <use xlink:href="#MicrosoftSansSerif-2e" x="1577.246094"/>
      <use xlink:href="#MicrosoftSansSerif-2c" x="1605.029297"/>
      <use xlink:href="#MicrosoftSansSerif-20" x="1632.8125"/>
      <use xlink:href="#MicrosoftSansSerif-31" x="1659.375"/>
      <use xlink:href="#MicrosoftSansSerif-39" x="1714.990234"/>
      <use xlink:href="#MicrosoftSansSerif-37" x="1770.605469"/>
      <use xlink:href="#MicrosoftSansSerif-39" x="1826.220703"/>
      <use xlink:href="#MicrosoftSansSerif-29" x="1881.835938"/>
     </g>
    </g>
   </g>
  </g>
 </g>
 <defs>
  <clipPath id="pfb17909235">
   <rect x="73.76" y="27.12" width="563.44" height="357.16"/>
  </clipPath>
 </defs>
</svg>
