<?xml version="1.0" encoding="utf-8" standalone="no"?>
<!DOCTYPE svg PUBLIC "-//W3C//DTD SVG 1.1//EN"
  "http://www.w3.org/Graphics/SVG/1.1/DTD/svg11.dtd">
<svg xmlns:xlink="http://www.w3.org/1999/xlink" width="774pt" height="216pt" viewBox="0 0 774 216" xmlns="http://www.w3.org/2000/svg" version="1.1">
 <metadata>
  <rdf:RDF xmlns:dc="http://purl.org/dc/elements/1.1/" xmlns:cc="http://creativecommons.org/ns#" xmlns:rdf="http://www.w3.org/1999/02/22-rdf-syntax-ns#">
   <cc:Work>
    <dc:type rdf:resource="http://purl.org/dc/dcmitype/StillImage"/>
    <dc:date>2025-05-01T21:46:08.566107</dc:date>
    <dc:format>image/svg+xml</dc:format>
    <dc:creator>
     <cc:Agent>
      <dc:title>Matplotlib v3.10.1, https://matplotlib.org/</dc:title>
     </cc:Agent>
    </dc:creator>
   </cc:Work>
  </rdf:RDF>
 </metadata>
 <defs>
  <style type="text/css">*{stroke-linejoin: round; stroke-linecap: butt}</style>
 </defs>
 <g id="figure_1">
  <g id="patch_1">
   <path d="M 0 216 
L 774 216 
L 774 0 
L 0 0 
z
" style="fill: #ffffff"/>
  </g>
  <g id="axes_1">
   <g id="patch_2">
    <path d="M 206.745858 116.76 
C 206.745858 104.685607 203.076934 92.891551 196.227506 82.947895 
C 189.378077 73.004239 179.666197 65.372716 168.384742 61.069259 
C 157.103287 56.765803 144.776111 55.990244 133.044248 58.845826 
C 121.312385 61.701409 110.720603 68.055535 102.678915 77.062322 
L 147.140791 116.76 
z
" style="fill: #1f77b4"/>
   </g>
   <g id="patch_3">
    <path d="M 102.678914 77.062325 
C 94.083862 86.688886 88.843373 98.85132 87.750021 111.710177 
C 86.656669 124.569035 89.768502 137.44164 96.614882 148.381142 
L 147.140791 116.76 
z
" style="fill: #ffbb78"/>
   </g>
   <g id="patch_4">
    <path d="M 96.614882 148.381142 
C 102.210045 157.321385 110.079102 164.61843 119.415408 169.524262 
C 128.751713 174.430093 139.224954 176.771145 149.761498 176.307428 
L 147.140791 116.76 
z
" style="fill: #d62728"/>
   </g>
   <g id="patch_5">
    <path d="M 149.761498 176.307428 
C 154.068403 176.117878 158.342045 175.461631 162.50739 174.350206 
C 166.672735 173.238781 170.705248 171.678717 174.53407 169.697436 
L 147.140791 116.76 
z
" style="fill: #8c564b"/>
   </g>
   <g id="patch_6">
    <path d="M 174.53407 169.697436 
C 178.307295 167.744922 181.860976 165.394579 185.13448 162.6865 
C 188.407984 159.978422 191.382596 156.9281 194.007559 153.587574 
L 147.140791 116.76 
z
" style="fill: #f7b6d2"/>
   </g>
   <g id="patch_7">
    <path d="M 194.007559 153.587574 
C 195.898216 151.181524 197.600788 148.633446 199.100165 145.965952 
C 200.599541 143.298458 201.891278 140.519456 202.963918 137.653604 
L 147.140791 116.76 
z
" style="fill: #bcbd22"/>
   </g>
   <g id="patch_8">
    <path d="M 202.963918 137.653604 
C 204.211895 134.319284 205.158622 130.87986 205.79275 127.376573 
C 206.426879 123.873287 206.745858 120.320205 206.745858 116.75999 
L 147.140791 116.76 
z
" style="fill: #9edae5"/>
   </g>
   <g id="matplotlib.axis_1"/>
   <g id="matplotlib.axis_2"/>
   <g id="text_1">
    <!-- historical 38.4% -->
    <g transform="translate(170.509135 58.082997) scale(0.1 -0.1)">
     <defs>
      <path id="MicrosoftSansSerif-68" d="M 1025 2894 
Q 1466 3391 2016 3391 
Q 3138 3391 3138 2169 
L 3138 0 
L 2547 0 
L 2547 2144 
Q 2547 2550 2401 2728 
Q 2256 2906 1925 2906 
Q 1475 2906 1025 2375 
L 1025 0 
L 434 0 
L 434 4581 
L 1025 4581 
L 1025 2894 
z
" transform="scale(0.015625)"/>
      <path id="MicrosoftSansSerif-69" d="M 1025 0 
L 434 0 
L 434 3316 
L 1025 3316 
L 1025 0 
z
M 1025 3944 
L 434 3944 
L 434 4581 
L 1025 4581 
L 1025 3944 
z
" transform="scale(0.015625)"/>
      <path id="MicrosoftSansSerif-73" d="M 1619 -78 
Q 259 -78 197 991 
L 788 991 
Q 794 384 1613 384 
Q 1978 384 2170 536 
Q 2363 688 2363 916 
Q 2363 1141 2175 1233 
Q 1988 1325 1402 1472 
Q 816 1619 545 1800 
Q 275 1981 275 2438 
Q 275 2850 611 3120 
Q 947 3391 1509 3391 
Q 2813 3391 2841 2463 
L 2253 2463 
Q 2222 2931 1550 2931 
Q 1253 2931 1058 2818 
Q 863 2706 863 2491 
Q 863 2297 1013 2211 
Q 1163 2125 1764 1979 
Q 2366 1834 2658 1640 
Q 2950 1447 2950 972 
Q 2950 519 2589 220 
Q 2228 -78 1619 -78 
z
" transform="scale(0.015625)"/>
      <path id="MicrosoftSansSerif-74" d="M 1722 -6 
Q 1528 -44 1300 -44 
Q 938 -44 769 86 
Q 600 216 559 419 
Q 519 622 519 972 
L 519 2853 
L 109 2853 
L 109 3316 
L 519 3316 
L 519 4141 
L 1106 4141 
L 1106 3316 
L 1644 3316 
L 1644 2853 
L 1106 2853 
L 1106 941 
Q 1106 600 1192 508 
Q 1278 416 1428 416 
Q 1581 416 1722 441 
L 1722 -6 
z
" transform="scale(0.015625)"/>
      <path id="MicrosoftSansSerif-6f" d="M 1778 3391 
Q 2488 3391 2911 2937 
Q 3334 2484 3334 1656 
Q 3334 831 2911 376 
Q 2488 -78 1778 -78 
Q 1072 -78 648 376 
Q 225 831 225 1656 
Q 225 2484 648 2937 
Q 1072 3391 1778 3391 
z
M 1778 384 
Q 2200 384 2462 704 
Q 2725 1025 2725 1656 
Q 2725 2291 2462 2611 
Q 2200 2931 1778 2931 
Q 1356 2931 1093 2611 
Q 831 2291 831 1656 
Q 831 1025 1093 704 
Q 1356 384 1778 384 
z
" transform="scale(0.015625)"/>
      <path id="MicrosoftSansSerif-72" d="M 2156 2778 
Q 2031 2816 1797 2816 
Q 1347 2816 1025 2344 
L 1025 0 
L 434 0 
L 434 3316 
L 1025 3316 
L 1025 2853 
Q 1397 3391 1888 3391 
Q 2013 3391 2156 3366 
L 2156 2778 
z
" transform="scale(0.015625)"/>
      <path id="MicrosoftSansSerif-63" d="M 1778 -78 
Q 1072 -78 648 376 
Q 225 831 225 1656 
Q 225 2484 648 2937 
Q 1072 3391 1778 3391 
Q 2322 3391 2686 3116 
Q 3050 2841 3116 2322 
L 2509 2322 
Q 2497 2619 2286 2775 
Q 2075 2931 1778 2931 
Q 1356 2931 1093 2611 
Q 831 2291 831 1656 
Q 831 1025 1093 704 
Q 1356 384 1778 384 
Q 2075 384 2286 540 
Q 2497 697 2509 991 
L 3116 991 
Q 3050 472 2686 197 
Q 2322 -78 1778 -78 
z
" transform="scale(0.015625)"/>
      <path id="MicrosoftSansSerif-61" d="M 2534 872 
L 2534 1606 
L 2131 1606 
Q 850 1606 850 909 
Q 850 656 1037 520 
Q 1225 384 1544 384 
Q 1834 384 2106 515 
Q 2378 647 2534 872 
z
M 2534 341 
Q 2084 -78 1375 -78 
Q 881 -78 562 189 
Q 244 456 244 878 
Q 244 2041 2247 2041 
L 2534 2041 
Q 2534 2397 2496 2558 
Q 2459 2719 2287 2825 
Q 2116 2931 1741 2931 
Q 953 2931 928 2369 
L 341 2369 
Q 406 3391 1772 3391 
Q 2409 3391 2765 3137 
Q 3122 2884 3122 2144 
L 3122 0 
L 2534 0 
L 2534 341 
z
" transform="scale(0.015625)"/>
      <path id="MicrosoftSansSerif-6c" d="M 1025 0 
L 434 0 
L 434 4581 
L 1025 4581 
L 1025 0 
z
" transform="scale(0.015625)"/>
      <path id="MicrosoftSansSerif-20" d="M 0 0 
L 0 0 
z
" transform="scale(0.015625)"/>
      <path id="MicrosoftSansSerif-33" d="M 2413 2516 
Q 2831 2406 3057 2090 
Q 3284 1775 3284 1350 
Q 3284 716 2850 319 
Q 2416 -78 1772 -78 
Q 1125 -78 719 275 
Q 313 628 281 1209 
L 891 1209 
Q 891 872 1119 628 
Q 1347 384 1772 384 
Q 2184 384 2429 650 
Q 2675 916 2675 1338 
Q 2675 1769 2420 2001 
Q 2166 2234 1678 2234 
L 1453 2234 
L 1453 2694 
L 1588 2694 
Q 2444 2694 2444 3481 
Q 2444 3828 2256 4012 
Q 2069 4197 1728 4197 
Q 1028 4197 947 3469 
L 341 3469 
Q 406 4050 784 4354 
Q 1163 4659 1716 4659 
Q 2328 4659 2690 4326 
Q 3053 3994 3053 3469 
Q 3053 3175 2895 2914 
Q 2738 2653 2413 2516 
z
" transform="scale(0.015625)"/>
      <path id="MicrosoftSansSerif-38" d="M 2338 2406 
Q 3291 1966 3291 1216 
Q 3291 638 2873 280 
Q 2456 -78 1778 -78 
Q 1103 -78 686 280 
Q 269 638 269 1216 
Q 269 1966 1222 2406 
Q 447 2853 447 3525 
Q 447 4022 814 4340 
Q 1181 4659 1778 4659 
Q 2378 4659 2743 4340 
Q 3109 4022 3109 3525 
Q 3109 2853 2338 2406 
z
M 1778 2650 
Q 2503 2975 2503 3525 
Q 2503 3841 2311 4019 
Q 2119 4197 1778 4197 
Q 1441 4197 1248 4019 
Q 1056 3841 1056 3525 
Q 1056 2975 1778 2650 
z
M 2681 1216 
Q 2681 1513 2465 1727 
Q 2250 1941 1778 2150 
Q 1309 1941 1093 1727 
Q 878 1513 878 1216 
Q 878 828 1125 606 
Q 1372 384 1778 384 
Q 2184 384 2432 606 
Q 2681 828 2681 1216 
z
" transform="scale(0.015625)"/>
      <path id="MicrosoftSansSerif-2e" d="M 1209 0 
L 569 0 
L 569 641 
L 1209 641 
L 1209 0 
z
" transform="scale(0.015625)"/>
      <path id="MicrosoftSansSerif-34" d="M 3263 1094 
L 2644 1094 
L 2644 0 
L 2053 0 
L 2053 1094 
L 97 1094 
L 97 1613 
L 2181 4641 
L 2644 4641 
L 2644 1613 
L 3263 1613 
L 3263 1094 
z
M 2053 1613 
L 2053 3713 
L 647 1613 
L 2053 1613 
z
" transform="scale(0.015625)"/>
      <path id="MicrosoftSansSerif-25" d="M 1441 4659 
Q 1900 4659 2192 4334 
Q 2484 4009 2484 3444 
Q 2484 2878 2192 2553 
Q 1900 2228 1441 2228 
Q 981 2228 692 2553 
Q 403 2878 403 3444 
Q 403 4009 692 4334 
Q 981 4659 1441 4659 
z
M 1441 2613 
Q 1984 2613 1984 3444 
Q 1984 4275 1441 4275 
Q 903 4275 903 3444 
Q 903 2613 1441 2613 
z
M 4319 4581 
L 1819 0 
L 1363 0 
L 3866 4581 
L 4319 4581 
z
M 4244 2356 
Q 4703 2356 4995 2029 
Q 5288 1703 5288 1141 
Q 5288 575 4995 248 
Q 4703 -78 4244 -78 
Q 3784 -78 3495 247 
Q 3206 572 3206 1141 
Q 3206 1706 3495 2031 
Q 3784 2356 4244 2356 
z
M 4244 306 
Q 4788 306 4788 1141 
Q 4788 1972 4244 1972 
Q 3706 1972 3706 1141 
Q 3706 306 4244 306 
z
" transform="scale(0.015625)"/>
     </defs>
     <use xlink:href="#MicrosoftSansSerif-68"/>
     <use xlink:href="#MicrosoftSansSerif-69" transform="translate(55.615234 0)"/>
     <use xlink:href="#MicrosoftSansSerif-73" transform="translate(78.417969 0)"/>
     <use xlink:href="#MicrosoftSansSerif-74" transform="translate(128.417969 0)"/>
     <use xlink:href="#MicrosoftSansSerif-6f" transform="translate(156.201172 0)"/>
     <use xlink:href="#MicrosoftSansSerif-72" transform="translate(211.816406 0)"/>
     <use xlink:href="#MicrosoftSansSerif-69" transform="translate(245.117188 0)"/>
     <use xlink:href="#MicrosoftSansSerif-63" transform="translate(267.919922 0)"/>
     <use xlink:href="#MicrosoftSansSerif-61" transform="translate(317.919922 0)"/>
     <use xlink:href="#MicrosoftSansSerif-6c" transform="translate(373.535156 0)"/>
     <use xlink:href="#MicrosoftSansSerif-20" transform="translate(396.337891 0)"/>
     <use xlink:href="#MicrosoftSansSerif-33" transform="translate(422.900391 0)"/>
     <use xlink:href="#MicrosoftSansSerif-38" transform="translate(478.515625 0)"/>
     <use xlink:href="#MicrosoftSansSerif-2e" transform="translate(534.130859 0)"/>
     <use xlink:href="#MicrosoftSansSerif-34" transform="translate(561.914062 0)"/>
     <use xlink:href="#MicrosoftSansSerif-25" transform="translate(617.529297 0)"/>
    </g>
   </g>
   <g id="text_2">
    <!-- SRESA1B 20.5% -->
    <g transform="translate(4.667196 113.788008) scale(0.1 -0.1)">
     <defs>
      <path id="MicrosoftSansSerif-53" d="M 2241 -78 
Q 1272 -78 792 356 
Q 313 791 288 1472 
L 872 1472 
Q 919 959 1298 714 
Q 1678 469 2216 469 
Q 2725 469 3036 678 
Q 3347 888 3347 1247 
Q 3347 1625 3025 1797 
Q 2703 1969 1917 2136 
Q 1131 2303 789 2600 
Q 447 2897 447 3391 
Q 447 3947 892 4303 
Q 1338 4659 2075 4659 
Q 2850 4659 3325 4300 
Q 3800 3941 3828 3284 
L 3238 3284 
Q 3147 4116 2100 4116 
Q 1594 4116 1316 3925 
Q 1038 3734 1038 3419 
Q 1038 3131 1261 2987 
Q 1484 2844 2095 2709 
Q 2706 2575 3065 2444 
Q 3425 2313 3681 2036 
Q 3938 1759 3938 1294 
Q 3938 703 3467 312 
Q 2997 -78 2241 -78 
z
" transform="scale(0.015625)"/>
      <path id="MicrosoftSansSerif-52" d="M 4331 0 
L 3675 0 
L 3244 1222 
Q 3128 1547 2859 1753 
Q 2591 1959 2241 1959 
L 1119 1959 
L 1119 0 
L 513 0 
L 513 4581 
L 2541 4581 
Q 3072 4581 3409 4478 
Q 3747 4375 3959 4044 
Q 4172 3713 4172 3297 
Q 4172 2822 3897 2503 
Q 3622 2184 3144 2088 
L 3144 2075 
Q 3622 1922 3872 1247 
L 4331 0 
z
M 1119 2503 
L 2472 2503 
Q 3038 2503 3292 2681 
Q 3547 2859 3547 3297 
Q 3547 4078 2566 4078 
L 1119 4078 
L 1119 2503 
z
" transform="scale(0.015625)"/>
      <path id="MicrosoftSansSerif-45" d="M 3928 0 
L 513 0 
L 513 4581 
L 3822 4581 
L 3822 4038 
L 1119 4038 
L 1119 2638 
L 3647 2638 
L 3647 2094 
L 1119 2094 
L 1119 544 
L 3928 544 
L 3928 0 
z
" transform="scale(0.015625)"/>
      <path id="MicrosoftSansSerif-41" d="M 2881 1875 
L 2075 4000 
L 1306 1875 
L 2881 1875 
z
M 4275 0 
L 3591 0 
L 3059 1394 
L 1141 1394 
L 634 0 
L -6 0 
L 1753 4581 
L 2406 4581 
L 4275 0 
z
" transform="scale(0.015625)"/>
      <path id="MicrosoftSansSerif-31" d="M 2400 0 
L 1813 0 
L 1813 3603 
Q 1456 3366 709 3366 
L 709 3828 
Q 1788 3828 1947 4659 
L 2400 4659 
L 2400 0 
z
" transform="scale(0.015625)"/>
      <path id="MicrosoftSansSerif-42" d="M 3938 1331 
Q 3938 688 3500 344 
Q 3063 0 2228 0 
L 513 0 
L 513 4581 
L 2144 4581 
Q 2875 4581 3294 4268 
Q 3713 3956 3713 3413 
Q 3713 2750 3053 2431 
Q 3497 2319 3717 2017 
Q 3938 1716 3938 1331 
z
M 1119 2663 
L 2138 2663 
Q 2641 2663 2878 2823 
Q 3116 2984 3116 3359 
Q 3116 3697 2884 3867 
Q 2653 4038 2081 4038 
L 1119 4038 
L 1119 2663 
z
M 1119 544 
L 2222 544 
Q 3309 544 3309 1331 
Q 3309 1741 3057 1930 
Q 2806 2119 2144 2119 
L 1119 2119 
L 1119 544 
z
" transform="scale(0.015625)"/>
      <path id="MicrosoftSansSerif-32" d="M 3231 0 
L 197 0 
Q 197 419 456 800 
Q 716 1181 1408 1739 
Q 2100 2297 2356 2630 
Q 2613 2963 2613 3384 
Q 2613 3763 2394 3980 
Q 2175 4197 1778 4197 
Q 1434 4197 1190 3978 
Q 947 3759 916 3334 
L 306 3334 
Q 356 3938 751 4298 
Q 1147 4659 1791 4659 
Q 2475 4659 2847 4292 
Q 3219 3925 3219 3372 
Q 3219 2872 2944 2489 
Q 2669 2106 1851 1425 
Q 1034 744 1019 544 
L 3231 544 
L 3231 0 
z
" transform="scale(0.015625)"/>
      <path id="MicrosoftSansSerif-30" d="M 1778 4659 
Q 3272 4659 3272 2284 
Q 3272 -78 1778 -78 
Q 288 -78 288 2284 
Q 288 4659 1778 4659 
z
M 1778 384 
Q 2213 384 2438 803 
Q 2663 1222 2663 2284 
Q 2663 3350 2438 3773 
Q 2213 4197 1778 4197 
Q 1347 4197 1122 3773 
Q 897 3350 897 2284 
Q 897 1222 1122 803 
Q 1347 384 1778 384 
z
" transform="scale(0.015625)"/>
      <path id="MicrosoftSansSerif-35" d="M 1031 2766 
Q 1372 3041 1881 3041 
Q 2453 3041 2878 2636 
Q 3303 2231 3303 1556 
Q 3303 850 2876 386 
Q 2450 -78 1741 -78 
Q 1159 -78 746 244 
Q 334 566 269 1203 
L 878 1203 
Q 928 788 1167 586 
Q 1406 384 1741 384 
Q 2166 384 2430 706 
Q 2694 1028 2694 1503 
Q 2694 1984 2425 2262 
Q 2156 2541 1728 2541 
Q 1238 2541 897 2163 
L 434 2163 
L 628 4581 
L 3084 4581 
L 3084 4038 
L 1131 4038 
L 1031 2766 
z
" transform="scale(0.015625)"/>
     </defs>
     <use xlink:href="#MicrosoftSansSerif-53"/>
     <use xlink:href="#MicrosoftSansSerif-52" transform="translate(66.699219 0)"/>
     <use xlink:href="#MicrosoftSansSerif-45" transform="translate(138.916016 0)"/>
     <use xlink:href="#MicrosoftSansSerif-53" transform="translate(205.615234 0)"/>
     <use xlink:href="#MicrosoftSansSerif-41" transform="translate(272.314453 0)"/>
     <use xlink:href="#MicrosoftSansSerif-31" transform="translate(339.013672 0)"/>
     <use xlink:href="#MicrosoftSansSerif-42" transform="translate(394.628906 0)"/>
     <use xlink:href="#MicrosoftSansSerif-20" transform="translate(461.328125 0)"/>
     <use xlink:href="#MicrosoftSansSerif-32" transform="translate(487.890625 0)"/>
     <use xlink:href="#MicrosoftSansSerif-30" transform="translate(543.505859 0)"/>
     <use xlink:href="#MicrosoftSansSerif-2e" transform="translate(599.121094 0)"/>
     <use xlink:href="#MicrosoftSansSerif-35" transform="translate(626.904297 0)"/>
     <use xlink:href="#MicrosoftSansSerif-25" transform="translate(682.519531 0)"/>
    </g>
   </g>
   <g id="text_3">
    <!-- piControl 16.8% -->
    <g transform="translate(45.500711 177.444452) scale(0.1 -0.1)">
     <defs>
      <path id="MicrosoftSansSerif-70" d="M 1025 2919 
Q 1419 3391 1972 3391 
Q 2622 3391 2978 2930 
Q 3334 2469 3334 1684 
Q 3334 869 2936 395 
Q 2538 -78 1931 -78 
Q 1394 -78 1025 256 
L 1025 -1275 
L 434 -1275 
L 434 3316 
L 1025 3316 
L 1025 2919 
z
M 1025 788 
Q 1403 384 1894 384 
Q 2275 384 2500 711 
Q 2725 1038 2725 1684 
Q 2725 2297 2512 2614 
Q 2300 2931 1919 2931 
Q 1428 2931 1025 2363 
L 1025 788 
z
" transform="scale(0.015625)"/>
      <path id="MicrosoftSansSerif-43" d="M 2431 -78 
Q 1459 -78 879 561 
Q 300 1200 300 2291 
Q 300 3381 879 4020 
Q 1459 4659 2431 4659 
Q 3178 4659 3703 4256 
Q 4228 3853 4294 3194 
L 3669 3194 
Q 3631 3628 3292 3884 
Q 2953 4141 2438 4141 
Q 1741 4141 1334 3661 
Q 928 3181 928 2291 
Q 928 1403 1331 922 
Q 1734 441 2425 441 
Q 2963 441 3294 703 
Q 3625 966 3669 1453 
L 4294 1453 
Q 4228 722 3718 322 
Q 3209 -78 2431 -78 
z
" transform="scale(0.015625)"/>
      <path id="MicrosoftSansSerif-6e" d="M 1025 2894 
Q 1466 3391 2016 3391 
Q 3138 3391 3138 2169 
L 3138 0 
L 2547 0 
L 2547 2144 
Q 2547 2550 2401 2728 
Q 2256 2906 1925 2906 
Q 1475 2906 1025 2375 
L 1025 0 
L 434 0 
L 434 3316 
L 1025 3316 
L 1025 2894 
z
" transform="scale(0.015625)"/>
      <path id="MicrosoftSansSerif-36" d="M 884 2472 
Q 1338 2969 1925 2969 
Q 2500 2969 2895 2551 
Q 3291 2134 3291 1491 
Q 3291 838 2898 380 
Q 2506 -78 1856 -78 
Q 1113 -78 700 495 
Q 288 1069 288 2144 
Q 288 4659 1906 4659 
Q 2422 4659 2778 4371 
Q 3134 4084 3213 3519 
L 2606 3519 
Q 2528 4197 1875 4197 
Q 1453 4197 1192 3751 
Q 931 3306 884 2472 
z
M 878 2016 
Q 891 1228 1150 806 
Q 1409 384 1844 384 
Q 2225 384 2453 690 
Q 2681 997 2681 1453 
Q 2681 1916 2448 2212 
Q 2216 2509 1825 2509 
Q 1341 2509 878 2016 
z
" transform="scale(0.015625)"/>
     </defs>
     <use xlink:href="#MicrosoftSansSerif-70"/>
     <use xlink:href="#MicrosoftSansSerif-69" transform="translate(55.615234 0)"/>
     <use xlink:href="#MicrosoftSansSerif-43" transform="translate(78.417969 0)"/>
     <use xlink:href="#MicrosoftSansSerif-6f" transform="translate(150.634766 0)"/>
     <use xlink:href="#MicrosoftSansSerif-6e" transform="translate(206.25 0)"/>
     <use xlink:href="#MicrosoftSansSerif-74" transform="translate(261.865234 0)"/>
     <use xlink:href="#MicrosoftSansSerif-72" transform="translate(289.648438 0)"/>
     <use xlink:href="#MicrosoftSansSerif-6f" transform="translate(322.949219 0)"/>
     <use xlink:href="#MicrosoftSansSerif-6c" transform="translate(378.564453 0)"/>
     <use xlink:href="#MicrosoftSansSerif-20" transform="translate(401.367188 0)"/>
     <use xlink:href="#MicrosoftSansSerif-31" transform="translate(427.929688 0)"/>
     <use xlink:href="#MicrosoftSansSerif-36" transform="translate(483.544922 0)"/>
     <use xlink:href="#MicrosoftSansSerif-2e" transform="translate(539.160156 0)"/>
     <use xlink:href="#MicrosoftSansSerif-38" transform="translate(566.943359 0)"/>
     <use xlink:href="#MicrosoftSansSerif-25" transform="translate(622.558594 0)"/>
    </g>
   </g>
   <g id="text_4">
    <!-- SRESB1 6.9% -->
    <g transform="translate(164.044081 182.692029) scale(0.1 -0.1)">
     <defs>
      <path id="MicrosoftSansSerif-39" d="M 2675 2113 
Q 2222 1613 1631 1613 
Q 1059 1613 664 2030 
Q 269 2447 269 3091 
Q 269 3744 661 4201 
Q 1053 4659 1703 4659 
Q 2447 4659 2859 4087 
Q 3272 3516 3272 2438 
Q 3272 -78 1650 -78 
Q 1138 -78 780 209 
Q 422 497 347 1063 
L 953 1063 
Q 1028 384 1684 384 
Q 2106 384 2365 829 
Q 2625 1275 2675 2113 
z
M 2681 2566 
Q 2669 3356 2409 3776 
Q 2150 4197 1716 4197 
Q 1334 4197 1106 3890 
Q 878 3584 878 3128 
Q 878 2666 1111 2370 
Q 1344 2075 1734 2075 
Q 2219 2075 2681 2566 
z
" transform="scale(0.015625)"/>
     </defs>
     <use xlink:href="#MicrosoftSansSerif-53"/>
     <use xlink:href="#MicrosoftSansSerif-52" transform="translate(66.699219 0)"/>
     <use xlink:href="#MicrosoftSansSerif-45" transform="translate(138.916016 0)"/>
     <use xlink:href="#MicrosoftSansSerif-53" transform="translate(205.615234 0)"/>
     <use xlink:href="#MicrosoftSansSerif-42" transform="translate(272.314453 0)"/>
     <use xlink:href="#MicrosoftSansSerif-31" transform="translate(339.013672 0)"/>
     <use xlink:href="#MicrosoftSansSerif-20" transform="translate(394.628906 0)"/>
     <use xlink:href="#MicrosoftSansSerif-36" transform="translate(421.191406 0)"/>
     <use xlink:href="#MicrosoftSansSerif-2e" transform="translate(476.806641 0)"/>
     <use xlink:href="#MicrosoftSansSerif-39" transform="translate(504.589844 0)"/>
     <use xlink:href="#MicrosoftSansSerif-25" transform="translate(560.205078 0)"/>
    </g>
   </g>
   <g id="text_5">
    <!-- SRESA2 6.8% -->
    <g transform="translate(188.933875 169.861943) scale(0.1 -0.1)">
     <use xlink:href="#MicrosoftSansSerif-53"/>
     <use xlink:href="#MicrosoftSansSerif-52" transform="translate(66.699219 0)"/>
     <use xlink:href="#MicrosoftSansSerif-45" transform="translate(138.916016 0)"/>
     <use xlink:href="#MicrosoftSansSerif-53" transform="translate(205.615234 0)"/>
     <use xlink:href="#MicrosoftSansSerif-41" transform="translate(272.314453 0)"/>
     <use xlink:href="#MicrosoftSansSerif-32" transform="translate(339.013672 0)"/>
     <use xlink:href="#MicrosoftSansSerif-20" transform="translate(394.628906 0)"/>
     <use xlink:href="#MicrosoftSansSerif-36" transform="translate(421.191406 0)"/>
     <use xlink:href="#MicrosoftSansSerif-2e" transform="translate(476.806641 0)"/>
     <use xlink:href="#MicrosoftSansSerif-38" transform="translate(504.589844 0)"/>
     <use xlink:href="#MicrosoftSansSerif-25" transform="translate(560.205078 0)"/>
    </g>
   </g>
   <g id="text_6">
    <!-- 1pctCO2 4.9% -->
    <g transform="translate(204.2961 151.530298) scale(0.1 -0.1)">
     <defs>
      <path id="MicrosoftSansSerif-4f" d="M 2497 4659 
Q 3459 4659 4071 4009 
Q 4684 3359 4684 2291 
Q 4684 1222 4071 572 
Q 3459 -78 2497 -78 
Q 1531 -78 915 573 
Q 300 1225 300 2291 
Q 300 3359 915 4009 
Q 1531 4659 2497 4659 
z
M 2491 441 
Q 3178 441 3617 928 
Q 4056 1416 4056 2291 
Q 4056 3166 3618 3653 
Q 3181 4141 2503 4141 
Q 1813 4141 1370 3653 
Q 928 3166 928 2291 
Q 928 1419 1368 930 
Q 1809 441 2491 441 
z
" transform="scale(0.015625)"/>
     </defs>
     <use xlink:href="#MicrosoftSansSerif-31"/>
     <use xlink:href="#MicrosoftSansSerif-70" transform="translate(55.615234 0)"/>
     <use xlink:href="#MicrosoftSansSerif-63" transform="translate(111.230469 0)"/>
     <use xlink:href="#MicrosoftSansSerif-74" transform="translate(161.230469 0)"/>
     <use xlink:href="#MicrosoftSansSerif-43" transform="translate(189.013672 0)"/>
     <use xlink:href="#MicrosoftSansSerif-4f" transform="translate(261.230469 0)"/>
     <use xlink:href="#MicrosoftSansSerif-32" transform="translate(339.013672 0)"/>
     <use xlink:href="#MicrosoftSansSerif-20" transform="translate(394.628906 0)"/>
     <use xlink:href="#MicrosoftSansSerif-34" transform="translate(421.191406 0)"/>
     <use xlink:href="#MicrosoftSansSerif-2e" transform="translate(476.806641 0)"/>
     <use xlink:href="#MicrosoftSansSerif-39" transform="translate(504.589844 0)"/>
     <use xlink:href="#MicrosoftSansSerif-25" transform="translate(560.205078 0)"/>
    </g>
   </g>
   <g id="text_7">
    <!-- other 5.7% -->
    <g transform="translate(211.657952 131.021013) scale(0.1 -0.1)">
     <defs>
      <path id="MicrosoftSansSerif-65" d="M 1844 -78 
Q 1113 -78 669 380 
Q 225 838 225 1656 
Q 225 2469 654 2930 
Q 1084 3391 1778 3391 
Q 2488 3391 2911 2937 
Q 3334 2484 3334 1656 
L 3334 1516 
L 838 1516 
Q 875 941 1154 662 
Q 1434 384 1844 384 
Q 2153 384 2401 542 
Q 2650 700 2663 991 
L 3272 991 
Q 3203 478 2808 200 
Q 2413 -78 1844 -78 
z
M 2713 1978 
Q 2641 2456 2391 2693 
Q 2141 2931 1778 2931 
Q 1425 2931 1172 2695 
Q 919 2459 850 1978 
L 2713 1978 
z
" transform="scale(0.015625)"/>
      <path id="MicrosoftSansSerif-37" d="M 3272 4166 
L 1606 0 
L 947 0 
L 2656 4038 
L 306 4038 
L 306 4581 
L 3272 4581 
L 3272 4166 
z
" transform="scale(0.015625)"/>
     </defs>
     <use xlink:href="#MicrosoftSansSerif-6f"/>
     <use xlink:href="#MicrosoftSansSerif-74" transform="translate(55.615234 0)"/>
     <use xlink:href="#MicrosoftSansSerif-68" transform="translate(83.398438 0)"/>
     <use xlink:href="#MicrosoftSansSerif-65" transform="translate(139.013672 0)"/>
     <use xlink:href="#MicrosoftSansSerif-72" transform="translate(194.628906 0)"/>
     <use xlink:href="#MicrosoftSansSerif-20" transform="translate(227.929688 0)"/>
     <use xlink:href="#MicrosoftSansSerif-35" transform="translate(254.492188 0)"/>
     <use xlink:href="#MicrosoftSansSerif-2e" transform="translate(310.107422 0)"/>
     <use xlink:href="#MicrosoftSansSerif-37" transform="translate(337.890625 0)"/>
     <use xlink:href="#MicrosoftSansSerif-25" transform="translate(393.505859 0)"/>
    </g>
   </g>
   <g id="text_8">
    <!-- CMIP3 -->
    <g transform="translate(122.692041 36.253666) scale(0.16 -0.16)">
     <defs>
      <path id="MicrosoftSansSerif-4d" d="M 4819 0 
L 4244 0 
L 4244 3897 
L 2938 0 
L 2394 0 
L 1088 3897 
L 1088 0 
L 513 0 
L 513 4581 
L 1422 4581 
L 2663 763 
L 3909 4581 
L 4819 4581 
L 4819 0 
z
" transform="scale(0.015625)"/>
      <path id="MicrosoftSansSerif-49" d="M 1197 0 
L 588 0 
L 588 4581 
L 1197 4581 
L 1197 0 
z
" transform="scale(0.015625)"/>
      <path id="MicrosoftSansSerif-50" d="M 513 4581 
L 2222 4581 
Q 2784 4581 3164 4476 
Q 3544 4372 3766 4023 
Q 3988 3675 3988 3244 
Q 3988 2550 3547 2190 
Q 3106 1831 2272 1831 
L 1119 1831 
L 1119 0 
L 513 0 
L 513 4581 
z
M 1119 2375 
L 2278 2375 
Q 2863 2375 3111 2594 
Q 3359 2813 3359 3225 
Q 3359 3500 3221 3712 
Q 3084 3925 2873 3981 
Q 2663 4038 2266 4038 
L 1119 4038 
L 1119 2375 
z
" transform="scale(0.015625)"/>
     </defs>
     <use xlink:href="#MicrosoftSansSerif-43"/>
     <use xlink:href="#MicrosoftSansSerif-4d" transform="translate(72.216797 0)"/>
     <use xlink:href="#MicrosoftSansSerif-49" transform="translate(155.517578 0)"/>
     <use xlink:href="#MicrosoftSansSerif-50" transform="translate(183.300781 0)"/>
     <use xlink:href="#MicrosoftSansSerif-33" transform="translate(250 0)"/>
    </g>
   </g>
  </g>
  <g id="axes_2">
   <g id="patch_9">
    <path d="M 448.332933 116.76 
C 448.332933 107.164276 446.015732 97.708956 441.578979 89.20054 
C 437.142226 80.692124 430.715757 73.379602 422.847723 67.886701 
C 414.979688 62.393799 405.900339 58.881264 396.384105 57.648698 
C 386.867872 56.416132 377.193236 57.499606 368.185405 60.806704 
C 359.177573 64.113802 351.100151 69.547745 344.642108 76.64504 
C 338.184065 83.742335 333.534389 92.295288 331.089678 101.574368 
C 328.644968 110.853447 328.476764 120.58711 330.599415 129.945116 
C 332.722066 139.303122 337.073453 148.011619 343.282423 155.327808 
L 388.727865 116.76 
z
" style="fill: #1f77b4"/>
   </g>
   <g id="patch_10">
    <path d="M 343.28242 155.327805 
C 353.423528 167.277335 367.879396 174.757748 383.491493 176.134612 
C 399.10359 177.511472 414.645564 172.676639 426.72158 162.686483 
L 388.727865 116.76 
z
" style="fill: #ffbb78"/>
   </g>
   <g id="patch_11">
    <path d="M 426.72158 162.686483 
C 430.091548 159.898599 433.144452 156.748247 435.825103 153.29237 
C 438.505755 149.836493 440.797908 146.096043 442.660129 142.138629 
L 388.727865 116.76 
z
" style="fill: #d62728"/>
   </g>
   <g id="patch_12">
    <path d="M 442.660129 142.138629 
C 443.510758 140.330955 444.269974 138.481641 444.934884 136.597723 
C 445.599793 134.713805 446.169567 132.797662 446.642046 130.856523 
L 388.727865 116.76 
z
" style="fill: #8c564b"/>
   </g>
   <g id="patch_13">
    <path d="M 446.642046 130.856523 
C 447.203162 128.551231 447.62613 126.214492 447.9087 123.858781 
C 448.191271 121.50307 448.332933 119.132587 448.332933 116.75999 
L 388.727865 116.76 
z
" style="fill: #f7b6d2"/>
   </g>
   <g id="matplotlib.axis_3"/>
   <g id="matplotlib.axis_4"/>
   <g id="text_9">
    <!-- CMIP/DECK 61.2% -->
    <g transform="translate(279.559277 57.794189) scale(0.1 -0.1)">
     <defs>
      <path id="MicrosoftSansSerif-2f" d="M 1778 4581 
L 453 0 
L 0 0 
L 1325 4581 
L 1778 4581 
z
" transform="scale(0.015625)"/>
      <path id="MicrosoftSansSerif-44" d="M 513 4581 
L 1966 4581 
Q 4300 4581 4300 2316 
Q 4300 0 1966 0 
L 513 0 
L 513 4581 
z
M 1119 544 
L 1953 544 
Q 2950 544 3312 1008 
Q 3675 1472 3675 2316 
Q 3675 3138 3314 3588 
Q 2953 4038 1953 4038 
L 1119 4038 
L 1119 544 
z
" transform="scale(0.015625)"/>
      <path id="MicrosoftSansSerif-4b" d="M 4256 0 
L 3456 0 
L 1831 2284 
L 1119 1588 
L 1119 0 
L 513 0 
L 513 4581 
L 1119 4581 
L 1119 2309 
L 3353 4581 
L 4172 4581 
L 2253 2700 
L 4256 0 
z
" transform="scale(0.015625)"/>
     </defs>
     <use xlink:href="#MicrosoftSansSerif-43"/>
     <use xlink:href="#MicrosoftSansSerif-4d" transform="translate(72.216797 0)"/>
     <use xlink:href="#MicrosoftSansSerif-49" transform="translate(155.517578 0)"/>
     <use xlink:href="#MicrosoftSansSerif-50" transform="translate(183.300781 0)"/>
     <use xlink:href="#MicrosoftSansSerif-2f" transform="translate(250 0)"/>
     <use xlink:href="#MicrosoftSansSerif-44" transform="translate(277.783203 0)"/>
     <use xlink:href="#MicrosoftSansSerif-45" transform="translate(350 0)"/>
     <use xlink:href="#MicrosoftSansSerif-43" transform="translate(416.699219 0)"/>
     <use xlink:href="#MicrosoftSansSerif-4b" transform="translate(488.916016 0)"/>
     <use xlink:href="#MicrosoftSansSerif-20" transform="translate(555.615234 0)"/>
     <use xlink:href="#MicrosoftSansSerif-36" transform="translate(582.177734 0)"/>
     <use xlink:href="#MicrosoftSansSerif-31" transform="translate(637.792969 0)"/>
     <use xlink:href="#MicrosoftSansSerif-2e" transform="translate(693.408203 0)"/>
     <use xlink:href="#MicrosoftSansSerif-32" transform="translate(721.191406 0)"/>
     <use xlink:href="#MicrosoftSansSerif-25" transform="translate(776.806641 0)"/>
    </g>
   </g>
   <g id="text_10">
    <!-- ScenarioMIP 24.8% -->
    <g transform="translate(294.656919 184.654885) scale(0.1 -0.1)">
     <use xlink:href="#MicrosoftSansSerif-53"/>
     <use xlink:href="#MicrosoftSansSerif-63" transform="translate(66.699219 0)"/>
     <use xlink:href="#MicrosoftSansSerif-65" transform="translate(116.699219 0)"/>
     <use xlink:href="#MicrosoftSansSerif-6e" transform="translate(172.314453 0)"/>
     <use xlink:href="#MicrosoftSansSerif-61" transform="translate(227.929688 0)"/>
     <use xlink:href="#MicrosoftSansSerif-72" transform="translate(283.544922 0)"/>
     <use xlink:href="#MicrosoftSansSerif-69" transform="translate(316.845703 0)"/>
     <use xlink:href="#MicrosoftSansSerif-6f" transform="translate(339.648438 0)"/>
     <use xlink:href="#MicrosoftSansSerif-4d" transform="translate(395.263672 0)"/>
     <use xlink:href="#MicrosoftSansSerif-49" transform="translate(478.564453 0)"/>
     <use xlink:href="#MicrosoftSansSerif-50" transform="translate(506.347656 0)"/>
     <use xlink:href="#MicrosoftSansSerif-20" transform="translate(573.046875 0)"/>
     <use xlink:href="#MicrosoftSansSerif-32" transform="translate(599.609375 0)"/>
     <use xlink:href="#MicrosoftSansSerif-34" transform="translate(655.224609 0)"/>
     <use xlink:href="#MicrosoftSansSerif-2e" transform="translate(710.839844 0)"/>
     <use xlink:href="#MicrosoftSansSerif-38" transform="translate(738.623047 0)"/>
     <use xlink:href="#MicrosoftSansSerif-25" transform="translate(794.238281 0)"/>
    </g>
   </g>
   <g id="text_11">
    <!-- DAMIP 7.0% -->
    <g transform="translate(440.534829 159.52842) scale(0.1 -0.1)">
     <use xlink:href="#MicrosoftSansSerif-44"/>
     <use xlink:href="#MicrosoftSansSerif-41" transform="translate(72.216797 0)"/>
     <use xlink:href="#MicrosoftSansSerif-4d" transform="translate(138.916016 0)"/>
     <use xlink:href="#MicrosoftSansSerif-49" transform="translate(222.216797 0)"/>
     <use xlink:href="#MicrosoftSansSerif-50" transform="translate(250 0)"/>
     <use xlink:href="#MicrosoftSansSerif-20" transform="translate(316.699219 0)"/>
     <use xlink:href="#MicrosoftSansSerif-37" transform="translate(343.261719 0)"/>
     <use xlink:href="#MicrosoftSansSerif-2e" transform="translate(398.876953 0)"/>
     <use xlink:href="#MicrosoftSansSerif-30" transform="translate(426.660156 0)"/>
     <use xlink:href="#MicrosoftSansSerif-25" transform="translate(482.275391 0)"/>
    </g>
   </g>
   <g id="text_12">
    <!-- DCPP 3.2% -->
    <g transform="translate(450.555584 141.164309) scale(0.1 -0.1)">
     <use xlink:href="#MicrosoftSansSerif-44"/>
     <use xlink:href="#MicrosoftSansSerif-43" transform="translate(72.216797 0)"/>
     <use xlink:href="#MicrosoftSansSerif-50" transform="translate(144.433594 0)"/>
     <use xlink:href="#MicrosoftSansSerif-50" transform="translate(211.132812 0)"/>
     <use xlink:href="#MicrosoftSansSerif-20" transform="translate(277.832031 0)"/>
     <use xlink:href="#MicrosoftSansSerif-33" transform="translate(304.394531 0)"/>
     <use xlink:href="#MicrosoftSansSerif-2e" transform="translate(360.009766 0)"/>
     <use xlink:href="#MicrosoftSansSerif-32" transform="translate(387.792969 0)"/>
     <use xlink:href="#MicrosoftSansSerif-25" transform="translate(443.408203 0)"/>
    </g>
   </g>
   <g id="text_13">
    <!-- other 3.8% -->
    <g transform="translate(453.826785 127.151472) scale(0.1 -0.1)">
     <use xlink:href="#MicrosoftSansSerif-6f"/>
     <use xlink:href="#MicrosoftSansSerif-74" transform="translate(55.615234 0)"/>
     <use xlink:href="#MicrosoftSansSerif-68" transform="translate(83.398438 0)"/>
     <use xlink:href="#MicrosoftSansSerif-65" transform="translate(139.013672 0)"/>
     <use xlink:href="#MicrosoftSansSerif-72" transform="translate(194.628906 0)"/>
     <use xlink:href="#MicrosoftSansSerif-20" transform="translate(227.929688 0)"/>
     <use xlink:href="#MicrosoftSansSerif-33" transform="translate(254.492188 0)"/>
     <use xlink:href="#MicrosoftSansSerif-2e" transform="translate(310.107422 0)"/>
     <use xlink:href="#MicrosoftSansSerif-38" transform="translate(337.890625 0)"/>
     <use xlink:href="#MicrosoftSansSerif-25" transform="translate(393.505859 0)"/>
    </g>
   </g>
   <g id="text_14">
    <!-- CMIP5 -->
    <g transform="translate(364.279115 36.253666) scale(0.16 -0.16)">
     <use xlink:href="#MicrosoftSansSerif-43"/>
     <use xlink:href="#MicrosoftSansSerif-4d" transform="translate(72.216797 0)"/>
     <use xlink:href="#MicrosoftSansSerif-49" transform="translate(155.517578 0)"/>
     <use xlink:href="#MicrosoftSansSerif-50" transform="translate(183.300781 0)"/>
     <use xlink:href="#MicrosoftSansSerif-35" transform="translate(250 0)"/>
    </g>
   </g>
  </g>
  <g id="axes_3">
   <g id="patch_14">
    <path d="M 689.920008 116.76 
C 689.920008 102.700022 684.945188 89.0836 675.881318 78.335147 
C 666.817448 67.586695 654.236412 60.384383 640.378271 58.010588 
C 626.520129 55.636793 612.259261 58.24129 600.134822 65.360345 
C 588.010383 72.479401 578.787363 83.66384 574.107927 96.922266 
L 630.31494 116.76 
z
" style="fill: #1f77b4"/>
   </g>
   <g id="patch_15">
    <path d="M 574.107926 96.922272 
C 570.08933 108.308311 569.623801 120.651085 572.773304 132.307483 
C 575.922807 143.963883 582.541094 154.392628 591.747125 162.205438 
C 600.953156 170.018249 612.319464 174.852322 624.332895 176.064125 
C 636.346326 177.275926 648.44904 174.809199 659.029911 168.992313 
L 630.31494 116.76 
z
" style="fill: #ffbb78"/>
   </g>
   <g id="patch_16">
    <path d="M 659.029911 168.992313 
C 662.972331 166.824947 666.656723 164.218182 670.012641 161.221855 
C 673.368558 158.225529 676.374477 154.858865 678.972918 151.186231 
L 630.31494 116.76 
z
" style="fill: #d62728"/>
   </g>
   <g id="patch_17">
    <path d="M 678.972918 151.186231 
C 680.48761 149.045369 681.859355 146.80688 683.07922 144.485347 
C 684.299085 142.163813 685.364412 139.764286 686.268243 137.302441 
L 630.31494 116.76 
z
" style="fill: #8c564b"/>
   </g>
   <g id="patch_18">
    <path d="M 686.268243 137.302441 
C 687.473691 134.019051 688.3878 130.635906 688.999973 127.192215 
C 689.612145 123.748526 689.920008 120.257639 689.920008 116.759961 
L 630.31494 116.76 
z
" style="fill: #f7b6d2"/>
   </g>
   <g id="matplotlib.axis_5"/>
   <g id="matplotlib.axis_6"/>
   <g id="text_15">
    <!-- CMIP/DECK 44.6 -->
    <g transform="translate(641.384601 54.718459) scale(0.1 -0.1)">
     <use xlink:href="#MicrosoftSansSerif-43"/>
     <use xlink:href="#MicrosoftSansSerif-4d" transform="translate(72.216797 0)"/>
     <use xlink:href="#MicrosoftSansSerif-49" transform="translate(155.517578 0)"/>
     <use xlink:href="#MicrosoftSansSerif-50" transform="translate(183.300781 0)"/>
     <use xlink:href="#MicrosoftSansSerif-2f" transform="translate(250 0)"/>
     <use xlink:href="#MicrosoftSansSerif-44" transform="translate(277.783203 0)"/>
     <use xlink:href="#MicrosoftSansSerif-45" transform="translate(350 0)"/>
     <use xlink:href="#MicrosoftSansSerif-43" transform="translate(416.699219 0)"/>
     <use xlink:href="#MicrosoftSansSerif-4b" transform="translate(488.916016 0)"/>
     <use xlink:href="#MicrosoftSansSerif-20" transform="translate(555.615234 0)"/>
     <use xlink:href="#MicrosoftSansSerif-34" transform="translate(582.177734 0)"/>
     <use xlink:href="#MicrosoftSansSerif-34" transform="translate(637.792969 0)"/>
     <use xlink:href="#MicrosoftSansSerif-2e" transform="translate(693.408203 0)"/>
     <use xlink:href="#MicrosoftSansSerif-36" transform="translate(721.191406 0)"/>
    </g>
   </g>
   <g id="text_16">
    <!-- ScenarioMIP 38.4% -->
    <g transform="translate(499.579408 169.332794) scale(0.1 -0.1)">
     <use xlink:href="#MicrosoftSansSerif-53"/>
     <use xlink:href="#MicrosoftSansSerif-63" transform="translate(66.699219 0)"/>
     <use xlink:href="#MicrosoftSansSerif-65" transform="translate(116.699219 0)"/>
     <use xlink:href="#MicrosoftSansSerif-6e" transform="translate(172.314453 0)"/>
     <use xlink:href="#MicrosoftSansSerif-61" transform="translate(227.929688 0)"/>
     <use xlink:href="#MicrosoftSansSerif-72" transform="translate(283.544922 0)"/>
     <use xlink:href="#MicrosoftSansSerif-69" transform="translate(316.845703 0)"/>
     <use xlink:href="#MicrosoftSansSerif-6f" transform="translate(339.648438 0)"/>
     <use xlink:href="#MicrosoftSansSerif-4d" transform="translate(395.263672 0)"/>
     <use xlink:href="#MicrosoftSansSerif-49" transform="translate(478.564453 0)"/>
     <use xlink:href="#MicrosoftSansSerif-50" transform="translate(506.347656 0)"/>
     <use xlink:href="#MicrosoftSansSerif-20" transform="translate(573.046875 0)"/>
     <use xlink:href="#MicrosoftSansSerif-33" transform="translate(599.609375 0)"/>
     <use xlink:href="#MicrosoftSansSerif-38" transform="translate(655.224609 0)"/>
     <use xlink:href="#MicrosoftSansSerif-2e" transform="translate(710.839844 0)"/>
     <use xlink:href="#MicrosoftSansSerif-34" transform="translate(738.623047 0)"/>
     <use xlink:href="#MicrosoftSansSerif-25" transform="translate(794.238281 0)"/>
    </g>
   </g>
   <g id="text_17">
    <!-- DCPP 7.2% -->
    <g transform="translate(673.982411 168.250854) scale(0.1 -0.1)">
     <use xlink:href="#MicrosoftSansSerif-44"/>
     <use xlink:href="#MicrosoftSansSerif-43" transform="translate(72.216797 0)"/>
     <use xlink:href="#MicrosoftSansSerif-50" transform="translate(144.433594 0)"/>
     <use xlink:href="#MicrosoftSansSerif-50" transform="translate(211.132812 0)"/>
     <use xlink:href="#MicrosoftSansSerif-20" transform="translate(277.832031 0)"/>
     <use xlink:href="#MicrosoftSansSerif-37" transform="translate(304.394531 0)"/>
     <use xlink:href="#MicrosoftSansSerif-2e" transform="translate(360.009766 0)"/>
     <use xlink:href="#MicrosoftSansSerif-32" transform="translate(387.792969 0)"/>
     <use xlink:href="#MicrosoftSansSerif-25" transform="translate(443.408203 0)"/>
    </g>
   </g>
   <g id="text_18">
    <!-- HighResMIP 4.2% -->
    <g transform="translate(688.355662 149.847698) scale(0.1 -0.1)">
     <defs>
      <path id="MicrosoftSansSerif-48" d="M 4109 0 
L 3500 0 
L 3500 2156 
L 1119 2156 
L 1119 0 
L 513 0 
L 513 4581 
L 1119 4581 
L 1119 2700 
L 3500 2700 
L 3500 4581 
L 4109 4581 
L 4109 0 
z
" transform="scale(0.015625)"/>
      <path id="MicrosoftSansSerif-67" d="M 3122 256 
Q 3122 -1344 1678 -1344 
Q 1053 -1344 692 -1072 
Q 331 -800 331 -341 
L 941 -341 
Q 941 -884 1672 -884 
Q 2084 -884 2309 -657 
Q 2534 -431 2534 231 
L 2534 397 
Q 2141 -78 1588 -78 
Q 938 -78 581 384 
Q 225 847 225 1631 
Q 225 2444 623 2917 
Q 1022 3391 1625 3391 
Q 2163 3391 2534 3059 
L 2534 3316 
L 3122 3316 
L 3122 256 
z
M 2534 953 
L 2534 2528 
Q 2153 2931 1663 2931 
Q 1284 2931 1057 2604 
Q 831 2278 831 1631 
Q 831 1019 1045 701 
Q 1259 384 1638 384 
Q 2131 384 2534 953 
z
" transform="scale(0.015625)"/>
     </defs>
     <use xlink:href="#MicrosoftSansSerif-48"/>
     <use xlink:href="#MicrosoftSansSerif-69" transform="translate(72.216797 0)"/>
     <use xlink:href="#MicrosoftSansSerif-67" transform="translate(95.019531 0)"/>
     <use xlink:href="#MicrosoftSansSerif-68" transform="translate(150.634766 0)"/>
     <use xlink:href="#MicrosoftSansSerif-52" transform="translate(206.25 0)"/>
     <use xlink:href="#MicrosoftSansSerif-65" transform="translate(278.466797 0)"/>
     <use xlink:href="#MicrosoftSansSerif-73" transform="translate(334.082031 0)"/>
     <use xlink:href="#MicrosoftSansSerif-4d" transform="translate(384.082031 0)"/>
     <use xlink:href="#MicrosoftSansSerif-49" transform="translate(467.382812 0)"/>
     <use xlink:href="#MicrosoftSansSerif-50" transform="translate(495.166016 0)"/>
     <use xlink:href="#MicrosoftSansSerif-20" transform="translate(561.865234 0)"/>
     <use xlink:href="#MicrosoftSansSerif-34" transform="translate(588.427734 0)"/>
     <use xlink:href="#MicrosoftSansSerif-2e" transform="translate(644.042969 0)"/>
     <use xlink:href="#MicrosoftSansSerif-32" transform="translate(671.826172 0)"/>
     <use xlink:href="#MicrosoftSansSerif-25" transform="translate(727.441406 0)"/>
    </g>
   </g>
   <g id="text_19">
    <!-- other 5.6% -->
    <g transform="translate(694.868475 130.81825) scale(0.1 -0.1)">
     <use xlink:href="#MicrosoftSansSerif-6f"/>
     <use xlink:href="#MicrosoftSansSerif-74" transform="translate(55.615234 0)"/>
     <use xlink:href="#MicrosoftSansSerif-68" transform="translate(83.398438 0)"/>
     <use xlink:href="#MicrosoftSansSerif-65" transform="translate(139.013672 0)"/>
     <use xlink:href="#MicrosoftSansSerif-72" transform="translate(194.628906 0)"/>
     <use xlink:href="#MicrosoftSansSerif-20" transform="translate(227.929688 0)"/>
     <use xlink:href="#MicrosoftSansSerif-35" transform="translate(254.492188 0)"/>
     <use xlink:href="#MicrosoftSansSerif-2e" transform="translate(310.107422 0)"/>
     <use xlink:href="#MicrosoftSansSerif-36" transform="translate(337.890625 0)"/>
     <use xlink:href="#MicrosoftSansSerif-25" transform="translate(393.505859 0)"/>
    </g>
   </g>
   <g id="text_20">
    <!-- CMIP6 -->
    <g transform="translate(605.86619 36.253666) scale(0.16 -0.16)">
     <use xlink:href="#MicrosoftSansSerif-43"/>
     <use xlink:href="#MicrosoftSansSerif-4d" transform="translate(72.216797 0)"/>
     <use xlink:href="#MicrosoftSansSerif-49" transform="translate(155.517578 0)"/>
     <use xlink:href="#MicrosoftSansSerif-50" transform="translate(183.300781 0)"/>
     <use xlink:href="#MicrosoftSansSerif-36" transform="translate(250 0)"/>
    </g>
   </g>
  </g>
 </g>
</svg>
